G75*
G70*
%OFA0B0*%
%FSLAX24Y24*%
%IPPOS*%
%LPD*%
%AMOC8*
5,1,8,0,0,1.08239X$1,22.5*
%
%ADD10C,0.0000*%
%ADD11C,0.0030*%
%ADD12C,0.0040*%
%ADD13C,0.0080*%
%ADD14C,0.0100*%
%ADD15C,0.0050*%
%ADD16C,0.0010*%
%ADD17C,0.0354*%
%ADD18C,0.0060*%
%ADD19C,0.0070*%
D10*
X000000Y000000D02*
X000000Y019496D01*
X019370Y019496D01*
X019370Y000000D01*
X000000Y000000D01*
X000003Y-000007D02*
X000000Y-000013D01*
X000005Y-000012D02*
X000005Y-000013D01*
X000007Y-000013D01*
X000008Y-000012D01*
X000008Y-000007D01*
X000010Y-000009D02*
X000013Y-000009D01*
X000014Y-000010D02*
X000015Y-000009D01*
X000016Y-000009D01*
X000017Y-000010D01*
X000017Y-000011D01*
X000014Y-000011D01*
X000014Y-000012D02*
X000014Y-000010D01*
X000014Y-000012D02*
X000015Y-000013D01*
X000016Y-000013D01*
X000018Y-000013D02*
X000018Y-000009D01*
X000018Y-000011D02*
X000020Y-000009D01*
X000021Y-000009D01*
X000022Y-000010D02*
X000023Y-000009D01*
X000026Y-000009D01*
X000025Y-000011D02*
X000023Y-000011D01*
X000022Y-000010D01*
X000022Y-000013D02*
X000025Y-000013D01*
X000026Y-000012D01*
X000025Y-000011D01*
X000027Y-000013D02*
X000030Y-000007D01*
X000032Y-000009D02*
X000031Y-000010D01*
X000031Y-000012D01*
X000032Y-000013D01*
X000035Y-000013D01*
X000036Y-000012D02*
X000037Y-000013D01*
X000038Y-000012D01*
X000039Y-000013D01*
X000039Y-000012D01*
X000039Y-000009D01*
X000041Y-000010D02*
X000041Y-000012D01*
X000041Y-000013D01*
X000043Y-000013D01*
X000044Y-000012D01*
X000044Y-000010D01*
X000043Y-000009D01*
X000041Y-000009D01*
X000041Y-000010D01*
X000045Y-000010D02*
X000045Y-000012D01*
X000046Y-000013D01*
X000048Y-000013D01*
X000049Y-000012D01*
X000049Y-000010D01*
X000048Y-000009D01*
X000046Y-000009D01*
X000045Y-000010D01*
X000050Y-000010D02*
X000051Y-000009D01*
X000053Y-000009D01*
X000053Y-000007D02*
X000053Y-000013D01*
X000051Y-000013D01*
X000050Y-000012D01*
X000050Y-000010D01*
X000054Y-000012D02*
X000055Y-000011D01*
X000058Y-000011D01*
X000058Y-000010D02*
X000058Y-000013D01*
X000055Y-000013D01*
X000054Y-000012D01*
X000055Y-000009D02*
X000057Y-000009D01*
X000058Y-000010D01*
X000059Y-000013D02*
X000061Y-000013D01*
X000060Y-000013D02*
X000060Y-000007D01*
X000059Y-000007D01*
X000062Y-000007D02*
X000063Y-000007D01*
X000063Y-000013D01*
X000062Y-000013D02*
X000064Y-000013D01*
X000065Y-000013D02*
X000069Y-000007D01*
X000070Y-000007D02*
X000072Y-000007D01*
X000073Y-000008D01*
X000073Y-000012D01*
X000072Y-000013D01*
X000070Y-000013D01*
X000070Y-000007D01*
X000074Y-000010D02*
X000074Y-000012D01*
X000075Y-000013D01*
X000077Y-000013D01*
X000078Y-000012D01*
X000078Y-000010D01*
X000077Y-000009D01*
X000075Y-000009D01*
X000074Y-000010D01*
X000079Y-000009D02*
X000079Y-000012D01*
X000080Y-000013D01*
X000081Y-000012D01*
X000082Y-000013D01*
X000082Y-000012D01*
X000082Y-000009D01*
X000084Y-000009D02*
X000086Y-000009D01*
X000087Y-000010D01*
X000087Y-000013D01*
X000088Y-000013D02*
X000090Y-000013D01*
X000089Y-000013D02*
X000089Y-000007D01*
X000088Y-000007D01*
X000091Y-000010D02*
X000091Y-000012D01*
X000092Y-000013D01*
X000094Y-000013D01*
X000095Y-000012D01*
X000095Y-000010D01*
X000094Y-000009D01*
X000092Y-000009D01*
X000091Y-000010D01*
X000096Y-000012D02*
X000097Y-000011D01*
X000099Y-000011D01*
X000099Y-000010D02*
X000099Y-000013D01*
X000097Y-000013D01*
X000096Y-000012D01*
X000097Y-000009D02*
X000098Y-000009D01*
X000099Y-000010D01*
X000101Y-000010D02*
X000101Y-000009D01*
X000104Y-000009D01*
X000105Y-000010D02*
X000106Y-000009D01*
X000108Y-000009D01*
X000108Y-000011D02*
X000106Y-000011D01*
X000105Y-000010D01*
X000105Y-000013D02*
X000108Y-000013D01*
X000108Y-000012D01*
X000108Y-000011D01*
X000110Y-000013D02*
X000113Y-000007D01*
X000114Y-000007D02*
X000114Y-000012D01*
X000115Y-000013D01*
X000117Y-000013D01*
X000118Y-000012D01*
X000118Y-000007D01*
X000119Y-000009D02*
X000121Y-000009D01*
X000122Y-000010D01*
X000122Y-000013D01*
X000124Y-000012D02*
X000125Y-000013D01*
X000124Y-000012D02*
X000124Y-000008D01*
X000124Y-000009D02*
X000125Y-000009D01*
X000127Y-000009D02*
X000127Y-000009D01*
X000127Y-000013D01*
X000128Y-000013D01*
X000131Y-000012D02*
X000131Y-000013D01*
X000131Y-000012D02*
X000131Y-000008D01*
X000130Y-000009D02*
X000131Y-000009D01*
X000133Y-000007D02*
X000134Y-000007D01*
X000134Y-000013D01*
X000133Y-000013D01*
X000136Y-000012D02*
X000136Y-000010D01*
X000137Y-000009D01*
X000138Y-000009D01*
X000139Y-000010D01*
X000139Y-000011D01*
X000136Y-000011D01*
X000136Y-000012D02*
X000137Y-000013D01*
X000138Y-000013D01*
X000140Y-000012D02*
X000140Y-000010D01*
X000141Y-000009D01*
X000144Y-000009D01*
X000145Y-000010D02*
X000148Y-000010D01*
X000150Y-000009D02*
X000151Y-000007D01*
X000151Y-000013D01*
X000150Y-000013D02*
X000153Y-000013D01*
X000154Y-000013D02*
X000155Y-000013D01*
X000155Y-000012D01*
X000154Y-000012D01*
X000154Y-000013D01*
X000157Y-000013D02*
X000159Y-000013D01*
X000160Y-000012D01*
X000160Y-000010D01*
X000159Y-000009D01*
X000157Y-000009D01*
X000157Y-000007D02*
X000157Y-000013D01*
X000161Y-000013D02*
X000161Y-000009D01*
X000162Y-000009D01*
X000163Y-000010D01*
X000164Y-000009D01*
X000164Y-000010D01*
X000164Y-000013D01*
X000163Y-000013D02*
X000163Y-000010D01*
X000166Y-000009D02*
X000168Y-000009D01*
X000169Y-000010D01*
X000169Y-000012D01*
X000168Y-000013D01*
X000166Y-000013D01*
X000166Y-000014D02*
X000166Y-000009D01*
X000144Y-000007D02*
X000144Y-000013D01*
X000141Y-000013D01*
X000140Y-000012D01*
X000127Y-000007D02*
X000127Y-000007D01*
X000119Y-000009D02*
X000119Y-000013D01*
X000104Y-000013D02*
X000101Y-000013D01*
X000101Y-000012D01*
X000101Y-000010D01*
X000104Y-000007D02*
X000104Y-000013D01*
X000084Y-000013D02*
X000084Y-000009D01*
X000036Y-000009D02*
X000036Y-000012D01*
X000035Y-000009D02*
X000032Y-000009D01*
X000013Y-000012D02*
X000012Y-000011D01*
X000010Y-000011D01*
X000009Y-000010D01*
X000010Y-000009D01*
X000009Y-000013D02*
X000012Y-000013D01*
X000013Y-000012D01*
X000005Y-000012D02*
X000005Y-000007D01*
X000900Y001500D02*
X000902Y001549D01*
X000908Y001597D01*
X000918Y001645D01*
X000932Y001692D01*
X000949Y001738D01*
X000970Y001782D01*
X000995Y001824D01*
X001023Y001864D01*
X001055Y001902D01*
X001089Y001937D01*
X001126Y001969D01*
X001165Y001998D01*
X001207Y002024D01*
X001251Y002046D01*
X001296Y002064D01*
X001343Y002079D01*
X001390Y002090D01*
X001439Y002097D01*
X001488Y002100D01*
X001537Y002099D01*
X001585Y002094D01*
X001634Y002085D01*
X001681Y002072D01*
X001727Y002055D01*
X001771Y002035D01*
X001814Y002011D01*
X001855Y001984D01*
X001893Y001953D01*
X001929Y001920D01*
X001961Y001884D01*
X001991Y001845D01*
X002018Y001804D01*
X002041Y001760D01*
X002060Y001715D01*
X002076Y001669D01*
X002088Y001622D01*
X002096Y001573D01*
X002100Y001524D01*
X002100Y001476D01*
X002096Y001427D01*
X002088Y001378D01*
X002076Y001331D01*
X002060Y001285D01*
X002041Y001240D01*
X002018Y001196D01*
X001991Y001155D01*
X001961Y001116D01*
X001929Y001080D01*
X001893Y001047D01*
X001855Y001016D01*
X001814Y000989D01*
X001771Y000965D01*
X001727Y000945D01*
X001681Y000928D01*
X001634Y000915D01*
X001585Y000906D01*
X001537Y000901D01*
X001488Y000900D01*
X001439Y000903D01*
X001390Y000910D01*
X001343Y000921D01*
X001296Y000936D01*
X001251Y000954D01*
X001207Y000976D01*
X001165Y001002D01*
X001126Y001031D01*
X001089Y001063D01*
X001055Y001098D01*
X001023Y001136D01*
X000995Y001176D01*
X000970Y001218D01*
X000949Y001262D01*
X000932Y001308D01*
X000918Y001355D01*
X000908Y001403D01*
X000902Y001451D01*
X000900Y001500D01*
X004185Y002728D02*
X004187Y002763D01*
X004193Y002798D01*
X004203Y002832D01*
X004216Y002865D01*
X004233Y002896D01*
X004254Y002924D01*
X004277Y002951D01*
X004304Y002974D01*
X004332Y002995D01*
X004363Y003012D01*
X004396Y003025D01*
X004430Y003035D01*
X004465Y003041D01*
X004500Y003043D01*
X004535Y003041D01*
X004570Y003035D01*
X004604Y003025D01*
X004637Y003012D01*
X004668Y002995D01*
X004696Y002974D01*
X004723Y002951D01*
X004746Y002924D01*
X004767Y002896D01*
X004784Y002865D01*
X004797Y002832D01*
X004807Y002798D01*
X004813Y002763D01*
X004815Y002728D01*
X004813Y002693D01*
X004807Y002658D01*
X004797Y002624D01*
X004784Y002591D01*
X004767Y002560D01*
X004746Y002532D01*
X004723Y002505D01*
X004696Y002482D01*
X004668Y002461D01*
X004637Y002444D01*
X004604Y002431D01*
X004570Y002421D01*
X004535Y002415D01*
X004500Y002413D01*
X004465Y002415D01*
X004430Y002421D01*
X004396Y002431D01*
X004363Y002444D01*
X004332Y002461D01*
X004304Y002482D01*
X004277Y002505D01*
X004254Y002532D01*
X004233Y002560D01*
X004216Y002591D01*
X004203Y002624D01*
X004193Y002658D01*
X004187Y002693D01*
X004185Y002728D01*
X004185Y006272D02*
X004187Y006307D01*
X004193Y006342D01*
X004203Y006376D01*
X004216Y006409D01*
X004233Y006440D01*
X004254Y006468D01*
X004277Y006495D01*
X004304Y006518D01*
X004332Y006539D01*
X004363Y006556D01*
X004396Y006569D01*
X004430Y006579D01*
X004465Y006585D01*
X004500Y006587D01*
X004535Y006585D01*
X004570Y006579D01*
X004604Y006569D01*
X004637Y006556D01*
X004668Y006539D01*
X004696Y006518D01*
X004723Y006495D01*
X004746Y006468D01*
X004767Y006440D01*
X004784Y006409D01*
X004797Y006376D01*
X004807Y006342D01*
X004813Y006307D01*
X004815Y006272D01*
X004813Y006237D01*
X004807Y006202D01*
X004797Y006168D01*
X004784Y006135D01*
X004767Y006104D01*
X004746Y006076D01*
X004723Y006049D01*
X004696Y006026D01*
X004668Y006005D01*
X004637Y005988D01*
X004604Y005975D01*
X004570Y005965D01*
X004535Y005959D01*
X004500Y005957D01*
X004465Y005959D01*
X004430Y005965D01*
X004396Y005975D01*
X004363Y005988D01*
X004332Y006005D01*
X004304Y006026D01*
X004277Y006049D01*
X004254Y006076D01*
X004233Y006104D01*
X004216Y006135D01*
X004203Y006168D01*
X004193Y006202D01*
X004187Y006237D01*
X004185Y006272D01*
X004185Y013228D02*
X004187Y013263D01*
X004193Y013298D01*
X004203Y013332D01*
X004216Y013365D01*
X004233Y013396D01*
X004254Y013424D01*
X004277Y013451D01*
X004304Y013474D01*
X004332Y013495D01*
X004363Y013512D01*
X004396Y013525D01*
X004430Y013535D01*
X004465Y013541D01*
X004500Y013543D01*
X004535Y013541D01*
X004570Y013535D01*
X004604Y013525D01*
X004637Y013512D01*
X004668Y013495D01*
X004696Y013474D01*
X004723Y013451D01*
X004746Y013424D01*
X004767Y013396D01*
X004784Y013365D01*
X004797Y013332D01*
X004807Y013298D01*
X004813Y013263D01*
X004815Y013228D01*
X004813Y013193D01*
X004807Y013158D01*
X004797Y013124D01*
X004784Y013091D01*
X004767Y013060D01*
X004746Y013032D01*
X004723Y013005D01*
X004696Y012982D01*
X004668Y012961D01*
X004637Y012944D01*
X004604Y012931D01*
X004570Y012921D01*
X004535Y012915D01*
X004500Y012913D01*
X004465Y012915D01*
X004430Y012921D01*
X004396Y012931D01*
X004363Y012944D01*
X004332Y012961D01*
X004304Y012982D01*
X004277Y013005D01*
X004254Y013032D01*
X004233Y013060D01*
X004216Y013091D01*
X004203Y013124D01*
X004193Y013158D01*
X004187Y013193D01*
X004185Y013228D01*
X004185Y016772D02*
X004187Y016807D01*
X004193Y016842D01*
X004203Y016876D01*
X004216Y016909D01*
X004233Y016940D01*
X004254Y016968D01*
X004277Y016995D01*
X004304Y017018D01*
X004332Y017039D01*
X004363Y017056D01*
X004396Y017069D01*
X004430Y017079D01*
X004465Y017085D01*
X004500Y017087D01*
X004535Y017085D01*
X004570Y017079D01*
X004604Y017069D01*
X004637Y017056D01*
X004668Y017039D01*
X004696Y017018D01*
X004723Y016995D01*
X004746Y016968D01*
X004767Y016940D01*
X004784Y016909D01*
X004797Y016876D01*
X004807Y016842D01*
X004813Y016807D01*
X004815Y016772D01*
X004813Y016737D01*
X004807Y016702D01*
X004797Y016668D01*
X004784Y016635D01*
X004767Y016604D01*
X004746Y016576D01*
X004723Y016549D01*
X004696Y016526D01*
X004668Y016505D01*
X004637Y016488D01*
X004604Y016475D01*
X004570Y016465D01*
X004535Y016459D01*
X004500Y016457D01*
X004465Y016459D01*
X004430Y016465D01*
X004396Y016475D01*
X004363Y016488D01*
X004332Y016505D01*
X004304Y016526D01*
X004277Y016549D01*
X004254Y016576D01*
X004233Y016604D01*
X004216Y016635D01*
X004203Y016668D01*
X004193Y016702D01*
X004187Y016737D01*
X004185Y016772D01*
X000900Y018000D02*
X000902Y018049D01*
X000908Y018097D01*
X000918Y018145D01*
X000932Y018192D01*
X000949Y018238D01*
X000970Y018282D01*
X000995Y018324D01*
X001023Y018364D01*
X001055Y018402D01*
X001089Y018437D01*
X001126Y018469D01*
X001165Y018498D01*
X001207Y018524D01*
X001251Y018546D01*
X001296Y018564D01*
X001343Y018579D01*
X001390Y018590D01*
X001439Y018597D01*
X001488Y018600D01*
X001537Y018599D01*
X001585Y018594D01*
X001634Y018585D01*
X001681Y018572D01*
X001727Y018555D01*
X001771Y018535D01*
X001814Y018511D01*
X001855Y018484D01*
X001893Y018453D01*
X001929Y018420D01*
X001961Y018384D01*
X001991Y018345D01*
X002018Y018304D01*
X002041Y018260D01*
X002060Y018215D01*
X002076Y018169D01*
X002088Y018122D01*
X002096Y018073D01*
X002100Y018024D01*
X002100Y017976D01*
X002096Y017927D01*
X002088Y017878D01*
X002076Y017831D01*
X002060Y017785D01*
X002041Y017740D01*
X002018Y017696D01*
X001991Y017655D01*
X001961Y017616D01*
X001929Y017580D01*
X001893Y017547D01*
X001855Y017516D01*
X001814Y017489D01*
X001771Y017465D01*
X001727Y017445D01*
X001681Y017428D01*
X001634Y017415D01*
X001585Y017406D01*
X001537Y017401D01*
X001488Y017400D01*
X001439Y017403D01*
X001390Y017410D01*
X001343Y017421D01*
X001296Y017436D01*
X001251Y017454D01*
X001207Y017476D01*
X001165Y017502D01*
X001126Y017531D01*
X001089Y017563D01*
X001055Y017598D01*
X001023Y017636D01*
X000995Y017676D01*
X000970Y017718D01*
X000949Y017762D01*
X000932Y017808D01*
X000918Y017855D01*
X000908Y017903D01*
X000902Y017951D01*
X000900Y018000D01*
X014685Y016772D02*
X014687Y016807D01*
X014693Y016842D01*
X014703Y016876D01*
X014716Y016909D01*
X014733Y016940D01*
X014754Y016968D01*
X014777Y016995D01*
X014804Y017018D01*
X014832Y017039D01*
X014863Y017056D01*
X014896Y017069D01*
X014930Y017079D01*
X014965Y017085D01*
X015000Y017087D01*
X015035Y017085D01*
X015070Y017079D01*
X015104Y017069D01*
X015137Y017056D01*
X015168Y017039D01*
X015196Y017018D01*
X015223Y016995D01*
X015246Y016968D01*
X015267Y016940D01*
X015284Y016909D01*
X015297Y016876D01*
X015307Y016842D01*
X015313Y016807D01*
X015315Y016772D01*
X015313Y016737D01*
X015307Y016702D01*
X015297Y016668D01*
X015284Y016635D01*
X015267Y016604D01*
X015246Y016576D01*
X015223Y016549D01*
X015196Y016526D01*
X015168Y016505D01*
X015137Y016488D01*
X015104Y016475D01*
X015070Y016465D01*
X015035Y016459D01*
X015000Y016457D01*
X014965Y016459D01*
X014930Y016465D01*
X014896Y016475D01*
X014863Y016488D01*
X014832Y016505D01*
X014804Y016526D01*
X014777Y016549D01*
X014754Y016576D01*
X014733Y016604D01*
X014716Y016635D01*
X014703Y016668D01*
X014693Y016702D01*
X014687Y016737D01*
X014685Y016772D01*
X017400Y018000D02*
X017402Y018049D01*
X017408Y018097D01*
X017418Y018145D01*
X017432Y018192D01*
X017449Y018238D01*
X017470Y018282D01*
X017495Y018324D01*
X017523Y018364D01*
X017555Y018402D01*
X017589Y018437D01*
X017626Y018469D01*
X017665Y018498D01*
X017707Y018524D01*
X017751Y018546D01*
X017796Y018564D01*
X017843Y018579D01*
X017890Y018590D01*
X017939Y018597D01*
X017988Y018600D01*
X018037Y018599D01*
X018085Y018594D01*
X018134Y018585D01*
X018181Y018572D01*
X018227Y018555D01*
X018271Y018535D01*
X018314Y018511D01*
X018355Y018484D01*
X018393Y018453D01*
X018429Y018420D01*
X018461Y018384D01*
X018491Y018345D01*
X018518Y018304D01*
X018541Y018260D01*
X018560Y018215D01*
X018576Y018169D01*
X018588Y018122D01*
X018596Y018073D01*
X018600Y018024D01*
X018600Y017976D01*
X018596Y017927D01*
X018588Y017878D01*
X018576Y017831D01*
X018560Y017785D01*
X018541Y017740D01*
X018518Y017696D01*
X018491Y017655D01*
X018461Y017616D01*
X018429Y017580D01*
X018393Y017547D01*
X018355Y017516D01*
X018314Y017489D01*
X018271Y017465D01*
X018227Y017445D01*
X018181Y017428D01*
X018134Y017415D01*
X018085Y017406D01*
X018037Y017401D01*
X017988Y017400D01*
X017939Y017403D01*
X017890Y017410D01*
X017843Y017421D01*
X017796Y017436D01*
X017751Y017454D01*
X017707Y017476D01*
X017665Y017502D01*
X017626Y017531D01*
X017589Y017563D01*
X017555Y017598D01*
X017523Y017636D01*
X017495Y017676D01*
X017470Y017718D01*
X017449Y017762D01*
X017432Y017808D01*
X017418Y017855D01*
X017408Y017903D01*
X017402Y017951D01*
X017400Y018000D01*
X014685Y013228D02*
X014687Y013263D01*
X014693Y013298D01*
X014703Y013332D01*
X014716Y013365D01*
X014733Y013396D01*
X014754Y013424D01*
X014777Y013451D01*
X014804Y013474D01*
X014832Y013495D01*
X014863Y013512D01*
X014896Y013525D01*
X014930Y013535D01*
X014965Y013541D01*
X015000Y013543D01*
X015035Y013541D01*
X015070Y013535D01*
X015104Y013525D01*
X015137Y013512D01*
X015168Y013495D01*
X015196Y013474D01*
X015223Y013451D01*
X015246Y013424D01*
X015267Y013396D01*
X015284Y013365D01*
X015297Y013332D01*
X015307Y013298D01*
X015313Y013263D01*
X015315Y013228D01*
X015313Y013193D01*
X015307Y013158D01*
X015297Y013124D01*
X015284Y013091D01*
X015267Y013060D01*
X015246Y013032D01*
X015223Y013005D01*
X015196Y012982D01*
X015168Y012961D01*
X015137Y012944D01*
X015104Y012931D01*
X015070Y012921D01*
X015035Y012915D01*
X015000Y012913D01*
X014965Y012915D01*
X014930Y012921D01*
X014896Y012931D01*
X014863Y012944D01*
X014832Y012961D01*
X014804Y012982D01*
X014777Y013005D01*
X014754Y013032D01*
X014733Y013060D01*
X014716Y013091D01*
X014703Y013124D01*
X014693Y013158D01*
X014687Y013193D01*
X014685Y013228D01*
X014685Y006272D02*
X014687Y006307D01*
X014693Y006342D01*
X014703Y006376D01*
X014716Y006409D01*
X014733Y006440D01*
X014754Y006468D01*
X014777Y006495D01*
X014804Y006518D01*
X014832Y006539D01*
X014863Y006556D01*
X014896Y006569D01*
X014930Y006579D01*
X014965Y006585D01*
X015000Y006587D01*
X015035Y006585D01*
X015070Y006579D01*
X015104Y006569D01*
X015137Y006556D01*
X015168Y006539D01*
X015196Y006518D01*
X015223Y006495D01*
X015246Y006468D01*
X015267Y006440D01*
X015284Y006409D01*
X015297Y006376D01*
X015307Y006342D01*
X015313Y006307D01*
X015315Y006272D01*
X015313Y006237D01*
X015307Y006202D01*
X015297Y006168D01*
X015284Y006135D01*
X015267Y006104D01*
X015246Y006076D01*
X015223Y006049D01*
X015196Y006026D01*
X015168Y006005D01*
X015137Y005988D01*
X015104Y005975D01*
X015070Y005965D01*
X015035Y005959D01*
X015000Y005957D01*
X014965Y005959D01*
X014930Y005965D01*
X014896Y005975D01*
X014863Y005988D01*
X014832Y006005D01*
X014804Y006026D01*
X014777Y006049D01*
X014754Y006076D01*
X014733Y006104D01*
X014716Y006135D01*
X014703Y006168D01*
X014693Y006202D01*
X014687Y006237D01*
X014685Y006272D01*
X014685Y002728D02*
X014687Y002763D01*
X014693Y002798D01*
X014703Y002832D01*
X014716Y002865D01*
X014733Y002896D01*
X014754Y002924D01*
X014777Y002951D01*
X014804Y002974D01*
X014832Y002995D01*
X014863Y003012D01*
X014896Y003025D01*
X014930Y003035D01*
X014965Y003041D01*
X015000Y003043D01*
X015035Y003041D01*
X015070Y003035D01*
X015104Y003025D01*
X015137Y003012D01*
X015168Y002995D01*
X015196Y002974D01*
X015223Y002951D01*
X015246Y002924D01*
X015267Y002896D01*
X015284Y002865D01*
X015297Y002832D01*
X015307Y002798D01*
X015313Y002763D01*
X015315Y002728D01*
X015313Y002693D01*
X015307Y002658D01*
X015297Y002624D01*
X015284Y002591D01*
X015267Y002560D01*
X015246Y002532D01*
X015223Y002505D01*
X015196Y002482D01*
X015168Y002461D01*
X015137Y002444D01*
X015104Y002431D01*
X015070Y002421D01*
X015035Y002415D01*
X015000Y002413D01*
X014965Y002415D01*
X014930Y002421D01*
X014896Y002431D01*
X014863Y002444D01*
X014832Y002461D01*
X014804Y002482D01*
X014777Y002505D01*
X014754Y002532D01*
X014733Y002560D01*
X014716Y002591D01*
X014703Y002624D01*
X014693Y002658D01*
X014687Y002693D01*
X014685Y002728D01*
X017400Y001500D02*
X017402Y001549D01*
X017408Y001597D01*
X017418Y001645D01*
X017432Y001692D01*
X017449Y001738D01*
X017470Y001782D01*
X017495Y001824D01*
X017523Y001864D01*
X017555Y001902D01*
X017589Y001937D01*
X017626Y001969D01*
X017665Y001998D01*
X017707Y002024D01*
X017751Y002046D01*
X017796Y002064D01*
X017843Y002079D01*
X017890Y002090D01*
X017939Y002097D01*
X017988Y002100D01*
X018037Y002099D01*
X018085Y002094D01*
X018134Y002085D01*
X018181Y002072D01*
X018227Y002055D01*
X018271Y002035D01*
X018314Y002011D01*
X018355Y001984D01*
X018393Y001953D01*
X018429Y001920D01*
X018461Y001884D01*
X018491Y001845D01*
X018518Y001804D01*
X018541Y001760D01*
X018560Y001715D01*
X018576Y001669D01*
X018588Y001622D01*
X018596Y001573D01*
X018600Y001524D01*
X018600Y001476D01*
X018596Y001427D01*
X018588Y001378D01*
X018576Y001331D01*
X018560Y001285D01*
X018541Y001240D01*
X018518Y001196D01*
X018491Y001155D01*
X018461Y001116D01*
X018429Y001080D01*
X018393Y001047D01*
X018355Y001016D01*
X018314Y000989D01*
X018271Y000965D01*
X018227Y000945D01*
X018181Y000928D01*
X018134Y000915D01*
X018085Y000906D01*
X018037Y000901D01*
X017988Y000900D01*
X017939Y000903D01*
X017890Y000910D01*
X017843Y000921D01*
X017796Y000936D01*
X017751Y000954D01*
X017707Y000976D01*
X017665Y001002D01*
X017626Y001031D01*
X017589Y001063D01*
X017555Y001098D01*
X017523Y001136D01*
X017495Y001176D01*
X017470Y001218D01*
X017449Y001262D01*
X017432Y001308D01*
X017418Y001355D01*
X017408Y001403D01*
X017402Y001451D01*
X017400Y001500D01*
D11*
X018365Y002765D02*
X018735Y003012D01*
X018365Y003012D01*
X018488Y003195D02*
X018550Y003133D01*
X018673Y003133D01*
X018735Y003195D01*
X018735Y003318D01*
X018673Y003380D01*
X018550Y003380D01*
X018488Y003318D01*
X018488Y003195D01*
X018488Y003502D02*
X018488Y003563D01*
X018550Y003625D01*
X018488Y003687D01*
X018550Y003749D01*
X018735Y003749D01*
X018735Y003870D02*
X018735Y003993D01*
X018735Y003932D02*
X018488Y003932D01*
X018488Y003870D01*
X018365Y003932D02*
X018303Y003932D01*
X018488Y004177D02*
X018488Y004362D01*
X018612Y004301D02*
X018612Y004177D01*
X018550Y004115D01*
X018488Y004177D01*
X018612Y004301D02*
X018673Y004362D01*
X018735Y004301D01*
X018735Y004115D01*
X018735Y003625D02*
X018550Y003625D01*
X018488Y003502D02*
X018735Y003502D01*
X018735Y002765D02*
X018365Y002765D01*
X018488Y004852D02*
X018365Y004976D01*
X018365Y005098D02*
X018365Y005283D01*
X018426Y005345D01*
X018550Y005345D01*
X018612Y005283D01*
X018612Y005098D01*
X018735Y005098D02*
X018365Y005098D01*
X018612Y005221D02*
X018735Y005345D01*
X018673Y005466D02*
X018550Y005466D01*
X018488Y005528D01*
X018488Y005651D01*
X018550Y005713D01*
X018612Y005713D01*
X018612Y005466D01*
X018673Y005466D02*
X018735Y005528D01*
X018735Y005651D01*
X018488Y005834D02*
X018735Y005958D01*
X018488Y006081D01*
X018488Y006571D02*
X018365Y006694D01*
X018488Y006818D01*
X018735Y006818D01*
X018735Y006939D02*
X018673Y006939D01*
X018673Y007001D01*
X018735Y007001D01*
X018735Y006939D01*
X018735Y007123D02*
X018612Y007247D01*
X018488Y007247D01*
X018365Y007123D01*
X018550Y006818D02*
X018550Y006571D01*
X018488Y006571D02*
X018735Y006571D01*
X018735Y004976D02*
X018612Y004852D01*
X018488Y004852D01*
X018426Y008265D02*
X018673Y008265D01*
X018735Y008327D01*
X018735Y008450D01*
X018673Y008512D01*
X018735Y008633D02*
X018365Y008633D01*
X018426Y008512D02*
X018365Y008450D01*
X018365Y008327D01*
X018426Y008265D01*
X018550Y008633D02*
X018488Y008695D01*
X018488Y008818D01*
X018550Y008880D01*
X018735Y008880D01*
X018735Y009002D02*
X018488Y009002D01*
X018488Y009125D02*
X018612Y009002D01*
X018488Y009125D02*
X018488Y009187D01*
X018488Y009309D02*
X018488Y009370D01*
X018735Y009370D01*
X018735Y009309D02*
X018735Y009432D01*
X018735Y009554D02*
X018735Y009739D01*
X018673Y009801D01*
X018612Y009739D01*
X018612Y009616D01*
X018550Y009554D01*
X018488Y009616D01*
X018488Y009801D01*
X018365Y009370D02*
X018303Y009370D01*
X018365Y010291D02*
X018735Y010291D01*
X018612Y010414D01*
X018735Y010538D01*
X018365Y010538D01*
X018488Y010721D02*
X018550Y010659D01*
X018673Y010659D01*
X018735Y010721D01*
X018735Y010844D01*
X018673Y010906D01*
X018550Y010906D01*
X018488Y010844D01*
X018488Y010721D01*
X018550Y011027D02*
X018673Y011027D01*
X018735Y011089D01*
X018735Y011213D01*
X018673Y011274D01*
X018550Y011274D01*
X018488Y011213D01*
X018488Y011089D01*
X018550Y011027D01*
X018550Y011396D02*
X018488Y011457D01*
X018488Y011643D01*
X018365Y011643D02*
X018735Y011643D01*
X018735Y011457D01*
X018673Y011396D01*
X018550Y011396D01*
X018673Y011764D02*
X018612Y011826D01*
X018612Y012011D01*
X018550Y012011D02*
X018735Y012011D01*
X018735Y011826D01*
X018673Y011764D01*
X018488Y011826D02*
X018488Y011949D01*
X018550Y012011D01*
X018735Y012132D02*
X018735Y012256D01*
X018735Y012194D02*
X018365Y012194D01*
X018365Y012132D01*
X018365Y012378D02*
X018365Y012440D01*
X018735Y012440D01*
X018735Y012501D02*
X018735Y012378D01*
X018573Y013568D02*
X018635Y013630D01*
X018635Y013692D01*
X018573Y013754D01*
X018265Y013754D01*
X018265Y013815D02*
X018265Y013692D01*
X018388Y013999D02*
X018388Y014122D01*
X018450Y014184D01*
X018635Y014184D01*
X018635Y013999D01*
X018573Y013937D01*
X018512Y013999D01*
X018512Y014184D01*
X018635Y014305D02*
X018388Y014305D01*
X018388Y014490D01*
X018450Y014552D01*
X018635Y014552D01*
X018635Y015042D02*
X018388Y015289D01*
X018326Y015289D01*
X018265Y015227D01*
X018265Y015103D01*
X018326Y015042D01*
X018635Y015042D02*
X018635Y015289D01*
X018573Y015410D02*
X018326Y015657D01*
X018573Y015657D01*
X018635Y015595D01*
X018635Y015472D01*
X018573Y015410D01*
X018326Y015410D01*
X018265Y015472D01*
X018265Y015595D01*
X018326Y015657D01*
X018388Y015778D02*
X018265Y015902D01*
X018635Y015902D01*
X018635Y016025D02*
X018635Y015778D01*
X018635Y016147D02*
X018388Y016394D01*
X018326Y016394D01*
X018265Y016332D01*
X018265Y016208D01*
X018326Y016147D01*
X018635Y016147D02*
X018635Y016394D01*
D12*
X001827Y011250D02*
X001520Y011250D01*
X001673Y011097D02*
X001673Y011404D01*
X001520Y008250D02*
X001827Y008250D01*
D13*
X002591Y006862D02*
X002138Y006409D01*
X002138Y006075D01*
X002591Y006862D02*
X006409Y006862D01*
X006862Y006409D01*
X006862Y006075D01*
X006469Y006075D01*
X006469Y004894D01*
X006862Y004894D01*
X006862Y004106D01*
X006469Y004106D01*
X006469Y002925D01*
X006862Y002925D01*
X006862Y002591D01*
X006409Y002138D01*
X002591Y002138D01*
X002138Y002591D01*
X002138Y002925D01*
X002138Y004106D02*
X002138Y004894D01*
X004365Y005500D02*
X004645Y005500D01*
X003122Y004500D02*
X003124Y004574D01*
X003130Y004648D01*
X003140Y004721D01*
X003154Y004794D01*
X003171Y004866D01*
X003193Y004936D01*
X003218Y005006D01*
X003247Y005074D01*
X003280Y005140D01*
X003316Y005205D01*
X003356Y005267D01*
X003398Y005328D01*
X003444Y005386D01*
X003493Y005441D01*
X003545Y005494D01*
X003600Y005544D01*
X003657Y005590D01*
X003717Y005634D01*
X003779Y005674D01*
X003843Y005711D01*
X003909Y005745D01*
X003977Y005775D01*
X004046Y005801D01*
X004117Y005824D01*
X004188Y005842D01*
X004261Y005857D01*
X004334Y005868D01*
X004408Y005875D01*
X004482Y005878D01*
X004555Y005877D01*
X004629Y005872D01*
X004703Y005863D01*
X004776Y005850D01*
X004848Y005833D01*
X004919Y005813D01*
X004989Y005788D01*
X005057Y005760D01*
X005124Y005729D01*
X005189Y005693D01*
X005252Y005655D01*
X005313Y005613D01*
X005372Y005567D01*
X005428Y005519D01*
X005481Y005468D01*
X005531Y005414D01*
X005579Y005357D01*
X005623Y005298D01*
X005665Y005236D01*
X005703Y005173D01*
X005737Y005107D01*
X005768Y005040D01*
X005795Y004971D01*
X005818Y004901D01*
X005838Y004830D01*
X005854Y004757D01*
X005866Y004684D01*
X005874Y004611D01*
X005878Y004537D01*
X005878Y004463D01*
X005874Y004389D01*
X005866Y004316D01*
X005854Y004243D01*
X005838Y004170D01*
X005818Y004099D01*
X005795Y004029D01*
X005768Y003960D01*
X005737Y003893D01*
X005703Y003827D01*
X005665Y003764D01*
X005623Y003702D01*
X005579Y003643D01*
X005531Y003586D01*
X005481Y003532D01*
X005428Y003481D01*
X005372Y003433D01*
X005313Y003387D01*
X005252Y003345D01*
X005189Y003307D01*
X005124Y003271D01*
X005057Y003240D01*
X004989Y003212D01*
X004919Y003187D01*
X004848Y003167D01*
X004776Y003150D01*
X004703Y003137D01*
X004629Y003128D01*
X004555Y003123D01*
X004482Y003122D01*
X004408Y003125D01*
X004334Y003132D01*
X004261Y003143D01*
X004188Y003158D01*
X004117Y003176D01*
X004046Y003199D01*
X003977Y003225D01*
X003909Y003255D01*
X003843Y003289D01*
X003779Y003326D01*
X003717Y003366D01*
X003657Y003410D01*
X003600Y003456D01*
X003545Y003506D01*
X003493Y003559D01*
X003444Y003614D01*
X003398Y003672D01*
X003356Y003733D01*
X003316Y003795D01*
X003280Y003860D01*
X003247Y003926D01*
X003218Y003994D01*
X003193Y004064D01*
X003171Y004134D01*
X003154Y004206D01*
X003140Y004279D01*
X003130Y004352D01*
X003124Y004426D01*
X003122Y004500D01*
X004365Y003500D02*
X004645Y003500D01*
X004505Y003640D02*
X004505Y003360D01*
X008028Y004240D02*
X008028Y001760D01*
X008972Y001760D01*
X008972Y004240D01*
X008028Y004240D01*
X009278Y004240D02*
X010222Y004240D01*
X010222Y001760D01*
X009278Y001760D01*
X009278Y004240D01*
X010528Y004240D02*
X011472Y004240D01*
X011472Y001760D01*
X010528Y001760D01*
X010528Y004240D01*
X011000Y006000D02*
X009000Y006000D01*
X009000Y010000D01*
X009400Y010000D01*
X009600Y010000D01*
X009400Y010000D02*
X011000Y010000D01*
X011000Y006000D01*
X012638Y006075D02*
X012638Y006409D01*
X013091Y006862D01*
X016909Y006862D01*
X017362Y006409D01*
X017362Y006075D01*
X016969Y006075D01*
X016969Y004894D01*
X017362Y004894D01*
X017362Y004106D01*
X016969Y004106D01*
X016969Y002925D01*
X017362Y002925D01*
X017362Y002591D01*
X016909Y002138D01*
X013091Y002138D01*
X012638Y002591D01*
X012638Y002925D01*
X012638Y004106D02*
X012638Y004894D01*
X014865Y005500D02*
X015145Y005500D01*
X013622Y004500D02*
X013624Y004574D01*
X013630Y004648D01*
X013640Y004721D01*
X013654Y004794D01*
X013671Y004866D01*
X013693Y004936D01*
X013718Y005006D01*
X013747Y005074D01*
X013780Y005140D01*
X013816Y005205D01*
X013856Y005267D01*
X013898Y005328D01*
X013944Y005386D01*
X013993Y005441D01*
X014045Y005494D01*
X014100Y005544D01*
X014157Y005590D01*
X014217Y005634D01*
X014279Y005674D01*
X014343Y005711D01*
X014409Y005745D01*
X014477Y005775D01*
X014546Y005801D01*
X014617Y005824D01*
X014688Y005842D01*
X014761Y005857D01*
X014834Y005868D01*
X014908Y005875D01*
X014982Y005878D01*
X015055Y005877D01*
X015129Y005872D01*
X015203Y005863D01*
X015276Y005850D01*
X015348Y005833D01*
X015419Y005813D01*
X015489Y005788D01*
X015557Y005760D01*
X015624Y005729D01*
X015689Y005693D01*
X015752Y005655D01*
X015813Y005613D01*
X015872Y005567D01*
X015928Y005519D01*
X015981Y005468D01*
X016031Y005414D01*
X016079Y005357D01*
X016123Y005298D01*
X016165Y005236D01*
X016203Y005173D01*
X016237Y005107D01*
X016268Y005040D01*
X016295Y004971D01*
X016318Y004901D01*
X016338Y004830D01*
X016354Y004757D01*
X016366Y004684D01*
X016374Y004611D01*
X016378Y004537D01*
X016378Y004463D01*
X016374Y004389D01*
X016366Y004316D01*
X016354Y004243D01*
X016338Y004170D01*
X016318Y004099D01*
X016295Y004029D01*
X016268Y003960D01*
X016237Y003893D01*
X016203Y003827D01*
X016165Y003764D01*
X016123Y003702D01*
X016079Y003643D01*
X016031Y003586D01*
X015981Y003532D01*
X015928Y003481D01*
X015872Y003433D01*
X015813Y003387D01*
X015752Y003345D01*
X015689Y003307D01*
X015624Y003271D01*
X015557Y003240D01*
X015489Y003212D01*
X015419Y003187D01*
X015348Y003167D01*
X015276Y003150D01*
X015203Y003137D01*
X015129Y003128D01*
X015055Y003123D01*
X014982Y003122D01*
X014908Y003125D01*
X014834Y003132D01*
X014761Y003143D01*
X014688Y003158D01*
X014617Y003176D01*
X014546Y003199D01*
X014477Y003225D01*
X014409Y003255D01*
X014343Y003289D01*
X014279Y003326D01*
X014217Y003366D01*
X014157Y003410D01*
X014100Y003456D01*
X014045Y003506D01*
X013993Y003559D01*
X013944Y003614D01*
X013898Y003672D01*
X013856Y003733D01*
X013816Y003795D01*
X013780Y003860D01*
X013747Y003926D01*
X013718Y003994D01*
X013693Y004064D01*
X013671Y004134D01*
X013654Y004206D01*
X013640Y004279D01*
X013630Y004352D01*
X013624Y004426D01*
X013622Y004500D01*
X014865Y003500D02*
X015145Y003500D01*
X015005Y003640D02*
X015005Y003360D01*
X014260Y008028D02*
X016740Y008028D01*
X016740Y008972D01*
X014260Y008972D01*
X014260Y008028D01*
X014260Y009278D02*
X014260Y010222D01*
X016740Y010222D01*
X016740Y009278D01*
X014260Y009278D01*
X014260Y010528D02*
X016740Y010528D01*
X016740Y011472D01*
X014260Y011472D01*
X014260Y010528D01*
X013091Y012638D02*
X012638Y013091D01*
X012638Y013425D01*
X013091Y012638D02*
X016909Y012638D01*
X017362Y013091D01*
X017362Y013425D01*
X016969Y013425D01*
X016969Y014606D01*
X017362Y014606D01*
X017362Y015394D01*
X016969Y015394D01*
X016969Y016575D01*
X017362Y016575D01*
X017362Y016909D01*
X016909Y017362D01*
X013091Y017362D01*
X012638Y016909D01*
X012638Y016575D01*
X012289Y017144D02*
X012289Y018856D01*
X007711Y018856D01*
X007711Y017144D01*
X012289Y017144D01*
X012638Y015394D02*
X012638Y014606D01*
X011472Y015240D02*
X011472Y012760D01*
X010528Y012760D01*
X010528Y015240D01*
X011472Y015240D01*
X010222Y015240D02*
X010222Y012760D01*
X009278Y012760D01*
X009278Y015240D01*
X010222Y015240D01*
X008972Y015240D02*
X008972Y012760D01*
X008028Y012760D01*
X008028Y015240D01*
X008972Y015240D01*
X006862Y015394D02*
X006862Y014606D01*
X006469Y014606D01*
X006469Y013425D01*
X006862Y013425D01*
X006862Y013091D01*
X006409Y012638D01*
X002591Y012638D01*
X002138Y013091D01*
X002138Y013425D01*
X002138Y014606D02*
X002138Y015394D01*
X002138Y016575D02*
X002138Y016909D01*
X002591Y017362D01*
X006409Y017362D01*
X006862Y016909D01*
X006862Y016575D01*
X006469Y016575D01*
X006469Y015394D01*
X006862Y015394D01*
X004645Y016000D02*
X004365Y016000D01*
X003122Y015000D02*
X003124Y015074D01*
X003130Y015148D01*
X003140Y015221D01*
X003154Y015294D01*
X003171Y015366D01*
X003193Y015436D01*
X003218Y015506D01*
X003247Y015574D01*
X003280Y015640D01*
X003316Y015705D01*
X003356Y015767D01*
X003398Y015828D01*
X003444Y015886D01*
X003493Y015941D01*
X003545Y015994D01*
X003600Y016044D01*
X003657Y016090D01*
X003717Y016134D01*
X003779Y016174D01*
X003843Y016211D01*
X003909Y016245D01*
X003977Y016275D01*
X004046Y016301D01*
X004117Y016324D01*
X004188Y016342D01*
X004261Y016357D01*
X004334Y016368D01*
X004408Y016375D01*
X004482Y016378D01*
X004555Y016377D01*
X004629Y016372D01*
X004703Y016363D01*
X004776Y016350D01*
X004848Y016333D01*
X004919Y016313D01*
X004989Y016288D01*
X005057Y016260D01*
X005124Y016229D01*
X005189Y016193D01*
X005252Y016155D01*
X005313Y016113D01*
X005372Y016067D01*
X005428Y016019D01*
X005481Y015968D01*
X005531Y015914D01*
X005579Y015857D01*
X005623Y015798D01*
X005665Y015736D01*
X005703Y015673D01*
X005737Y015607D01*
X005768Y015540D01*
X005795Y015471D01*
X005818Y015401D01*
X005838Y015330D01*
X005854Y015257D01*
X005866Y015184D01*
X005874Y015111D01*
X005878Y015037D01*
X005878Y014963D01*
X005874Y014889D01*
X005866Y014816D01*
X005854Y014743D01*
X005838Y014670D01*
X005818Y014599D01*
X005795Y014529D01*
X005768Y014460D01*
X005737Y014393D01*
X005703Y014327D01*
X005665Y014264D01*
X005623Y014202D01*
X005579Y014143D01*
X005531Y014086D01*
X005481Y014032D01*
X005428Y013981D01*
X005372Y013933D01*
X005313Y013887D01*
X005252Y013845D01*
X005189Y013807D01*
X005124Y013771D01*
X005057Y013740D01*
X004989Y013712D01*
X004919Y013687D01*
X004848Y013667D01*
X004776Y013650D01*
X004703Y013637D01*
X004629Y013628D01*
X004555Y013623D01*
X004482Y013622D01*
X004408Y013625D01*
X004334Y013632D01*
X004261Y013643D01*
X004188Y013658D01*
X004117Y013676D01*
X004046Y013699D01*
X003977Y013725D01*
X003909Y013755D01*
X003843Y013789D01*
X003779Y013826D01*
X003717Y013866D01*
X003657Y013910D01*
X003600Y013956D01*
X003545Y014006D01*
X003493Y014059D01*
X003444Y014114D01*
X003398Y014172D01*
X003356Y014233D01*
X003316Y014295D01*
X003280Y014360D01*
X003247Y014426D01*
X003218Y014494D01*
X003193Y014564D01*
X003171Y014634D01*
X003154Y014706D01*
X003140Y014779D01*
X003130Y014852D01*
X003124Y014926D01*
X003122Y015000D01*
X004365Y014000D02*
X004645Y014000D01*
X004505Y014140D02*
X004505Y013860D01*
X005740Y011472D02*
X003260Y011472D01*
X003260Y010528D01*
X005740Y010528D01*
X005740Y011472D01*
X005740Y010222D02*
X003260Y010222D01*
X003260Y009278D01*
X005740Y009278D01*
X005740Y010222D01*
X005740Y008972D02*
X005740Y008028D01*
X003260Y008028D01*
X003260Y008972D01*
X005740Y008972D01*
X010000Y010750D02*
X010000Y011250D01*
X014865Y014000D02*
X015145Y014000D01*
X015005Y014140D02*
X015005Y013860D01*
X013622Y015000D02*
X013624Y015074D01*
X013630Y015148D01*
X013640Y015221D01*
X013654Y015294D01*
X013671Y015366D01*
X013693Y015436D01*
X013718Y015506D01*
X013747Y015574D01*
X013780Y015640D01*
X013816Y015705D01*
X013856Y015767D01*
X013898Y015828D01*
X013944Y015886D01*
X013993Y015941D01*
X014045Y015994D01*
X014100Y016044D01*
X014157Y016090D01*
X014217Y016134D01*
X014279Y016174D01*
X014343Y016211D01*
X014409Y016245D01*
X014477Y016275D01*
X014546Y016301D01*
X014617Y016324D01*
X014688Y016342D01*
X014761Y016357D01*
X014834Y016368D01*
X014908Y016375D01*
X014982Y016378D01*
X015055Y016377D01*
X015129Y016372D01*
X015203Y016363D01*
X015276Y016350D01*
X015348Y016333D01*
X015419Y016313D01*
X015489Y016288D01*
X015557Y016260D01*
X015624Y016229D01*
X015689Y016193D01*
X015752Y016155D01*
X015813Y016113D01*
X015872Y016067D01*
X015928Y016019D01*
X015981Y015968D01*
X016031Y015914D01*
X016079Y015857D01*
X016123Y015798D01*
X016165Y015736D01*
X016203Y015673D01*
X016237Y015607D01*
X016268Y015540D01*
X016295Y015471D01*
X016318Y015401D01*
X016338Y015330D01*
X016354Y015257D01*
X016366Y015184D01*
X016374Y015111D01*
X016378Y015037D01*
X016378Y014963D01*
X016374Y014889D01*
X016366Y014816D01*
X016354Y014743D01*
X016338Y014670D01*
X016318Y014599D01*
X016295Y014529D01*
X016268Y014460D01*
X016237Y014393D01*
X016203Y014327D01*
X016165Y014264D01*
X016123Y014202D01*
X016079Y014143D01*
X016031Y014086D01*
X015981Y014032D01*
X015928Y013981D01*
X015872Y013933D01*
X015813Y013887D01*
X015752Y013845D01*
X015689Y013807D01*
X015624Y013771D01*
X015557Y013740D01*
X015489Y013712D01*
X015419Y013687D01*
X015348Y013667D01*
X015276Y013650D01*
X015203Y013637D01*
X015129Y013628D01*
X015055Y013623D01*
X014982Y013622D01*
X014908Y013625D01*
X014834Y013632D01*
X014761Y013643D01*
X014688Y013658D01*
X014617Y013676D01*
X014546Y013699D01*
X014477Y013725D01*
X014409Y013755D01*
X014343Y013789D01*
X014279Y013826D01*
X014217Y013866D01*
X014157Y013910D01*
X014100Y013956D01*
X014045Y014006D01*
X013993Y014059D01*
X013944Y014114D01*
X013898Y014172D01*
X013856Y014233D01*
X013816Y014295D01*
X013780Y014360D01*
X013747Y014426D01*
X013718Y014494D01*
X013693Y014564D01*
X013671Y014634D01*
X013654Y014706D01*
X013640Y014779D01*
X013630Y014852D01*
X013624Y014926D01*
X013622Y015000D01*
X014865Y016000D02*
X015145Y016000D01*
D14*
X009217Y009500D02*
X009219Y009533D01*
X009225Y009566D01*
X009235Y009599D01*
X009248Y009629D01*
X009265Y009658D01*
X009286Y009685D01*
X009309Y009709D01*
X009335Y009730D01*
X009363Y009748D01*
X009394Y009762D01*
X009425Y009773D01*
X009458Y009780D01*
X009492Y009783D01*
X009525Y009782D01*
X009558Y009777D01*
X009591Y009768D01*
X009622Y009755D01*
X009651Y009739D01*
X009678Y009720D01*
X009703Y009697D01*
X009725Y009672D01*
X009744Y009644D01*
X009759Y009614D01*
X009771Y009583D01*
X009779Y009550D01*
X009783Y009517D01*
X009783Y009483D01*
X009779Y009450D01*
X009771Y009417D01*
X009759Y009386D01*
X009744Y009356D01*
X009725Y009328D01*
X009703Y009303D01*
X009678Y009280D01*
X009651Y009261D01*
X009622Y009245D01*
X009591Y009232D01*
X009558Y009223D01*
X009525Y009218D01*
X009492Y009217D01*
X009458Y009220D01*
X009425Y009227D01*
X009394Y009238D01*
X009363Y009252D01*
X009335Y009270D01*
X009309Y009291D01*
X009286Y009315D01*
X009265Y009342D01*
X009248Y009371D01*
X009235Y009401D01*
X009225Y009434D01*
X009219Y009467D01*
X009217Y009500D01*
D15*
X010025Y009350D02*
X010100Y009275D01*
X010250Y009275D01*
X010325Y009350D01*
X010325Y009725D01*
X010485Y009575D02*
X010636Y009725D01*
X010636Y009275D01*
X010786Y009275D02*
X010485Y009275D01*
X010025Y009350D02*
X010025Y009725D01*
X009875Y013125D02*
X009695Y013305D01*
X009650Y013305D01*
X009605Y013260D01*
X009605Y013170D01*
X009650Y013125D01*
X009875Y013125D02*
X009875Y013305D01*
X009875Y013420D02*
X009875Y013465D01*
X009830Y013465D01*
X009830Y013420D01*
X009875Y013420D01*
X009875Y013567D02*
X009695Y013747D01*
X009650Y013747D01*
X009605Y013702D01*
X009605Y013612D01*
X009650Y013567D01*
X009875Y013567D02*
X009875Y013747D01*
X009875Y013862D02*
X009605Y013862D01*
X009740Y013907D02*
X009875Y014042D01*
X009785Y013862D02*
X009605Y014042D01*
X009705Y014525D02*
X009705Y014660D01*
X009750Y014705D01*
X009840Y014705D01*
X009885Y014660D01*
X009885Y014525D01*
X009975Y014525D02*
X009705Y014525D01*
X009885Y014615D02*
X009975Y014705D01*
X009975Y014820D02*
X009930Y014820D01*
X009750Y015000D01*
X009705Y015000D01*
X009705Y014820D01*
X008725Y014750D02*
X008725Y014570D01*
X008725Y014660D02*
X008455Y014660D01*
X008545Y014570D01*
X008590Y014455D02*
X008635Y014410D01*
X008635Y014275D01*
X008725Y014275D02*
X008455Y014275D01*
X008455Y014410D01*
X008500Y014455D01*
X008590Y014455D01*
X008635Y014365D02*
X008725Y014455D01*
X008680Y014864D02*
X008500Y014864D01*
X008455Y014909D01*
X008455Y014999D01*
X008500Y015044D01*
X008680Y014864D01*
X008725Y014909D01*
X008725Y014999D01*
X008680Y015044D01*
X008500Y015044D01*
X008625Y013600D02*
X008490Y013465D01*
X008535Y013420D02*
X008355Y013600D01*
X008355Y013420D02*
X008625Y013420D01*
X008625Y013305D02*
X008625Y013125D01*
X008625Y013215D02*
X008355Y013215D01*
X008445Y013125D01*
X010875Y013939D02*
X010920Y013894D01*
X010875Y013939D02*
X010875Y014029D01*
X010920Y014074D01*
X010965Y014074D01*
X011145Y013894D01*
X011145Y014074D01*
X011145Y014188D02*
X011145Y014233D01*
X011100Y014233D01*
X011100Y014188D01*
X011145Y014188D01*
X011145Y014336D02*
X010965Y014516D01*
X010920Y014516D01*
X010875Y014471D01*
X010875Y014381D01*
X010920Y014336D01*
X011145Y014336D02*
X011145Y014516D01*
X011145Y014630D02*
X010875Y014630D01*
X011010Y014675D02*
X011145Y014811D01*
X011055Y014630D02*
X010875Y014811D01*
X011525Y014821D02*
X011525Y014686D01*
X011795Y014686D01*
X011705Y014686D02*
X011705Y014821D01*
X011660Y014866D01*
X011570Y014866D01*
X011525Y014821D01*
X011570Y014980D02*
X011525Y015025D01*
X011525Y015115D01*
X011570Y015161D01*
X011750Y015161D01*
X011795Y015115D01*
X011795Y015025D01*
X011750Y014980D01*
X011660Y015025D02*
X011615Y014980D01*
X011570Y014980D01*
X011660Y015025D02*
X011660Y015161D01*
X011795Y014866D02*
X011705Y014776D01*
X014750Y014750D02*
X015000Y015250D01*
X015000Y015500D01*
X015000Y015250D02*
X014750Y015250D01*
X015000Y015250D02*
X015250Y015250D01*
X015000Y015250D02*
X015250Y014750D01*
X015000Y014750D01*
X015000Y014500D01*
X015000Y014750D02*
X014750Y014750D01*
X014715Y011145D02*
X014715Y010875D01*
X014625Y010875D02*
X014805Y010875D01*
X014920Y010875D02*
X014920Y011145D01*
X014965Y011010D02*
X015100Y010875D01*
X014920Y010965D02*
X015100Y011145D01*
X014715Y011145D02*
X014625Y011055D01*
X014686Y009975D02*
X014821Y009975D01*
X014866Y009930D01*
X014866Y009840D01*
X014821Y009795D01*
X014686Y009795D01*
X014776Y009795D02*
X014866Y009705D01*
X014980Y009840D02*
X015115Y009975D01*
X015115Y009705D01*
X015161Y009840D02*
X014980Y009840D01*
X014686Y009705D02*
X014686Y009975D01*
X015836Y009785D02*
X015926Y009875D01*
X015926Y009605D01*
X015836Y009605D02*
X016016Y009605D01*
X016130Y009605D02*
X016130Y009875D01*
X016175Y009740D02*
X016311Y009605D01*
X016130Y009695D02*
X016311Y009875D01*
X016250Y010775D02*
X016070Y010775D01*
X016160Y010775D02*
X016160Y011045D01*
X016070Y010955D01*
X015955Y010910D02*
X015910Y010865D01*
X015775Y010865D01*
X015775Y010775D02*
X015775Y011045D01*
X015910Y011045D01*
X015955Y011000D01*
X015955Y010910D01*
X015865Y010865D02*
X015955Y010775D01*
X015910Y008545D02*
X015955Y008500D01*
X015955Y008410D01*
X015910Y008365D01*
X015775Y008365D01*
X015775Y008275D02*
X015775Y008545D01*
X015910Y008545D01*
X016070Y008500D02*
X016115Y008545D01*
X016205Y008545D01*
X016250Y008500D01*
X016250Y008455D01*
X016205Y008410D01*
X016250Y008365D01*
X016250Y008320D01*
X016205Y008275D01*
X016115Y008275D01*
X016070Y008320D01*
X015955Y008275D02*
X015865Y008365D01*
X016160Y008410D02*
X016205Y008410D01*
X015100Y008375D02*
X014965Y008510D01*
X014920Y008465D02*
X015100Y008645D01*
X014920Y008645D02*
X014920Y008375D01*
X014805Y008375D02*
X014625Y008375D01*
X014715Y008375D02*
X014715Y008645D01*
X014625Y008555D01*
X015000Y005000D02*
X015000Y004750D01*
X015250Y004750D01*
X015000Y004750D02*
X014750Y004750D01*
X015000Y004750D02*
X014750Y004250D01*
X015000Y004250D01*
X015000Y004000D01*
X015000Y004250D02*
X015250Y004250D01*
X015000Y004750D01*
X011125Y002600D02*
X010990Y002465D01*
X011035Y002420D02*
X010855Y002600D01*
X010855Y002420D02*
X011125Y002420D01*
X011125Y002305D02*
X011125Y002125D01*
X011125Y002215D02*
X010855Y002215D01*
X010945Y002125D01*
X010475Y002115D02*
X010430Y002070D01*
X010475Y002115D02*
X010475Y002205D01*
X010430Y002250D01*
X010340Y002250D01*
X010295Y002205D01*
X010295Y002160D01*
X010340Y002070D01*
X010205Y002070D01*
X010205Y002250D01*
X010250Y001955D02*
X010340Y001955D01*
X010385Y001910D01*
X010385Y001775D01*
X010475Y001775D02*
X010205Y001775D01*
X010205Y001910D01*
X010250Y001955D01*
X010385Y001865D02*
X010475Y001955D01*
X009875Y002125D02*
X009695Y002305D01*
X009650Y002305D01*
X009605Y002260D01*
X009605Y002170D01*
X009650Y002125D01*
X009875Y002125D02*
X009875Y002305D01*
X009875Y002420D02*
X009875Y002465D01*
X009830Y002465D01*
X009830Y002420D01*
X009875Y002420D01*
X009875Y002567D02*
X009695Y002747D01*
X009650Y002747D01*
X009605Y002702D01*
X009605Y002612D01*
X009650Y002567D01*
X009875Y002567D02*
X009875Y002747D01*
X009875Y002862D02*
X009605Y002862D01*
X009740Y002907D02*
X009875Y003042D01*
X009785Y002862D02*
X009605Y003042D01*
X009180Y002250D02*
X009225Y002205D01*
X009225Y002115D01*
X009180Y002070D01*
X009135Y002070D01*
X009090Y002115D01*
X009090Y002205D01*
X009135Y002250D01*
X009180Y002250D01*
X009090Y002205D02*
X009045Y002250D01*
X009000Y002250D01*
X008955Y002205D01*
X008955Y002115D01*
X009000Y002070D01*
X009045Y002070D01*
X009090Y002115D01*
X009090Y001955D02*
X009135Y001910D01*
X009135Y001775D01*
X009225Y001775D02*
X008955Y001775D01*
X008955Y001910D01*
X009000Y001955D01*
X009090Y001955D01*
X009135Y001865D02*
X009225Y001955D01*
X008625Y002125D02*
X008445Y002305D01*
X008400Y002305D01*
X008355Y002260D01*
X008355Y002170D01*
X008400Y002125D01*
X008625Y002125D02*
X008625Y002305D01*
X008625Y002420D02*
X008625Y002465D01*
X008580Y002465D01*
X008580Y002420D01*
X008625Y002420D01*
X008625Y002567D02*
X008445Y002747D01*
X008400Y002747D01*
X008355Y002702D01*
X008355Y002612D01*
X008400Y002567D01*
X008625Y002567D02*
X008625Y002747D01*
X008625Y002862D02*
X008355Y002862D01*
X008490Y002907D02*
X008625Y003042D01*
X008535Y002862D02*
X008355Y003042D01*
X007725Y002250D02*
X007725Y002070D01*
X007545Y002250D01*
X007500Y002250D01*
X007455Y002205D01*
X007455Y002115D01*
X007500Y002070D01*
X007500Y001955D02*
X007590Y001955D01*
X007635Y001910D01*
X007635Y001775D01*
X007725Y001775D02*
X007455Y001775D01*
X007455Y001910D01*
X007500Y001955D01*
X007635Y001865D02*
X007725Y001955D01*
X004750Y004250D02*
X004500Y004750D01*
X004500Y005000D01*
X004500Y004750D02*
X004250Y004750D01*
X004500Y004750D02*
X004750Y004750D01*
X004500Y004750D02*
X004250Y004250D01*
X004500Y004250D01*
X004500Y004000D01*
X004500Y004250D02*
X004750Y004250D01*
X004775Y008275D02*
X004775Y008545D01*
X004910Y008545D01*
X004955Y008500D01*
X004955Y008410D01*
X004910Y008365D01*
X004775Y008365D01*
X004865Y008365D02*
X004955Y008275D01*
X005070Y008275D02*
X005250Y008275D01*
X005160Y008275D02*
X005160Y008545D01*
X005070Y008455D01*
X005364Y008500D02*
X005409Y008545D01*
X005499Y008545D01*
X005544Y008500D01*
X005544Y008455D01*
X005364Y008275D01*
X005544Y008275D01*
X005311Y009605D02*
X005175Y009740D01*
X005130Y009695D02*
X005311Y009875D01*
X005130Y009875D02*
X005130Y009605D01*
X005016Y009605D02*
X004836Y009605D01*
X004926Y009605D02*
X004926Y009875D01*
X004836Y009785D01*
X004161Y009705D02*
X003980Y009705D01*
X004070Y009705D02*
X004070Y009975D01*
X003980Y009885D01*
X003866Y009705D02*
X003686Y009705D01*
X003776Y009705D02*
X003776Y009975D01*
X003686Y009885D01*
X003571Y009840D02*
X003526Y009795D01*
X003391Y009795D01*
X003391Y009705D02*
X003391Y009975D01*
X003526Y009975D01*
X003571Y009930D01*
X003571Y009840D01*
X003481Y009795D02*
X003571Y009705D01*
X003616Y010705D02*
X003526Y010795D01*
X003571Y010795D02*
X003436Y010795D01*
X003436Y010705D02*
X003436Y010975D01*
X003571Y010975D01*
X003616Y010930D01*
X003616Y010840D01*
X003571Y010795D01*
X003730Y010840D02*
X003730Y010750D01*
X003775Y010705D01*
X003865Y010705D01*
X003911Y010750D01*
X003911Y010795D01*
X003865Y010840D01*
X003730Y010840D01*
X003820Y010930D01*
X003911Y010975D01*
X004394Y011080D02*
X004439Y011125D01*
X004529Y011125D01*
X004574Y011080D01*
X004574Y011035D01*
X004394Y010855D01*
X004574Y010855D01*
X004688Y010855D02*
X004733Y010855D01*
X004733Y010900D01*
X004688Y010900D01*
X004688Y010855D01*
X004836Y010855D02*
X005016Y011035D01*
X005016Y011080D01*
X004971Y011125D01*
X004881Y011125D01*
X004836Y011080D01*
X004836Y010855D02*
X005016Y010855D01*
X005130Y010855D02*
X005130Y011125D01*
X005175Y010990D02*
X005311Y010855D01*
X005130Y010945D02*
X005311Y011125D01*
X004100Y008645D02*
X003920Y008465D01*
X003965Y008510D02*
X004100Y008375D01*
X003920Y008375D02*
X003920Y008645D01*
X003715Y008645D02*
X003715Y008375D01*
X003625Y008375D02*
X003805Y008375D01*
X003625Y008555D02*
X003715Y008645D01*
X001500Y008500D02*
X001500Y011000D01*
X000500Y011000D01*
X000500Y008500D01*
X001500Y008500D01*
X004500Y014500D02*
X004500Y014750D01*
X004750Y014750D01*
X004500Y015250D01*
X004500Y015500D01*
X004500Y015250D02*
X004250Y015250D01*
X004500Y015250D02*
X004750Y015250D01*
X004500Y015250D02*
X004250Y014750D01*
X004500Y014750D01*
D16*
X010010Y010470D02*
X010010Y010370D01*
X010035Y010345D01*
X010085Y010345D01*
X010110Y010370D01*
X010158Y010345D02*
X010258Y010445D01*
X010258Y010470D01*
X010233Y010495D01*
X010183Y010495D01*
X010158Y010470D01*
X010110Y010470D02*
X010085Y010495D01*
X010035Y010495D01*
X010010Y010470D01*
X010158Y010345D02*
X010258Y010345D01*
D17*
X013268Y013425D02*
X013270Y013450D01*
X013276Y013474D01*
X013285Y013496D01*
X013298Y013517D01*
X013314Y013536D01*
X013333Y013552D01*
X013354Y013565D01*
X013376Y013574D01*
X013400Y013580D01*
X013425Y013582D01*
X013450Y013580D01*
X013474Y013574D01*
X013496Y013565D01*
X013517Y013552D01*
X013536Y013536D01*
X013552Y013517D01*
X013565Y013496D01*
X013574Y013474D01*
X013580Y013450D01*
X013582Y013425D01*
X013580Y013400D01*
X013574Y013376D01*
X013565Y013354D01*
X013552Y013333D01*
X013536Y013314D01*
X013517Y013298D01*
X013496Y013285D01*
X013474Y013276D01*
X013450Y013270D01*
X013425Y013268D01*
X013400Y013270D01*
X013376Y013276D01*
X013354Y013285D01*
X013333Y013298D01*
X013314Y013314D01*
X013298Y013333D01*
X013285Y013354D01*
X013276Y013376D01*
X013270Y013400D01*
X013268Y013425D01*
X013268Y016575D02*
X013270Y016600D01*
X013276Y016624D01*
X013285Y016646D01*
X013298Y016667D01*
X013314Y016686D01*
X013333Y016702D01*
X013354Y016715D01*
X013376Y016724D01*
X013400Y016730D01*
X013425Y016732D01*
X013450Y016730D01*
X013474Y016724D01*
X013496Y016715D01*
X013517Y016702D01*
X013536Y016686D01*
X013552Y016667D01*
X013565Y016646D01*
X013574Y016624D01*
X013580Y016600D01*
X013582Y016575D01*
X013580Y016550D01*
X013574Y016526D01*
X013565Y016504D01*
X013552Y016483D01*
X013536Y016464D01*
X013517Y016448D01*
X013496Y016435D01*
X013474Y016426D01*
X013450Y016420D01*
X013425Y016418D01*
X013400Y016420D01*
X013376Y016426D01*
X013354Y016435D01*
X013333Y016448D01*
X013314Y016464D01*
X013298Y016483D01*
X013285Y016504D01*
X013276Y016526D01*
X013270Y016550D01*
X013268Y016575D01*
X016418Y016575D02*
X016420Y016600D01*
X016426Y016624D01*
X016435Y016646D01*
X016448Y016667D01*
X016464Y016686D01*
X016483Y016702D01*
X016504Y016715D01*
X016526Y016724D01*
X016550Y016730D01*
X016575Y016732D01*
X016600Y016730D01*
X016624Y016724D01*
X016646Y016715D01*
X016667Y016702D01*
X016686Y016686D01*
X016702Y016667D01*
X016715Y016646D01*
X016724Y016624D01*
X016730Y016600D01*
X016732Y016575D01*
X016730Y016550D01*
X016724Y016526D01*
X016715Y016504D01*
X016702Y016483D01*
X016686Y016464D01*
X016667Y016448D01*
X016646Y016435D01*
X016624Y016426D01*
X016600Y016420D01*
X016575Y016418D01*
X016550Y016420D01*
X016526Y016426D01*
X016504Y016435D01*
X016483Y016448D01*
X016464Y016464D01*
X016448Y016483D01*
X016435Y016504D01*
X016426Y016526D01*
X016420Y016550D01*
X016418Y016575D01*
X016418Y013425D02*
X016420Y013450D01*
X016426Y013474D01*
X016435Y013496D01*
X016448Y013517D01*
X016464Y013536D01*
X016483Y013552D01*
X016504Y013565D01*
X016526Y013574D01*
X016550Y013580D01*
X016575Y013582D01*
X016600Y013580D01*
X016624Y013574D01*
X016646Y013565D01*
X016667Y013552D01*
X016686Y013536D01*
X016702Y013517D01*
X016715Y013496D01*
X016724Y013474D01*
X016730Y013450D01*
X016732Y013425D01*
X016730Y013400D01*
X016724Y013376D01*
X016715Y013354D01*
X016702Y013333D01*
X016686Y013314D01*
X016667Y013298D01*
X016646Y013285D01*
X016624Y013276D01*
X016600Y013270D01*
X016575Y013268D01*
X016550Y013270D01*
X016526Y013276D01*
X016504Y013285D01*
X016483Y013298D01*
X016464Y013314D01*
X016448Y013333D01*
X016435Y013354D01*
X016426Y013376D01*
X016420Y013400D01*
X016418Y013425D01*
X016418Y006075D02*
X016420Y006100D01*
X016426Y006124D01*
X016435Y006146D01*
X016448Y006167D01*
X016464Y006186D01*
X016483Y006202D01*
X016504Y006215D01*
X016526Y006224D01*
X016550Y006230D01*
X016575Y006232D01*
X016600Y006230D01*
X016624Y006224D01*
X016646Y006215D01*
X016667Y006202D01*
X016686Y006186D01*
X016702Y006167D01*
X016715Y006146D01*
X016724Y006124D01*
X016730Y006100D01*
X016732Y006075D01*
X016730Y006050D01*
X016724Y006026D01*
X016715Y006004D01*
X016702Y005983D01*
X016686Y005964D01*
X016667Y005948D01*
X016646Y005935D01*
X016624Y005926D01*
X016600Y005920D01*
X016575Y005918D01*
X016550Y005920D01*
X016526Y005926D01*
X016504Y005935D01*
X016483Y005948D01*
X016464Y005964D01*
X016448Y005983D01*
X016435Y006004D01*
X016426Y006026D01*
X016420Y006050D01*
X016418Y006075D01*
X013268Y006075D02*
X013270Y006100D01*
X013276Y006124D01*
X013285Y006146D01*
X013298Y006167D01*
X013314Y006186D01*
X013333Y006202D01*
X013354Y006215D01*
X013376Y006224D01*
X013400Y006230D01*
X013425Y006232D01*
X013450Y006230D01*
X013474Y006224D01*
X013496Y006215D01*
X013517Y006202D01*
X013536Y006186D01*
X013552Y006167D01*
X013565Y006146D01*
X013574Y006124D01*
X013580Y006100D01*
X013582Y006075D01*
X013580Y006050D01*
X013574Y006026D01*
X013565Y006004D01*
X013552Y005983D01*
X013536Y005964D01*
X013517Y005948D01*
X013496Y005935D01*
X013474Y005926D01*
X013450Y005920D01*
X013425Y005918D01*
X013400Y005920D01*
X013376Y005926D01*
X013354Y005935D01*
X013333Y005948D01*
X013314Y005964D01*
X013298Y005983D01*
X013285Y006004D01*
X013276Y006026D01*
X013270Y006050D01*
X013268Y006075D01*
X013268Y002925D02*
X013270Y002950D01*
X013276Y002974D01*
X013285Y002996D01*
X013298Y003017D01*
X013314Y003036D01*
X013333Y003052D01*
X013354Y003065D01*
X013376Y003074D01*
X013400Y003080D01*
X013425Y003082D01*
X013450Y003080D01*
X013474Y003074D01*
X013496Y003065D01*
X013517Y003052D01*
X013536Y003036D01*
X013552Y003017D01*
X013565Y002996D01*
X013574Y002974D01*
X013580Y002950D01*
X013582Y002925D01*
X013580Y002900D01*
X013574Y002876D01*
X013565Y002854D01*
X013552Y002833D01*
X013536Y002814D01*
X013517Y002798D01*
X013496Y002785D01*
X013474Y002776D01*
X013450Y002770D01*
X013425Y002768D01*
X013400Y002770D01*
X013376Y002776D01*
X013354Y002785D01*
X013333Y002798D01*
X013314Y002814D01*
X013298Y002833D01*
X013285Y002854D01*
X013276Y002876D01*
X013270Y002900D01*
X013268Y002925D01*
X016418Y002925D02*
X016420Y002950D01*
X016426Y002974D01*
X016435Y002996D01*
X016448Y003017D01*
X016464Y003036D01*
X016483Y003052D01*
X016504Y003065D01*
X016526Y003074D01*
X016550Y003080D01*
X016575Y003082D01*
X016600Y003080D01*
X016624Y003074D01*
X016646Y003065D01*
X016667Y003052D01*
X016686Y003036D01*
X016702Y003017D01*
X016715Y002996D01*
X016724Y002974D01*
X016730Y002950D01*
X016732Y002925D01*
X016730Y002900D01*
X016724Y002876D01*
X016715Y002854D01*
X016702Y002833D01*
X016686Y002814D01*
X016667Y002798D01*
X016646Y002785D01*
X016624Y002776D01*
X016600Y002770D01*
X016575Y002768D01*
X016550Y002770D01*
X016526Y002776D01*
X016504Y002785D01*
X016483Y002798D01*
X016464Y002814D01*
X016448Y002833D01*
X016435Y002854D01*
X016426Y002876D01*
X016420Y002900D01*
X016418Y002925D01*
X005918Y002925D02*
X005920Y002950D01*
X005926Y002974D01*
X005935Y002996D01*
X005948Y003017D01*
X005964Y003036D01*
X005983Y003052D01*
X006004Y003065D01*
X006026Y003074D01*
X006050Y003080D01*
X006075Y003082D01*
X006100Y003080D01*
X006124Y003074D01*
X006146Y003065D01*
X006167Y003052D01*
X006186Y003036D01*
X006202Y003017D01*
X006215Y002996D01*
X006224Y002974D01*
X006230Y002950D01*
X006232Y002925D01*
X006230Y002900D01*
X006224Y002876D01*
X006215Y002854D01*
X006202Y002833D01*
X006186Y002814D01*
X006167Y002798D01*
X006146Y002785D01*
X006124Y002776D01*
X006100Y002770D01*
X006075Y002768D01*
X006050Y002770D01*
X006026Y002776D01*
X006004Y002785D01*
X005983Y002798D01*
X005964Y002814D01*
X005948Y002833D01*
X005935Y002854D01*
X005926Y002876D01*
X005920Y002900D01*
X005918Y002925D01*
X002768Y002925D02*
X002770Y002950D01*
X002776Y002974D01*
X002785Y002996D01*
X002798Y003017D01*
X002814Y003036D01*
X002833Y003052D01*
X002854Y003065D01*
X002876Y003074D01*
X002900Y003080D01*
X002925Y003082D01*
X002950Y003080D01*
X002974Y003074D01*
X002996Y003065D01*
X003017Y003052D01*
X003036Y003036D01*
X003052Y003017D01*
X003065Y002996D01*
X003074Y002974D01*
X003080Y002950D01*
X003082Y002925D01*
X003080Y002900D01*
X003074Y002876D01*
X003065Y002854D01*
X003052Y002833D01*
X003036Y002814D01*
X003017Y002798D01*
X002996Y002785D01*
X002974Y002776D01*
X002950Y002770D01*
X002925Y002768D01*
X002900Y002770D01*
X002876Y002776D01*
X002854Y002785D01*
X002833Y002798D01*
X002814Y002814D01*
X002798Y002833D01*
X002785Y002854D01*
X002776Y002876D01*
X002770Y002900D01*
X002768Y002925D01*
X002768Y006075D02*
X002770Y006100D01*
X002776Y006124D01*
X002785Y006146D01*
X002798Y006167D01*
X002814Y006186D01*
X002833Y006202D01*
X002854Y006215D01*
X002876Y006224D01*
X002900Y006230D01*
X002925Y006232D01*
X002950Y006230D01*
X002974Y006224D01*
X002996Y006215D01*
X003017Y006202D01*
X003036Y006186D01*
X003052Y006167D01*
X003065Y006146D01*
X003074Y006124D01*
X003080Y006100D01*
X003082Y006075D01*
X003080Y006050D01*
X003074Y006026D01*
X003065Y006004D01*
X003052Y005983D01*
X003036Y005964D01*
X003017Y005948D01*
X002996Y005935D01*
X002974Y005926D01*
X002950Y005920D01*
X002925Y005918D01*
X002900Y005920D01*
X002876Y005926D01*
X002854Y005935D01*
X002833Y005948D01*
X002814Y005964D01*
X002798Y005983D01*
X002785Y006004D01*
X002776Y006026D01*
X002770Y006050D01*
X002768Y006075D01*
X005918Y006075D02*
X005920Y006100D01*
X005926Y006124D01*
X005935Y006146D01*
X005948Y006167D01*
X005964Y006186D01*
X005983Y006202D01*
X006004Y006215D01*
X006026Y006224D01*
X006050Y006230D01*
X006075Y006232D01*
X006100Y006230D01*
X006124Y006224D01*
X006146Y006215D01*
X006167Y006202D01*
X006186Y006186D01*
X006202Y006167D01*
X006215Y006146D01*
X006224Y006124D01*
X006230Y006100D01*
X006232Y006075D01*
X006230Y006050D01*
X006224Y006026D01*
X006215Y006004D01*
X006202Y005983D01*
X006186Y005964D01*
X006167Y005948D01*
X006146Y005935D01*
X006124Y005926D01*
X006100Y005920D01*
X006075Y005918D01*
X006050Y005920D01*
X006026Y005926D01*
X006004Y005935D01*
X005983Y005948D01*
X005964Y005964D01*
X005948Y005983D01*
X005935Y006004D01*
X005926Y006026D01*
X005920Y006050D01*
X005918Y006075D01*
X005918Y013425D02*
X005920Y013450D01*
X005926Y013474D01*
X005935Y013496D01*
X005948Y013517D01*
X005964Y013536D01*
X005983Y013552D01*
X006004Y013565D01*
X006026Y013574D01*
X006050Y013580D01*
X006075Y013582D01*
X006100Y013580D01*
X006124Y013574D01*
X006146Y013565D01*
X006167Y013552D01*
X006186Y013536D01*
X006202Y013517D01*
X006215Y013496D01*
X006224Y013474D01*
X006230Y013450D01*
X006232Y013425D01*
X006230Y013400D01*
X006224Y013376D01*
X006215Y013354D01*
X006202Y013333D01*
X006186Y013314D01*
X006167Y013298D01*
X006146Y013285D01*
X006124Y013276D01*
X006100Y013270D01*
X006075Y013268D01*
X006050Y013270D01*
X006026Y013276D01*
X006004Y013285D01*
X005983Y013298D01*
X005964Y013314D01*
X005948Y013333D01*
X005935Y013354D01*
X005926Y013376D01*
X005920Y013400D01*
X005918Y013425D01*
X002768Y013425D02*
X002770Y013450D01*
X002776Y013474D01*
X002785Y013496D01*
X002798Y013517D01*
X002814Y013536D01*
X002833Y013552D01*
X002854Y013565D01*
X002876Y013574D01*
X002900Y013580D01*
X002925Y013582D01*
X002950Y013580D01*
X002974Y013574D01*
X002996Y013565D01*
X003017Y013552D01*
X003036Y013536D01*
X003052Y013517D01*
X003065Y013496D01*
X003074Y013474D01*
X003080Y013450D01*
X003082Y013425D01*
X003080Y013400D01*
X003074Y013376D01*
X003065Y013354D01*
X003052Y013333D01*
X003036Y013314D01*
X003017Y013298D01*
X002996Y013285D01*
X002974Y013276D01*
X002950Y013270D01*
X002925Y013268D01*
X002900Y013270D01*
X002876Y013276D01*
X002854Y013285D01*
X002833Y013298D01*
X002814Y013314D01*
X002798Y013333D01*
X002785Y013354D01*
X002776Y013376D01*
X002770Y013400D01*
X002768Y013425D01*
X002768Y016575D02*
X002770Y016600D01*
X002776Y016624D01*
X002785Y016646D01*
X002798Y016667D01*
X002814Y016686D01*
X002833Y016702D01*
X002854Y016715D01*
X002876Y016724D01*
X002900Y016730D01*
X002925Y016732D01*
X002950Y016730D01*
X002974Y016724D01*
X002996Y016715D01*
X003017Y016702D01*
X003036Y016686D01*
X003052Y016667D01*
X003065Y016646D01*
X003074Y016624D01*
X003080Y016600D01*
X003082Y016575D01*
X003080Y016550D01*
X003074Y016526D01*
X003065Y016504D01*
X003052Y016483D01*
X003036Y016464D01*
X003017Y016448D01*
X002996Y016435D01*
X002974Y016426D01*
X002950Y016420D01*
X002925Y016418D01*
X002900Y016420D01*
X002876Y016426D01*
X002854Y016435D01*
X002833Y016448D01*
X002814Y016464D01*
X002798Y016483D01*
X002785Y016504D01*
X002776Y016526D01*
X002770Y016550D01*
X002768Y016575D01*
X005918Y016575D02*
X005920Y016600D01*
X005926Y016624D01*
X005935Y016646D01*
X005948Y016667D01*
X005964Y016686D01*
X005983Y016702D01*
X006004Y016715D01*
X006026Y016724D01*
X006050Y016730D01*
X006075Y016732D01*
X006100Y016730D01*
X006124Y016724D01*
X006146Y016715D01*
X006167Y016702D01*
X006186Y016686D01*
X006202Y016667D01*
X006215Y016646D01*
X006224Y016624D01*
X006230Y016600D01*
X006232Y016575D01*
X006230Y016550D01*
X006224Y016526D01*
X006215Y016504D01*
X006202Y016483D01*
X006186Y016464D01*
X006167Y016448D01*
X006146Y016435D01*
X006124Y016426D01*
X006100Y016420D01*
X006075Y016418D01*
X006050Y016420D01*
X006026Y016426D01*
X006004Y016435D01*
X005983Y016448D01*
X005964Y016464D01*
X005948Y016483D01*
X005935Y016504D01*
X005926Y016526D01*
X005920Y016550D01*
X005918Y016575D01*
D18*
X006162Y016158D02*
X006105Y016101D01*
X006162Y016158D02*
X006275Y016158D01*
X006332Y016101D01*
X006332Y016044D01*
X006105Y015817D01*
X006332Y015817D01*
X006275Y014189D02*
X006105Y014019D01*
X006332Y014019D01*
X006275Y013849D02*
X006275Y014189D01*
X002867Y014132D02*
X002867Y014076D01*
X002810Y014019D01*
X002867Y013962D01*
X002867Y013906D01*
X002810Y013849D01*
X002697Y013849D01*
X002640Y013906D01*
X002754Y014019D02*
X002810Y014019D01*
X002867Y014132D02*
X002810Y014189D01*
X002697Y014189D01*
X002640Y014132D01*
X002640Y015817D02*
X002867Y015817D01*
X002754Y015817D02*
X002754Y016158D01*
X002640Y016044D01*
X002754Y005658D02*
X002640Y005544D01*
X002754Y005658D02*
X002754Y005317D01*
X002867Y005317D02*
X002640Y005317D01*
X002697Y003689D02*
X002810Y003689D01*
X002867Y003632D01*
X002867Y003576D01*
X002810Y003519D01*
X002867Y003462D01*
X002867Y003406D01*
X002810Y003349D01*
X002697Y003349D01*
X002640Y003406D01*
X002754Y003519D02*
X002810Y003519D01*
X002640Y003632D02*
X002697Y003689D01*
X006105Y003519D02*
X006332Y003519D01*
X006275Y003349D02*
X006275Y003689D01*
X006105Y003519D01*
X006105Y005317D02*
X006332Y005544D01*
X006332Y005601D01*
X006275Y005658D01*
X006162Y005658D01*
X006105Y005601D01*
X006105Y005317D02*
X006332Y005317D01*
X013140Y005317D02*
X013367Y005317D01*
X013254Y005317D02*
X013254Y005658D01*
X013140Y005544D01*
X013197Y003689D02*
X013310Y003689D01*
X013367Y003632D01*
X013367Y003576D01*
X013310Y003519D01*
X013367Y003462D01*
X013367Y003406D01*
X013310Y003349D01*
X013197Y003349D01*
X013140Y003406D01*
X013254Y003519D02*
X013310Y003519D01*
X013140Y003632D02*
X013197Y003689D01*
X016605Y003519D02*
X016832Y003519D01*
X016775Y003349D02*
X016775Y003689D01*
X016605Y003519D01*
X016605Y005317D02*
X016832Y005544D01*
X016832Y005601D01*
X016775Y005658D01*
X016662Y005658D01*
X016605Y005601D01*
X016605Y005317D02*
X016832Y005317D01*
X016775Y013849D02*
X016775Y014189D01*
X016605Y014019D01*
X016832Y014019D01*
X016832Y015817D02*
X016605Y015817D01*
X016832Y016044D01*
X016832Y016101D01*
X016775Y016158D01*
X016662Y016158D01*
X016605Y016101D01*
X013367Y015817D02*
X013140Y015817D01*
X013254Y015817D02*
X013254Y016158D01*
X013140Y016044D01*
X013197Y014189D02*
X013140Y014132D01*
X013197Y014189D02*
X013310Y014189D01*
X013367Y014132D01*
X013367Y014076D01*
X013310Y014019D01*
X013367Y013962D01*
X013367Y013906D01*
X013310Y013849D01*
X013197Y013849D01*
X013140Y013906D01*
X013254Y014019D02*
X013310Y014019D01*
D19*
X007311Y017940D02*
X007206Y017835D01*
X006996Y017835D01*
X006890Y017940D01*
X006890Y018150D02*
X007101Y018255D01*
X007206Y018255D01*
X007311Y018150D01*
X007311Y017940D01*
X006890Y018150D02*
X006890Y018466D01*
X007311Y018466D01*
X006666Y018360D02*
X006561Y018466D01*
X006351Y018466D01*
X006246Y018360D01*
X006246Y018255D01*
X006351Y018150D01*
X006561Y018150D01*
X006666Y018045D01*
X006666Y017940D01*
X006561Y017835D01*
X006351Y017835D01*
X006246Y017940D01*
M02*
