G75*
G70*
%OFA0B0*%
%FSLAX24Y24*%
%IPPOS*%
%LPD*%
%AMOC8*
5,1,8,0,0,1.08239X$1,22.5*
%
%ADD10C,0.0000*%
%ADD11OC8,0.0680*%
%ADD12C,0.0650*%
%ADD13C,0.0740*%
%ADD14C,0.0850*%
%ADD15C,0.0515*%
%ADD16C,0.0630*%
%ADD17C,0.0100*%
D10*
X000000Y000000D02*
X000000Y019496D01*
X019500Y019496D01*
X019510Y000000D01*
X000000Y000000D01*
X000900Y001500D02*
X000902Y001549D01*
X000908Y001597D01*
X000918Y001645D01*
X000932Y001692D01*
X000949Y001738D01*
X000970Y001782D01*
X000995Y001824D01*
X001023Y001864D01*
X001055Y001902D01*
X001089Y001937D01*
X001126Y001969D01*
X001165Y001998D01*
X001207Y002024D01*
X001251Y002046D01*
X001296Y002064D01*
X001343Y002079D01*
X001390Y002090D01*
X001439Y002097D01*
X001488Y002100D01*
X001537Y002099D01*
X001585Y002094D01*
X001634Y002085D01*
X001681Y002072D01*
X001727Y002055D01*
X001771Y002035D01*
X001814Y002011D01*
X001855Y001984D01*
X001893Y001953D01*
X001929Y001920D01*
X001961Y001884D01*
X001991Y001845D01*
X002018Y001804D01*
X002041Y001760D01*
X002060Y001715D01*
X002076Y001669D01*
X002088Y001622D01*
X002096Y001573D01*
X002100Y001524D01*
X002100Y001476D01*
X002096Y001427D01*
X002088Y001378D01*
X002076Y001331D01*
X002060Y001285D01*
X002041Y001240D01*
X002018Y001196D01*
X001991Y001155D01*
X001961Y001116D01*
X001929Y001080D01*
X001893Y001047D01*
X001855Y001016D01*
X001814Y000989D01*
X001771Y000965D01*
X001727Y000945D01*
X001681Y000928D01*
X001634Y000915D01*
X001585Y000906D01*
X001537Y000901D01*
X001488Y000900D01*
X001439Y000903D01*
X001390Y000910D01*
X001343Y000921D01*
X001296Y000936D01*
X001251Y000954D01*
X001207Y000976D01*
X001165Y001002D01*
X001126Y001031D01*
X001089Y001063D01*
X001055Y001098D01*
X001023Y001136D01*
X000995Y001176D01*
X000970Y001218D01*
X000949Y001262D01*
X000932Y001308D01*
X000918Y001355D01*
X000908Y001403D01*
X000902Y001451D01*
X000900Y001500D01*
X004185Y002728D02*
X004187Y002763D01*
X004193Y002798D01*
X004203Y002832D01*
X004216Y002865D01*
X004233Y002896D01*
X004254Y002924D01*
X004277Y002951D01*
X004304Y002974D01*
X004332Y002995D01*
X004363Y003012D01*
X004396Y003025D01*
X004430Y003035D01*
X004465Y003041D01*
X004500Y003043D01*
X004535Y003041D01*
X004570Y003035D01*
X004604Y003025D01*
X004637Y003012D01*
X004668Y002995D01*
X004696Y002974D01*
X004723Y002951D01*
X004746Y002924D01*
X004767Y002896D01*
X004784Y002865D01*
X004797Y002832D01*
X004807Y002798D01*
X004813Y002763D01*
X004815Y002728D01*
X004813Y002693D01*
X004807Y002658D01*
X004797Y002624D01*
X004784Y002591D01*
X004767Y002560D01*
X004746Y002532D01*
X004723Y002505D01*
X004696Y002482D01*
X004668Y002461D01*
X004637Y002444D01*
X004604Y002431D01*
X004570Y002421D01*
X004535Y002415D01*
X004500Y002413D01*
X004465Y002415D01*
X004430Y002421D01*
X004396Y002431D01*
X004363Y002444D01*
X004332Y002461D01*
X004304Y002482D01*
X004277Y002505D01*
X004254Y002532D01*
X004233Y002560D01*
X004216Y002591D01*
X004203Y002624D01*
X004193Y002658D01*
X004187Y002693D01*
X004185Y002728D01*
X004185Y006272D02*
X004187Y006307D01*
X004193Y006342D01*
X004203Y006376D01*
X004216Y006409D01*
X004233Y006440D01*
X004254Y006468D01*
X004277Y006495D01*
X004304Y006518D01*
X004332Y006539D01*
X004363Y006556D01*
X004396Y006569D01*
X004430Y006579D01*
X004465Y006585D01*
X004500Y006587D01*
X004535Y006585D01*
X004570Y006579D01*
X004604Y006569D01*
X004637Y006556D01*
X004668Y006539D01*
X004696Y006518D01*
X004723Y006495D01*
X004746Y006468D01*
X004767Y006440D01*
X004784Y006409D01*
X004797Y006376D01*
X004807Y006342D01*
X004813Y006307D01*
X004815Y006272D01*
X004813Y006237D01*
X004807Y006202D01*
X004797Y006168D01*
X004784Y006135D01*
X004767Y006104D01*
X004746Y006076D01*
X004723Y006049D01*
X004696Y006026D01*
X004668Y006005D01*
X004637Y005988D01*
X004604Y005975D01*
X004570Y005965D01*
X004535Y005959D01*
X004500Y005957D01*
X004465Y005959D01*
X004430Y005965D01*
X004396Y005975D01*
X004363Y005988D01*
X004332Y006005D01*
X004304Y006026D01*
X004277Y006049D01*
X004254Y006076D01*
X004233Y006104D01*
X004216Y006135D01*
X004203Y006168D01*
X004193Y006202D01*
X004187Y006237D01*
X004185Y006272D01*
X004185Y013228D02*
X004187Y013263D01*
X004193Y013298D01*
X004203Y013332D01*
X004216Y013365D01*
X004233Y013396D01*
X004254Y013424D01*
X004277Y013451D01*
X004304Y013474D01*
X004332Y013495D01*
X004363Y013512D01*
X004396Y013525D01*
X004430Y013535D01*
X004465Y013541D01*
X004500Y013543D01*
X004535Y013541D01*
X004570Y013535D01*
X004604Y013525D01*
X004637Y013512D01*
X004668Y013495D01*
X004696Y013474D01*
X004723Y013451D01*
X004746Y013424D01*
X004767Y013396D01*
X004784Y013365D01*
X004797Y013332D01*
X004807Y013298D01*
X004813Y013263D01*
X004815Y013228D01*
X004813Y013193D01*
X004807Y013158D01*
X004797Y013124D01*
X004784Y013091D01*
X004767Y013060D01*
X004746Y013032D01*
X004723Y013005D01*
X004696Y012982D01*
X004668Y012961D01*
X004637Y012944D01*
X004604Y012931D01*
X004570Y012921D01*
X004535Y012915D01*
X004500Y012913D01*
X004465Y012915D01*
X004430Y012921D01*
X004396Y012931D01*
X004363Y012944D01*
X004332Y012961D01*
X004304Y012982D01*
X004277Y013005D01*
X004254Y013032D01*
X004233Y013060D01*
X004216Y013091D01*
X004203Y013124D01*
X004193Y013158D01*
X004187Y013193D01*
X004185Y013228D01*
X004185Y016772D02*
X004187Y016807D01*
X004193Y016842D01*
X004203Y016876D01*
X004216Y016909D01*
X004233Y016940D01*
X004254Y016968D01*
X004277Y016995D01*
X004304Y017018D01*
X004332Y017039D01*
X004363Y017056D01*
X004396Y017069D01*
X004430Y017079D01*
X004465Y017085D01*
X004500Y017087D01*
X004535Y017085D01*
X004570Y017079D01*
X004604Y017069D01*
X004637Y017056D01*
X004668Y017039D01*
X004696Y017018D01*
X004723Y016995D01*
X004746Y016968D01*
X004767Y016940D01*
X004784Y016909D01*
X004797Y016876D01*
X004807Y016842D01*
X004813Y016807D01*
X004815Y016772D01*
X004813Y016737D01*
X004807Y016702D01*
X004797Y016668D01*
X004784Y016635D01*
X004767Y016604D01*
X004746Y016576D01*
X004723Y016549D01*
X004696Y016526D01*
X004668Y016505D01*
X004637Y016488D01*
X004604Y016475D01*
X004570Y016465D01*
X004535Y016459D01*
X004500Y016457D01*
X004465Y016459D01*
X004430Y016465D01*
X004396Y016475D01*
X004363Y016488D01*
X004332Y016505D01*
X004304Y016526D01*
X004277Y016549D01*
X004254Y016576D01*
X004233Y016604D01*
X004216Y016635D01*
X004203Y016668D01*
X004193Y016702D01*
X004187Y016737D01*
X004185Y016772D01*
X000900Y018000D02*
X000902Y018049D01*
X000908Y018097D01*
X000918Y018145D01*
X000932Y018192D01*
X000949Y018238D01*
X000970Y018282D01*
X000995Y018324D01*
X001023Y018364D01*
X001055Y018402D01*
X001089Y018437D01*
X001126Y018469D01*
X001165Y018498D01*
X001207Y018524D01*
X001251Y018546D01*
X001296Y018564D01*
X001343Y018579D01*
X001390Y018590D01*
X001439Y018597D01*
X001488Y018600D01*
X001537Y018599D01*
X001585Y018594D01*
X001634Y018585D01*
X001681Y018572D01*
X001727Y018555D01*
X001771Y018535D01*
X001814Y018511D01*
X001855Y018484D01*
X001893Y018453D01*
X001929Y018420D01*
X001961Y018384D01*
X001991Y018345D01*
X002018Y018304D01*
X002041Y018260D01*
X002060Y018215D01*
X002076Y018169D01*
X002088Y018122D01*
X002096Y018073D01*
X002100Y018024D01*
X002100Y017976D01*
X002096Y017927D01*
X002088Y017878D01*
X002076Y017831D01*
X002060Y017785D01*
X002041Y017740D01*
X002018Y017696D01*
X001991Y017655D01*
X001961Y017616D01*
X001929Y017580D01*
X001893Y017547D01*
X001855Y017516D01*
X001814Y017489D01*
X001771Y017465D01*
X001727Y017445D01*
X001681Y017428D01*
X001634Y017415D01*
X001585Y017406D01*
X001537Y017401D01*
X001488Y017400D01*
X001439Y017403D01*
X001390Y017410D01*
X001343Y017421D01*
X001296Y017436D01*
X001251Y017454D01*
X001207Y017476D01*
X001165Y017502D01*
X001126Y017531D01*
X001089Y017563D01*
X001055Y017598D01*
X001023Y017636D01*
X000995Y017676D01*
X000970Y017718D01*
X000949Y017762D01*
X000932Y017808D01*
X000918Y017855D01*
X000908Y017903D01*
X000902Y017951D01*
X000900Y018000D01*
X014685Y016772D02*
X014687Y016807D01*
X014693Y016842D01*
X014703Y016876D01*
X014716Y016909D01*
X014733Y016940D01*
X014754Y016968D01*
X014777Y016995D01*
X014804Y017018D01*
X014832Y017039D01*
X014863Y017056D01*
X014896Y017069D01*
X014930Y017079D01*
X014965Y017085D01*
X015000Y017087D01*
X015035Y017085D01*
X015070Y017079D01*
X015104Y017069D01*
X015137Y017056D01*
X015168Y017039D01*
X015196Y017018D01*
X015223Y016995D01*
X015246Y016968D01*
X015267Y016940D01*
X015284Y016909D01*
X015297Y016876D01*
X015307Y016842D01*
X015313Y016807D01*
X015315Y016772D01*
X015313Y016737D01*
X015307Y016702D01*
X015297Y016668D01*
X015284Y016635D01*
X015267Y016604D01*
X015246Y016576D01*
X015223Y016549D01*
X015196Y016526D01*
X015168Y016505D01*
X015137Y016488D01*
X015104Y016475D01*
X015070Y016465D01*
X015035Y016459D01*
X015000Y016457D01*
X014965Y016459D01*
X014930Y016465D01*
X014896Y016475D01*
X014863Y016488D01*
X014832Y016505D01*
X014804Y016526D01*
X014777Y016549D01*
X014754Y016576D01*
X014733Y016604D01*
X014716Y016635D01*
X014703Y016668D01*
X014693Y016702D01*
X014687Y016737D01*
X014685Y016772D01*
X017400Y018000D02*
X017402Y018049D01*
X017408Y018097D01*
X017418Y018145D01*
X017432Y018192D01*
X017449Y018238D01*
X017470Y018282D01*
X017495Y018324D01*
X017523Y018364D01*
X017555Y018402D01*
X017589Y018437D01*
X017626Y018469D01*
X017665Y018498D01*
X017707Y018524D01*
X017751Y018546D01*
X017796Y018564D01*
X017843Y018579D01*
X017890Y018590D01*
X017939Y018597D01*
X017988Y018600D01*
X018037Y018599D01*
X018085Y018594D01*
X018134Y018585D01*
X018181Y018572D01*
X018227Y018555D01*
X018271Y018535D01*
X018314Y018511D01*
X018355Y018484D01*
X018393Y018453D01*
X018429Y018420D01*
X018461Y018384D01*
X018491Y018345D01*
X018518Y018304D01*
X018541Y018260D01*
X018560Y018215D01*
X018576Y018169D01*
X018588Y018122D01*
X018596Y018073D01*
X018600Y018024D01*
X018600Y017976D01*
X018596Y017927D01*
X018588Y017878D01*
X018576Y017831D01*
X018560Y017785D01*
X018541Y017740D01*
X018518Y017696D01*
X018491Y017655D01*
X018461Y017616D01*
X018429Y017580D01*
X018393Y017547D01*
X018355Y017516D01*
X018314Y017489D01*
X018271Y017465D01*
X018227Y017445D01*
X018181Y017428D01*
X018134Y017415D01*
X018085Y017406D01*
X018037Y017401D01*
X017988Y017400D01*
X017939Y017403D01*
X017890Y017410D01*
X017843Y017421D01*
X017796Y017436D01*
X017751Y017454D01*
X017707Y017476D01*
X017665Y017502D01*
X017626Y017531D01*
X017589Y017563D01*
X017555Y017598D01*
X017523Y017636D01*
X017495Y017676D01*
X017470Y017718D01*
X017449Y017762D01*
X017432Y017808D01*
X017418Y017855D01*
X017408Y017903D01*
X017402Y017951D01*
X017400Y018000D01*
X014685Y013228D02*
X014687Y013263D01*
X014693Y013298D01*
X014703Y013332D01*
X014716Y013365D01*
X014733Y013396D01*
X014754Y013424D01*
X014777Y013451D01*
X014804Y013474D01*
X014832Y013495D01*
X014863Y013512D01*
X014896Y013525D01*
X014930Y013535D01*
X014965Y013541D01*
X015000Y013543D01*
X015035Y013541D01*
X015070Y013535D01*
X015104Y013525D01*
X015137Y013512D01*
X015168Y013495D01*
X015196Y013474D01*
X015223Y013451D01*
X015246Y013424D01*
X015267Y013396D01*
X015284Y013365D01*
X015297Y013332D01*
X015307Y013298D01*
X015313Y013263D01*
X015315Y013228D01*
X015313Y013193D01*
X015307Y013158D01*
X015297Y013124D01*
X015284Y013091D01*
X015267Y013060D01*
X015246Y013032D01*
X015223Y013005D01*
X015196Y012982D01*
X015168Y012961D01*
X015137Y012944D01*
X015104Y012931D01*
X015070Y012921D01*
X015035Y012915D01*
X015000Y012913D01*
X014965Y012915D01*
X014930Y012921D01*
X014896Y012931D01*
X014863Y012944D01*
X014832Y012961D01*
X014804Y012982D01*
X014777Y013005D01*
X014754Y013032D01*
X014733Y013060D01*
X014716Y013091D01*
X014703Y013124D01*
X014693Y013158D01*
X014687Y013193D01*
X014685Y013228D01*
X014685Y006272D02*
X014687Y006307D01*
X014693Y006342D01*
X014703Y006376D01*
X014716Y006409D01*
X014733Y006440D01*
X014754Y006468D01*
X014777Y006495D01*
X014804Y006518D01*
X014832Y006539D01*
X014863Y006556D01*
X014896Y006569D01*
X014930Y006579D01*
X014965Y006585D01*
X015000Y006587D01*
X015035Y006585D01*
X015070Y006579D01*
X015104Y006569D01*
X015137Y006556D01*
X015168Y006539D01*
X015196Y006518D01*
X015223Y006495D01*
X015246Y006468D01*
X015267Y006440D01*
X015284Y006409D01*
X015297Y006376D01*
X015307Y006342D01*
X015313Y006307D01*
X015315Y006272D01*
X015313Y006237D01*
X015307Y006202D01*
X015297Y006168D01*
X015284Y006135D01*
X015267Y006104D01*
X015246Y006076D01*
X015223Y006049D01*
X015196Y006026D01*
X015168Y006005D01*
X015137Y005988D01*
X015104Y005975D01*
X015070Y005965D01*
X015035Y005959D01*
X015000Y005957D01*
X014965Y005959D01*
X014930Y005965D01*
X014896Y005975D01*
X014863Y005988D01*
X014832Y006005D01*
X014804Y006026D01*
X014777Y006049D01*
X014754Y006076D01*
X014733Y006104D01*
X014716Y006135D01*
X014703Y006168D01*
X014693Y006202D01*
X014687Y006237D01*
X014685Y006272D01*
X014685Y002728D02*
X014687Y002763D01*
X014693Y002798D01*
X014703Y002832D01*
X014716Y002865D01*
X014733Y002896D01*
X014754Y002924D01*
X014777Y002951D01*
X014804Y002974D01*
X014832Y002995D01*
X014863Y003012D01*
X014896Y003025D01*
X014930Y003035D01*
X014965Y003041D01*
X015000Y003043D01*
X015035Y003041D01*
X015070Y003035D01*
X015104Y003025D01*
X015137Y003012D01*
X015168Y002995D01*
X015196Y002974D01*
X015223Y002951D01*
X015246Y002924D01*
X015267Y002896D01*
X015284Y002865D01*
X015297Y002832D01*
X015307Y002798D01*
X015313Y002763D01*
X015315Y002728D01*
X015313Y002693D01*
X015307Y002658D01*
X015297Y002624D01*
X015284Y002591D01*
X015267Y002560D01*
X015246Y002532D01*
X015223Y002505D01*
X015196Y002482D01*
X015168Y002461D01*
X015137Y002444D01*
X015104Y002431D01*
X015070Y002421D01*
X015035Y002415D01*
X015000Y002413D01*
X014965Y002415D01*
X014930Y002421D01*
X014896Y002431D01*
X014863Y002444D01*
X014832Y002461D01*
X014804Y002482D01*
X014777Y002505D01*
X014754Y002532D01*
X014733Y002560D01*
X014716Y002591D01*
X014703Y002624D01*
X014693Y002658D01*
X014687Y002693D01*
X014685Y002728D01*
X017400Y001500D02*
X017402Y001549D01*
X017408Y001597D01*
X017418Y001645D01*
X017432Y001692D01*
X017449Y001738D01*
X017470Y001782D01*
X017495Y001824D01*
X017523Y001864D01*
X017555Y001902D01*
X017589Y001937D01*
X017626Y001969D01*
X017665Y001998D01*
X017707Y002024D01*
X017751Y002046D01*
X017796Y002064D01*
X017843Y002079D01*
X017890Y002090D01*
X017939Y002097D01*
X017988Y002100D01*
X018037Y002099D01*
X018085Y002094D01*
X018134Y002085D01*
X018181Y002072D01*
X018227Y002055D01*
X018271Y002035D01*
X018314Y002011D01*
X018355Y001984D01*
X018393Y001953D01*
X018429Y001920D01*
X018461Y001884D01*
X018491Y001845D01*
X018518Y001804D01*
X018541Y001760D01*
X018560Y001715D01*
X018576Y001669D01*
X018588Y001622D01*
X018596Y001573D01*
X018600Y001524D01*
X018600Y001476D01*
X018596Y001427D01*
X018588Y001378D01*
X018576Y001331D01*
X018560Y001285D01*
X018541Y001240D01*
X018518Y001196D01*
X018491Y001155D01*
X018461Y001116D01*
X018429Y001080D01*
X018393Y001047D01*
X018355Y001016D01*
X018314Y000989D01*
X018271Y000965D01*
X018227Y000945D01*
X018181Y000928D01*
X018134Y000915D01*
X018085Y000906D01*
X018037Y000901D01*
X017988Y000900D01*
X017939Y000903D01*
X017890Y000910D01*
X017843Y000921D01*
X017796Y000936D01*
X017751Y000954D01*
X017707Y000976D01*
X017665Y001002D01*
X017626Y001031D01*
X017589Y001063D01*
X017555Y001098D01*
X017523Y001136D01*
X017495Y001176D01*
X017470Y001218D01*
X017449Y001262D01*
X017432Y001308D01*
X017418Y001355D01*
X017408Y001403D01*
X017402Y001451D01*
X017400Y001500D01*
D11*
X011500Y006500D03*
X011500Y007500D03*
X011500Y008500D03*
X011500Y009500D03*
X008500Y009500D03*
X008500Y008500D03*
X008500Y007500D03*
X008500Y006500D03*
D12*
X009500Y011000D03*
X010500Y011000D03*
D13*
X011000Y012000D03*
X009750Y012000D03*
X008500Y012000D03*
X006500Y011000D03*
X006500Y009750D03*
X006500Y008500D03*
X008500Y005000D03*
X009750Y005000D03*
X011000Y005000D03*
X013500Y008500D03*
X013500Y009750D03*
X013500Y011000D03*
X017500Y011000D03*
X017500Y009750D03*
X017500Y008500D03*
X011000Y016000D03*
X009750Y016000D03*
X008500Y016000D03*
X009000Y018000D03*
X010000Y018000D03*
X011000Y018000D03*
X002500Y011000D03*
X002500Y009750D03*
X002500Y008500D03*
X008500Y001000D03*
X009750Y001000D03*
X011000Y001000D03*
D14*
X012539Y003516D03*
X012539Y005484D03*
X017461Y005484D03*
X017461Y003516D03*
X017461Y014016D03*
X017461Y015984D03*
X012539Y015984D03*
X012539Y014016D03*
X006961Y014016D03*
X006961Y015984D03*
X002039Y015984D03*
X002039Y014016D03*
X002039Y005484D03*
X002039Y003516D03*
X006961Y003516D03*
X006961Y005484D03*
D15*
X004500Y007157D03*
X004500Y012343D03*
X004500Y017657D03*
X015000Y017657D03*
X015000Y012343D03*
X015000Y007157D03*
X015000Y001843D03*
X004500Y001843D03*
D16*
X001000Y009000D03*
X001000Y010500D03*
D17*
X001323Y010835D02*
X002005Y010835D01*
X001980Y010897D02*
X002059Y010705D01*
X002205Y010559D01*
X002397Y010480D01*
X002603Y010480D01*
X002795Y010559D01*
X002941Y010705D01*
X003020Y010897D01*
X003020Y011103D01*
X002941Y011295D01*
X002795Y011441D01*
X002603Y011520D01*
X002397Y011520D01*
X002205Y011441D01*
X002059Y011295D01*
X001980Y011103D01*
X001980Y010897D01*
X001980Y010934D02*
X001168Y010934D01*
X001092Y010965D02*
X001263Y010894D01*
X001394Y010763D01*
X001465Y010592D01*
X001465Y010408D01*
X001394Y010237D01*
X001263Y010106D01*
X001092Y010035D01*
X000908Y010035D01*
X000737Y010106D01*
X000606Y010237D01*
X000535Y010408D01*
X000535Y010592D01*
X000606Y010763D01*
X000737Y010894D01*
X000908Y010965D01*
X001092Y010965D01*
X000832Y010934D02*
X000500Y010934D01*
X000500Y011032D02*
X001980Y011032D01*
X001991Y011131D02*
X000500Y011131D01*
X000500Y011229D02*
X002032Y011229D01*
X002092Y011328D02*
X000500Y011328D01*
X000500Y011426D02*
X002191Y011426D01*
X002809Y011426D02*
X004300Y011426D01*
X004300Y011328D02*
X002908Y011328D01*
X002968Y011229D02*
X004300Y011229D01*
X004300Y011131D02*
X003009Y011131D01*
X003020Y011032D02*
X004300Y011032D01*
X004300Y010934D02*
X003020Y010934D01*
X002995Y010835D02*
X004300Y010835D01*
X004300Y010737D02*
X002954Y010737D01*
X002873Y010638D02*
X004300Y010638D01*
X004300Y010540D02*
X002747Y010540D01*
X002603Y010270D02*
X002397Y010270D01*
X002205Y010191D01*
X002059Y010045D01*
X001980Y009853D01*
X001980Y009647D01*
X002059Y009455D01*
X002205Y009309D01*
X002397Y009230D01*
X002603Y009230D01*
X002795Y009309D01*
X002941Y009455D01*
X003020Y009647D01*
X003020Y009853D01*
X002941Y010045D01*
X002795Y010191D01*
X002603Y010270D01*
X002666Y010244D02*
X004300Y010244D01*
X004300Y010146D02*
X002840Y010146D01*
X002938Y010047D02*
X004300Y010047D01*
X004300Y009949D02*
X002981Y009949D01*
X003020Y009850D02*
X004300Y009850D01*
X004300Y009752D02*
X003020Y009752D01*
X003020Y009653D02*
X004300Y009653D01*
X004300Y009555D02*
X002982Y009555D01*
X002941Y009456D02*
X004300Y009456D01*
X004300Y009358D02*
X002843Y009358D01*
X002674Y009259D02*
X004300Y009259D01*
X004300Y009161D02*
X001437Y009161D01*
X001431Y009178D02*
X001398Y009244D01*
X001355Y009303D01*
X001303Y009355D01*
X001244Y009398D01*
X001178Y009431D01*
X001109Y009454D01*
X001050Y009463D01*
X001050Y009050D01*
X000950Y009050D01*
X000950Y009463D01*
X000891Y009454D01*
X000822Y009431D01*
X000756Y009398D01*
X000697Y009355D01*
X000645Y009303D01*
X000602Y009244D01*
X000569Y009178D01*
X000546Y009109D01*
X000537Y009050D01*
X000950Y009050D01*
X000950Y008950D01*
X000537Y008950D01*
X000546Y008891D01*
X000569Y008822D01*
X000602Y008756D01*
X000645Y008697D01*
X000697Y008645D01*
X000756Y008602D01*
X000822Y008569D01*
X000891Y008546D01*
X000950Y008537D01*
X000950Y008950D01*
X001050Y008950D01*
X001050Y009050D01*
X001463Y009050D01*
X001454Y009109D01*
X001431Y009178D01*
X001387Y009259D02*
X002326Y009259D01*
X002157Y009358D02*
X001299Y009358D01*
X001461Y009062D02*
X004300Y009062D01*
X004300Y008964D02*
X002740Y008964D01*
X002795Y008941D02*
X002603Y009020D01*
X002397Y009020D01*
X002205Y008941D01*
X002059Y008795D01*
X001980Y008603D01*
X001980Y008397D01*
X002059Y008205D01*
X002205Y008059D01*
X002397Y007980D01*
X002603Y007980D01*
X002795Y008059D01*
X002941Y008205D01*
X003020Y008397D01*
X003020Y008603D01*
X002941Y008795D01*
X002795Y008941D01*
X002870Y008865D02*
X004300Y008865D01*
X004300Y008767D02*
X002952Y008767D01*
X002993Y008668D02*
X004300Y008668D01*
X004300Y008570D02*
X003020Y008570D01*
X003020Y008471D02*
X004300Y008471D01*
X004300Y008373D02*
X003010Y008373D01*
X002969Y008274D02*
X004300Y008274D01*
X004300Y008176D02*
X002911Y008176D01*
X002812Y008077D02*
X004300Y008077D01*
X004300Y007979D02*
X000500Y007979D01*
X000500Y008077D02*
X002188Y008077D01*
X002089Y008176D02*
X000500Y008176D01*
X000500Y008274D02*
X002031Y008274D01*
X001990Y008373D02*
X000500Y008373D01*
X000500Y008471D02*
X001980Y008471D01*
X001980Y008570D02*
X001179Y008570D01*
X001178Y008569D02*
X001244Y008602D01*
X001303Y008645D01*
X001355Y008697D01*
X001398Y008756D01*
X001431Y008822D01*
X001454Y008891D01*
X001463Y008950D01*
X001050Y008950D01*
X001050Y008537D01*
X001109Y008546D01*
X001178Y008569D01*
X001050Y008570D02*
X000950Y008570D01*
X000950Y008668D02*
X001050Y008668D01*
X001050Y008767D02*
X000950Y008767D01*
X000950Y008865D02*
X001050Y008865D01*
X001050Y008964D02*
X002260Y008964D01*
X002130Y008865D02*
X001445Y008865D01*
X001403Y008767D02*
X002048Y008767D01*
X002007Y008668D02*
X001326Y008668D01*
X000950Y008964D02*
X000500Y008964D01*
X000500Y009062D02*
X000539Y009062D01*
X000563Y009161D02*
X000500Y009161D01*
X000500Y009259D02*
X000613Y009259D01*
X000701Y009358D02*
X000500Y009358D01*
X000500Y009456D02*
X000907Y009456D01*
X000950Y009456D02*
X001050Y009456D01*
X001093Y009456D02*
X002059Y009456D01*
X002018Y009555D02*
X000500Y009555D01*
X000500Y009653D02*
X001980Y009653D01*
X001980Y009752D02*
X000500Y009752D01*
X000500Y009850D02*
X001980Y009850D01*
X002019Y009949D02*
X000500Y009949D01*
X000500Y010047D02*
X000878Y010047D01*
X000697Y010146D02*
X000500Y010146D01*
X000500Y010244D02*
X000603Y010244D01*
X000562Y010343D02*
X000500Y010343D01*
X000500Y010441D02*
X000535Y010441D01*
X000535Y010540D02*
X000500Y010540D01*
X000500Y010638D02*
X000554Y010638D01*
X000595Y010737D02*
X000500Y010737D01*
X000500Y010835D02*
X000677Y010835D01*
X001122Y010047D02*
X002062Y010047D01*
X002160Y010146D02*
X001303Y010146D01*
X001397Y010244D02*
X002334Y010244D01*
X002253Y010540D02*
X001465Y010540D01*
X001465Y010441D02*
X004300Y010441D01*
X004300Y010343D02*
X001438Y010343D01*
X001446Y010638D02*
X002127Y010638D01*
X002046Y010737D02*
X001405Y010737D01*
X000500Y011525D02*
X004300Y011525D01*
X004300Y011623D02*
X000500Y011623D01*
X000500Y011722D02*
X004300Y011722D01*
X004300Y011820D02*
X000500Y011820D01*
X000500Y011919D02*
X004300Y011919D01*
X004300Y011984D02*
X004300Y007516D01*
X004269Y007503D01*
X004155Y007388D01*
X004093Y007239D01*
X004093Y007076D01*
X004155Y006927D01*
X004269Y006812D01*
X004419Y006750D01*
X004581Y006750D01*
X004731Y006812D01*
X004845Y006927D01*
X004907Y007076D01*
X004907Y007239D01*
X004845Y007388D01*
X004731Y007503D01*
X004700Y007516D01*
X004700Y007600D01*
X005717Y007600D01*
X007717Y005600D01*
X010883Y005600D01*
X011000Y005717D01*
X011295Y006012D01*
X011297Y006010D01*
X011703Y006010D01*
X011990Y006297D01*
X011990Y006703D01*
X011703Y006990D01*
X011297Y006990D01*
X011010Y006703D01*
X011010Y006297D01*
X011012Y006295D01*
X010717Y006000D01*
X007883Y006000D01*
X006000Y007883D01*
X005883Y008000D01*
X004700Y008000D01*
X004700Y011984D01*
X004731Y011997D01*
X004845Y012112D01*
X004907Y012261D01*
X004907Y012424D01*
X004845Y012573D01*
X004731Y012688D01*
X004581Y012750D01*
X004419Y012750D01*
X004269Y012688D01*
X004155Y012573D01*
X004093Y012424D01*
X004093Y012261D01*
X004155Y012112D01*
X004269Y011997D01*
X004300Y011984D01*
X004249Y012017D02*
X000500Y012017D01*
X000500Y012116D02*
X004153Y012116D01*
X004112Y012214D02*
X000500Y012214D01*
X000500Y012313D02*
X004093Y012313D01*
X004093Y012411D02*
X000500Y012411D01*
X000500Y012510D02*
X004128Y012510D01*
X004189Y012608D02*
X000500Y012608D01*
X000500Y012707D02*
X004314Y012707D01*
X004307Y012805D02*
X000500Y012805D01*
X000500Y012904D02*
X004167Y012904D01*
X004106Y012965D02*
X004237Y012834D01*
X004408Y012763D01*
X004592Y012763D01*
X004763Y012834D01*
X004894Y012965D01*
X004965Y013136D01*
X004965Y013321D01*
X004894Y013492D01*
X004763Y013623D01*
X004592Y013693D01*
X004408Y013693D01*
X004237Y013623D01*
X004106Y013492D01*
X004035Y013321D01*
X004035Y013136D01*
X004106Y012965D01*
X004090Y013002D02*
X000500Y013002D01*
X000500Y013101D02*
X004050Y013101D01*
X004035Y013199D02*
X000500Y013199D01*
X000500Y013298D02*
X004035Y013298D01*
X004066Y013396D02*
X000500Y013396D01*
X000500Y013495D02*
X001795Y013495D01*
X001714Y013528D02*
X001925Y013441D01*
X002154Y013441D01*
X002365Y013528D01*
X002527Y013690D01*
X002614Y013900D01*
X006386Y013900D01*
X006473Y013690D01*
X006635Y013528D01*
X006846Y013441D01*
X007075Y013441D01*
X007286Y013528D01*
X007448Y013690D01*
X007536Y013901D01*
X007536Y014130D01*
X007448Y014341D01*
X007286Y014503D01*
X007075Y014591D01*
X006846Y014591D01*
X006635Y014503D01*
X006473Y014341D01*
X006456Y014300D01*
X002544Y014300D01*
X002527Y014341D01*
X002365Y014503D01*
X002154Y014591D01*
X001925Y014591D01*
X001714Y014503D01*
X001552Y014341D01*
X001464Y014130D01*
X001464Y013901D01*
X001552Y013690D01*
X001714Y013528D01*
X001649Y013593D02*
X000500Y013593D01*
X000500Y013692D02*
X001551Y013692D01*
X001510Y013790D02*
X000500Y013790D01*
X000500Y013889D02*
X001470Y013889D01*
X001464Y013987D02*
X000500Y013987D01*
X000500Y014086D02*
X001464Y014086D01*
X001487Y014184D02*
X000500Y014184D01*
X000500Y014283D02*
X001528Y014283D01*
X001591Y014381D02*
X000500Y014381D01*
X000500Y014480D02*
X001690Y014480D01*
X001894Y014578D02*
X000500Y014578D01*
X000500Y014677D02*
X008541Y014677D01*
X008442Y014775D02*
X000500Y014775D01*
X000500Y014874D02*
X005844Y014874D01*
X005800Y014917D02*
X005917Y014800D01*
X008417Y014800D01*
X010217Y013000D01*
X009317Y013000D01*
X008769Y012452D01*
X008603Y012520D01*
X008397Y012520D01*
X008205Y012441D01*
X008059Y012295D01*
X007980Y012103D01*
X007980Y011897D01*
X008059Y011705D01*
X008205Y011559D01*
X008397Y011480D01*
X008603Y011480D01*
X008795Y011559D01*
X008941Y011705D01*
X009020Y011897D01*
X009020Y012103D01*
X009010Y012127D01*
X009483Y012600D01*
X010117Y012600D01*
X010519Y012198D01*
X010480Y012103D01*
X010480Y011897D01*
X010559Y011705D01*
X010705Y011559D01*
X010897Y011480D01*
X011103Y011480D01*
X011295Y011559D01*
X011441Y011705D01*
X011520Y011897D01*
X011520Y012103D01*
X011441Y012295D01*
X011295Y012441D01*
X011103Y012520D01*
X010897Y012520D01*
X010802Y012481D01*
X010483Y012800D01*
X012917Y012800D01*
X017019Y008698D01*
X016980Y008603D01*
X016980Y008397D01*
X017059Y008205D01*
X017205Y008059D01*
X017397Y007980D01*
X017603Y007980D01*
X017763Y008046D01*
X014617Y004900D01*
X012517Y004900D01*
X012400Y004783D01*
X010517Y002900D01*
X005217Y002900D01*
X005100Y002783D01*
X004965Y002648D01*
X004965Y002821D01*
X004894Y002992D01*
X004763Y003123D01*
X004592Y003193D01*
X004408Y003193D01*
X004237Y003123D01*
X004106Y002992D01*
X004035Y002821D01*
X004035Y002636D01*
X004106Y002465D01*
X004237Y002334D01*
X004408Y002263D01*
X004581Y002263D01*
X004567Y002250D01*
X004419Y002250D01*
X004269Y002188D01*
X004155Y002073D01*
X004093Y001924D01*
X004093Y001761D01*
X004155Y001612D01*
X004269Y001497D01*
X004419Y001435D01*
X004581Y001435D01*
X004731Y001497D01*
X004845Y001612D01*
X004907Y001761D01*
X004907Y001924D01*
X004878Y001995D01*
X005383Y002500D01*
X010683Y002500D01*
X012683Y004500D01*
X014783Y004500D01*
X018333Y008050D01*
X018450Y008167D01*
X018450Y010333D01*
X017981Y010802D01*
X018020Y010897D01*
X018020Y011103D01*
X017941Y011295D01*
X017795Y011441D01*
X017603Y011520D01*
X017397Y011520D01*
X017205Y011441D01*
X017059Y011295D01*
X016980Y011103D01*
X016980Y010897D01*
X017059Y010705D01*
X017205Y010559D01*
X017397Y010480D01*
X017603Y010480D01*
X017698Y010519D01*
X018050Y010167D01*
X018050Y008333D01*
X017954Y008237D01*
X018020Y008397D01*
X018020Y008603D01*
X017941Y008795D01*
X017795Y008941D01*
X017603Y009020D01*
X017397Y009020D01*
X017302Y008981D01*
X013083Y013200D01*
X010583Y013200D01*
X008583Y015200D01*
X006083Y015200D01*
X005700Y015583D01*
X005700Y017583D01*
X005583Y017700D01*
X005425Y017857D01*
X004858Y017857D01*
X004845Y017888D01*
X004731Y018003D01*
X004581Y018065D01*
X004419Y018065D01*
X004269Y018003D01*
X004155Y017888D01*
X004093Y017739D01*
X004093Y017576D01*
X004155Y017427D01*
X004269Y017312D01*
X004419Y017250D01*
X004581Y017250D01*
X004731Y017312D01*
X004845Y017427D01*
X004858Y017457D01*
X005260Y017457D01*
X005300Y017417D01*
X005300Y015417D01*
X005800Y014917D01*
X005745Y014972D02*
X000500Y014972D01*
X000500Y015071D02*
X005647Y015071D01*
X005548Y015169D02*
X000500Y015169D01*
X000500Y015268D02*
X005450Y015268D01*
X005351Y015366D02*
X000500Y015366D01*
X000500Y015465D02*
X001792Y015465D01*
X001714Y015497D02*
X001925Y015409D01*
X002154Y015409D01*
X002365Y015497D01*
X002527Y015659D01*
X002614Y015870D01*
X002614Y016099D01*
X002527Y016310D01*
X002365Y016472D01*
X002154Y016559D01*
X001925Y016559D01*
X001714Y016472D01*
X001552Y016310D01*
X001464Y016099D01*
X001464Y015870D01*
X001552Y015659D01*
X001714Y015497D01*
X001647Y015563D02*
X000500Y015563D01*
X000500Y015662D02*
X001551Y015662D01*
X001510Y015760D02*
X000500Y015760D01*
X000500Y015859D02*
X001469Y015859D01*
X001464Y015957D02*
X000500Y015957D01*
X000500Y016056D02*
X001464Y016056D01*
X001487Y016154D02*
X000500Y016154D01*
X000500Y016253D02*
X001528Y016253D01*
X001593Y016351D02*
X000500Y016351D01*
X000500Y016450D02*
X001691Y016450D01*
X001898Y016548D02*
X000500Y016548D01*
X000500Y016647D02*
X004049Y016647D01*
X004035Y016679D02*
X004106Y016508D01*
X004237Y016377D01*
X004408Y016307D01*
X004592Y016307D01*
X004763Y016377D01*
X004894Y016508D01*
X004965Y016679D01*
X004965Y016864D01*
X004894Y017035D01*
X004763Y017166D01*
X004592Y017237D01*
X004408Y017237D01*
X004237Y017166D01*
X004106Y017035D01*
X004035Y016864D01*
X004035Y016679D01*
X004035Y016745D02*
X000500Y016745D01*
X000500Y016844D02*
X004035Y016844D01*
X004067Y016942D02*
X000500Y016942D01*
X000500Y017041D02*
X004111Y017041D01*
X004210Y017139D02*
X001824Y017139D01*
X001967Y017191D02*
X001662Y017080D01*
X001579Y017080D01*
X001338Y017080D01*
X001033Y017191D01*
X001033Y017191D01*
X000784Y017400D01*
X000784Y017400D01*
X000622Y017680D01*
X000622Y017680D01*
X000566Y018000D01*
X000566Y018000D01*
X000622Y018320D01*
X000622Y018320D01*
X000784Y018600D01*
X000784Y018600D01*
X000784Y018600D01*
X001033Y018809D01*
X001033Y018809D01*
X001338Y018920D01*
X001662Y018920D01*
X001967Y018809D01*
X001967Y018809D01*
X002216Y018600D01*
X002216Y018600D01*
X002378Y018320D01*
X002378Y018320D01*
X002434Y018000D01*
X002434Y018000D01*
X002378Y017680D01*
X002378Y017680D01*
X002216Y017400D01*
X002216Y017400D01*
X002216Y017400D01*
X001967Y017191D01*
X001967Y017191D01*
X002023Y017238D02*
X005300Y017238D01*
X005300Y017336D02*
X004755Y017336D01*
X004849Y017435D02*
X005283Y017435D01*
X005500Y017500D02*
X005343Y017657D01*
X004500Y017657D01*
X004807Y017927D02*
X008480Y017927D01*
X008480Y017897D02*
X008559Y017705D01*
X008705Y017559D01*
X008897Y017480D01*
X009103Y017480D01*
X009295Y017559D01*
X009441Y017705D01*
X009500Y017848D01*
X009559Y017705D01*
X009705Y017559D01*
X009897Y017480D01*
X010103Y017480D01*
X010295Y017559D01*
X010441Y017705D01*
X010500Y017848D01*
X010559Y017705D01*
X010705Y017559D01*
X010897Y017480D01*
X011103Y017480D01*
X011295Y017559D01*
X011441Y017705D01*
X011520Y017897D01*
X011520Y018103D01*
X011441Y018295D01*
X011295Y018441D01*
X011103Y018520D01*
X010897Y018520D01*
X010705Y018441D01*
X010559Y018295D01*
X010500Y018152D01*
X010441Y018295D01*
X010295Y018441D01*
X010103Y018520D01*
X009897Y018520D01*
X009705Y018441D01*
X009559Y018295D01*
X009500Y018152D01*
X009441Y018295D01*
X009295Y018441D01*
X009103Y018520D01*
X008897Y018520D01*
X008705Y018441D01*
X008559Y018295D01*
X008480Y018103D01*
X008480Y017897D01*
X008508Y017829D02*
X005454Y017829D01*
X005553Y017730D02*
X008549Y017730D01*
X008633Y017632D02*
X005651Y017632D01*
X005700Y017533D02*
X008769Y017533D01*
X009231Y017533D02*
X009769Y017533D01*
X009633Y017632D02*
X009367Y017632D01*
X009451Y017730D02*
X009549Y017730D01*
X009508Y017829D02*
X009492Y017829D01*
X009471Y018223D02*
X009529Y018223D01*
X009586Y018321D02*
X009414Y018321D01*
X009316Y018420D02*
X009684Y018420D01*
X009892Y018518D02*
X009108Y018518D01*
X008892Y018518D02*
X002263Y018518D01*
X002320Y018420D02*
X008684Y018420D01*
X008586Y018321D02*
X002377Y018321D01*
X002395Y018223D02*
X008529Y018223D01*
X008489Y018124D02*
X002412Y018124D01*
X002430Y018026D02*
X004324Y018026D01*
X004193Y017927D02*
X002421Y017927D01*
X002404Y017829D02*
X004130Y017829D01*
X004093Y017730D02*
X002387Y017730D01*
X002350Y017632D02*
X004093Y017632D01*
X004110Y017533D02*
X002293Y017533D01*
X002236Y017435D02*
X004151Y017435D01*
X004245Y017336D02*
X002140Y017336D01*
X001662Y017080D02*
X001662Y017080D01*
X001176Y017139D02*
X000500Y017139D01*
X000500Y017238D02*
X000977Y017238D01*
X000860Y017336D02*
X000500Y017336D01*
X000500Y017435D02*
X000764Y017435D01*
X000707Y017533D02*
X000500Y017533D01*
X000500Y017632D02*
X000650Y017632D01*
X000613Y017730D02*
X000500Y017730D01*
X000500Y017829D02*
X000596Y017829D01*
X000579Y017927D02*
X000500Y017927D01*
X000500Y018026D02*
X000570Y018026D01*
X000588Y018124D02*
X000500Y018124D01*
X000500Y018223D02*
X000605Y018223D01*
X000623Y018321D02*
X000500Y018321D01*
X000500Y018420D02*
X000680Y018420D01*
X000737Y018518D02*
X000500Y018518D01*
X000500Y018617D02*
X000804Y018617D01*
X000921Y018715D02*
X000500Y018715D01*
X000500Y018814D02*
X001045Y018814D01*
X001316Y018912D02*
X000500Y018912D01*
X000500Y019000D02*
X019000Y019000D01*
X019000Y000500D01*
X011152Y000500D01*
X011295Y000559D01*
X011441Y000705D01*
X011520Y000897D01*
X011520Y001103D01*
X011441Y001295D01*
X011295Y001441D01*
X011103Y001520D01*
X010897Y001520D01*
X010705Y001441D01*
X010559Y001295D01*
X010480Y001103D01*
X010480Y000897D01*
X010559Y000705D01*
X010705Y000559D01*
X010848Y000500D01*
X009902Y000500D01*
X010045Y000559D01*
X010191Y000705D01*
X010270Y000897D01*
X010270Y001103D01*
X010245Y001163D01*
X012162Y003080D01*
X012214Y003028D01*
X012425Y002941D01*
X012654Y002941D01*
X012865Y003028D01*
X013027Y003190D01*
X013114Y003400D01*
X016886Y003400D01*
X016973Y003190D01*
X017135Y003028D01*
X017346Y002941D01*
X017575Y002941D01*
X017786Y003028D01*
X017948Y003190D01*
X018036Y003401D01*
X018036Y003630D01*
X017948Y003841D01*
X017786Y004003D01*
X017575Y004091D01*
X017346Y004091D01*
X017135Y004003D01*
X016973Y003841D01*
X016956Y003800D01*
X013044Y003800D01*
X013027Y003841D01*
X012865Y004003D01*
X012654Y004091D01*
X012425Y004091D01*
X012214Y004003D01*
X012052Y003841D01*
X011964Y003630D01*
X011964Y003447D01*
X009983Y001466D01*
X009853Y001520D01*
X009647Y001520D01*
X009455Y001441D01*
X009309Y001295D01*
X009230Y001103D01*
X009230Y000897D01*
X009309Y000705D01*
X009455Y000559D01*
X009598Y000500D01*
X008652Y000500D01*
X008795Y000559D01*
X008941Y000705D01*
X009020Y000897D01*
X009020Y001103D01*
X008941Y001295D01*
X008795Y001441D01*
X008603Y001520D01*
X008397Y001520D01*
X008205Y001441D01*
X008059Y001295D01*
X007980Y001103D01*
X007980Y000897D01*
X008059Y000705D01*
X008205Y000559D01*
X008348Y000500D01*
X000500Y000500D01*
X000500Y019000D01*
X001684Y018912D02*
X017816Y018912D01*
X017838Y018920D02*
X017533Y018809D01*
X017284Y018600D01*
X017122Y018320D01*
X017122Y018320D01*
X017066Y018000D01*
X017122Y017680D01*
X017284Y017400D01*
X017284Y017400D01*
X017533Y017191D01*
X017838Y017080D01*
X017921Y017080D01*
X018162Y017080D01*
X018467Y017191D01*
X018467Y017191D01*
X018716Y017400D01*
X018878Y017680D01*
X018878Y017680D01*
X018934Y018000D01*
X018878Y018320D01*
X018716Y018600D01*
X018716Y018600D01*
X018467Y018809D01*
X018162Y018920D01*
X017838Y018920D01*
X018184Y018912D02*
X019000Y018912D01*
X019000Y018814D02*
X018455Y018814D01*
X018467Y018809D02*
X018467Y018809D01*
X018579Y018715D02*
X019000Y018715D01*
X019000Y018617D02*
X018696Y018617D01*
X018763Y018518D02*
X019000Y018518D01*
X019000Y018420D02*
X018820Y018420D01*
X018877Y018321D02*
X019000Y018321D01*
X019000Y018223D02*
X018895Y018223D01*
X018878Y018320D02*
X018878Y018320D01*
X018912Y018124D02*
X019000Y018124D01*
X019000Y018026D02*
X018930Y018026D01*
X018934Y018000D02*
X018934Y018000D01*
X018921Y017927D02*
X019000Y017927D01*
X019000Y017829D02*
X018904Y017829D01*
X018887Y017730D02*
X019000Y017730D01*
X019000Y017632D02*
X018850Y017632D01*
X018793Y017533D02*
X019000Y017533D01*
X019000Y017435D02*
X018736Y017435D01*
X018716Y017400D02*
X018716Y017400D01*
X018716Y017400D01*
X018640Y017336D02*
X019000Y017336D01*
X019000Y017238D02*
X018523Y017238D01*
X018324Y017139D02*
X019000Y017139D01*
X019000Y017041D02*
X015389Y017041D01*
X015394Y017035D02*
X015263Y017166D01*
X015092Y017237D01*
X014908Y017237D01*
X014737Y017166D01*
X014606Y017035D01*
X014535Y016864D01*
X014535Y016679D01*
X014606Y016508D01*
X014737Y016377D01*
X014908Y016307D01*
X015092Y016307D01*
X015263Y016377D01*
X015394Y016508D01*
X015465Y016679D01*
X015465Y016864D01*
X015394Y017035D01*
X015433Y016942D02*
X019000Y016942D01*
X019000Y016844D02*
X015465Y016844D01*
X015465Y016745D02*
X019000Y016745D01*
X019000Y016647D02*
X015451Y016647D01*
X015411Y016548D02*
X017319Y016548D01*
X017346Y016559D02*
X017135Y016472D01*
X016973Y016310D01*
X016886Y016099D01*
X016886Y015870D01*
X016973Y015659D01*
X017135Y015497D01*
X017346Y015409D01*
X017575Y015409D01*
X017786Y015497D01*
X017948Y015659D01*
X018036Y015870D01*
X018036Y016099D01*
X017948Y016310D01*
X017786Y016472D01*
X017575Y016559D01*
X017346Y016559D01*
X017602Y016548D02*
X019000Y016548D01*
X019000Y016450D02*
X017809Y016450D01*
X017907Y016351D02*
X019000Y016351D01*
X019000Y016253D02*
X017972Y016253D01*
X018013Y016154D02*
X019000Y016154D01*
X019000Y016056D02*
X018036Y016056D01*
X018036Y015957D02*
X019000Y015957D01*
X019000Y015859D02*
X018031Y015859D01*
X017990Y015760D02*
X019000Y015760D01*
X019000Y015662D02*
X017949Y015662D01*
X017853Y015563D02*
X019000Y015563D01*
X019000Y015465D02*
X017708Y015465D01*
X017213Y015465D02*
X012787Y015465D01*
X012865Y015497D02*
X012654Y015409D01*
X012425Y015409D01*
X012214Y015497D01*
X012052Y015659D01*
X011964Y015870D01*
X011964Y016099D01*
X012052Y016310D01*
X012214Y016472D01*
X012425Y016559D01*
X012654Y016559D01*
X012865Y016472D01*
X013027Y016310D01*
X013114Y016099D01*
X013114Y015870D01*
X013027Y015659D01*
X012865Y015497D01*
X012931Y015563D02*
X017069Y015563D01*
X016972Y015662D02*
X013028Y015662D01*
X013069Y015760D02*
X016931Y015760D01*
X016890Y015859D02*
X013110Y015859D01*
X013114Y015957D02*
X016886Y015957D01*
X016886Y016056D02*
X013114Y016056D01*
X013091Y016154D02*
X016909Y016154D01*
X016949Y016253D02*
X013051Y016253D01*
X012986Y016351D02*
X014800Y016351D01*
X014665Y016450D02*
X012887Y016450D01*
X012681Y016548D02*
X014589Y016548D01*
X014549Y016647D02*
X005700Y016647D01*
X005700Y016745D02*
X014535Y016745D01*
X014535Y016844D02*
X005700Y016844D01*
X005700Y016942D02*
X014567Y016942D01*
X014611Y017041D02*
X005700Y017041D01*
X005700Y017139D02*
X014710Y017139D01*
X014769Y017312D02*
X014919Y017250D01*
X015081Y017250D01*
X015231Y017312D01*
X015345Y017427D01*
X015407Y017576D01*
X015407Y017739D01*
X015345Y017888D01*
X015231Y018003D01*
X015081Y018065D01*
X014919Y018065D01*
X014769Y018003D01*
X014655Y017888D01*
X014593Y017739D01*
X014593Y017576D01*
X014655Y017427D01*
X014769Y017312D01*
X014745Y017336D02*
X005700Y017336D01*
X005700Y017238D02*
X017477Y017238D01*
X017533Y017191D02*
X017533Y017191D01*
X017676Y017139D02*
X015290Y017139D01*
X015255Y017336D02*
X017360Y017336D01*
X017264Y017435D02*
X015349Y017435D01*
X015390Y017533D02*
X017207Y017533D01*
X017150Y017632D02*
X015407Y017632D01*
X015407Y017730D02*
X017113Y017730D01*
X017122Y017680D02*
X017122Y017680D01*
X017096Y017829D02*
X015370Y017829D01*
X015307Y017927D02*
X017079Y017927D01*
X017066Y018000D02*
X017066Y018000D01*
X017070Y018026D02*
X015176Y018026D01*
X014824Y018026D02*
X011520Y018026D01*
X011511Y018124D02*
X017088Y018124D01*
X017105Y018223D02*
X011471Y018223D01*
X011414Y018321D02*
X017123Y018321D01*
X017180Y018420D02*
X011316Y018420D01*
X011108Y018518D02*
X017237Y018518D01*
X017284Y018600D02*
X017284Y018600D01*
X017284Y018600D01*
X017304Y018617D02*
X002196Y018617D01*
X002079Y018715D02*
X017421Y018715D01*
X017545Y018814D02*
X001955Y018814D01*
X002181Y016548D02*
X004089Y016548D01*
X004165Y016450D02*
X002387Y016450D01*
X002486Y016351D02*
X004300Y016351D01*
X004700Y016351D02*
X005300Y016351D01*
X005300Y016253D02*
X002551Y016253D01*
X002591Y016154D02*
X005300Y016154D01*
X005300Y016056D02*
X002614Y016056D01*
X002614Y015957D02*
X005300Y015957D01*
X005300Y015859D02*
X002610Y015859D01*
X002569Y015760D02*
X005300Y015760D01*
X005300Y015662D02*
X002528Y015662D01*
X002431Y015563D02*
X005300Y015563D01*
X005300Y015465D02*
X002287Y015465D01*
X002184Y014578D02*
X006816Y014578D01*
X006611Y014480D02*
X002389Y014480D01*
X002487Y014381D02*
X006513Y014381D01*
X006900Y014100D02*
X006961Y014016D01*
X006900Y014100D02*
X002100Y014100D01*
X002039Y014016D01*
X002430Y013593D02*
X004207Y013593D01*
X004109Y013495D02*
X002284Y013495D01*
X002527Y013692D02*
X004403Y013692D01*
X004597Y013692D02*
X006473Y013692D01*
X006432Y013790D02*
X002568Y013790D01*
X002609Y013889D02*
X006391Y013889D01*
X006570Y013593D02*
X004793Y013593D01*
X004891Y013495D02*
X006716Y013495D01*
X007205Y013495D02*
X009723Y013495D01*
X009624Y013593D02*
X007351Y013593D01*
X007449Y013692D02*
X009526Y013692D01*
X009427Y013790D02*
X007490Y013790D01*
X007530Y013889D02*
X009329Y013889D01*
X009230Y013987D02*
X007536Y013987D01*
X007536Y014086D02*
X009132Y014086D01*
X009033Y014184D02*
X007513Y014184D01*
X007472Y014283D02*
X008935Y014283D01*
X008836Y014381D02*
X007409Y014381D01*
X007310Y014480D02*
X008738Y014480D01*
X008639Y014578D02*
X007106Y014578D01*
X007075Y015409D02*
X006846Y015409D01*
X006635Y015497D01*
X006473Y015659D01*
X006386Y015870D01*
X006386Y016099D01*
X006473Y016310D01*
X006635Y016472D01*
X006846Y016559D01*
X007075Y016559D01*
X007286Y016472D01*
X007448Y016310D01*
X007536Y016099D01*
X007536Y015870D01*
X007448Y015659D01*
X007286Y015497D01*
X007075Y015409D01*
X007208Y015465D02*
X012292Y015465D01*
X012147Y015563D02*
X011283Y015563D01*
X011273Y015555D02*
X011339Y015603D01*
X011397Y015661D01*
X011445Y015727D01*
X011482Y015800D01*
X011507Y015878D01*
X011520Y015959D01*
X011520Y015961D01*
X011039Y015961D01*
X011039Y016039D01*
X010961Y016039D01*
X010961Y016520D01*
X010959Y016520D01*
X010878Y016507D01*
X010800Y016482D01*
X010727Y016445D01*
X010661Y016397D01*
X010603Y016339D01*
X010555Y016273D01*
X010518Y016200D01*
X010493Y016122D01*
X010480Y016041D01*
X010480Y016039D01*
X010961Y016039D01*
X010961Y015961D01*
X010480Y015961D01*
X010480Y015959D01*
X010493Y015878D01*
X010518Y015800D01*
X010555Y015727D01*
X010603Y015661D01*
X010661Y015603D01*
X010727Y015555D01*
X010800Y015518D01*
X010878Y015493D01*
X010959Y015480D01*
X010961Y015480D01*
X010961Y015961D01*
X011039Y015961D01*
X011039Y015480D01*
X011041Y015480D01*
X011122Y015493D01*
X011200Y015518D01*
X011273Y015555D01*
X011397Y015662D02*
X012051Y015662D01*
X012010Y015760D02*
X011461Y015760D01*
X011501Y015859D02*
X011969Y015859D01*
X011964Y015957D02*
X011520Y015957D01*
X011520Y016039D02*
X011520Y016041D01*
X011507Y016122D01*
X011482Y016200D01*
X011445Y016273D01*
X011397Y016339D01*
X011339Y016397D01*
X011273Y016445D01*
X011200Y016482D01*
X011122Y016507D01*
X011041Y016520D01*
X011039Y016520D01*
X011039Y016039D01*
X011520Y016039D01*
X011518Y016056D02*
X011964Y016056D01*
X011987Y016154D02*
X011497Y016154D01*
X011455Y016253D02*
X012028Y016253D01*
X012093Y016351D02*
X011384Y016351D01*
X011263Y016450D02*
X012191Y016450D01*
X012398Y016548D02*
X007102Y016548D01*
X007309Y016450D02*
X008226Y016450D01*
X008205Y016441D02*
X008059Y016295D01*
X007980Y016103D01*
X007980Y015897D01*
X008059Y015705D01*
X008205Y015559D01*
X008397Y015480D01*
X008603Y015480D01*
X008795Y015559D01*
X008941Y015705D01*
X009020Y015897D01*
X009020Y015900D01*
X009230Y015900D01*
X009230Y015897D01*
X009309Y015705D01*
X009455Y015559D01*
X009647Y015480D01*
X009853Y015480D01*
X010045Y015559D01*
X010191Y015705D01*
X010270Y015897D01*
X010270Y016103D01*
X010191Y016295D01*
X010045Y016441D01*
X009853Y016520D01*
X009647Y016520D01*
X009455Y016441D01*
X009315Y016300D01*
X008935Y016300D01*
X008795Y016441D01*
X008603Y016520D01*
X008397Y016520D01*
X008205Y016441D01*
X008116Y016351D02*
X007407Y016351D01*
X007472Y016253D02*
X008042Y016253D01*
X008001Y016154D02*
X007513Y016154D01*
X007536Y016056D02*
X007980Y016056D01*
X007980Y015957D02*
X007536Y015957D01*
X007531Y015859D02*
X007996Y015859D01*
X008037Y015760D02*
X007490Y015760D01*
X007449Y015662D02*
X008103Y015662D01*
X008202Y015563D02*
X007353Y015563D01*
X006713Y015465D02*
X005818Y015465D01*
X005720Y015563D02*
X006569Y015563D01*
X006472Y015662D02*
X005700Y015662D01*
X005700Y015760D02*
X006431Y015760D01*
X006390Y015859D02*
X005700Y015859D01*
X005700Y015957D02*
X006386Y015957D01*
X006386Y016056D02*
X005700Y016056D01*
X005700Y016154D02*
X006409Y016154D01*
X006449Y016253D02*
X005700Y016253D01*
X005700Y016351D02*
X006514Y016351D01*
X006613Y016450D02*
X005700Y016450D01*
X005700Y016548D02*
X006819Y016548D01*
X005700Y017435D02*
X014651Y017435D01*
X014610Y017533D02*
X011231Y017533D01*
X011367Y017632D02*
X014593Y017632D01*
X014593Y017730D02*
X011451Y017730D01*
X011492Y017829D02*
X014630Y017829D01*
X014693Y017927D02*
X011520Y017927D01*
X010892Y018518D02*
X010108Y018518D01*
X010316Y018420D02*
X010684Y018420D01*
X010586Y018321D02*
X010414Y018321D01*
X010471Y018223D02*
X010529Y018223D01*
X010508Y017829D02*
X010492Y017829D01*
X010451Y017730D02*
X010549Y017730D01*
X010633Y017632D02*
X010367Y017632D01*
X010231Y017533D02*
X010769Y017533D01*
X010737Y016450D02*
X010024Y016450D01*
X010134Y016351D02*
X010616Y016351D01*
X010545Y016253D02*
X010208Y016253D01*
X010249Y016154D02*
X010503Y016154D01*
X010482Y016056D02*
X010270Y016056D01*
X010270Y015957D02*
X010480Y015957D01*
X010499Y015859D02*
X010254Y015859D01*
X010213Y015760D02*
X010539Y015760D01*
X010603Y015662D02*
X010147Y015662D01*
X010048Y015563D02*
X010717Y015563D01*
X010961Y015563D02*
X011039Y015563D01*
X011039Y015662D02*
X010961Y015662D01*
X010961Y015760D02*
X011039Y015760D01*
X011039Y015859D02*
X010961Y015859D01*
X010961Y015957D02*
X011039Y015957D01*
X011039Y016056D02*
X010961Y016056D01*
X010961Y016154D02*
X011039Y016154D01*
X011039Y016253D02*
X010961Y016253D01*
X010961Y016351D02*
X011039Y016351D01*
X011039Y016450D02*
X010961Y016450D01*
X009750Y016000D02*
X009700Y016000D01*
X009600Y016100D01*
X008600Y016100D01*
X008500Y016000D01*
X008884Y016351D02*
X009366Y016351D01*
X009476Y016450D02*
X008774Y016450D01*
X009004Y015859D02*
X009246Y015859D01*
X009287Y015760D02*
X008963Y015760D01*
X008897Y015662D02*
X009353Y015662D01*
X009452Y015563D02*
X008798Y015563D01*
X008614Y015169D02*
X019000Y015169D01*
X019000Y015071D02*
X008712Y015071D01*
X008811Y014972D02*
X019000Y014972D01*
X019000Y014874D02*
X008909Y014874D01*
X009008Y014775D02*
X019000Y014775D01*
X019000Y014677D02*
X009106Y014677D01*
X009205Y014578D02*
X012394Y014578D01*
X012425Y014591D02*
X012214Y014503D01*
X012052Y014341D01*
X011964Y014130D01*
X011964Y013901D01*
X012052Y013690D01*
X012214Y013528D01*
X012425Y013441D01*
X012654Y013441D01*
X012865Y013528D01*
X013027Y013690D01*
X013114Y013900D01*
X016886Y013900D01*
X016973Y013690D01*
X017135Y013528D01*
X017346Y013441D01*
X017575Y013441D01*
X017786Y013528D01*
X017948Y013690D01*
X018036Y013901D01*
X018036Y014130D01*
X017948Y014341D01*
X017786Y014503D01*
X017575Y014591D01*
X017346Y014591D01*
X017135Y014503D01*
X016973Y014341D01*
X016956Y014300D01*
X013044Y014300D01*
X013027Y014341D01*
X012865Y014503D01*
X012654Y014591D01*
X012425Y014591D01*
X012190Y014480D02*
X009303Y014480D01*
X009402Y014381D02*
X012091Y014381D01*
X012028Y014283D02*
X009500Y014283D01*
X009599Y014184D02*
X011987Y014184D01*
X011964Y014086D02*
X009697Y014086D01*
X009796Y013987D02*
X011964Y013987D01*
X011970Y013889D02*
X009894Y013889D01*
X009993Y013790D02*
X012010Y013790D01*
X012051Y013692D02*
X010091Y013692D01*
X010190Y013593D02*
X012149Y013593D01*
X012295Y013495D02*
X010288Y013495D01*
X010387Y013396D02*
X014566Y013396D01*
X014535Y013321D02*
X014535Y013136D01*
X014606Y012965D01*
X014737Y012834D01*
X014908Y012763D01*
X015092Y012763D01*
X015263Y012834D01*
X015394Y012965D01*
X015465Y013136D01*
X015465Y013321D01*
X015394Y013492D01*
X015263Y013623D01*
X015092Y013693D01*
X014908Y013693D01*
X014737Y013623D01*
X014606Y013492D01*
X014535Y013321D01*
X014535Y013298D02*
X010485Y013298D01*
X010500Y013000D02*
X013000Y013000D01*
X017400Y008600D01*
X017400Y008500D01*
X017500Y008500D01*
X017870Y008865D02*
X018050Y008865D01*
X018050Y008767D02*
X017952Y008767D01*
X017993Y008668D02*
X018050Y008668D01*
X018050Y008570D02*
X018020Y008570D01*
X018020Y008471D02*
X018050Y008471D01*
X018050Y008373D02*
X018010Y008373D01*
X017991Y008274D02*
X017969Y008274D01*
X018250Y008250D02*
X018250Y010250D01*
X017500Y011000D01*
X017127Y010638D02*
X015645Y010638D01*
X015743Y010540D02*
X017253Y010540D01*
X017046Y010737D02*
X015546Y010737D01*
X015448Y010835D02*
X017005Y010835D01*
X016980Y010934D02*
X015349Y010934D01*
X015251Y011032D02*
X016980Y011032D01*
X016991Y011131D02*
X015152Y011131D01*
X015054Y011229D02*
X017032Y011229D01*
X017092Y011328D02*
X014955Y011328D01*
X014857Y011426D02*
X017191Y011426D01*
X017809Y011426D02*
X019000Y011426D01*
X019000Y011328D02*
X017908Y011328D01*
X017968Y011229D02*
X019000Y011229D01*
X019000Y011131D02*
X018009Y011131D01*
X018020Y011032D02*
X019000Y011032D01*
X019000Y010934D02*
X018020Y010934D01*
X017995Y010835D02*
X019000Y010835D01*
X019000Y010737D02*
X018046Y010737D01*
X018145Y010638D02*
X019000Y010638D01*
X019000Y010540D02*
X018243Y010540D01*
X018342Y010441D02*
X019000Y010441D01*
X019000Y010343D02*
X018440Y010343D01*
X018450Y010244D02*
X019000Y010244D01*
X019000Y010146D02*
X018450Y010146D01*
X018450Y010047D02*
X019000Y010047D01*
X019000Y009949D02*
X018450Y009949D01*
X018450Y009850D02*
X019000Y009850D01*
X019000Y009752D02*
X018450Y009752D01*
X018450Y009653D02*
X019000Y009653D01*
X019000Y009555D02*
X018450Y009555D01*
X018450Y009456D02*
X019000Y009456D01*
X019000Y009358D02*
X018450Y009358D01*
X018450Y009259D02*
X019000Y009259D01*
X019000Y009161D02*
X018450Y009161D01*
X018450Y009062D02*
X019000Y009062D01*
X019000Y008964D02*
X018450Y008964D01*
X018450Y008865D02*
X019000Y008865D01*
X019000Y008767D02*
X018450Y008767D01*
X018450Y008668D02*
X019000Y008668D01*
X019000Y008570D02*
X018450Y008570D01*
X018450Y008471D02*
X019000Y008471D01*
X019000Y008373D02*
X018450Y008373D01*
X018450Y008274D02*
X019000Y008274D01*
X019000Y008176D02*
X018450Y008176D01*
X018360Y008077D02*
X019000Y008077D01*
X019000Y007979D02*
X018261Y007979D01*
X018163Y007880D02*
X019000Y007880D01*
X019000Y007782D02*
X018064Y007782D01*
X017966Y007683D02*
X019000Y007683D01*
X019000Y007585D02*
X017867Y007585D01*
X017769Y007486D02*
X019000Y007486D01*
X019000Y007388D02*
X017670Y007388D01*
X017572Y007289D02*
X019000Y007289D01*
X019000Y007191D02*
X017473Y007191D01*
X017375Y007092D02*
X019000Y007092D01*
X019000Y006994D02*
X017276Y006994D01*
X017178Y006895D02*
X019000Y006895D01*
X019000Y006797D02*
X017079Y006797D01*
X016981Y006698D02*
X019000Y006698D01*
X019000Y006600D02*
X016882Y006600D01*
X016784Y006501D02*
X019000Y006501D01*
X019000Y006403D02*
X016685Y006403D01*
X016587Y006304D02*
X019000Y006304D01*
X019000Y006206D02*
X016488Y006206D01*
X016390Y006107D02*
X019000Y006107D01*
X019000Y006009D02*
X017697Y006009D01*
X017786Y005972D02*
X017575Y006059D01*
X017346Y006059D01*
X017135Y005972D01*
X016973Y005810D01*
X016886Y005599D01*
X016886Y005370D01*
X016973Y005159D01*
X017135Y004997D01*
X017346Y004909D01*
X017575Y004909D01*
X017786Y004997D01*
X017948Y005159D01*
X018036Y005370D01*
X018036Y005599D01*
X017948Y005810D01*
X017786Y005972D01*
X017848Y005910D02*
X019000Y005910D01*
X019000Y005812D02*
X017947Y005812D01*
X017988Y005713D02*
X019000Y005713D01*
X019000Y005615D02*
X018029Y005615D01*
X018036Y005516D02*
X019000Y005516D01*
X019000Y005418D02*
X018036Y005418D01*
X018015Y005319D02*
X019000Y005319D01*
X019000Y005221D02*
X017974Y005221D01*
X017912Y005122D02*
X019000Y005122D01*
X019000Y005024D02*
X017813Y005024D01*
X017613Y004925D02*
X019000Y004925D01*
X019000Y004827D02*
X015109Y004827D01*
X015208Y004925D02*
X017308Y004925D01*
X017108Y005024D02*
X015306Y005024D01*
X015405Y005122D02*
X017010Y005122D01*
X016947Y005221D02*
X015503Y005221D01*
X015602Y005319D02*
X016907Y005319D01*
X016886Y005418D02*
X015700Y005418D01*
X015799Y005516D02*
X016886Y005516D01*
X016892Y005615D02*
X015897Y005615D01*
X015996Y005713D02*
X016933Y005713D01*
X016975Y005812D02*
X016094Y005812D01*
X016193Y005910D02*
X017073Y005910D01*
X017224Y006009D02*
X016291Y006009D01*
X016021Y006304D02*
X015465Y006304D01*
X015465Y006364D02*
X015394Y006535D01*
X015263Y006666D01*
X015092Y006737D01*
X014908Y006737D01*
X014737Y006666D01*
X014606Y006535D01*
X014535Y006364D01*
X014535Y006179D01*
X014606Y006008D01*
X014737Y005877D01*
X014908Y005807D01*
X015092Y005807D01*
X015263Y005877D01*
X015394Y006008D01*
X015465Y006179D01*
X015465Y006364D01*
X015449Y006403D02*
X016120Y006403D01*
X016218Y006501D02*
X015408Y006501D01*
X015330Y006600D02*
X016317Y006600D01*
X016415Y006698D02*
X015186Y006698D01*
X015193Y006797D02*
X016514Y006797D01*
X016612Y006895D02*
X015314Y006895D01*
X015345Y006927D02*
X015407Y007076D01*
X015407Y007239D01*
X015345Y007388D01*
X015231Y007503D01*
X015081Y007565D01*
X014919Y007565D01*
X014769Y007503D01*
X014655Y007388D01*
X014593Y007239D01*
X014593Y007076D01*
X014655Y006927D01*
X014769Y006812D01*
X014919Y006750D01*
X015081Y006750D01*
X015231Y006812D01*
X015345Y006927D01*
X015373Y006994D02*
X016711Y006994D01*
X016809Y007092D02*
X015407Y007092D01*
X015407Y007191D02*
X016908Y007191D01*
X017006Y007289D02*
X015387Y007289D01*
X015346Y007388D02*
X017105Y007388D01*
X017203Y007486D02*
X015248Y007486D01*
X014752Y007486D02*
X011990Y007486D01*
X011990Y007388D02*
X014654Y007388D01*
X014613Y007289D02*
X011982Y007289D01*
X011990Y007297D02*
X011990Y007703D01*
X011988Y007705D01*
X012583Y008300D01*
X013020Y008300D01*
X013059Y008205D01*
X013205Y008059D01*
X013397Y007980D01*
X013603Y007980D01*
X013795Y008059D01*
X013941Y008205D01*
X014020Y008397D01*
X014020Y008603D01*
X013941Y008795D01*
X013795Y008941D01*
X013603Y009020D01*
X013397Y009020D01*
X013205Y008941D01*
X013059Y008795D01*
X013020Y008700D01*
X012900Y008700D01*
X012900Y008817D01*
X013337Y009255D01*
X013397Y009230D01*
X013603Y009230D01*
X013795Y009309D01*
X013941Y009455D01*
X014020Y009647D01*
X014020Y009853D01*
X013941Y010045D01*
X013795Y010191D01*
X013603Y010270D01*
X013397Y010270D01*
X013205Y010191D01*
X013059Y010045D01*
X012980Y009853D01*
X012980Y009647D01*
X013034Y009517D01*
X012617Y009100D01*
X012500Y008983D01*
X012500Y008700D01*
X012417Y008700D01*
X012300Y008583D01*
X011705Y007988D01*
X011703Y007990D01*
X011297Y007990D01*
X011010Y007703D01*
X011010Y007297D01*
X011297Y007010D01*
X011703Y007010D01*
X011990Y007297D01*
X011883Y007191D02*
X014593Y007191D01*
X014593Y007092D02*
X011785Y007092D01*
X011798Y006895D02*
X014686Y006895D01*
X014627Y006994D02*
X006889Y006994D01*
X006791Y007092D02*
X008215Y007092D01*
X008297Y007010D02*
X008010Y007297D01*
X008010Y007703D01*
X008012Y007705D01*
X007417Y008300D01*
X006980Y008300D01*
X006941Y008205D01*
X006795Y008059D01*
X006603Y007980D01*
X006397Y007980D01*
X006205Y008059D01*
X006059Y008205D01*
X005980Y008397D01*
X005980Y008603D01*
X006059Y008795D01*
X006205Y008941D01*
X006397Y009020D01*
X006603Y009020D01*
X006795Y008941D01*
X006941Y008795D01*
X006980Y008700D01*
X007583Y008700D01*
X007700Y008583D01*
X008295Y007988D01*
X008297Y007990D01*
X008703Y007990D01*
X008990Y007703D01*
X008990Y007297D01*
X008703Y007010D01*
X008297Y007010D01*
X008297Y006990D02*
X008010Y006703D01*
X008010Y006530D01*
X008470Y006530D01*
X008470Y006990D01*
X008297Y006990D01*
X008202Y006895D02*
X006988Y006895D01*
X007086Y006797D02*
X008104Y006797D01*
X008010Y006698D02*
X007185Y006698D01*
X007283Y006600D02*
X008010Y006600D01*
X008010Y006470D02*
X008010Y006297D01*
X008297Y006010D01*
X008470Y006010D01*
X008470Y006470D01*
X008010Y006470D01*
X008010Y006403D02*
X007480Y006403D01*
X007382Y006501D02*
X008470Y006501D01*
X008470Y006530D02*
X008470Y006470D01*
X008530Y006470D01*
X008530Y006530D01*
X008470Y006530D01*
X008530Y006530D02*
X008530Y006990D01*
X008703Y006990D01*
X008990Y006703D01*
X008990Y006530D01*
X008530Y006530D01*
X008530Y006501D02*
X011010Y006501D01*
X011010Y006403D02*
X008990Y006403D01*
X008990Y006470D02*
X008990Y006297D01*
X008703Y006010D01*
X008530Y006010D01*
X008530Y006470D01*
X008990Y006470D01*
X008990Y006600D02*
X011010Y006600D01*
X011010Y006698D02*
X008990Y006698D01*
X008896Y006797D02*
X011104Y006797D01*
X011202Y006895D02*
X008798Y006895D01*
X008785Y007092D02*
X011215Y007092D01*
X011117Y007191D02*
X008883Y007191D01*
X008982Y007289D02*
X011018Y007289D01*
X011010Y007388D02*
X008990Y007388D01*
X008990Y007486D02*
X011010Y007486D01*
X011010Y007585D02*
X008990Y007585D01*
X008990Y007683D02*
X011010Y007683D01*
X011089Y007782D02*
X008911Y007782D01*
X008813Y007880D02*
X011187Y007880D01*
X011286Y007979D02*
X008714Y007979D01*
X008703Y008010D02*
X008990Y008297D01*
X008990Y008703D01*
X008703Y008990D01*
X008297Y008990D01*
X008010Y008703D01*
X008010Y008297D01*
X008297Y008010D01*
X008703Y008010D01*
X008770Y008077D02*
X011230Y008077D01*
X011297Y008010D02*
X011010Y008297D01*
X011010Y008703D01*
X011297Y008990D01*
X011703Y008990D01*
X011990Y008703D01*
X011990Y008297D01*
X011703Y008010D01*
X011297Y008010D01*
X011132Y008176D02*
X008868Y008176D01*
X008967Y008274D02*
X011033Y008274D01*
X011010Y008373D02*
X008990Y008373D01*
X008990Y008471D02*
X011010Y008471D01*
X011010Y008570D02*
X008990Y008570D01*
X008990Y008668D02*
X011010Y008668D01*
X011074Y008767D02*
X008926Y008767D01*
X008828Y008865D02*
X011172Y008865D01*
X011271Y008964D02*
X008729Y008964D01*
X008703Y009010D02*
X008990Y009297D01*
X008990Y009703D01*
X008703Y009990D01*
X008297Y009990D01*
X008010Y009703D01*
X008010Y009297D01*
X008297Y009010D01*
X008703Y009010D01*
X008755Y009062D02*
X011245Y009062D01*
X011297Y009010D02*
X011010Y009297D01*
X011010Y009703D01*
X011297Y009990D01*
X011703Y009990D01*
X011990Y009703D01*
X011990Y009297D01*
X011703Y009010D01*
X011297Y009010D01*
X011147Y009161D02*
X008853Y009161D01*
X008952Y009259D02*
X011048Y009259D01*
X011010Y009358D02*
X008990Y009358D01*
X008990Y009456D02*
X011010Y009456D01*
X011010Y009555D02*
X008990Y009555D01*
X008990Y009653D02*
X011010Y009653D01*
X011059Y009752D02*
X008941Y009752D01*
X008843Y009850D02*
X011157Y009850D01*
X011256Y009949D02*
X008744Y009949D01*
X008256Y009949D02*
X006981Y009949D01*
X007020Y009853D02*
X006941Y010045D01*
X006795Y010191D01*
X006603Y010270D01*
X006397Y010270D01*
X006205Y010191D01*
X006059Y010045D01*
X005980Y009853D01*
X005980Y009647D01*
X006059Y009455D01*
X006205Y009309D01*
X006397Y009230D01*
X006603Y009230D01*
X006795Y009309D01*
X006941Y009455D01*
X007020Y009647D01*
X007020Y009853D01*
X007020Y009850D02*
X008157Y009850D01*
X008059Y009752D02*
X007020Y009752D01*
X007020Y009653D02*
X008010Y009653D01*
X008010Y009555D02*
X006982Y009555D01*
X006941Y009456D02*
X008010Y009456D01*
X008010Y009358D02*
X006843Y009358D01*
X006674Y009259D02*
X008048Y009259D01*
X008147Y009161D02*
X004700Y009161D01*
X004700Y009259D02*
X006326Y009259D01*
X006157Y009358D02*
X004700Y009358D01*
X004700Y009456D02*
X006059Y009456D01*
X006018Y009555D02*
X004700Y009555D01*
X004700Y009653D02*
X005980Y009653D01*
X005980Y009752D02*
X004700Y009752D01*
X004700Y009850D02*
X005980Y009850D01*
X006019Y009949D02*
X004700Y009949D01*
X004700Y010047D02*
X006062Y010047D01*
X006160Y010146D02*
X004700Y010146D01*
X004700Y010244D02*
X006334Y010244D01*
X006397Y010480D02*
X006205Y010559D01*
X006059Y010705D01*
X005980Y010897D01*
X005980Y011103D01*
X006059Y011295D01*
X006205Y011441D01*
X006397Y011520D01*
X006603Y011520D01*
X006795Y011441D01*
X006941Y011295D01*
X007020Y011103D01*
X007020Y010897D01*
X006941Y010705D01*
X006795Y010559D01*
X006603Y010480D01*
X006397Y010480D01*
X006253Y010540D02*
X004700Y010540D01*
X004700Y010638D02*
X006127Y010638D01*
X006046Y010737D02*
X004700Y010737D01*
X004700Y010835D02*
X006005Y010835D01*
X005980Y010934D02*
X004700Y010934D01*
X004700Y011032D02*
X005980Y011032D01*
X005991Y011131D02*
X004700Y011131D01*
X004700Y011229D02*
X006032Y011229D01*
X006092Y011328D02*
X004700Y011328D01*
X004700Y011426D02*
X006191Y011426D01*
X006809Y011426D02*
X009290Y011426D01*
X009318Y011440D02*
X009251Y011406D01*
X009191Y011362D01*
X009138Y011309D01*
X009094Y011249D01*
X009060Y011182D01*
X009037Y011111D01*
X009025Y011037D01*
X009025Y011019D01*
X009481Y011019D01*
X009481Y011475D01*
X009463Y011475D01*
X009389Y011463D01*
X009318Y011440D01*
X009481Y011426D02*
X009519Y011426D01*
X009519Y011475D02*
X009537Y011475D01*
X009611Y011463D01*
X009682Y011440D01*
X009749Y011406D01*
X009809Y011362D01*
X009862Y011309D01*
X009906Y011249D01*
X009940Y011182D01*
X009963Y011111D01*
X009975Y011037D01*
X009975Y011019D01*
X009519Y011019D01*
X009519Y010981D01*
X009975Y010981D01*
X009975Y010963D01*
X009963Y010889D01*
X009940Y010818D01*
X009906Y010751D01*
X009862Y010691D01*
X009809Y010638D01*
X009749Y010594D01*
X009682Y010560D01*
X009611Y010537D01*
X009537Y010525D01*
X009519Y010525D01*
X009519Y010981D01*
X009481Y010981D01*
X009481Y010525D01*
X009463Y010525D01*
X009389Y010537D01*
X009318Y010560D01*
X009251Y010594D01*
X009191Y010638D01*
X009138Y010691D01*
X009094Y010751D01*
X009060Y010818D01*
X009037Y010889D01*
X009025Y010963D01*
X009025Y010981D01*
X009481Y010981D01*
X009481Y011019D01*
X009519Y011019D01*
X009519Y011475D01*
X009539Y011525D02*
X008711Y011525D01*
X008858Y011623D02*
X009392Y011623D01*
X009455Y011559D02*
X009647Y011480D01*
X009853Y011480D01*
X010045Y011559D01*
X010191Y011705D01*
X010270Y011897D01*
X010270Y012103D01*
X010191Y012295D01*
X010045Y012441D01*
X009853Y012520D01*
X009647Y012520D01*
X009455Y012441D01*
X009309Y012295D01*
X009230Y012103D01*
X009230Y011897D01*
X009309Y011705D01*
X009455Y011559D01*
X009303Y011722D02*
X008947Y011722D01*
X008988Y011820D02*
X009262Y011820D01*
X009230Y011919D02*
X009020Y011919D01*
X009020Y012017D02*
X009230Y012017D01*
X009235Y012116D02*
X009015Y012116D01*
X009097Y012214D02*
X009276Y012214D01*
X009327Y012313D02*
X009195Y012313D01*
X009294Y012411D02*
X009426Y012411D01*
X009392Y012510D02*
X009621Y012510D01*
X009400Y012800D02*
X008600Y012000D01*
X008500Y012000D01*
X008289Y011525D02*
X004700Y011525D01*
X004700Y011623D02*
X008142Y011623D01*
X008053Y011722D02*
X004700Y011722D01*
X004700Y011820D02*
X008012Y011820D01*
X007980Y011919D02*
X004700Y011919D01*
X004751Y012017D02*
X007980Y012017D01*
X007985Y012116D02*
X004847Y012116D01*
X004888Y012214D02*
X008026Y012214D01*
X008077Y012313D02*
X004907Y012313D01*
X004907Y012411D02*
X008176Y012411D01*
X008371Y012510D02*
X004872Y012510D01*
X004811Y012608D02*
X008925Y012608D01*
X008827Y012510D02*
X008629Y012510D01*
X009024Y012707D02*
X004686Y012707D01*
X004693Y012805D02*
X009122Y012805D01*
X009221Y012904D02*
X004833Y012904D01*
X004910Y013002D02*
X010215Y013002D01*
X010117Y013101D02*
X004950Y013101D01*
X004965Y013199D02*
X010018Y013199D01*
X009920Y013298D02*
X004965Y013298D01*
X004934Y013396D02*
X009821Y013396D01*
X010200Y012800D02*
X009400Y012800D01*
X009879Y012510D02*
X010208Y012510D01*
X010306Y012411D02*
X010074Y012411D01*
X010173Y012313D02*
X010405Y012313D01*
X010503Y012214D02*
X010224Y012214D01*
X010265Y012116D02*
X010485Y012116D01*
X010480Y012017D02*
X010270Y012017D01*
X010270Y011919D02*
X010480Y011919D01*
X010512Y011820D02*
X010238Y011820D01*
X010197Y011722D02*
X010553Y011722D01*
X010642Y011623D02*
X010108Y011623D01*
X009961Y011525D02*
X010789Y011525D01*
X010769Y011403D02*
X010594Y011475D01*
X010406Y011475D01*
X010231Y011403D01*
X010097Y011269D01*
X010025Y011094D01*
X010025Y010906D01*
X010097Y010731D01*
X010231Y010597D01*
X010406Y010525D01*
X010594Y010525D01*
X010769Y010597D01*
X010903Y010731D01*
X010975Y010906D01*
X010975Y011094D01*
X010903Y011269D01*
X010769Y011403D01*
X010713Y011426D02*
X013191Y011426D01*
X013205Y011441D02*
X013059Y011295D01*
X012980Y011103D01*
X012980Y010897D01*
X013059Y010705D01*
X013205Y010559D01*
X013397Y010480D01*
X013603Y010480D01*
X013795Y010559D01*
X013941Y010705D01*
X014020Y010897D01*
X014020Y011103D01*
X013941Y011295D01*
X013795Y011441D01*
X013603Y011520D01*
X013397Y011520D01*
X013205Y011441D01*
X013092Y011328D02*
X010844Y011328D01*
X010919Y011229D02*
X013032Y011229D01*
X012991Y011131D02*
X010960Y011131D01*
X010975Y011032D02*
X012980Y011032D01*
X012980Y010934D02*
X010975Y010934D01*
X010946Y010835D02*
X013005Y010835D01*
X013046Y010737D02*
X010905Y010737D01*
X010810Y010638D02*
X013127Y010638D01*
X013253Y010540D02*
X010630Y010540D01*
X010370Y010540D02*
X009620Y010540D01*
X009519Y010540D02*
X009481Y010540D01*
X009481Y010638D02*
X009519Y010638D01*
X009519Y010737D02*
X009481Y010737D01*
X009481Y010835D02*
X009519Y010835D01*
X009519Y010934D02*
X009481Y010934D01*
X009481Y011032D02*
X009519Y011032D01*
X009519Y011131D02*
X009481Y011131D01*
X009481Y011229D02*
X009519Y011229D01*
X009519Y011328D02*
X009481Y011328D01*
X009710Y011426D02*
X010287Y011426D01*
X010156Y011328D02*
X009844Y011328D01*
X009916Y011229D02*
X010081Y011229D01*
X010040Y011131D02*
X009957Y011131D01*
X009975Y011032D02*
X010025Y011032D01*
X010025Y010934D02*
X009970Y010934D01*
X009946Y010835D02*
X010054Y010835D01*
X010095Y010737D02*
X009896Y010737D01*
X009810Y010638D02*
X010190Y010638D01*
X009380Y010540D02*
X006747Y010540D01*
X006873Y010638D02*
X009190Y010638D01*
X009104Y010737D02*
X006954Y010737D01*
X006995Y010835D02*
X009054Y010835D01*
X009030Y010934D02*
X007020Y010934D01*
X007020Y011032D02*
X009025Y011032D01*
X009043Y011131D02*
X007009Y011131D01*
X006968Y011229D02*
X009084Y011229D01*
X009156Y011328D02*
X006908Y011328D01*
X006666Y010244D02*
X013334Y010244D01*
X013160Y010146D02*
X006840Y010146D01*
X006938Y010047D02*
X013062Y010047D01*
X013019Y009949D02*
X011744Y009949D01*
X011843Y009850D02*
X012980Y009850D01*
X012980Y009752D02*
X011941Y009752D01*
X011990Y009653D02*
X012980Y009653D01*
X013018Y009555D02*
X011990Y009555D01*
X011990Y009456D02*
X012973Y009456D01*
X012875Y009358D02*
X011990Y009358D01*
X011952Y009259D02*
X012776Y009259D01*
X012678Y009161D02*
X011853Y009161D01*
X011755Y009062D02*
X012579Y009062D01*
X012500Y008964D02*
X011729Y008964D01*
X011828Y008865D02*
X012500Y008865D01*
X012500Y008767D02*
X011926Y008767D01*
X011990Y008668D02*
X012385Y008668D01*
X012287Y008570D02*
X011990Y008570D01*
X011990Y008471D02*
X012188Y008471D01*
X012090Y008373D02*
X011990Y008373D01*
X011991Y008274D02*
X011967Y008274D01*
X011893Y008176D02*
X011868Y008176D01*
X011794Y008077D02*
X011770Y008077D01*
X012064Y007782D02*
X017499Y007782D01*
X017597Y007880D02*
X012163Y007880D01*
X012261Y007979D02*
X017696Y007979D01*
X017400Y007683D02*
X011990Y007683D01*
X011990Y007585D02*
X017302Y007585D01*
X017188Y008077D02*
X013812Y008077D01*
X013911Y008176D02*
X017089Y008176D01*
X017031Y008274D02*
X013969Y008274D01*
X014010Y008373D02*
X016990Y008373D01*
X016980Y008471D02*
X014020Y008471D01*
X014020Y008570D02*
X016980Y008570D01*
X017007Y008668D02*
X013993Y008668D01*
X013952Y008767D02*
X016951Y008767D01*
X016852Y008865D02*
X013870Y008865D01*
X013740Y008964D02*
X016754Y008964D01*
X016655Y009062D02*
X013145Y009062D01*
X013243Y009161D02*
X016557Y009161D01*
X016458Y009259D02*
X013674Y009259D01*
X013843Y009358D02*
X016360Y009358D01*
X016261Y009456D02*
X013941Y009456D01*
X013982Y009555D02*
X016163Y009555D01*
X016064Y009653D02*
X014020Y009653D01*
X014020Y009752D02*
X015966Y009752D01*
X015867Y009850D02*
X014020Y009850D01*
X013981Y009949D02*
X015769Y009949D01*
X015670Y010047D02*
X013938Y010047D01*
X013840Y010146D02*
X015572Y010146D01*
X015473Y010244D02*
X013666Y010244D01*
X013747Y010540D02*
X015178Y010540D01*
X015079Y010638D02*
X013873Y010638D01*
X013954Y010737D02*
X014981Y010737D01*
X014882Y010835D02*
X013995Y010835D01*
X014020Y010934D02*
X014784Y010934D01*
X014685Y011032D02*
X014020Y011032D01*
X014009Y011131D02*
X014587Y011131D01*
X014488Y011229D02*
X013968Y011229D01*
X013908Y011328D02*
X014390Y011328D01*
X014291Y011426D02*
X013809Y011426D01*
X014094Y011623D02*
X011358Y011623D01*
X011447Y011722D02*
X013996Y011722D01*
X013897Y011820D02*
X011488Y011820D01*
X011520Y011919D02*
X013799Y011919D01*
X013700Y012017D02*
X011520Y012017D01*
X011515Y012116D02*
X013602Y012116D01*
X013503Y012214D02*
X011474Y012214D01*
X011423Y012313D02*
X013405Y012313D01*
X013306Y012411D02*
X011324Y012411D01*
X011129Y012510D02*
X013208Y012510D01*
X013109Y012608D02*
X010675Y012608D01*
X010773Y012510D02*
X010871Y012510D01*
X010576Y012707D02*
X013011Y012707D01*
X013281Y013002D02*
X014590Y013002D01*
X014550Y013101D02*
X013182Y013101D01*
X013084Y013199D02*
X014535Y013199D01*
X014667Y012904D02*
X013379Y012904D01*
X013478Y012805D02*
X014807Y012805D01*
X014814Y012707D02*
X013576Y012707D01*
X013675Y012608D02*
X014689Y012608D01*
X014655Y012573D02*
X014593Y012424D01*
X014593Y012261D01*
X014655Y012112D01*
X014769Y011997D01*
X014919Y011935D01*
X015081Y011935D01*
X015231Y011997D01*
X015345Y012112D01*
X015407Y012261D01*
X015407Y012424D01*
X015345Y012573D01*
X015231Y012688D01*
X015081Y012750D01*
X014919Y012750D01*
X014769Y012688D01*
X014655Y012573D01*
X014628Y012510D02*
X013773Y012510D01*
X013872Y012411D02*
X014593Y012411D01*
X014593Y012313D02*
X013970Y012313D01*
X014069Y012214D02*
X014612Y012214D01*
X014653Y012116D02*
X014167Y012116D01*
X014266Y012017D02*
X014749Y012017D01*
X014463Y011820D02*
X019000Y011820D01*
X019000Y011722D02*
X014561Y011722D01*
X014660Y011623D02*
X019000Y011623D01*
X019000Y011525D02*
X014758Y011525D01*
X014364Y011919D02*
X019000Y011919D01*
X019000Y012017D02*
X015251Y012017D01*
X015347Y012116D02*
X019000Y012116D01*
X019000Y012214D02*
X015388Y012214D01*
X015407Y012313D02*
X019000Y012313D01*
X019000Y012411D02*
X015407Y012411D01*
X015372Y012510D02*
X019000Y012510D01*
X019000Y012608D02*
X015311Y012608D01*
X015186Y012707D02*
X019000Y012707D01*
X019000Y012805D02*
X015193Y012805D01*
X015333Y012904D02*
X019000Y012904D01*
X019000Y013002D02*
X015410Y013002D01*
X015450Y013101D02*
X019000Y013101D01*
X019000Y013199D02*
X015465Y013199D01*
X015465Y013298D02*
X019000Y013298D01*
X019000Y013396D02*
X015434Y013396D01*
X015391Y013495D02*
X017216Y013495D01*
X017070Y013593D02*
X015293Y013593D01*
X015097Y013692D02*
X016973Y013692D01*
X016932Y013790D02*
X013068Y013790D01*
X013027Y013692D02*
X014903Y013692D01*
X014707Y013593D02*
X012930Y013593D01*
X012784Y013495D02*
X014609Y013495D01*
X013109Y013889D02*
X016891Y013889D01*
X017013Y014381D02*
X012987Y014381D01*
X012889Y014480D02*
X017111Y014480D01*
X017316Y014578D02*
X012684Y014578D01*
X012600Y014100D02*
X012539Y014016D01*
X012600Y014100D02*
X017400Y014100D01*
X017461Y014016D01*
X017990Y013790D02*
X019000Y013790D01*
X019000Y013692D02*
X017949Y013692D01*
X017851Y013593D02*
X019000Y013593D01*
X019000Y013495D02*
X017705Y013495D01*
X018030Y013889D02*
X019000Y013889D01*
X019000Y013987D02*
X018036Y013987D01*
X018036Y014086D02*
X019000Y014086D01*
X019000Y014184D02*
X018013Y014184D01*
X017972Y014283D02*
X019000Y014283D01*
X019000Y014381D02*
X017909Y014381D01*
X017810Y014480D02*
X019000Y014480D01*
X019000Y014578D02*
X017606Y014578D01*
X019000Y015268D02*
X006015Y015268D01*
X005917Y015366D02*
X019000Y015366D01*
X017113Y016450D02*
X015335Y016450D01*
X015200Y016351D02*
X017014Y016351D01*
X014193Y011525D02*
X011211Y011525D01*
X011000Y012000D02*
X010200Y012800D01*
X010500Y013000D02*
X008500Y015000D01*
X006000Y015000D01*
X005500Y015500D01*
X005500Y017500D01*
X005300Y017139D02*
X004790Y017139D01*
X004889Y017041D02*
X005300Y017041D01*
X005300Y016942D02*
X004933Y016942D01*
X004965Y016844D02*
X005300Y016844D01*
X005300Y016745D02*
X004965Y016745D01*
X004951Y016647D02*
X005300Y016647D01*
X005300Y016548D02*
X004911Y016548D01*
X004835Y016450D02*
X005300Y016450D01*
X004676Y018026D02*
X008480Y018026D01*
X004500Y012343D02*
X004500Y007800D01*
X005800Y007800D01*
X007800Y005800D01*
X010800Y005800D01*
X011500Y006500D01*
X011990Y006501D02*
X014592Y006501D01*
X014551Y006403D02*
X011990Y006403D01*
X011990Y006304D02*
X014535Y006304D01*
X014535Y006206D02*
X011898Y006206D01*
X011800Y006107D02*
X014565Y006107D01*
X014606Y006009D02*
X012776Y006009D01*
X012865Y005972D02*
X012654Y006059D01*
X012425Y006059D01*
X012214Y005972D01*
X012052Y005810D01*
X011964Y005599D01*
X011964Y005370D01*
X012052Y005159D01*
X012214Y004997D01*
X012425Y004909D01*
X012654Y004909D01*
X012865Y004997D01*
X013027Y005159D01*
X013114Y005370D01*
X013114Y005599D01*
X013027Y005810D01*
X012865Y005972D01*
X012927Y005910D02*
X014704Y005910D01*
X014896Y005812D02*
X013025Y005812D01*
X013067Y005713D02*
X015430Y005713D01*
X015332Y005615D02*
X013108Y005615D01*
X013114Y005516D02*
X015233Y005516D01*
X015135Y005418D02*
X013114Y005418D01*
X013093Y005319D02*
X015036Y005319D01*
X014938Y005221D02*
X013053Y005221D01*
X012990Y005122D02*
X014839Y005122D01*
X014741Y005024D02*
X012892Y005024D01*
X012692Y004925D02*
X014642Y004925D01*
X014700Y004700D02*
X018250Y008250D01*
X018050Y008964D02*
X017740Y008964D01*
X017603Y009230D02*
X017795Y009309D01*
X017941Y009455D01*
X018020Y009647D01*
X018020Y009853D01*
X017941Y010045D01*
X017795Y010191D01*
X017603Y010270D01*
X017397Y010270D01*
X017205Y010191D01*
X017059Y010045D01*
X016980Y009853D01*
X016980Y009647D01*
X017059Y009455D01*
X017205Y009309D01*
X017397Y009230D01*
X017603Y009230D01*
X017674Y009259D02*
X018050Y009259D01*
X018050Y009161D02*
X017122Y009161D01*
X017024Y009259D02*
X017326Y009259D01*
X017157Y009358D02*
X016925Y009358D01*
X016827Y009456D02*
X017059Y009456D01*
X017018Y009555D02*
X016728Y009555D01*
X016630Y009653D02*
X016980Y009653D01*
X016980Y009752D02*
X016531Y009752D01*
X016433Y009850D02*
X016980Y009850D01*
X017019Y009949D02*
X016334Y009949D01*
X016236Y010047D02*
X017062Y010047D01*
X017160Y010146D02*
X016137Y010146D01*
X016039Y010244D02*
X017334Y010244D01*
X017666Y010244D02*
X017973Y010244D01*
X018050Y010146D02*
X017840Y010146D01*
X017938Y010047D02*
X018050Y010047D01*
X018050Y009949D02*
X017981Y009949D01*
X018020Y009850D02*
X018050Y009850D01*
X018050Y009752D02*
X018020Y009752D01*
X018020Y009653D02*
X018050Y009653D01*
X018050Y009555D02*
X017982Y009555D01*
X017941Y009456D02*
X018050Y009456D01*
X018050Y009358D02*
X017843Y009358D01*
X018050Y009062D02*
X017221Y009062D01*
X017875Y010343D02*
X015940Y010343D01*
X015842Y010441D02*
X017776Y010441D01*
X015375Y010343D02*
X004700Y010343D01*
X004700Y010441D02*
X015276Y010441D01*
X013500Y009750D02*
X013500Y009700D01*
X012700Y008900D01*
X012700Y008500D01*
X012500Y008500D01*
X011500Y007500D01*
X011896Y006797D02*
X014807Y006797D01*
X014814Y006698D02*
X011990Y006698D01*
X011990Y006600D02*
X014670Y006600D01*
X015296Y005910D02*
X015627Y005910D01*
X015529Y005812D02*
X015104Y005812D01*
X015394Y006009D02*
X015726Y006009D01*
X015824Y006107D02*
X015435Y006107D01*
X015465Y006206D02*
X015923Y006206D01*
X015011Y004728D02*
X019000Y004728D01*
X019000Y004630D02*
X014912Y004630D01*
X014814Y004531D02*
X019000Y004531D01*
X019000Y004433D02*
X012615Y004433D01*
X012517Y004334D02*
X019000Y004334D01*
X019000Y004236D02*
X012418Y004236D01*
X012320Y004137D02*
X019000Y004137D01*
X019000Y004039D02*
X017701Y004039D01*
X017850Y003940D02*
X019000Y003940D01*
X019000Y003842D02*
X017948Y003842D01*
X017989Y003743D02*
X019000Y003743D01*
X019000Y003645D02*
X018030Y003645D01*
X018036Y003546D02*
X019000Y003546D01*
X019000Y003448D02*
X018036Y003448D01*
X018014Y003349D02*
X019000Y003349D01*
X019000Y003251D02*
X017973Y003251D01*
X017910Y003152D02*
X019000Y003152D01*
X019000Y003054D02*
X017812Y003054D01*
X017609Y002955D02*
X019000Y002955D01*
X019000Y002857D02*
X015450Y002857D01*
X015465Y002821D02*
X015394Y002992D01*
X015263Y003123D01*
X015092Y003193D01*
X014908Y003193D01*
X014737Y003123D01*
X014606Y002992D01*
X014535Y002821D01*
X014535Y002636D01*
X014606Y002465D01*
X014737Y002334D01*
X014908Y002263D01*
X015092Y002263D01*
X015263Y002334D01*
X015394Y002465D01*
X015465Y002636D01*
X015465Y002821D01*
X015465Y002758D02*
X019000Y002758D01*
X019000Y002660D02*
X015465Y002660D01*
X015434Y002561D02*
X019000Y002561D01*
X019000Y002463D02*
X015392Y002463D01*
X015293Y002364D02*
X017684Y002364D01*
X017533Y002309D02*
X017533Y002309D01*
X017838Y002420D01*
X018162Y002420D01*
X018467Y002309D01*
X018467Y002309D01*
X018716Y002100D01*
X018716Y002100D01*
X018878Y001820D01*
X018878Y001820D01*
X018934Y001500D01*
X018934Y001500D01*
X018878Y001180D01*
X018878Y001180D01*
X018716Y000900D01*
X018716Y000900D01*
X018467Y000691D01*
X018162Y000580D01*
X018162Y000580D01*
X017921Y000580D01*
X017838Y000580D01*
X017533Y000691D01*
X017533Y000691D01*
X017284Y000900D01*
X017284Y000900D01*
X017122Y001180D01*
X017122Y001180D01*
X017066Y001500D01*
X017066Y001500D01*
X017122Y001820D01*
X017122Y001820D01*
X017284Y002100D01*
X017284Y002100D01*
X017284Y002100D01*
X017533Y002309D01*
X017481Y002266D02*
X015098Y002266D01*
X015081Y002250D02*
X014919Y002250D01*
X014769Y002188D01*
X014655Y002073D01*
X014593Y001924D01*
X014593Y001761D01*
X014655Y001612D01*
X014769Y001497D01*
X014919Y001435D01*
X015081Y001435D01*
X015231Y001497D01*
X015345Y001612D01*
X015407Y001761D01*
X015407Y001924D01*
X015345Y002073D01*
X015231Y002188D01*
X015081Y002250D01*
X014902Y002266D02*
X011348Y002266D01*
X011447Y002364D02*
X014707Y002364D01*
X014608Y002463D02*
X011545Y002463D01*
X011644Y002561D02*
X014566Y002561D01*
X014535Y002660D02*
X011742Y002660D01*
X011841Y002758D02*
X014535Y002758D01*
X014550Y002857D02*
X011939Y002857D01*
X012038Y002955D02*
X012391Y002955D01*
X012188Y003054D02*
X012136Y003054D01*
X011866Y003349D02*
X011532Y003349D01*
X011630Y003448D02*
X011964Y003448D01*
X011964Y003546D02*
X011729Y003546D01*
X011827Y003645D02*
X011970Y003645D01*
X012011Y003743D02*
X011926Y003743D01*
X012024Y003842D02*
X012052Y003842D01*
X012123Y003940D02*
X012150Y003940D01*
X012221Y004039D02*
X012299Y004039D01*
X011951Y004334D02*
X000500Y004334D01*
X000500Y004236D02*
X011853Y004236D01*
X011754Y004137D02*
X000500Y004137D01*
X000500Y004039D02*
X001799Y004039D01*
X001714Y004003D02*
X001552Y003841D01*
X001464Y003630D01*
X001464Y003401D01*
X001552Y003190D01*
X001714Y003028D01*
X001925Y002941D01*
X002154Y002941D01*
X002365Y003028D01*
X002527Y003190D01*
X002614Y003401D01*
X002614Y003630D01*
X002527Y003841D01*
X002365Y004003D01*
X002154Y004091D01*
X001925Y004091D01*
X001714Y004003D01*
X001650Y003940D02*
X000500Y003940D01*
X000500Y003842D02*
X001552Y003842D01*
X001511Y003743D02*
X000500Y003743D01*
X000500Y003645D02*
X001470Y003645D01*
X001464Y003546D02*
X000500Y003546D01*
X000500Y003448D02*
X001464Y003448D01*
X001486Y003349D02*
X000500Y003349D01*
X000500Y003251D02*
X001527Y003251D01*
X001590Y003152D02*
X000500Y003152D01*
X000500Y003054D02*
X001688Y003054D01*
X001891Y002955D02*
X000500Y002955D01*
X000500Y002857D02*
X004050Y002857D01*
X004035Y002758D02*
X000500Y002758D01*
X000500Y002660D02*
X004035Y002660D01*
X004066Y002561D02*
X000500Y002561D01*
X000500Y002463D02*
X004108Y002463D01*
X004207Y002364D02*
X001816Y002364D01*
X001967Y002309D02*
X001662Y002420D01*
X001338Y002420D01*
X001033Y002309D01*
X001033Y002309D01*
X000784Y002100D01*
X000622Y001820D01*
X000622Y001820D01*
X000566Y001500D01*
X000622Y001180D01*
X000784Y000900D01*
X000784Y000900D01*
X001033Y000691D01*
X001338Y000580D01*
X001579Y000580D01*
X001662Y000580D01*
X001662Y000580D01*
X001967Y000691D01*
X001967Y000691D01*
X002216Y000900D01*
X002378Y001180D01*
X002378Y001180D01*
X002434Y001500D01*
X002378Y001820D01*
X002216Y002100D01*
X002216Y002100D01*
X001967Y002309D01*
X001967Y002309D01*
X002019Y002266D02*
X004402Y002266D01*
X004248Y002167D02*
X002136Y002167D01*
X002234Y002069D02*
X004153Y002069D01*
X004112Y001970D02*
X002291Y001970D01*
X002348Y001872D02*
X004093Y001872D01*
X004093Y001773D02*
X002386Y001773D01*
X002378Y001820D02*
X002378Y001820D01*
X002403Y001675D02*
X004129Y001675D01*
X004190Y001576D02*
X002421Y001576D01*
X002434Y001500D02*
X002434Y001500D01*
X002430Y001478D02*
X004316Y001478D01*
X004684Y001478D02*
X008294Y001478D01*
X008144Y001379D02*
X002413Y001379D01*
X002395Y001281D02*
X008053Y001281D01*
X008013Y001182D02*
X002378Y001182D01*
X002322Y001084D02*
X007980Y001084D01*
X007980Y000985D02*
X002265Y000985D01*
X002216Y000900D02*
X002216Y000900D01*
X002216Y000900D01*
X002200Y000887D02*
X007984Y000887D01*
X008025Y000788D02*
X002083Y000788D01*
X001963Y000690D02*
X008075Y000690D01*
X008174Y000591D02*
X001692Y000591D01*
X001308Y000591D02*
X000500Y000591D01*
X000500Y000690D02*
X001037Y000690D01*
X001033Y000691D02*
X001033Y000691D01*
X000917Y000788D02*
X000500Y000788D01*
X000500Y000887D02*
X000800Y000887D01*
X000735Y000985D02*
X000500Y000985D01*
X000500Y001084D02*
X000678Y001084D01*
X000622Y001180D02*
X000622Y001180D01*
X000622Y001182D02*
X000500Y001182D01*
X000500Y001281D02*
X000605Y001281D01*
X000587Y001379D02*
X000500Y001379D01*
X000500Y001478D02*
X000570Y001478D01*
X000566Y001500D02*
X000566Y001500D01*
X000579Y001576D02*
X000500Y001576D01*
X000500Y001675D02*
X000597Y001675D01*
X000614Y001773D02*
X000500Y001773D01*
X000500Y001872D02*
X000652Y001872D01*
X000709Y001970D02*
X000500Y001970D01*
X000500Y002069D02*
X000766Y002069D01*
X000784Y002100D02*
X000784Y002100D01*
X000784Y002100D01*
X000864Y002167D02*
X000500Y002167D01*
X000500Y002266D02*
X000981Y002266D01*
X001184Y002364D02*
X000500Y002364D01*
X002188Y002955D02*
X004091Y002955D01*
X004168Y003054D02*
X002390Y003054D01*
X002489Y003152D02*
X004308Y003152D01*
X004692Y003152D02*
X006511Y003152D01*
X006473Y003190D02*
X006635Y003028D01*
X006846Y002941D01*
X007075Y002941D01*
X007286Y003028D01*
X007448Y003190D01*
X007536Y003401D01*
X007536Y003630D01*
X007448Y003841D01*
X007286Y004003D01*
X007075Y004091D01*
X006846Y004091D01*
X006635Y004003D01*
X006473Y003841D01*
X006386Y003630D01*
X006386Y003401D01*
X006473Y003190D01*
X006448Y003251D02*
X002552Y003251D01*
X002593Y003349D02*
X006407Y003349D01*
X006386Y003448D02*
X002614Y003448D01*
X002614Y003546D02*
X006386Y003546D01*
X006392Y003645D02*
X002608Y003645D01*
X002568Y003743D02*
X006432Y003743D01*
X006473Y003842D02*
X002527Y003842D01*
X002428Y003940D02*
X006572Y003940D01*
X006720Y004039D02*
X002280Y004039D01*
X002154Y004909D02*
X001925Y004909D01*
X001714Y004997D01*
X001552Y005159D01*
X001464Y005370D01*
X001464Y005599D01*
X001552Y005810D01*
X001714Y005972D01*
X001925Y006059D01*
X002154Y006059D01*
X002365Y005972D01*
X002527Y005810D01*
X002614Y005599D01*
X002614Y005370D01*
X002527Y005159D01*
X002365Y004997D01*
X002154Y004909D01*
X002192Y004925D02*
X006808Y004925D01*
X006846Y004909D02*
X007075Y004909D01*
X007286Y004997D01*
X007448Y005159D01*
X007536Y005370D01*
X007536Y005599D01*
X007448Y005810D01*
X007286Y005972D01*
X007075Y006059D01*
X006846Y006059D01*
X006635Y005972D01*
X006473Y005810D01*
X006386Y005599D01*
X006386Y005370D01*
X006473Y005159D01*
X006635Y004997D01*
X006846Y004909D01*
X006608Y005024D02*
X002392Y005024D01*
X002490Y005122D02*
X006510Y005122D01*
X006447Y005221D02*
X002553Y005221D01*
X002593Y005319D02*
X006407Y005319D01*
X006386Y005418D02*
X002614Y005418D01*
X002614Y005516D02*
X006386Y005516D01*
X006392Y005615D02*
X002608Y005615D01*
X002567Y005713D02*
X006433Y005713D01*
X006475Y005812D02*
X004604Y005812D01*
X004592Y005807D02*
X004763Y005877D01*
X004894Y006008D01*
X004965Y006179D01*
X004965Y006364D01*
X004894Y006535D01*
X004763Y006666D01*
X004592Y006737D01*
X004408Y006737D01*
X004237Y006666D01*
X004106Y006535D01*
X004035Y006364D01*
X004035Y006179D01*
X004106Y006008D01*
X004237Y005877D01*
X004408Y005807D01*
X004592Y005807D01*
X004396Y005812D02*
X002525Y005812D01*
X002427Y005910D02*
X004204Y005910D01*
X004106Y006009D02*
X002276Y006009D01*
X001803Y006009D02*
X000500Y006009D01*
X000500Y006107D02*
X004065Y006107D01*
X004035Y006206D02*
X000500Y006206D01*
X000500Y006304D02*
X004035Y006304D01*
X004051Y006403D02*
X000500Y006403D01*
X000500Y006501D02*
X004092Y006501D01*
X004170Y006600D02*
X000500Y006600D01*
X000500Y006698D02*
X004314Y006698D01*
X004307Y006797D02*
X000500Y006797D01*
X000500Y006895D02*
X004186Y006895D01*
X004127Y006994D02*
X000500Y006994D01*
X000500Y007092D02*
X004093Y007092D01*
X004093Y007191D02*
X000500Y007191D01*
X000500Y007289D02*
X004113Y007289D01*
X004154Y007388D02*
X000500Y007388D01*
X000500Y007486D02*
X004252Y007486D01*
X004300Y007585D02*
X000500Y007585D01*
X000500Y007683D02*
X004300Y007683D01*
X004300Y007782D02*
X000500Y007782D01*
X000500Y007880D02*
X004300Y007880D01*
X004500Y007800D02*
X004500Y007157D01*
X004873Y006994D02*
X006324Y006994D01*
X006225Y007092D02*
X004907Y007092D01*
X004907Y007191D02*
X006127Y007191D01*
X006028Y007289D02*
X004887Y007289D01*
X004846Y007388D02*
X005930Y007388D01*
X005831Y007486D02*
X004748Y007486D01*
X004700Y007585D02*
X005733Y007585D01*
X006003Y007880D02*
X007837Y007880D01*
X007739Y007979D02*
X005904Y007979D01*
X006089Y008176D02*
X004700Y008176D01*
X004700Y008274D02*
X006031Y008274D01*
X005990Y008373D02*
X004700Y008373D01*
X004700Y008471D02*
X005980Y008471D01*
X005980Y008570D02*
X004700Y008570D01*
X004700Y008668D02*
X006007Y008668D01*
X006048Y008767D02*
X004700Y008767D01*
X004700Y008865D02*
X006130Y008865D01*
X006260Y008964D02*
X004700Y008964D01*
X004700Y009062D02*
X008245Y009062D01*
X008271Y008964D02*
X006740Y008964D01*
X006870Y008865D02*
X008172Y008865D01*
X008074Y008767D02*
X006952Y008767D01*
X006969Y008274D02*
X007443Y008274D01*
X007542Y008176D02*
X006911Y008176D01*
X006812Y008077D02*
X007640Y008077D01*
X007910Y008373D02*
X008010Y008373D01*
X008010Y008471D02*
X007812Y008471D01*
X007713Y008570D02*
X008010Y008570D01*
X008010Y008668D02*
X007615Y008668D01*
X007500Y008500D02*
X006500Y008500D01*
X006188Y008077D02*
X004700Y008077D01*
X004814Y006895D02*
X006422Y006895D01*
X006521Y006797D02*
X004693Y006797D01*
X004686Y006698D02*
X006619Y006698D01*
X006718Y006600D02*
X004830Y006600D01*
X004908Y006501D02*
X006816Y006501D01*
X006915Y006403D02*
X004949Y006403D01*
X004965Y006304D02*
X007013Y006304D01*
X007112Y006206D02*
X004965Y006206D01*
X004935Y006107D02*
X007210Y006107D01*
X007197Y006009D02*
X007309Y006009D01*
X007348Y005910D02*
X007407Y005910D01*
X007447Y005812D02*
X007506Y005812D01*
X007488Y005713D02*
X007604Y005713D01*
X007529Y005615D02*
X007703Y005615D01*
X007536Y005516D02*
X008387Y005516D01*
X008397Y005520D02*
X008205Y005441D01*
X008059Y005295D01*
X007980Y005103D01*
X007980Y004897D01*
X008059Y004705D01*
X008205Y004559D01*
X008397Y004480D01*
X008603Y004480D01*
X008795Y004559D01*
X008941Y004705D01*
X009020Y004897D01*
X009020Y005103D01*
X008941Y005295D01*
X008795Y005441D01*
X008603Y005520D01*
X008397Y005520D01*
X008613Y005516D02*
X009637Y005516D01*
X009647Y005520D02*
X009455Y005441D01*
X009309Y005295D01*
X009230Y005103D01*
X009230Y004897D01*
X009309Y004705D01*
X009455Y004559D01*
X009647Y004480D01*
X009853Y004480D01*
X010045Y004559D01*
X010191Y004705D01*
X010270Y004897D01*
X010270Y005103D01*
X010191Y005295D01*
X010045Y005441D01*
X009853Y005520D01*
X009647Y005520D01*
X009432Y005418D02*
X008818Y005418D01*
X008916Y005319D02*
X009334Y005319D01*
X009278Y005221D02*
X008972Y005221D01*
X009012Y005122D02*
X009238Y005122D01*
X009230Y005024D02*
X009020Y005024D01*
X009020Y004925D02*
X009230Y004925D01*
X009259Y004827D02*
X008991Y004827D01*
X008950Y004728D02*
X009300Y004728D01*
X009385Y004630D02*
X008865Y004630D01*
X008727Y004531D02*
X009523Y004531D01*
X009977Y004531D02*
X010773Y004531D01*
X010705Y004559D02*
X010897Y004480D01*
X011103Y004480D01*
X011295Y004559D01*
X011441Y004705D01*
X011520Y004897D01*
X011520Y005103D01*
X011441Y005295D01*
X011295Y005441D01*
X011103Y005520D01*
X010897Y005520D01*
X010705Y005441D01*
X010559Y005295D01*
X010480Y005103D01*
X010480Y004897D01*
X010559Y004705D01*
X010705Y004559D01*
X010635Y004630D02*
X010115Y004630D01*
X010200Y004728D02*
X010550Y004728D01*
X010509Y004827D02*
X010241Y004827D01*
X010270Y004925D02*
X010480Y004925D01*
X010480Y005024D02*
X010270Y005024D01*
X010262Y005122D02*
X010488Y005122D01*
X010528Y005221D02*
X010222Y005221D01*
X010166Y005319D02*
X010584Y005319D01*
X010682Y005418D02*
X010068Y005418D01*
X009863Y005516D02*
X010887Y005516D01*
X010897Y005615D02*
X011971Y005615D01*
X011964Y005516D02*
X011113Y005516D01*
X011318Y005418D02*
X011964Y005418D01*
X011985Y005319D02*
X011416Y005319D01*
X011472Y005221D02*
X012026Y005221D01*
X012088Y005122D02*
X011512Y005122D01*
X011520Y005024D02*
X012187Y005024D01*
X012387Y004925D02*
X011520Y004925D01*
X011491Y004827D02*
X012444Y004827D01*
X012345Y004728D02*
X011450Y004728D01*
X011365Y004630D02*
X012247Y004630D01*
X012148Y004531D02*
X011227Y004531D01*
X011656Y004039D02*
X007201Y004039D01*
X007350Y003940D02*
X011557Y003940D01*
X011459Y003842D02*
X007448Y003842D01*
X007489Y003743D02*
X011360Y003743D01*
X011262Y003645D02*
X007530Y003645D01*
X007536Y003546D02*
X011163Y003546D01*
X011065Y003448D02*
X007536Y003448D01*
X007514Y003349D02*
X010966Y003349D01*
X010868Y003251D02*
X007473Y003251D01*
X007410Y003152D02*
X010769Y003152D01*
X010671Y003054D02*
X007312Y003054D01*
X007109Y002955D02*
X010572Y002955D01*
X010600Y002700D02*
X012600Y004700D01*
X014700Y004700D01*
X014808Y003152D02*
X012989Y003152D01*
X013052Y003251D02*
X016948Y003251D01*
X016907Y003349D02*
X013093Y003349D01*
X012890Y003054D02*
X014668Y003054D01*
X014591Y002955D02*
X012688Y002955D01*
X012500Y003500D02*
X012300Y003500D01*
X009800Y001000D01*
X009750Y001000D01*
X009544Y001478D02*
X008706Y001478D01*
X008856Y001379D02*
X009394Y001379D01*
X009303Y001281D02*
X008947Y001281D01*
X008987Y001182D02*
X009263Y001182D01*
X009230Y001084D02*
X009020Y001084D01*
X009020Y000985D02*
X009230Y000985D01*
X009234Y000887D02*
X009016Y000887D01*
X008975Y000788D02*
X009275Y000788D01*
X009325Y000690D02*
X008925Y000690D01*
X008826Y000591D02*
X009424Y000591D01*
X010076Y000591D02*
X010674Y000591D01*
X010575Y000690D02*
X010175Y000690D01*
X010225Y000788D02*
X010525Y000788D01*
X010484Y000887D02*
X010266Y000887D01*
X010270Y000985D02*
X010480Y000985D01*
X010480Y001084D02*
X010270Y001084D01*
X010265Y001182D02*
X010513Y001182D01*
X010553Y001281D02*
X010363Y001281D01*
X010462Y001379D02*
X010644Y001379D01*
X010560Y001478D02*
X010794Y001478D01*
X010659Y001576D02*
X014690Y001576D01*
X014629Y001675D02*
X010757Y001675D01*
X010856Y001773D02*
X014593Y001773D01*
X014593Y001872D02*
X010954Y001872D01*
X011053Y001970D02*
X014612Y001970D01*
X014653Y002069D02*
X011151Y002069D01*
X011250Y002167D02*
X014748Y002167D01*
X015252Y002167D02*
X017364Y002167D01*
X017266Y002069D02*
X015347Y002069D01*
X015388Y001970D02*
X017209Y001970D01*
X017152Y001872D02*
X015407Y001872D01*
X015407Y001773D02*
X017114Y001773D01*
X017097Y001675D02*
X015371Y001675D01*
X015310Y001576D02*
X017079Y001576D01*
X017070Y001478D02*
X015184Y001478D01*
X014816Y001478D02*
X011206Y001478D01*
X011356Y001379D02*
X017087Y001379D01*
X017105Y001281D02*
X011447Y001281D01*
X011487Y001182D02*
X017122Y001182D01*
X017178Y001084D02*
X011520Y001084D01*
X011520Y000985D02*
X017235Y000985D01*
X017300Y000887D02*
X011516Y000887D01*
X011475Y000788D02*
X017417Y000788D01*
X017537Y000690D02*
X011425Y000690D01*
X011326Y000591D02*
X017808Y000591D01*
X018192Y000591D02*
X019000Y000591D01*
X019000Y000690D02*
X018463Y000690D01*
X018583Y000788D02*
X019000Y000788D01*
X019000Y000887D02*
X018700Y000887D01*
X018765Y000985D02*
X019000Y000985D01*
X019000Y001084D02*
X018822Y001084D01*
X018878Y001182D02*
X019000Y001182D01*
X019000Y001281D02*
X018895Y001281D01*
X018913Y001379D02*
X019000Y001379D01*
X019000Y001478D02*
X018930Y001478D01*
X018921Y001576D02*
X019000Y001576D01*
X019000Y001675D02*
X018903Y001675D01*
X018886Y001773D02*
X019000Y001773D01*
X019000Y001872D02*
X018848Y001872D01*
X018791Y001970D02*
X019000Y001970D01*
X019000Y002069D02*
X018734Y002069D01*
X018636Y002167D02*
X019000Y002167D01*
X019000Y002266D02*
X018519Y002266D01*
X018316Y002364D02*
X019000Y002364D01*
X017461Y003516D02*
X017400Y003600D01*
X012600Y003600D01*
X012539Y003516D01*
X012500Y003500D01*
X012780Y004039D02*
X017220Y004039D01*
X017072Y003940D02*
X012928Y003940D01*
X013027Y003842D02*
X016973Y003842D01*
X017011Y003152D02*
X015192Y003152D01*
X015332Y003054D02*
X017110Y003054D01*
X017312Y002955D02*
X015409Y002955D01*
X012303Y006009D02*
X011291Y006009D01*
X011193Y005910D02*
X012152Y005910D01*
X012053Y005812D02*
X011094Y005812D01*
X010996Y005713D02*
X012012Y005713D01*
X011010Y006304D02*
X008990Y006304D01*
X008898Y006206D02*
X010923Y006206D01*
X010824Y006107D02*
X008800Y006107D01*
X008530Y006107D02*
X008470Y006107D01*
X008470Y006206D02*
X008530Y006206D01*
X008530Y006304D02*
X008470Y006304D01*
X008470Y006403D02*
X008530Y006403D01*
X008530Y006600D02*
X008470Y006600D01*
X008470Y006698D02*
X008530Y006698D01*
X008530Y006797D02*
X008470Y006797D01*
X008470Y006895D02*
X008530Y006895D01*
X008117Y007191D02*
X006692Y007191D01*
X006594Y007289D02*
X008018Y007289D01*
X008010Y007388D02*
X006495Y007388D01*
X006397Y007486D02*
X008010Y007486D01*
X008010Y007585D02*
X006298Y007585D01*
X006200Y007683D02*
X008010Y007683D01*
X007936Y007782D02*
X006101Y007782D01*
X007500Y008500D02*
X008500Y007500D01*
X008230Y008077D02*
X008206Y008077D01*
X008132Y008176D02*
X008107Y008176D01*
X008033Y008274D02*
X008009Y008274D01*
X008010Y006304D02*
X007579Y006304D01*
X007677Y006206D02*
X008102Y006206D01*
X008200Y006107D02*
X007776Y006107D01*
X007874Y006009D02*
X010726Y006009D01*
X012050Y004433D02*
X000500Y004433D01*
X000500Y004531D02*
X008273Y004531D01*
X008135Y004630D02*
X000500Y004630D01*
X000500Y004728D02*
X008050Y004728D01*
X008009Y004827D02*
X000500Y004827D01*
X000500Y004925D02*
X001887Y004925D01*
X001687Y005024D02*
X000500Y005024D01*
X000500Y005122D02*
X001588Y005122D01*
X001526Y005221D02*
X000500Y005221D01*
X000500Y005319D02*
X001485Y005319D01*
X001464Y005418D02*
X000500Y005418D01*
X000500Y005516D02*
X001464Y005516D01*
X001471Y005615D02*
X000500Y005615D01*
X000500Y005713D02*
X001512Y005713D01*
X001553Y005812D02*
X000500Y005812D01*
X000500Y005910D02*
X001652Y005910D01*
X000821Y008570D02*
X000500Y008570D01*
X000500Y008668D02*
X000674Y008668D01*
X000597Y008767D02*
X000500Y008767D01*
X000500Y008865D02*
X000555Y008865D01*
X000950Y009062D02*
X001050Y009062D01*
X001050Y009161D02*
X000950Y009161D01*
X000950Y009259D02*
X001050Y009259D01*
X001050Y009358D02*
X000950Y009358D01*
X004796Y005910D02*
X006573Y005910D01*
X006724Y006009D02*
X004894Y006009D01*
X007113Y004925D02*
X007980Y004925D01*
X007980Y005024D02*
X007313Y005024D01*
X007412Y005122D02*
X007988Y005122D01*
X008028Y005221D02*
X007474Y005221D01*
X007515Y005319D02*
X008084Y005319D01*
X008182Y005418D02*
X007536Y005418D01*
X006610Y003054D02*
X004832Y003054D01*
X004909Y002955D02*
X006812Y002955D01*
X005300Y002700D02*
X010600Y002700D01*
X010744Y002561D02*
X011078Y002561D01*
X010980Y002463D02*
X005345Y002463D01*
X005247Y002364D02*
X010881Y002364D01*
X010783Y002266D02*
X005148Y002266D01*
X005050Y002167D02*
X010684Y002167D01*
X010586Y002069D02*
X004951Y002069D01*
X004888Y001970D02*
X010487Y001970D01*
X010389Y001872D02*
X004907Y001872D01*
X004907Y001773D02*
X010290Y001773D01*
X010192Y001675D02*
X004871Y001675D01*
X004810Y001576D02*
X010093Y001576D01*
X009995Y001478D02*
X009956Y001478D01*
X010842Y002660D02*
X011177Y002660D01*
X011275Y002758D02*
X010941Y002758D01*
X011039Y002857D02*
X011374Y002857D01*
X011472Y002955D02*
X011138Y002955D01*
X011236Y003054D02*
X011571Y003054D01*
X011669Y003152D02*
X011335Y003152D01*
X011433Y003251D02*
X011768Y003251D01*
X012360Y008077D02*
X013188Y008077D01*
X013089Y008176D02*
X012458Y008176D01*
X012557Y008274D02*
X013031Y008274D01*
X012700Y008500D02*
X013500Y008500D01*
X013130Y008865D02*
X012948Y008865D01*
X012900Y008767D02*
X013048Y008767D01*
X013046Y008964D02*
X013260Y008964D01*
X005300Y002700D02*
X004500Y001900D01*
X004500Y001843D01*
X004965Y002660D02*
X004977Y002660D01*
X004965Y002758D02*
X005075Y002758D01*
X005174Y002857D02*
X004950Y002857D01*
M02*
