%
M48
M72
T01C0.0276
T02C0.0315
T03C0.0320
T04C0.0354
T05C0.0400
T06C0.0420
T07C0.0472
T08C0.0630
T09C0.1200
%
T01
X9500Y11000
X10500Y11000
T02
X15000Y12343
X15000Y7157
X15000Y1843
X4500Y1843
X4500Y7157
X4500Y12343
X4500Y17657
X15000Y17657
T03
X11500Y9500
X11500Y8500
X11500Y7500
X11500Y6500
X8500Y6500
X8500Y7500
X8500Y8500
X8500Y9500
T04
X6500Y9750
X6500Y8500
X6500Y11000
X8500Y12000
X9750Y12000
X11000Y12000
X13500Y11000
X13500Y9750
X13500Y8500
X11000Y5000
X9750Y5000
X8500Y5000
X8500Y1000
X9750Y1000
X11000Y1000
X17500Y8500
X17500Y9750
X17500Y11000
X11000Y16000
X9750Y16000
X8500Y16000
X2500Y11000
X2500Y9750
X2500Y8500
T05
X9000Y18000
X10000Y18000
X11000Y18000
T06
X1000Y10500
X1000Y9000
T07
X2039Y5484
X2039Y3516
X6961Y3516
X6961Y5484
X12539Y5484
X12539Y3516
X17461Y3516
X17461Y5484
X17461Y14016
X17461Y15984
X12539Y15984
X12539Y14016
X6961Y14016
X6961Y15984
X2039Y15984
X2039Y14016
T08
X4500Y13228
X4500Y16772
X15000Y16772
X15000Y13228
X15000Y6272
X15000Y2728
X4500Y2728
X4500Y6272
T09
X1500Y1500
X1500Y18000
X18000Y18000
X18000Y1500
M30
