G75*
G70*
%OFA0B0*%
%FSLAX24Y24*%
%IPPOS*%
%LPD*%
%AMOC8*
5,1,8,0,0,1.08239X$1,22.5*
%
%ADD10C,0.0000*%
D10*
X000000Y000000D02*
X000000Y019496D01*
X019500Y019496D01*
X019510Y000000D01*
X000000Y000000D01*
X000900Y001500D02*
X000902Y001549D01*
X000908Y001597D01*
X000918Y001645D01*
X000932Y001692D01*
X000949Y001738D01*
X000970Y001782D01*
X000995Y001824D01*
X001023Y001864D01*
X001055Y001902D01*
X001089Y001937D01*
X001126Y001969D01*
X001165Y001998D01*
X001207Y002024D01*
X001251Y002046D01*
X001296Y002064D01*
X001343Y002079D01*
X001390Y002090D01*
X001439Y002097D01*
X001488Y002100D01*
X001537Y002099D01*
X001585Y002094D01*
X001634Y002085D01*
X001681Y002072D01*
X001727Y002055D01*
X001771Y002035D01*
X001814Y002011D01*
X001855Y001984D01*
X001893Y001953D01*
X001929Y001920D01*
X001961Y001884D01*
X001991Y001845D01*
X002018Y001804D01*
X002041Y001760D01*
X002060Y001715D01*
X002076Y001669D01*
X002088Y001622D01*
X002096Y001573D01*
X002100Y001524D01*
X002100Y001476D01*
X002096Y001427D01*
X002088Y001378D01*
X002076Y001331D01*
X002060Y001285D01*
X002041Y001240D01*
X002018Y001196D01*
X001991Y001155D01*
X001961Y001116D01*
X001929Y001080D01*
X001893Y001047D01*
X001855Y001016D01*
X001814Y000989D01*
X001771Y000965D01*
X001727Y000945D01*
X001681Y000928D01*
X001634Y000915D01*
X001585Y000906D01*
X001537Y000901D01*
X001488Y000900D01*
X001439Y000903D01*
X001390Y000910D01*
X001343Y000921D01*
X001296Y000936D01*
X001251Y000954D01*
X001207Y000976D01*
X001165Y001002D01*
X001126Y001031D01*
X001089Y001063D01*
X001055Y001098D01*
X001023Y001136D01*
X000995Y001176D01*
X000970Y001218D01*
X000949Y001262D01*
X000932Y001308D01*
X000918Y001355D01*
X000908Y001403D01*
X000902Y001451D01*
X000900Y001500D01*
X004185Y002728D02*
X004187Y002763D01*
X004193Y002798D01*
X004203Y002832D01*
X004216Y002865D01*
X004233Y002896D01*
X004254Y002924D01*
X004277Y002951D01*
X004304Y002974D01*
X004332Y002995D01*
X004363Y003012D01*
X004396Y003025D01*
X004430Y003035D01*
X004465Y003041D01*
X004500Y003043D01*
X004535Y003041D01*
X004570Y003035D01*
X004604Y003025D01*
X004637Y003012D01*
X004668Y002995D01*
X004696Y002974D01*
X004723Y002951D01*
X004746Y002924D01*
X004767Y002896D01*
X004784Y002865D01*
X004797Y002832D01*
X004807Y002798D01*
X004813Y002763D01*
X004815Y002728D01*
X004813Y002693D01*
X004807Y002658D01*
X004797Y002624D01*
X004784Y002591D01*
X004767Y002560D01*
X004746Y002532D01*
X004723Y002505D01*
X004696Y002482D01*
X004668Y002461D01*
X004637Y002444D01*
X004604Y002431D01*
X004570Y002421D01*
X004535Y002415D01*
X004500Y002413D01*
X004465Y002415D01*
X004430Y002421D01*
X004396Y002431D01*
X004363Y002444D01*
X004332Y002461D01*
X004304Y002482D01*
X004277Y002505D01*
X004254Y002532D01*
X004233Y002560D01*
X004216Y002591D01*
X004203Y002624D01*
X004193Y002658D01*
X004187Y002693D01*
X004185Y002728D01*
X004185Y006272D02*
X004187Y006307D01*
X004193Y006342D01*
X004203Y006376D01*
X004216Y006409D01*
X004233Y006440D01*
X004254Y006468D01*
X004277Y006495D01*
X004304Y006518D01*
X004332Y006539D01*
X004363Y006556D01*
X004396Y006569D01*
X004430Y006579D01*
X004465Y006585D01*
X004500Y006587D01*
X004535Y006585D01*
X004570Y006579D01*
X004604Y006569D01*
X004637Y006556D01*
X004668Y006539D01*
X004696Y006518D01*
X004723Y006495D01*
X004746Y006468D01*
X004767Y006440D01*
X004784Y006409D01*
X004797Y006376D01*
X004807Y006342D01*
X004813Y006307D01*
X004815Y006272D01*
X004813Y006237D01*
X004807Y006202D01*
X004797Y006168D01*
X004784Y006135D01*
X004767Y006104D01*
X004746Y006076D01*
X004723Y006049D01*
X004696Y006026D01*
X004668Y006005D01*
X004637Y005988D01*
X004604Y005975D01*
X004570Y005965D01*
X004535Y005959D01*
X004500Y005957D01*
X004465Y005959D01*
X004430Y005965D01*
X004396Y005975D01*
X004363Y005988D01*
X004332Y006005D01*
X004304Y006026D01*
X004277Y006049D01*
X004254Y006076D01*
X004233Y006104D01*
X004216Y006135D01*
X004203Y006168D01*
X004193Y006202D01*
X004187Y006237D01*
X004185Y006272D01*
X004185Y013228D02*
X004187Y013263D01*
X004193Y013298D01*
X004203Y013332D01*
X004216Y013365D01*
X004233Y013396D01*
X004254Y013424D01*
X004277Y013451D01*
X004304Y013474D01*
X004332Y013495D01*
X004363Y013512D01*
X004396Y013525D01*
X004430Y013535D01*
X004465Y013541D01*
X004500Y013543D01*
X004535Y013541D01*
X004570Y013535D01*
X004604Y013525D01*
X004637Y013512D01*
X004668Y013495D01*
X004696Y013474D01*
X004723Y013451D01*
X004746Y013424D01*
X004767Y013396D01*
X004784Y013365D01*
X004797Y013332D01*
X004807Y013298D01*
X004813Y013263D01*
X004815Y013228D01*
X004813Y013193D01*
X004807Y013158D01*
X004797Y013124D01*
X004784Y013091D01*
X004767Y013060D01*
X004746Y013032D01*
X004723Y013005D01*
X004696Y012982D01*
X004668Y012961D01*
X004637Y012944D01*
X004604Y012931D01*
X004570Y012921D01*
X004535Y012915D01*
X004500Y012913D01*
X004465Y012915D01*
X004430Y012921D01*
X004396Y012931D01*
X004363Y012944D01*
X004332Y012961D01*
X004304Y012982D01*
X004277Y013005D01*
X004254Y013032D01*
X004233Y013060D01*
X004216Y013091D01*
X004203Y013124D01*
X004193Y013158D01*
X004187Y013193D01*
X004185Y013228D01*
X004185Y016772D02*
X004187Y016807D01*
X004193Y016842D01*
X004203Y016876D01*
X004216Y016909D01*
X004233Y016940D01*
X004254Y016968D01*
X004277Y016995D01*
X004304Y017018D01*
X004332Y017039D01*
X004363Y017056D01*
X004396Y017069D01*
X004430Y017079D01*
X004465Y017085D01*
X004500Y017087D01*
X004535Y017085D01*
X004570Y017079D01*
X004604Y017069D01*
X004637Y017056D01*
X004668Y017039D01*
X004696Y017018D01*
X004723Y016995D01*
X004746Y016968D01*
X004767Y016940D01*
X004784Y016909D01*
X004797Y016876D01*
X004807Y016842D01*
X004813Y016807D01*
X004815Y016772D01*
X004813Y016737D01*
X004807Y016702D01*
X004797Y016668D01*
X004784Y016635D01*
X004767Y016604D01*
X004746Y016576D01*
X004723Y016549D01*
X004696Y016526D01*
X004668Y016505D01*
X004637Y016488D01*
X004604Y016475D01*
X004570Y016465D01*
X004535Y016459D01*
X004500Y016457D01*
X004465Y016459D01*
X004430Y016465D01*
X004396Y016475D01*
X004363Y016488D01*
X004332Y016505D01*
X004304Y016526D01*
X004277Y016549D01*
X004254Y016576D01*
X004233Y016604D01*
X004216Y016635D01*
X004203Y016668D01*
X004193Y016702D01*
X004187Y016737D01*
X004185Y016772D01*
X000900Y018000D02*
X000902Y018049D01*
X000908Y018097D01*
X000918Y018145D01*
X000932Y018192D01*
X000949Y018238D01*
X000970Y018282D01*
X000995Y018324D01*
X001023Y018364D01*
X001055Y018402D01*
X001089Y018437D01*
X001126Y018469D01*
X001165Y018498D01*
X001207Y018524D01*
X001251Y018546D01*
X001296Y018564D01*
X001343Y018579D01*
X001390Y018590D01*
X001439Y018597D01*
X001488Y018600D01*
X001537Y018599D01*
X001585Y018594D01*
X001634Y018585D01*
X001681Y018572D01*
X001727Y018555D01*
X001771Y018535D01*
X001814Y018511D01*
X001855Y018484D01*
X001893Y018453D01*
X001929Y018420D01*
X001961Y018384D01*
X001991Y018345D01*
X002018Y018304D01*
X002041Y018260D01*
X002060Y018215D01*
X002076Y018169D01*
X002088Y018122D01*
X002096Y018073D01*
X002100Y018024D01*
X002100Y017976D01*
X002096Y017927D01*
X002088Y017878D01*
X002076Y017831D01*
X002060Y017785D01*
X002041Y017740D01*
X002018Y017696D01*
X001991Y017655D01*
X001961Y017616D01*
X001929Y017580D01*
X001893Y017547D01*
X001855Y017516D01*
X001814Y017489D01*
X001771Y017465D01*
X001727Y017445D01*
X001681Y017428D01*
X001634Y017415D01*
X001585Y017406D01*
X001537Y017401D01*
X001488Y017400D01*
X001439Y017403D01*
X001390Y017410D01*
X001343Y017421D01*
X001296Y017436D01*
X001251Y017454D01*
X001207Y017476D01*
X001165Y017502D01*
X001126Y017531D01*
X001089Y017563D01*
X001055Y017598D01*
X001023Y017636D01*
X000995Y017676D01*
X000970Y017718D01*
X000949Y017762D01*
X000932Y017808D01*
X000918Y017855D01*
X000908Y017903D01*
X000902Y017951D01*
X000900Y018000D01*
X014685Y016772D02*
X014687Y016807D01*
X014693Y016842D01*
X014703Y016876D01*
X014716Y016909D01*
X014733Y016940D01*
X014754Y016968D01*
X014777Y016995D01*
X014804Y017018D01*
X014832Y017039D01*
X014863Y017056D01*
X014896Y017069D01*
X014930Y017079D01*
X014965Y017085D01*
X015000Y017087D01*
X015035Y017085D01*
X015070Y017079D01*
X015104Y017069D01*
X015137Y017056D01*
X015168Y017039D01*
X015196Y017018D01*
X015223Y016995D01*
X015246Y016968D01*
X015267Y016940D01*
X015284Y016909D01*
X015297Y016876D01*
X015307Y016842D01*
X015313Y016807D01*
X015315Y016772D01*
X015313Y016737D01*
X015307Y016702D01*
X015297Y016668D01*
X015284Y016635D01*
X015267Y016604D01*
X015246Y016576D01*
X015223Y016549D01*
X015196Y016526D01*
X015168Y016505D01*
X015137Y016488D01*
X015104Y016475D01*
X015070Y016465D01*
X015035Y016459D01*
X015000Y016457D01*
X014965Y016459D01*
X014930Y016465D01*
X014896Y016475D01*
X014863Y016488D01*
X014832Y016505D01*
X014804Y016526D01*
X014777Y016549D01*
X014754Y016576D01*
X014733Y016604D01*
X014716Y016635D01*
X014703Y016668D01*
X014693Y016702D01*
X014687Y016737D01*
X014685Y016772D01*
X017400Y018000D02*
X017402Y018049D01*
X017408Y018097D01*
X017418Y018145D01*
X017432Y018192D01*
X017449Y018238D01*
X017470Y018282D01*
X017495Y018324D01*
X017523Y018364D01*
X017555Y018402D01*
X017589Y018437D01*
X017626Y018469D01*
X017665Y018498D01*
X017707Y018524D01*
X017751Y018546D01*
X017796Y018564D01*
X017843Y018579D01*
X017890Y018590D01*
X017939Y018597D01*
X017988Y018600D01*
X018037Y018599D01*
X018085Y018594D01*
X018134Y018585D01*
X018181Y018572D01*
X018227Y018555D01*
X018271Y018535D01*
X018314Y018511D01*
X018355Y018484D01*
X018393Y018453D01*
X018429Y018420D01*
X018461Y018384D01*
X018491Y018345D01*
X018518Y018304D01*
X018541Y018260D01*
X018560Y018215D01*
X018576Y018169D01*
X018588Y018122D01*
X018596Y018073D01*
X018600Y018024D01*
X018600Y017976D01*
X018596Y017927D01*
X018588Y017878D01*
X018576Y017831D01*
X018560Y017785D01*
X018541Y017740D01*
X018518Y017696D01*
X018491Y017655D01*
X018461Y017616D01*
X018429Y017580D01*
X018393Y017547D01*
X018355Y017516D01*
X018314Y017489D01*
X018271Y017465D01*
X018227Y017445D01*
X018181Y017428D01*
X018134Y017415D01*
X018085Y017406D01*
X018037Y017401D01*
X017988Y017400D01*
X017939Y017403D01*
X017890Y017410D01*
X017843Y017421D01*
X017796Y017436D01*
X017751Y017454D01*
X017707Y017476D01*
X017665Y017502D01*
X017626Y017531D01*
X017589Y017563D01*
X017555Y017598D01*
X017523Y017636D01*
X017495Y017676D01*
X017470Y017718D01*
X017449Y017762D01*
X017432Y017808D01*
X017418Y017855D01*
X017408Y017903D01*
X017402Y017951D01*
X017400Y018000D01*
X014685Y013228D02*
X014687Y013263D01*
X014693Y013298D01*
X014703Y013332D01*
X014716Y013365D01*
X014733Y013396D01*
X014754Y013424D01*
X014777Y013451D01*
X014804Y013474D01*
X014832Y013495D01*
X014863Y013512D01*
X014896Y013525D01*
X014930Y013535D01*
X014965Y013541D01*
X015000Y013543D01*
X015035Y013541D01*
X015070Y013535D01*
X015104Y013525D01*
X015137Y013512D01*
X015168Y013495D01*
X015196Y013474D01*
X015223Y013451D01*
X015246Y013424D01*
X015267Y013396D01*
X015284Y013365D01*
X015297Y013332D01*
X015307Y013298D01*
X015313Y013263D01*
X015315Y013228D01*
X015313Y013193D01*
X015307Y013158D01*
X015297Y013124D01*
X015284Y013091D01*
X015267Y013060D01*
X015246Y013032D01*
X015223Y013005D01*
X015196Y012982D01*
X015168Y012961D01*
X015137Y012944D01*
X015104Y012931D01*
X015070Y012921D01*
X015035Y012915D01*
X015000Y012913D01*
X014965Y012915D01*
X014930Y012921D01*
X014896Y012931D01*
X014863Y012944D01*
X014832Y012961D01*
X014804Y012982D01*
X014777Y013005D01*
X014754Y013032D01*
X014733Y013060D01*
X014716Y013091D01*
X014703Y013124D01*
X014693Y013158D01*
X014687Y013193D01*
X014685Y013228D01*
X014685Y006272D02*
X014687Y006307D01*
X014693Y006342D01*
X014703Y006376D01*
X014716Y006409D01*
X014733Y006440D01*
X014754Y006468D01*
X014777Y006495D01*
X014804Y006518D01*
X014832Y006539D01*
X014863Y006556D01*
X014896Y006569D01*
X014930Y006579D01*
X014965Y006585D01*
X015000Y006587D01*
X015035Y006585D01*
X015070Y006579D01*
X015104Y006569D01*
X015137Y006556D01*
X015168Y006539D01*
X015196Y006518D01*
X015223Y006495D01*
X015246Y006468D01*
X015267Y006440D01*
X015284Y006409D01*
X015297Y006376D01*
X015307Y006342D01*
X015313Y006307D01*
X015315Y006272D01*
X015313Y006237D01*
X015307Y006202D01*
X015297Y006168D01*
X015284Y006135D01*
X015267Y006104D01*
X015246Y006076D01*
X015223Y006049D01*
X015196Y006026D01*
X015168Y006005D01*
X015137Y005988D01*
X015104Y005975D01*
X015070Y005965D01*
X015035Y005959D01*
X015000Y005957D01*
X014965Y005959D01*
X014930Y005965D01*
X014896Y005975D01*
X014863Y005988D01*
X014832Y006005D01*
X014804Y006026D01*
X014777Y006049D01*
X014754Y006076D01*
X014733Y006104D01*
X014716Y006135D01*
X014703Y006168D01*
X014693Y006202D01*
X014687Y006237D01*
X014685Y006272D01*
X014685Y002728D02*
X014687Y002763D01*
X014693Y002798D01*
X014703Y002832D01*
X014716Y002865D01*
X014733Y002896D01*
X014754Y002924D01*
X014777Y002951D01*
X014804Y002974D01*
X014832Y002995D01*
X014863Y003012D01*
X014896Y003025D01*
X014930Y003035D01*
X014965Y003041D01*
X015000Y003043D01*
X015035Y003041D01*
X015070Y003035D01*
X015104Y003025D01*
X015137Y003012D01*
X015168Y002995D01*
X015196Y002974D01*
X015223Y002951D01*
X015246Y002924D01*
X015267Y002896D01*
X015284Y002865D01*
X015297Y002832D01*
X015307Y002798D01*
X015313Y002763D01*
X015315Y002728D01*
X015313Y002693D01*
X015307Y002658D01*
X015297Y002624D01*
X015284Y002591D01*
X015267Y002560D01*
X015246Y002532D01*
X015223Y002505D01*
X015196Y002482D01*
X015168Y002461D01*
X015137Y002444D01*
X015104Y002431D01*
X015070Y002421D01*
X015035Y002415D01*
X015000Y002413D01*
X014965Y002415D01*
X014930Y002421D01*
X014896Y002431D01*
X014863Y002444D01*
X014832Y002461D01*
X014804Y002482D01*
X014777Y002505D01*
X014754Y002532D01*
X014733Y002560D01*
X014716Y002591D01*
X014703Y002624D01*
X014693Y002658D01*
X014687Y002693D01*
X014685Y002728D01*
X017400Y001500D02*
X017402Y001549D01*
X017408Y001597D01*
X017418Y001645D01*
X017432Y001692D01*
X017449Y001738D01*
X017470Y001782D01*
X017495Y001824D01*
X017523Y001864D01*
X017555Y001902D01*
X017589Y001937D01*
X017626Y001969D01*
X017665Y001998D01*
X017707Y002024D01*
X017751Y002046D01*
X017796Y002064D01*
X017843Y002079D01*
X017890Y002090D01*
X017939Y002097D01*
X017988Y002100D01*
X018037Y002099D01*
X018085Y002094D01*
X018134Y002085D01*
X018181Y002072D01*
X018227Y002055D01*
X018271Y002035D01*
X018314Y002011D01*
X018355Y001984D01*
X018393Y001953D01*
X018429Y001920D01*
X018461Y001884D01*
X018491Y001845D01*
X018518Y001804D01*
X018541Y001760D01*
X018560Y001715D01*
X018576Y001669D01*
X018588Y001622D01*
X018596Y001573D01*
X018600Y001524D01*
X018600Y001476D01*
X018596Y001427D01*
X018588Y001378D01*
X018576Y001331D01*
X018560Y001285D01*
X018541Y001240D01*
X018518Y001196D01*
X018491Y001155D01*
X018461Y001116D01*
X018429Y001080D01*
X018393Y001047D01*
X018355Y001016D01*
X018314Y000989D01*
X018271Y000965D01*
X018227Y000945D01*
X018181Y000928D01*
X018134Y000915D01*
X018085Y000906D01*
X018037Y000901D01*
X017988Y000900D01*
X017939Y000903D01*
X017890Y000910D01*
X017843Y000921D01*
X017796Y000936D01*
X017751Y000954D01*
X017707Y000976D01*
X017665Y001002D01*
X017626Y001031D01*
X017589Y001063D01*
X017555Y001098D01*
X017523Y001136D01*
X017495Y001176D01*
X017470Y001218D01*
X017449Y001262D01*
X017432Y001308D01*
X017418Y001355D01*
X017408Y001403D01*
X017402Y001451D01*
X017400Y001500D01*
M02*
