G75*
G70*
%OFA0B0*%
%FSLAX24Y24*%
%IPPOS*%
%LPD*%
%AMOC8*
5,1,8,0,0,1.08239X$1,22.5*
%
%ADD10C,0.0000*%
%ADD11C,0.0040*%
%ADD12C,0.0080*%
%ADD13C,0.0100*%
%ADD14C,0.0050*%
%ADD15C,0.0010*%
%ADD16C,0.0354*%
%ADD17C,0.0060*%
D10*
X000100Y000100D02*
X000100Y019596D01*
X019470Y019596D01*
X019470Y000100D01*
X000100Y000100D01*
X001000Y001600D02*
X001002Y001649D01*
X001008Y001697D01*
X001018Y001745D01*
X001032Y001792D01*
X001049Y001838D01*
X001070Y001882D01*
X001095Y001924D01*
X001123Y001964D01*
X001155Y002002D01*
X001189Y002037D01*
X001226Y002069D01*
X001265Y002098D01*
X001307Y002124D01*
X001351Y002146D01*
X001396Y002164D01*
X001443Y002179D01*
X001490Y002190D01*
X001539Y002197D01*
X001588Y002200D01*
X001637Y002199D01*
X001685Y002194D01*
X001734Y002185D01*
X001781Y002172D01*
X001827Y002155D01*
X001871Y002135D01*
X001914Y002111D01*
X001955Y002084D01*
X001993Y002053D01*
X002029Y002020D01*
X002061Y001984D01*
X002091Y001945D01*
X002118Y001904D01*
X002141Y001860D01*
X002160Y001815D01*
X002176Y001769D01*
X002188Y001722D01*
X002196Y001673D01*
X002200Y001624D01*
X002200Y001576D01*
X002196Y001527D01*
X002188Y001478D01*
X002176Y001431D01*
X002160Y001385D01*
X002141Y001340D01*
X002118Y001296D01*
X002091Y001255D01*
X002061Y001216D01*
X002029Y001180D01*
X001993Y001147D01*
X001955Y001116D01*
X001914Y001089D01*
X001871Y001065D01*
X001827Y001045D01*
X001781Y001028D01*
X001734Y001015D01*
X001685Y001006D01*
X001637Y001001D01*
X001588Y001000D01*
X001539Y001003D01*
X001490Y001010D01*
X001443Y001021D01*
X001396Y001036D01*
X001351Y001054D01*
X001307Y001076D01*
X001265Y001102D01*
X001226Y001131D01*
X001189Y001163D01*
X001155Y001198D01*
X001123Y001236D01*
X001095Y001276D01*
X001070Y001318D01*
X001049Y001362D01*
X001032Y001408D01*
X001018Y001455D01*
X001008Y001503D01*
X001002Y001551D01*
X001000Y001600D01*
X004285Y002828D02*
X004287Y002863D01*
X004293Y002898D01*
X004303Y002932D01*
X004316Y002965D01*
X004333Y002996D01*
X004354Y003024D01*
X004377Y003051D01*
X004404Y003074D01*
X004432Y003095D01*
X004463Y003112D01*
X004496Y003125D01*
X004530Y003135D01*
X004565Y003141D01*
X004600Y003143D01*
X004635Y003141D01*
X004670Y003135D01*
X004704Y003125D01*
X004737Y003112D01*
X004768Y003095D01*
X004796Y003074D01*
X004823Y003051D01*
X004846Y003024D01*
X004867Y002996D01*
X004884Y002965D01*
X004897Y002932D01*
X004907Y002898D01*
X004913Y002863D01*
X004915Y002828D01*
X004913Y002793D01*
X004907Y002758D01*
X004897Y002724D01*
X004884Y002691D01*
X004867Y002660D01*
X004846Y002632D01*
X004823Y002605D01*
X004796Y002582D01*
X004768Y002561D01*
X004737Y002544D01*
X004704Y002531D01*
X004670Y002521D01*
X004635Y002515D01*
X004600Y002513D01*
X004565Y002515D01*
X004530Y002521D01*
X004496Y002531D01*
X004463Y002544D01*
X004432Y002561D01*
X004404Y002582D01*
X004377Y002605D01*
X004354Y002632D01*
X004333Y002660D01*
X004316Y002691D01*
X004303Y002724D01*
X004293Y002758D01*
X004287Y002793D01*
X004285Y002828D01*
X004285Y006372D02*
X004287Y006407D01*
X004293Y006442D01*
X004303Y006476D01*
X004316Y006509D01*
X004333Y006540D01*
X004354Y006568D01*
X004377Y006595D01*
X004404Y006618D01*
X004432Y006639D01*
X004463Y006656D01*
X004496Y006669D01*
X004530Y006679D01*
X004565Y006685D01*
X004600Y006687D01*
X004635Y006685D01*
X004670Y006679D01*
X004704Y006669D01*
X004737Y006656D01*
X004768Y006639D01*
X004796Y006618D01*
X004823Y006595D01*
X004846Y006568D01*
X004867Y006540D01*
X004884Y006509D01*
X004897Y006476D01*
X004907Y006442D01*
X004913Y006407D01*
X004915Y006372D01*
X004913Y006337D01*
X004907Y006302D01*
X004897Y006268D01*
X004884Y006235D01*
X004867Y006204D01*
X004846Y006176D01*
X004823Y006149D01*
X004796Y006126D01*
X004768Y006105D01*
X004737Y006088D01*
X004704Y006075D01*
X004670Y006065D01*
X004635Y006059D01*
X004600Y006057D01*
X004565Y006059D01*
X004530Y006065D01*
X004496Y006075D01*
X004463Y006088D01*
X004432Y006105D01*
X004404Y006126D01*
X004377Y006149D01*
X004354Y006176D01*
X004333Y006204D01*
X004316Y006235D01*
X004303Y006268D01*
X004293Y006302D01*
X004287Y006337D01*
X004285Y006372D01*
X004285Y013328D02*
X004287Y013363D01*
X004293Y013398D01*
X004303Y013432D01*
X004316Y013465D01*
X004333Y013496D01*
X004354Y013524D01*
X004377Y013551D01*
X004404Y013574D01*
X004432Y013595D01*
X004463Y013612D01*
X004496Y013625D01*
X004530Y013635D01*
X004565Y013641D01*
X004600Y013643D01*
X004635Y013641D01*
X004670Y013635D01*
X004704Y013625D01*
X004737Y013612D01*
X004768Y013595D01*
X004796Y013574D01*
X004823Y013551D01*
X004846Y013524D01*
X004867Y013496D01*
X004884Y013465D01*
X004897Y013432D01*
X004907Y013398D01*
X004913Y013363D01*
X004915Y013328D01*
X004913Y013293D01*
X004907Y013258D01*
X004897Y013224D01*
X004884Y013191D01*
X004867Y013160D01*
X004846Y013132D01*
X004823Y013105D01*
X004796Y013082D01*
X004768Y013061D01*
X004737Y013044D01*
X004704Y013031D01*
X004670Y013021D01*
X004635Y013015D01*
X004600Y013013D01*
X004565Y013015D01*
X004530Y013021D01*
X004496Y013031D01*
X004463Y013044D01*
X004432Y013061D01*
X004404Y013082D01*
X004377Y013105D01*
X004354Y013132D01*
X004333Y013160D01*
X004316Y013191D01*
X004303Y013224D01*
X004293Y013258D01*
X004287Y013293D01*
X004285Y013328D01*
X004285Y016872D02*
X004287Y016907D01*
X004293Y016942D01*
X004303Y016976D01*
X004316Y017009D01*
X004333Y017040D01*
X004354Y017068D01*
X004377Y017095D01*
X004404Y017118D01*
X004432Y017139D01*
X004463Y017156D01*
X004496Y017169D01*
X004530Y017179D01*
X004565Y017185D01*
X004600Y017187D01*
X004635Y017185D01*
X004670Y017179D01*
X004704Y017169D01*
X004737Y017156D01*
X004768Y017139D01*
X004796Y017118D01*
X004823Y017095D01*
X004846Y017068D01*
X004867Y017040D01*
X004884Y017009D01*
X004897Y016976D01*
X004907Y016942D01*
X004913Y016907D01*
X004915Y016872D01*
X004913Y016837D01*
X004907Y016802D01*
X004897Y016768D01*
X004884Y016735D01*
X004867Y016704D01*
X004846Y016676D01*
X004823Y016649D01*
X004796Y016626D01*
X004768Y016605D01*
X004737Y016588D01*
X004704Y016575D01*
X004670Y016565D01*
X004635Y016559D01*
X004600Y016557D01*
X004565Y016559D01*
X004530Y016565D01*
X004496Y016575D01*
X004463Y016588D01*
X004432Y016605D01*
X004404Y016626D01*
X004377Y016649D01*
X004354Y016676D01*
X004333Y016704D01*
X004316Y016735D01*
X004303Y016768D01*
X004293Y016802D01*
X004287Y016837D01*
X004285Y016872D01*
X001000Y018100D02*
X001002Y018149D01*
X001008Y018197D01*
X001018Y018245D01*
X001032Y018292D01*
X001049Y018338D01*
X001070Y018382D01*
X001095Y018424D01*
X001123Y018464D01*
X001155Y018502D01*
X001189Y018537D01*
X001226Y018569D01*
X001265Y018598D01*
X001307Y018624D01*
X001351Y018646D01*
X001396Y018664D01*
X001443Y018679D01*
X001490Y018690D01*
X001539Y018697D01*
X001588Y018700D01*
X001637Y018699D01*
X001685Y018694D01*
X001734Y018685D01*
X001781Y018672D01*
X001827Y018655D01*
X001871Y018635D01*
X001914Y018611D01*
X001955Y018584D01*
X001993Y018553D01*
X002029Y018520D01*
X002061Y018484D01*
X002091Y018445D01*
X002118Y018404D01*
X002141Y018360D01*
X002160Y018315D01*
X002176Y018269D01*
X002188Y018222D01*
X002196Y018173D01*
X002200Y018124D01*
X002200Y018076D01*
X002196Y018027D01*
X002188Y017978D01*
X002176Y017931D01*
X002160Y017885D01*
X002141Y017840D01*
X002118Y017796D01*
X002091Y017755D01*
X002061Y017716D01*
X002029Y017680D01*
X001993Y017647D01*
X001955Y017616D01*
X001914Y017589D01*
X001871Y017565D01*
X001827Y017545D01*
X001781Y017528D01*
X001734Y017515D01*
X001685Y017506D01*
X001637Y017501D01*
X001588Y017500D01*
X001539Y017503D01*
X001490Y017510D01*
X001443Y017521D01*
X001396Y017536D01*
X001351Y017554D01*
X001307Y017576D01*
X001265Y017602D01*
X001226Y017631D01*
X001189Y017663D01*
X001155Y017698D01*
X001123Y017736D01*
X001095Y017776D01*
X001070Y017818D01*
X001049Y017862D01*
X001032Y017908D01*
X001018Y017955D01*
X001008Y018003D01*
X001002Y018051D01*
X001000Y018100D01*
X014785Y016872D02*
X014787Y016907D01*
X014793Y016942D01*
X014803Y016976D01*
X014816Y017009D01*
X014833Y017040D01*
X014854Y017068D01*
X014877Y017095D01*
X014904Y017118D01*
X014932Y017139D01*
X014963Y017156D01*
X014996Y017169D01*
X015030Y017179D01*
X015065Y017185D01*
X015100Y017187D01*
X015135Y017185D01*
X015170Y017179D01*
X015204Y017169D01*
X015237Y017156D01*
X015268Y017139D01*
X015296Y017118D01*
X015323Y017095D01*
X015346Y017068D01*
X015367Y017040D01*
X015384Y017009D01*
X015397Y016976D01*
X015407Y016942D01*
X015413Y016907D01*
X015415Y016872D01*
X015413Y016837D01*
X015407Y016802D01*
X015397Y016768D01*
X015384Y016735D01*
X015367Y016704D01*
X015346Y016676D01*
X015323Y016649D01*
X015296Y016626D01*
X015268Y016605D01*
X015237Y016588D01*
X015204Y016575D01*
X015170Y016565D01*
X015135Y016559D01*
X015100Y016557D01*
X015065Y016559D01*
X015030Y016565D01*
X014996Y016575D01*
X014963Y016588D01*
X014932Y016605D01*
X014904Y016626D01*
X014877Y016649D01*
X014854Y016676D01*
X014833Y016704D01*
X014816Y016735D01*
X014803Y016768D01*
X014793Y016802D01*
X014787Y016837D01*
X014785Y016872D01*
X017500Y018100D02*
X017502Y018149D01*
X017508Y018197D01*
X017518Y018245D01*
X017532Y018292D01*
X017549Y018338D01*
X017570Y018382D01*
X017595Y018424D01*
X017623Y018464D01*
X017655Y018502D01*
X017689Y018537D01*
X017726Y018569D01*
X017765Y018598D01*
X017807Y018624D01*
X017851Y018646D01*
X017896Y018664D01*
X017943Y018679D01*
X017990Y018690D01*
X018039Y018697D01*
X018088Y018700D01*
X018137Y018699D01*
X018185Y018694D01*
X018234Y018685D01*
X018281Y018672D01*
X018327Y018655D01*
X018371Y018635D01*
X018414Y018611D01*
X018455Y018584D01*
X018493Y018553D01*
X018529Y018520D01*
X018561Y018484D01*
X018591Y018445D01*
X018618Y018404D01*
X018641Y018360D01*
X018660Y018315D01*
X018676Y018269D01*
X018688Y018222D01*
X018696Y018173D01*
X018700Y018124D01*
X018700Y018076D01*
X018696Y018027D01*
X018688Y017978D01*
X018676Y017931D01*
X018660Y017885D01*
X018641Y017840D01*
X018618Y017796D01*
X018591Y017755D01*
X018561Y017716D01*
X018529Y017680D01*
X018493Y017647D01*
X018455Y017616D01*
X018414Y017589D01*
X018371Y017565D01*
X018327Y017545D01*
X018281Y017528D01*
X018234Y017515D01*
X018185Y017506D01*
X018137Y017501D01*
X018088Y017500D01*
X018039Y017503D01*
X017990Y017510D01*
X017943Y017521D01*
X017896Y017536D01*
X017851Y017554D01*
X017807Y017576D01*
X017765Y017602D01*
X017726Y017631D01*
X017689Y017663D01*
X017655Y017698D01*
X017623Y017736D01*
X017595Y017776D01*
X017570Y017818D01*
X017549Y017862D01*
X017532Y017908D01*
X017518Y017955D01*
X017508Y018003D01*
X017502Y018051D01*
X017500Y018100D01*
X014785Y013328D02*
X014787Y013363D01*
X014793Y013398D01*
X014803Y013432D01*
X014816Y013465D01*
X014833Y013496D01*
X014854Y013524D01*
X014877Y013551D01*
X014904Y013574D01*
X014932Y013595D01*
X014963Y013612D01*
X014996Y013625D01*
X015030Y013635D01*
X015065Y013641D01*
X015100Y013643D01*
X015135Y013641D01*
X015170Y013635D01*
X015204Y013625D01*
X015237Y013612D01*
X015268Y013595D01*
X015296Y013574D01*
X015323Y013551D01*
X015346Y013524D01*
X015367Y013496D01*
X015384Y013465D01*
X015397Y013432D01*
X015407Y013398D01*
X015413Y013363D01*
X015415Y013328D01*
X015413Y013293D01*
X015407Y013258D01*
X015397Y013224D01*
X015384Y013191D01*
X015367Y013160D01*
X015346Y013132D01*
X015323Y013105D01*
X015296Y013082D01*
X015268Y013061D01*
X015237Y013044D01*
X015204Y013031D01*
X015170Y013021D01*
X015135Y013015D01*
X015100Y013013D01*
X015065Y013015D01*
X015030Y013021D01*
X014996Y013031D01*
X014963Y013044D01*
X014932Y013061D01*
X014904Y013082D01*
X014877Y013105D01*
X014854Y013132D01*
X014833Y013160D01*
X014816Y013191D01*
X014803Y013224D01*
X014793Y013258D01*
X014787Y013293D01*
X014785Y013328D01*
X014785Y006372D02*
X014787Y006407D01*
X014793Y006442D01*
X014803Y006476D01*
X014816Y006509D01*
X014833Y006540D01*
X014854Y006568D01*
X014877Y006595D01*
X014904Y006618D01*
X014932Y006639D01*
X014963Y006656D01*
X014996Y006669D01*
X015030Y006679D01*
X015065Y006685D01*
X015100Y006687D01*
X015135Y006685D01*
X015170Y006679D01*
X015204Y006669D01*
X015237Y006656D01*
X015268Y006639D01*
X015296Y006618D01*
X015323Y006595D01*
X015346Y006568D01*
X015367Y006540D01*
X015384Y006509D01*
X015397Y006476D01*
X015407Y006442D01*
X015413Y006407D01*
X015415Y006372D01*
X015413Y006337D01*
X015407Y006302D01*
X015397Y006268D01*
X015384Y006235D01*
X015367Y006204D01*
X015346Y006176D01*
X015323Y006149D01*
X015296Y006126D01*
X015268Y006105D01*
X015237Y006088D01*
X015204Y006075D01*
X015170Y006065D01*
X015135Y006059D01*
X015100Y006057D01*
X015065Y006059D01*
X015030Y006065D01*
X014996Y006075D01*
X014963Y006088D01*
X014932Y006105D01*
X014904Y006126D01*
X014877Y006149D01*
X014854Y006176D01*
X014833Y006204D01*
X014816Y006235D01*
X014803Y006268D01*
X014793Y006302D01*
X014787Y006337D01*
X014785Y006372D01*
X014785Y002828D02*
X014787Y002863D01*
X014793Y002898D01*
X014803Y002932D01*
X014816Y002965D01*
X014833Y002996D01*
X014854Y003024D01*
X014877Y003051D01*
X014904Y003074D01*
X014932Y003095D01*
X014963Y003112D01*
X014996Y003125D01*
X015030Y003135D01*
X015065Y003141D01*
X015100Y003143D01*
X015135Y003141D01*
X015170Y003135D01*
X015204Y003125D01*
X015237Y003112D01*
X015268Y003095D01*
X015296Y003074D01*
X015323Y003051D01*
X015346Y003024D01*
X015367Y002996D01*
X015384Y002965D01*
X015397Y002932D01*
X015407Y002898D01*
X015413Y002863D01*
X015415Y002828D01*
X015413Y002793D01*
X015407Y002758D01*
X015397Y002724D01*
X015384Y002691D01*
X015367Y002660D01*
X015346Y002632D01*
X015323Y002605D01*
X015296Y002582D01*
X015268Y002561D01*
X015237Y002544D01*
X015204Y002531D01*
X015170Y002521D01*
X015135Y002515D01*
X015100Y002513D01*
X015065Y002515D01*
X015030Y002521D01*
X014996Y002531D01*
X014963Y002544D01*
X014932Y002561D01*
X014904Y002582D01*
X014877Y002605D01*
X014854Y002632D01*
X014833Y002660D01*
X014816Y002691D01*
X014803Y002724D01*
X014793Y002758D01*
X014787Y002793D01*
X014785Y002828D01*
X017500Y001600D02*
X017502Y001649D01*
X017508Y001697D01*
X017518Y001745D01*
X017532Y001792D01*
X017549Y001838D01*
X017570Y001882D01*
X017595Y001924D01*
X017623Y001964D01*
X017655Y002002D01*
X017689Y002037D01*
X017726Y002069D01*
X017765Y002098D01*
X017807Y002124D01*
X017851Y002146D01*
X017896Y002164D01*
X017943Y002179D01*
X017990Y002190D01*
X018039Y002197D01*
X018088Y002200D01*
X018137Y002199D01*
X018185Y002194D01*
X018234Y002185D01*
X018281Y002172D01*
X018327Y002155D01*
X018371Y002135D01*
X018414Y002111D01*
X018455Y002084D01*
X018493Y002053D01*
X018529Y002020D01*
X018561Y001984D01*
X018591Y001945D01*
X018618Y001904D01*
X018641Y001860D01*
X018660Y001815D01*
X018676Y001769D01*
X018688Y001722D01*
X018696Y001673D01*
X018700Y001624D01*
X018700Y001576D01*
X018696Y001527D01*
X018688Y001478D01*
X018676Y001431D01*
X018660Y001385D01*
X018641Y001340D01*
X018618Y001296D01*
X018591Y001255D01*
X018561Y001216D01*
X018529Y001180D01*
X018493Y001147D01*
X018455Y001116D01*
X018414Y001089D01*
X018371Y001065D01*
X018327Y001045D01*
X018281Y001028D01*
X018234Y001015D01*
X018185Y001006D01*
X018137Y001001D01*
X018088Y001000D01*
X018039Y001003D01*
X017990Y001010D01*
X017943Y001021D01*
X017896Y001036D01*
X017851Y001054D01*
X017807Y001076D01*
X017765Y001102D01*
X017726Y001131D01*
X017689Y001163D01*
X017655Y001198D01*
X017623Y001236D01*
X017595Y001276D01*
X017570Y001318D01*
X017549Y001362D01*
X017532Y001408D01*
X017518Y001455D01*
X017508Y001503D01*
X017502Y001551D01*
X017500Y001600D01*
D11*
X018696Y003120D02*
X019003Y003120D01*
X019080Y003197D01*
X019080Y003350D01*
X019003Y003427D01*
X019080Y003580D02*
X018620Y003580D01*
X018696Y003427D02*
X018620Y003350D01*
X018620Y003197D01*
X018696Y003120D01*
X018850Y003580D02*
X018773Y003657D01*
X018773Y003811D01*
X018850Y003887D01*
X019080Y003887D01*
X019080Y004041D02*
X018773Y004041D01*
X018773Y004194D02*
X018773Y004271D01*
X018773Y004194D02*
X018927Y004041D01*
X019080Y004424D02*
X019080Y004578D01*
X019080Y004501D02*
X018773Y004501D01*
X018773Y004424D01*
X018620Y004501D02*
X018543Y004501D01*
X018850Y004731D02*
X018773Y004808D01*
X018773Y005038D01*
X018773Y005192D02*
X018773Y005345D01*
X018696Y005268D02*
X019003Y005268D01*
X019080Y005345D01*
X019003Y005499D02*
X019080Y005575D01*
X019080Y005729D01*
X019003Y005806D01*
X018850Y005806D01*
X018773Y005729D01*
X018773Y005575D01*
X018850Y005499D01*
X019003Y005499D01*
X019003Y005038D02*
X018927Y004962D01*
X018927Y004808D01*
X018850Y004731D01*
X019080Y004731D02*
X019080Y004962D01*
X019003Y005038D01*
X019080Y005959D02*
X019080Y006189D01*
X019003Y006266D01*
X018850Y006266D01*
X018773Y006189D01*
X018773Y005959D01*
X019233Y005959D01*
X019080Y006419D02*
X018620Y006419D01*
X018773Y006496D02*
X018773Y006650D01*
X018850Y006726D01*
X019080Y006726D01*
X019003Y006880D02*
X018850Y006880D01*
X018773Y006957D01*
X018773Y007110D01*
X018850Y007187D01*
X018927Y007187D01*
X018927Y006880D01*
X019003Y006880D02*
X019080Y006957D01*
X019080Y007110D01*
X019080Y007340D02*
X018773Y007340D01*
X018927Y007340D02*
X018773Y007494D01*
X018773Y007570D01*
X018620Y008184D02*
X019080Y008184D01*
X018927Y008338D01*
X019080Y008491D01*
X018620Y008491D01*
X018773Y008721D02*
X018850Y008645D01*
X019003Y008645D01*
X019080Y008721D01*
X019080Y008875D01*
X019003Y008952D01*
X018850Y008952D01*
X018773Y008875D01*
X018773Y008721D01*
X018850Y009105D02*
X018773Y009182D01*
X018773Y009335D01*
X018850Y009412D01*
X019003Y009412D01*
X019080Y009335D01*
X019080Y009182D01*
X019003Y009105D01*
X018850Y009105D01*
X018850Y009565D02*
X018773Y009642D01*
X018773Y009872D01*
X018620Y009872D02*
X019080Y009872D01*
X019080Y009642D01*
X019003Y009565D01*
X018850Y009565D01*
X019003Y010026D02*
X018927Y010103D01*
X018927Y010333D01*
X018850Y010333D02*
X019080Y010333D01*
X019080Y010103D01*
X019003Y010026D01*
X018773Y010103D02*
X018773Y010256D01*
X018850Y010333D01*
X019080Y010486D02*
X019080Y010640D01*
X019080Y010563D02*
X018620Y010563D01*
X018620Y010486D01*
X018620Y010793D02*
X018620Y010870D01*
X019080Y010870D01*
X019080Y010793D02*
X019080Y010947D01*
X019003Y013120D02*
X019080Y013197D01*
X019080Y013273D01*
X019003Y013350D01*
X018620Y013350D01*
X018620Y013273D02*
X018620Y013427D01*
X018773Y013657D02*
X018773Y013811D01*
X018850Y013887D01*
X019080Y013887D01*
X019080Y013657D01*
X019003Y013580D01*
X018927Y013657D01*
X018927Y013887D01*
X019080Y014041D02*
X018773Y014041D01*
X018773Y014271D01*
X018850Y014348D01*
X019080Y014348D01*
X019080Y014962D02*
X018773Y015268D01*
X018696Y015268D01*
X018620Y015192D01*
X018620Y015038D01*
X018696Y014962D01*
X019080Y014962D02*
X019080Y015268D01*
X019003Y015422D02*
X018696Y015729D01*
X019003Y015729D01*
X019080Y015652D01*
X019080Y015499D01*
X019003Y015422D01*
X018696Y015422D01*
X018620Y015499D01*
X018620Y015652D01*
X018696Y015729D01*
X018773Y015882D02*
X018620Y016036D01*
X019080Y016036D01*
X019080Y016189D02*
X019080Y015882D01*
X019080Y016343D02*
X018773Y016650D01*
X018696Y016650D01*
X018620Y016573D01*
X018620Y016419D01*
X018696Y016343D01*
X019080Y016343D02*
X019080Y016650D01*
X018773Y006496D02*
X018850Y006419D01*
X001580Y006620D02*
X001060Y006620D01*
X001580Y006967D01*
X001060Y006967D01*
X001233Y007222D02*
X001320Y007136D01*
X001493Y007136D01*
X001580Y007222D01*
X001580Y007396D01*
X001493Y007483D01*
X001320Y007483D01*
X001233Y007396D01*
X001233Y007222D01*
X001233Y007651D02*
X001233Y007738D01*
X001320Y007825D01*
X001233Y007912D01*
X001320Y007998D01*
X001580Y007998D01*
X001580Y008167D02*
X001580Y008340D01*
X001580Y008254D02*
X001233Y008254D01*
X001233Y008167D01*
X001060Y008254D02*
X000973Y008254D01*
X001233Y008597D02*
X001233Y008858D01*
X001407Y008771D02*
X001407Y008597D01*
X001320Y008511D01*
X001233Y008597D01*
X001407Y008771D02*
X001493Y008858D01*
X001580Y008771D01*
X001580Y008511D01*
X001580Y007825D02*
X001320Y007825D01*
X001233Y007651D02*
X001580Y007651D01*
X001407Y009542D02*
X001233Y009542D01*
X001060Y009715D01*
X001060Y009886D02*
X001060Y010146D01*
X001146Y010233D01*
X001320Y010233D01*
X001407Y010146D01*
X001407Y009886D01*
X001580Y009886D02*
X001060Y009886D01*
X001407Y010059D02*
X001580Y010233D01*
X001493Y010401D02*
X001320Y010401D01*
X001233Y010488D01*
X001233Y010662D01*
X001320Y010748D01*
X001407Y010748D01*
X001407Y010401D01*
X001493Y010401D02*
X001580Y010488D01*
X001580Y010662D01*
X001580Y011090D02*
X001233Y011264D01*
X001233Y010917D02*
X001580Y011090D01*
X001580Y011948D02*
X001233Y011948D01*
X001060Y012122D01*
X001233Y012295D01*
X001580Y012295D01*
X001580Y012464D02*
X001493Y012464D01*
X001493Y012551D01*
X001580Y012551D01*
X001580Y012464D01*
X001580Y012722D02*
X001407Y012895D01*
X001233Y012895D01*
X001060Y012722D01*
X001320Y012295D02*
X001320Y011948D01*
X001580Y009715D02*
X001407Y009542D01*
D12*
X003360Y009378D02*
X003360Y010322D01*
X005840Y010322D01*
X005840Y009378D01*
X003360Y009378D01*
X003360Y009072D02*
X005840Y009072D01*
X005840Y008128D01*
X003360Y008128D01*
X003360Y009072D01*
X003360Y010628D02*
X003360Y011572D01*
X005840Y011572D01*
X005840Y010628D01*
X003360Y010628D01*
X002691Y012738D02*
X002238Y013191D01*
X002238Y013525D01*
X002691Y012738D02*
X006509Y012738D01*
X006962Y013191D01*
X006962Y013525D01*
X006569Y013525D01*
X006569Y014706D01*
X006962Y014706D01*
X006962Y015494D01*
X006569Y015494D01*
X006569Y016675D01*
X006962Y016675D01*
X006962Y017009D01*
X006509Y017462D01*
X002691Y017462D01*
X002238Y017009D01*
X002238Y016675D01*
X002238Y015494D02*
X002238Y014706D01*
X004465Y014100D02*
X004745Y014100D01*
X004605Y014240D02*
X004605Y013960D01*
X003222Y015100D02*
X003224Y015174D01*
X003230Y015248D01*
X003240Y015321D01*
X003254Y015394D01*
X003271Y015466D01*
X003293Y015536D01*
X003318Y015606D01*
X003347Y015674D01*
X003380Y015740D01*
X003416Y015805D01*
X003456Y015867D01*
X003498Y015928D01*
X003544Y015986D01*
X003593Y016041D01*
X003645Y016094D01*
X003700Y016144D01*
X003757Y016190D01*
X003817Y016234D01*
X003879Y016274D01*
X003943Y016311D01*
X004009Y016345D01*
X004077Y016375D01*
X004146Y016401D01*
X004217Y016424D01*
X004288Y016442D01*
X004361Y016457D01*
X004434Y016468D01*
X004508Y016475D01*
X004582Y016478D01*
X004655Y016477D01*
X004729Y016472D01*
X004803Y016463D01*
X004876Y016450D01*
X004948Y016433D01*
X005019Y016413D01*
X005089Y016388D01*
X005157Y016360D01*
X005224Y016329D01*
X005289Y016293D01*
X005352Y016255D01*
X005413Y016213D01*
X005472Y016167D01*
X005528Y016119D01*
X005581Y016068D01*
X005631Y016014D01*
X005679Y015957D01*
X005723Y015898D01*
X005765Y015836D01*
X005803Y015773D01*
X005837Y015707D01*
X005868Y015640D01*
X005895Y015571D01*
X005918Y015501D01*
X005938Y015430D01*
X005954Y015357D01*
X005966Y015284D01*
X005974Y015211D01*
X005978Y015137D01*
X005978Y015063D01*
X005974Y014989D01*
X005966Y014916D01*
X005954Y014843D01*
X005938Y014770D01*
X005918Y014699D01*
X005895Y014629D01*
X005868Y014560D01*
X005837Y014493D01*
X005803Y014427D01*
X005765Y014364D01*
X005723Y014302D01*
X005679Y014243D01*
X005631Y014186D01*
X005581Y014132D01*
X005528Y014081D01*
X005472Y014033D01*
X005413Y013987D01*
X005352Y013945D01*
X005289Y013907D01*
X005224Y013871D01*
X005157Y013840D01*
X005089Y013812D01*
X005019Y013787D01*
X004948Y013767D01*
X004876Y013750D01*
X004803Y013737D01*
X004729Y013728D01*
X004655Y013723D01*
X004582Y013722D01*
X004508Y013725D01*
X004434Y013732D01*
X004361Y013743D01*
X004288Y013758D01*
X004217Y013776D01*
X004146Y013799D01*
X004077Y013825D01*
X004009Y013855D01*
X003943Y013889D01*
X003879Y013926D01*
X003817Y013966D01*
X003757Y014010D01*
X003700Y014056D01*
X003645Y014106D01*
X003593Y014159D01*
X003544Y014214D01*
X003498Y014272D01*
X003456Y014333D01*
X003416Y014395D01*
X003380Y014460D01*
X003347Y014526D01*
X003318Y014594D01*
X003293Y014664D01*
X003271Y014734D01*
X003254Y014806D01*
X003240Y014879D01*
X003230Y014952D01*
X003224Y015026D01*
X003222Y015100D01*
X004465Y016100D02*
X004745Y016100D01*
X008128Y015340D02*
X008128Y012860D01*
X009072Y012860D01*
X009072Y015340D01*
X008128Y015340D01*
X009378Y015340D02*
X010322Y015340D01*
X010322Y012860D01*
X009378Y012860D01*
X009378Y015340D01*
X010628Y015340D02*
X010628Y012860D01*
X011572Y012860D01*
X011572Y015340D01*
X010628Y015340D01*
X010270Y016890D02*
X010410Y017030D01*
X010410Y017310D01*
X010130Y017310D02*
X010130Y017030D01*
X010270Y016890D01*
X009949Y016960D02*
X009949Y017240D01*
X009879Y017310D01*
X009739Y017310D01*
X009669Y017240D01*
X009669Y017170D01*
X009739Y017100D01*
X009949Y017100D01*
X009949Y016960D02*
X009879Y016890D01*
X009739Y016890D01*
X009669Y016960D01*
X012738Y017009D02*
X012738Y016675D01*
X012738Y017009D02*
X013191Y017462D01*
X017009Y017462D01*
X017462Y017009D01*
X017462Y016675D01*
X017069Y016675D01*
X017069Y015494D01*
X017462Y015494D01*
X017462Y014706D01*
X017069Y014706D01*
X017069Y013525D01*
X017462Y013525D01*
X017462Y013191D01*
X017009Y012738D01*
X013191Y012738D01*
X012738Y013191D01*
X012738Y013525D01*
X012738Y014706D02*
X012738Y015494D01*
X014965Y016100D02*
X015245Y016100D01*
X013722Y015100D02*
X013724Y015174D01*
X013730Y015248D01*
X013740Y015321D01*
X013754Y015394D01*
X013771Y015466D01*
X013793Y015536D01*
X013818Y015606D01*
X013847Y015674D01*
X013880Y015740D01*
X013916Y015805D01*
X013956Y015867D01*
X013998Y015928D01*
X014044Y015986D01*
X014093Y016041D01*
X014145Y016094D01*
X014200Y016144D01*
X014257Y016190D01*
X014317Y016234D01*
X014379Y016274D01*
X014443Y016311D01*
X014509Y016345D01*
X014577Y016375D01*
X014646Y016401D01*
X014717Y016424D01*
X014788Y016442D01*
X014861Y016457D01*
X014934Y016468D01*
X015008Y016475D01*
X015082Y016478D01*
X015155Y016477D01*
X015229Y016472D01*
X015303Y016463D01*
X015376Y016450D01*
X015448Y016433D01*
X015519Y016413D01*
X015589Y016388D01*
X015657Y016360D01*
X015724Y016329D01*
X015789Y016293D01*
X015852Y016255D01*
X015913Y016213D01*
X015972Y016167D01*
X016028Y016119D01*
X016081Y016068D01*
X016131Y016014D01*
X016179Y015957D01*
X016223Y015898D01*
X016265Y015836D01*
X016303Y015773D01*
X016337Y015707D01*
X016368Y015640D01*
X016395Y015571D01*
X016418Y015501D01*
X016438Y015430D01*
X016454Y015357D01*
X016466Y015284D01*
X016474Y015211D01*
X016478Y015137D01*
X016478Y015063D01*
X016474Y014989D01*
X016466Y014916D01*
X016454Y014843D01*
X016438Y014770D01*
X016418Y014699D01*
X016395Y014629D01*
X016368Y014560D01*
X016337Y014493D01*
X016303Y014427D01*
X016265Y014364D01*
X016223Y014302D01*
X016179Y014243D01*
X016131Y014186D01*
X016081Y014132D01*
X016028Y014081D01*
X015972Y014033D01*
X015913Y013987D01*
X015852Y013945D01*
X015789Y013907D01*
X015724Y013871D01*
X015657Y013840D01*
X015589Y013812D01*
X015519Y013787D01*
X015448Y013767D01*
X015376Y013750D01*
X015303Y013737D01*
X015229Y013728D01*
X015155Y013723D01*
X015082Y013722D01*
X015008Y013725D01*
X014934Y013732D01*
X014861Y013743D01*
X014788Y013758D01*
X014717Y013776D01*
X014646Y013799D01*
X014577Y013825D01*
X014509Y013855D01*
X014443Y013889D01*
X014379Y013926D01*
X014317Y013966D01*
X014257Y014010D01*
X014200Y014056D01*
X014145Y014106D01*
X014093Y014159D01*
X014044Y014214D01*
X013998Y014272D01*
X013956Y014333D01*
X013916Y014395D01*
X013880Y014460D01*
X013847Y014526D01*
X013818Y014594D01*
X013793Y014664D01*
X013771Y014734D01*
X013754Y014806D01*
X013740Y014879D01*
X013730Y014952D01*
X013724Y015026D01*
X013722Y015100D01*
X014965Y014100D02*
X015245Y014100D01*
X015105Y014240D02*
X015105Y013960D01*
X014360Y011572D02*
X016840Y011572D01*
X016840Y010628D01*
X014360Y010628D01*
X014360Y011572D01*
X014360Y010322D02*
X016840Y010322D01*
X016840Y009378D01*
X014360Y009378D01*
X014360Y010322D01*
X014360Y009072D02*
X016840Y009072D01*
X016840Y008128D01*
X014360Y008128D01*
X014360Y009072D01*
X013191Y006962D02*
X012738Y006509D01*
X012738Y006175D01*
X013191Y006962D02*
X017009Y006962D01*
X017462Y006509D01*
X017462Y006175D01*
X017069Y006175D01*
X017069Y004994D01*
X017462Y004994D01*
X017462Y004206D01*
X017069Y004206D01*
X017069Y003025D01*
X017462Y003025D01*
X017462Y002691D01*
X017009Y002238D01*
X013191Y002238D01*
X012738Y002691D01*
X012738Y003025D01*
X012738Y004206D02*
X012738Y004994D01*
X011572Y004340D02*
X011572Y001860D01*
X010628Y001860D01*
X010628Y004340D01*
X011572Y004340D01*
X010322Y004340D02*
X010322Y001860D01*
X009378Y001860D01*
X009378Y004340D01*
X010322Y004340D01*
X009072Y004340D02*
X009072Y001860D01*
X008128Y001860D01*
X008128Y004340D01*
X009072Y004340D01*
X009100Y006100D02*
X009100Y010100D01*
X009500Y010100D01*
X009700Y010100D01*
X009500Y010100D02*
X011100Y010100D01*
X011100Y006100D01*
X009100Y006100D01*
X006962Y006175D02*
X006569Y006175D01*
X006569Y004994D01*
X006962Y004994D01*
X006962Y004206D01*
X006569Y004206D01*
X006569Y003025D01*
X006962Y003025D01*
X006962Y002691D01*
X006509Y002238D01*
X002691Y002238D01*
X002238Y002691D01*
X002238Y003025D01*
X002238Y004206D02*
X002238Y004994D01*
X002238Y006175D02*
X002238Y006509D01*
X002691Y006962D01*
X006509Y006962D01*
X006962Y006509D01*
X006962Y006175D01*
X004745Y005600D02*
X004465Y005600D01*
X003222Y004600D02*
X003224Y004674D01*
X003230Y004748D01*
X003240Y004821D01*
X003254Y004894D01*
X003271Y004966D01*
X003293Y005036D01*
X003318Y005106D01*
X003347Y005174D01*
X003380Y005240D01*
X003416Y005305D01*
X003456Y005367D01*
X003498Y005428D01*
X003544Y005486D01*
X003593Y005541D01*
X003645Y005594D01*
X003700Y005644D01*
X003757Y005690D01*
X003817Y005734D01*
X003879Y005774D01*
X003943Y005811D01*
X004009Y005845D01*
X004077Y005875D01*
X004146Y005901D01*
X004217Y005924D01*
X004288Y005942D01*
X004361Y005957D01*
X004434Y005968D01*
X004508Y005975D01*
X004582Y005978D01*
X004655Y005977D01*
X004729Y005972D01*
X004803Y005963D01*
X004876Y005950D01*
X004948Y005933D01*
X005019Y005913D01*
X005089Y005888D01*
X005157Y005860D01*
X005224Y005829D01*
X005289Y005793D01*
X005352Y005755D01*
X005413Y005713D01*
X005472Y005667D01*
X005528Y005619D01*
X005581Y005568D01*
X005631Y005514D01*
X005679Y005457D01*
X005723Y005398D01*
X005765Y005336D01*
X005803Y005273D01*
X005837Y005207D01*
X005868Y005140D01*
X005895Y005071D01*
X005918Y005001D01*
X005938Y004930D01*
X005954Y004857D01*
X005966Y004784D01*
X005974Y004711D01*
X005978Y004637D01*
X005978Y004563D01*
X005974Y004489D01*
X005966Y004416D01*
X005954Y004343D01*
X005938Y004270D01*
X005918Y004199D01*
X005895Y004129D01*
X005868Y004060D01*
X005837Y003993D01*
X005803Y003927D01*
X005765Y003864D01*
X005723Y003802D01*
X005679Y003743D01*
X005631Y003686D01*
X005581Y003632D01*
X005528Y003581D01*
X005472Y003533D01*
X005413Y003487D01*
X005352Y003445D01*
X005289Y003407D01*
X005224Y003371D01*
X005157Y003340D01*
X005089Y003312D01*
X005019Y003287D01*
X004948Y003267D01*
X004876Y003250D01*
X004803Y003237D01*
X004729Y003228D01*
X004655Y003223D01*
X004582Y003222D01*
X004508Y003225D01*
X004434Y003232D01*
X004361Y003243D01*
X004288Y003258D01*
X004217Y003276D01*
X004146Y003299D01*
X004077Y003325D01*
X004009Y003355D01*
X003943Y003389D01*
X003879Y003426D01*
X003817Y003466D01*
X003757Y003510D01*
X003700Y003556D01*
X003645Y003606D01*
X003593Y003659D01*
X003544Y003714D01*
X003498Y003772D01*
X003456Y003833D01*
X003416Y003895D01*
X003380Y003960D01*
X003347Y004026D01*
X003318Y004094D01*
X003293Y004164D01*
X003271Y004234D01*
X003254Y004306D01*
X003240Y004379D01*
X003230Y004452D01*
X003224Y004526D01*
X003222Y004600D01*
X004465Y003600D02*
X004745Y003600D01*
X004605Y003740D02*
X004605Y003460D01*
X010100Y010850D02*
X010100Y011350D01*
X014965Y005600D02*
X015245Y005600D01*
X013722Y004600D02*
X013724Y004674D01*
X013730Y004748D01*
X013740Y004821D01*
X013754Y004894D01*
X013771Y004966D01*
X013793Y005036D01*
X013818Y005106D01*
X013847Y005174D01*
X013880Y005240D01*
X013916Y005305D01*
X013956Y005367D01*
X013998Y005428D01*
X014044Y005486D01*
X014093Y005541D01*
X014145Y005594D01*
X014200Y005644D01*
X014257Y005690D01*
X014317Y005734D01*
X014379Y005774D01*
X014443Y005811D01*
X014509Y005845D01*
X014577Y005875D01*
X014646Y005901D01*
X014717Y005924D01*
X014788Y005942D01*
X014861Y005957D01*
X014934Y005968D01*
X015008Y005975D01*
X015082Y005978D01*
X015155Y005977D01*
X015229Y005972D01*
X015303Y005963D01*
X015376Y005950D01*
X015448Y005933D01*
X015519Y005913D01*
X015589Y005888D01*
X015657Y005860D01*
X015724Y005829D01*
X015789Y005793D01*
X015852Y005755D01*
X015913Y005713D01*
X015972Y005667D01*
X016028Y005619D01*
X016081Y005568D01*
X016131Y005514D01*
X016179Y005457D01*
X016223Y005398D01*
X016265Y005336D01*
X016303Y005273D01*
X016337Y005207D01*
X016368Y005140D01*
X016395Y005071D01*
X016418Y005001D01*
X016438Y004930D01*
X016454Y004857D01*
X016466Y004784D01*
X016474Y004711D01*
X016478Y004637D01*
X016478Y004563D01*
X016474Y004489D01*
X016466Y004416D01*
X016454Y004343D01*
X016438Y004270D01*
X016418Y004199D01*
X016395Y004129D01*
X016368Y004060D01*
X016337Y003993D01*
X016303Y003927D01*
X016265Y003864D01*
X016223Y003802D01*
X016179Y003743D01*
X016131Y003686D01*
X016081Y003632D01*
X016028Y003581D01*
X015972Y003533D01*
X015913Y003487D01*
X015852Y003445D01*
X015789Y003407D01*
X015724Y003371D01*
X015657Y003340D01*
X015589Y003312D01*
X015519Y003287D01*
X015448Y003267D01*
X015376Y003250D01*
X015303Y003237D01*
X015229Y003228D01*
X015155Y003223D01*
X015082Y003222D01*
X015008Y003225D01*
X014934Y003232D01*
X014861Y003243D01*
X014788Y003258D01*
X014717Y003276D01*
X014646Y003299D01*
X014577Y003325D01*
X014509Y003355D01*
X014443Y003389D01*
X014379Y003426D01*
X014317Y003466D01*
X014257Y003510D01*
X014200Y003556D01*
X014145Y003606D01*
X014093Y003659D01*
X014044Y003714D01*
X013998Y003772D01*
X013956Y003833D01*
X013916Y003895D01*
X013880Y003960D01*
X013847Y004026D01*
X013818Y004094D01*
X013793Y004164D01*
X013771Y004234D01*
X013754Y004306D01*
X013740Y004379D01*
X013730Y004452D01*
X013724Y004526D01*
X013722Y004600D01*
X014965Y003600D02*
X015245Y003600D01*
X015105Y003740D02*
X015105Y003460D01*
D13*
X009317Y009600D02*
X009319Y009633D01*
X009325Y009666D01*
X009335Y009699D01*
X009348Y009729D01*
X009365Y009758D01*
X009386Y009785D01*
X009409Y009809D01*
X009435Y009830D01*
X009463Y009848D01*
X009494Y009862D01*
X009525Y009873D01*
X009558Y009880D01*
X009592Y009883D01*
X009625Y009882D01*
X009658Y009877D01*
X009691Y009868D01*
X009722Y009855D01*
X009751Y009839D01*
X009778Y009820D01*
X009803Y009797D01*
X009825Y009772D01*
X009844Y009744D01*
X009859Y009714D01*
X009871Y009683D01*
X009879Y009650D01*
X009883Y009617D01*
X009883Y009583D01*
X009879Y009550D01*
X009871Y009517D01*
X009859Y009486D01*
X009844Y009456D01*
X009825Y009428D01*
X009803Y009403D01*
X009778Y009380D01*
X009751Y009361D01*
X009722Y009345D01*
X009691Y009332D01*
X009658Y009323D01*
X009625Y009318D01*
X009592Y009317D01*
X009558Y009320D01*
X009525Y009327D01*
X009494Y009338D01*
X009463Y009352D01*
X009435Y009370D01*
X009409Y009391D01*
X009386Y009415D01*
X009365Y009442D01*
X009348Y009471D01*
X009335Y009501D01*
X009325Y009534D01*
X009319Y009567D01*
X009317Y009600D01*
X009100Y016850D02*
X009100Y017350D01*
X009350Y017100D02*
X008850Y017100D01*
X010850Y017100D02*
X011350Y017100D01*
D14*
X011670Y015261D02*
X011625Y015215D01*
X011625Y015125D01*
X011670Y015080D01*
X011715Y015080D01*
X011760Y015125D01*
X011760Y015261D01*
X011850Y015261D02*
X011670Y015261D01*
X011850Y015261D02*
X011895Y015215D01*
X011895Y015125D01*
X011850Y015080D01*
X011895Y014966D02*
X011805Y014876D01*
X011805Y014921D02*
X011805Y014786D01*
X011895Y014786D02*
X011625Y014786D01*
X011625Y014921D01*
X011670Y014966D01*
X011760Y014966D01*
X011805Y014921D01*
X011245Y014911D02*
X011110Y014775D01*
X011155Y014730D02*
X010975Y014911D01*
X010975Y014730D02*
X011245Y014730D01*
X011245Y014616D02*
X011245Y014436D01*
X011065Y014616D01*
X011020Y014616D01*
X010975Y014571D01*
X010975Y014481D01*
X011020Y014436D01*
X011200Y014333D02*
X011245Y014333D01*
X011245Y014288D01*
X011200Y014288D01*
X011200Y014333D01*
X011245Y014174D02*
X011245Y013994D01*
X011065Y014174D01*
X011020Y014174D01*
X010975Y014129D01*
X010975Y014039D01*
X011020Y013994D01*
X010075Y014625D02*
X009805Y014625D01*
X009805Y014760D01*
X009850Y014805D01*
X009940Y014805D01*
X009985Y014760D01*
X009985Y014625D01*
X009985Y014715D02*
X010075Y014805D01*
X010075Y014920D02*
X010030Y014920D01*
X009850Y015100D01*
X009805Y015100D01*
X009805Y014920D01*
X009705Y014142D02*
X009885Y013962D01*
X009840Y014007D02*
X009975Y014142D01*
X009975Y013962D02*
X009705Y013962D01*
X009750Y013847D02*
X009705Y013802D01*
X009705Y013712D01*
X009750Y013667D01*
X009750Y013847D02*
X009795Y013847D01*
X009975Y013667D01*
X009975Y013847D01*
X009975Y013565D02*
X009975Y013520D01*
X009930Y013520D01*
X009930Y013565D01*
X009975Y013565D01*
X009975Y013405D02*
X009975Y013225D01*
X009795Y013405D01*
X009750Y013405D01*
X009705Y013360D01*
X009705Y013270D01*
X009750Y013225D01*
X008725Y013225D02*
X008725Y013405D01*
X008725Y013315D02*
X008455Y013315D01*
X008545Y013225D01*
X008635Y013520D02*
X008455Y013700D01*
X008455Y013520D02*
X008725Y013520D01*
X008590Y013565D02*
X008725Y013700D01*
X008735Y014375D02*
X008735Y014510D01*
X008690Y014555D01*
X008600Y014555D01*
X008555Y014510D01*
X008555Y014375D01*
X008825Y014375D01*
X008735Y014465D02*
X008825Y014555D01*
X008825Y014670D02*
X008825Y014850D01*
X008825Y014760D02*
X008555Y014760D01*
X008645Y014670D01*
X008600Y014964D02*
X008555Y015009D01*
X008555Y015099D01*
X008600Y015144D01*
X008780Y014964D01*
X008825Y015009D01*
X008825Y015099D01*
X008780Y015144D01*
X008600Y015144D01*
X008600Y014964D02*
X008780Y014964D01*
X007965Y018125D02*
X007665Y018125D01*
X007815Y018125D02*
X007815Y018575D01*
X007665Y018425D01*
X007504Y018575D02*
X007204Y018575D01*
X007354Y018575D02*
X007354Y018125D01*
X006894Y018125D02*
X006894Y018575D01*
X006744Y018575D02*
X007044Y018575D01*
X006584Y018425D02*
X006584Y018125D01*
X006584Y018350D02*
X006283Y018350D01*
X006283Y018425D02*
X006434Y018575D01*
X006584Y018425D01*
X006283Y018425D02*
X006283Y018125D01*
X006123Y018200D02*
X006048Y018125D01*
X005823Y018125D01*
X005823Y018575D01*
X006048Y018575D01*
X006123Y018500D01*
X006123Y018425D01*
X006048Y018350D01*
X005823Y018350D01*
X006048Y018350D02*
X006123Y018275D01*
X006123Y018200D01*
X004600Y015600D02*
X004600Y015350D01*
X004850Y015350D01*
X004600Y015350D02*
X004350Y015350D01*
X004600Y015350D02*
X004350Y014850D01*
X004600Y014850D01*
X004600Y014600D01*
X004600Y014850D02*
X004850Y014850D01*
X004600Y015350D01*
X004629Y011225D02*
X004539Y011225D01*
X004494Y011180D01*
X004629Y011225D02*
X004674Y011180D01*
X004674Y011135D01*
X004494Y010955D01*
X004674Y010955D01*
X004788Y010955D02*
X004833Y010955D01*
X004833Y011000D01*
X004788Y011000D01*
X004788Y010955D01*
X004936Y010955D02*
X005116Y011135D01*
X005116Y011180D01*
X005071Y011225D01*
X004981Y011225D01*
X004936Y011180D01*
X004936Y010955D02*
X005116Y010955D01*
X005230Y010955D02*
X005230Y011225D01*
X005275Y011090D02*
X005411Y010955D01*
X005230Y011045D02*
X005411Y011225D01*
X005411Y009975D02*
X005230Y009795D01*
X005275Y009840D02*
X005411Y009705D01*
X005230Y009705D02*
X005230Y009975D01*
X005026Y009975D02*
X005026Y009705D01*
X004936Y009705D02*
X005116Y009705D01*
X004936Y009885D02*
X005026Y009975D01*
X004261Y009805D02*
X004080Y009805D01*
X004170Y009805D02*
X004170Y010075D01*
X004080Y009985D01*
X003966Y009805D02*
X003786Y009805D01*
X003876Y009805D02*
X003876Y010075D01*
X003786Y009985D01*
X003671Y009940D02*
X003626Y009895D01*
X003491Y009895D01*
X003491Y009805D02*
X003491Y010075D01*
X003626Y010075D01*
X003671Y010030D01*
X003671Y009940D01*
X003581Y009895D02*
X003671Y009805D01*
X003716Y010805D02*
X003626Y010895D01*
X003671Y010895D02*
X003536Y010895D01*
X003536Y010805D02*
X003536Y011075D01*
X003671Y011075D01*
X003716Y011030D01*
X003716Y010940D01*
X003671Y010895D01*
X003830Y010850D02*
X003875Y010805D01*
X003965Y010805D01*
X004011Y010850D01*
X004011Y010895D01*
X003965Y010940D01*
X003830Y010940D01*
X003830Y010850D01*
X003830Y010940D02*
X003920Y011030D01*
X004011Y011075D01*
X004020Y008745D02*
X004020Y008475D01*
X004020Y008565D02*
X004200Y008745D01*
X004065Y008610D02*
X004200Y008475D01*
X003905Y008475D02*
X003725Y008475D01*
X003815Y008475D02*
X003815Y008745D01*
X003725Y008655D01*
X004875Y008645D02*
X004875Y008375D01*
X004875Y008465D02*
X005010Y008465D01*
X005055Y008510D01*
X005055Y008600D01*
X005010Y008645D01*
X004875Y008645D01*
X004965Y008465D02*
X005055Y008375D01*
X005170Y008375D02*
X005350Y008375D01*
X005260Y008375D02*
X005260Y008645D01*
X005170Y008555D01*
X005464Y008600D02*
X005509Y008645D01*
X005599Y008645D01*
X005644Y008600D01*
X005644Y008555D01*
X005464Y008375D01*
X005644Y008375D01*
X004600Y005100D02*
X004600Y004850D01*
X004850Y004850D01*
X004600Y004850D02*
X004350Y004850D01*
X004600Y004850D02*
X004350Y004350D01*
X004600Y004350D01*
X004600Y004100D01*
X004600Y004350D02*
X004850Y004350D01*
X004600Y004850D01*
X007555Y002305D02*
X007555Y002215D01*
X007600Y002170D01*
X007600Y002055D02*
X007690Y002055D01*
X007735Y002010D01*
X007735Y001875D01*
X007825Y001875D02*
X007555Y001875D01*
X007555Y002010D01*
X007600Y002055D01*
X007735Y001965D02*
X007825Y002055D01*
X007825Y002170D02*
X007645Y002350D01*
X007600Y002350D01*
X007555Y002305D01*
X007825Y002350D02*
X007825Y002170D01*
X008455Y002270D02*
X008500Y002225D01*
X008455Y002270D02*
X008455Y002360D01*
X008500Y002405D01*
X008545Y002405D01*
X008725Y002225D01*
X008725Y002405D01*
X008725Y002520D02*
X008725Y002565D01*
X008680Y002565D01*
X008680Y002520D01*
X008725Y002520D01*
X008725Y002667D02*
X008545Y002847D01*
X008500Y002847D01*
X008455Y002802D01*
X008455Y002712D01*
X008500Y002667D01*
X008725Y002667D02*
X008725Y002847D01*
X008725Y002962D02*
X008455Y002962D01*
X008590Y003007D02*
X008725Y003142D01*
X008635Y002962D02*
X008455Y003142D01*
X009100Y002350D02*
X009145Y002350D01*
X009190Y002305D01*
X009190Y002215D01*
X009145Y002170D01*
X009100Y002170D01*
X009055Y002215D01*
X009055Y002305D01*
X009100Y002350D01*
X009190Y002305D02*
X009235Y002350D01*
X009280Y002350D01*
X009325Y002305D01*
X009325Y002215D01*
X009280Y002170D01*
X009235Y002170D01*
X009190Y002215D01*
X009190Y002055D02*
X009235Y002010D01*
X009235Y001875D01*
X009325Y001875D02*
X009055Y001875D01*
X009055Y002010D01*
X009100Y002055D01*
X009190Y002055D01*
X009235Y001965D02*
X009325Y002055D01*
X009705Y002270D02*
X009750Y002225D01*
X009705Y002270D02*
X009705Y002360D01*
X009750Y002405D01*
X009795Y002405D01*
X009975Y002225D01*
X009975Y002405D01*
X009975Y002520D02*
X009975Y002565D01*
X009930Y002565D01*
X009930Y002520D01*
X009975Y002520D01*
X009975Y002667D02*
X009795Y002847D01*
X009750Y002847D01*
X009705Y002802D01*
X009705Y002712D01*
X009750Y002667D01*
X009975Y002667D02*
X009975Y002847D01*
X009975Y002962D02*
X009705Y002962D01*
X009840Y003007D02*
X009975Y003142D01*
X009885Y002962D02*
X009705Y003142D01*
X010305Y002350D02*
X010305Y002170D01*
X010440Y002170D01*
X010395Y002260D01*
X010395Y002305D01*
X010440Y002350D01*
X010530Y002350D01*
X010575Y002305D01*
X010575Y002215D01*
X010530Y002170D01*
X010575Y002055D02*
X010485Y001965D01*
X010485Y002010D02*
X010485Y001875D01*
X010575Y001875D02*
X010305Y001875D01*
X010305Y002010D01*
X010350Y002055D01*
X010440Y002055D01*
X010485Y002010D01*
X010955Y002315D02*
X011225Y002315D01*
X011225Y002225D02*
X011225Y002405D01*
X011225Y002520D02*
X010955Y002520D01*
X011090Y002565D02*
X011225Y002700D01*
X011135Y002520D02*
X010955Y002700D01*
X010955Y002315D02*
X011045Y002225D01*
X014850Y004350D02*
X015100Y004850D01*
X015100Y005100D01*
X015100Y004850D02*
X015350Y004850D01*
X015100Y004850D02*
X014850Y004850D01*
X015100Y004850D02*
X015350Y004350D01*
X015100Y004350D01*
X015100Y004100D01*
X015100Y004350D02*
X014850Y004350D01*
X015875Y008375D02*
X015875Y008645D01*
X016010Y008645D01*
X016055Y008600D01*
X016055Y008510D01*
X016010Y008465D01*
X015875Y008465D01*
X015965Y008465D02*
X016055Y008375D01*
X016170Y008420D02*
X016215Y008375D01*
X016305Y008375D01*
X016350Y008420D01*
X016350Y008465D01*
X016305Y008510D01*
X016260Y008510D01*
X016305Y008510D02*
X016350Y008555D01*
X016350Y008600D01*
X016305Y008645D01*
X016215Y008645D01*
X016170Y008600D01*
X015200Y008475D02*
X015065Y008610D01*
X015020Y008565D02*
X015200Y008745D01*
X015020Y008745D02*
X015020Y008475D01*
X014905Y008475D02*
X014725Y008475D01*
X014815Y008475D02*
X014815Y008745D01*
X014725Y008655D01*
X014786Y009805D02*
X014786Y010075D01*
X014921Y010075D01*
X014966Y010030D01*
X014966Y009940D01*
X014921Y009895D01*
X014786Y009895D01*
X014876Y009895D02*
X014966Y009805D01*
X015080Y009940D02*
X015261Y009940D01*
X015215Y009805D02*
X015215Y010075D01*
X015080Y009940D01*
X015936Y009885D02*
X016026Y009975D01*
X016026Y009705D01*
X015936Y009705D02*
X016116Y009705D01*
X016230Y009705D02*
X016230Y009975D01*
X016275Y009840D02*
X016411Y009705D01*
X016230Y009795D02*
X016411Y009975D01*
X016350Y010875D02*
X016170Y010875D01*
X016260Y010875D02*
X016260Y011145D01*
X016170Y011055D01*
X016055Y011100D02*
X016055Y011010D01*
X016010Y010965D01*
X015875Y010965D01*
X015875Y010875D02*
X015875Y011145D01*
X016010Y011145D01*
X016055Y011100D01*
X015965Y010965D02*
X016055Y010875D01*
X015200Y010975D02*
X015065Y011110D01*
X015020Y011065D02*
X015200Y011245D01*
X015020Y011245D02*
X015020Y010975D01*
X014905Y010975D02*
X014725Y010975D01*
X014815Y010975D02*
X014815Y011245D01*
X014725Y011155D01*
X015100Y014600D02*
X015100Y014850D01*
X015350Y014850D01*
X015100Y015350D01*
X015100Y015600D01*
X015100Y015350D02*
X014850Y015350D01*
X015100Y015350D02*
X014850Y014850D01*
X015100Y014850D01*
X015100Y015350D02*
X015350Y015350D01*
X010736Y009825D02*
X010736Y009375D01*
X010886Y009375D02*
X010585Y009375D01*
X010425Y009450D02*
X010425Y009825D01*
X010585Y009675D02*
X010736Y009825D01*
X010425Y009450D02*
X010350Y009375D01*
X010200Y009375D01*
X010125Y009450D01*
X010125Y009825D01*
D15*
X010135Y010445D02*
X010185Y010445D01*
X010210Y010470D01*
X010258Y010445D02*
X010358Y010545D01*
X010358Y010570D01*
X010333Y010595D01*
X010283Y010595D01*
X010258Y010570D01*
X010210Y010570D02*
X010185Y010595D01*
X010135Y010595D01*
X010110Y010570D01*
X010110Y010470D01*
X010135Y010445D01*
X010258Y010445D02*
X010358Y010445D01*
D16*
X013368Y013525D02*
X013370Y013550D01*
X013376Y013574D01*
X013385Y013596D01*
X013398Y013617D01*
X013414Y013636D01*
X013433Y013652D01*
X013454Y013665D01*
X013476Y013674D01*
X013500Y013680D01*
X013525Y013682D01*
X013550Y013680D01*
X013574Y013674D01*
X013596Y013665D01*
X013617Y013652D01*
X013636Y013636D01*
X013652Y013617D01*
X013665Y013596D01*
X013674Y013574D01*
X013680Y013550D01*
X013682Y013525D01*
X013680Y013500D01*
X013674Y013476D01*
X013665Y013454D01*
X013652Y013433D01*
X013636Y013414D01*
X013617Y013398D01*
X013596Y013385D01*
X013574Y013376D01*
X013550Y013370D01*
X013525Y013368D01*
X013500Y013370D01*
X013476Y013376D01*
X013454Y013385D01*
X013433Y013398D01*
X013414Y013414D01*
X013398Y013433D01*
X013385Y013454D01*
X013376Y013476D01*
X013370Y013500D01*
X013368Y013525D01*
X013368Y016675D02*
X013370Y016700D01*
X013376Y016724D01*
X013385Y016746D01*
X013398Y016767D01*
X013414Y016786D01*
X013433Y016802D01*
X013454Y016815D01*
X013476Y016824D01*
X013500Y016830D01*
X013525Y016832D01*
X013550Y016830D01*
X013574Y016824D01*
X013596Y016815D01*
X013617Y016802D01*
X013636Y016786D01*
X013652Y016767D01*
X013665Y016746D01*
X013674Y016724D01*
X013680Y016700D01*
X013682Y016675D01*
X013680Y016650D01*
X013674Y016626D01*
X013665Y016604D01*
X013652Y016583D01*
X013636Y016564D01*
X013617Y016548D01*
X013596Y016535D01*
X013574Y016526D01*
X013550Y016520D01*
X013525Y016518D01*
X013500Y016520D01*
X013476Y016526D01*
X013454Y016535D01*
X013433Y016548D01*
X013414Y016564D01*
X013398Y016583D01*
X013385Y016604D01*
X013376Y016626D01*
X013370Y016650D01*
X013368Y016675D01*
X016518Y016675D02*
X016520Y016700D01*
X016526Y016724D01*
X016535Y016746D01*
X016548Y016767D01*
X016564Y016786D01*
X016583Y016802D01*
X016604Y016815D01*
X016626Y016824D01*
X016650Y016830D01*
X016675Y016832D01*
X016700Y016830D01*
X016724Y016824D01*
X016746Y016815D01*
X016767Y016802D01*
X016786Y016786D01*
X016802Y016767D01*
X016815Y016746D01*
X016824Y016724D01*
X016830Y016700D01*
X016832Y016675D01*
X016830Y016650D01*
X016824Y016626D01*
X016815Y016604D01*
X016802Y016583D01*
X016786Y016564D01*
X016767Y016548D01*
X016746Y016535D01*
X016724Y016526D01*
X016700Y016520D01*
X016675Y016518D01*
X016650Y016520D01*
X016626Y016526D01*
X016604Y016535D01*
X016583Y016548D01*
X016564Y016564D01*
X016548Y016583D01*
X016535Y016604D01*
X016526Y016626D01*
X016520Y016650D01*
X016518Y016675D01*
X016518Y013525D02*
X016520Y013550D01*
X016526Y013574D01*
X016535Y013596D01*
X016548Y013617D01*
X016564Y013636D01*
X016583Y013652D01*
X016604Y013665D01*
X016626Y013674D01*
X016650Y013680D01*
X016675Y013682D01*
X016700Y013680D01*
X016724Y013674D01*
X016746Y013665D01*
X016767Y013652D01*
X016786Y013636D01*
X016802Y013617D01*
X016815Y013596D01*
X016824Y013574D01*
X016830Y013550D01*
X016832Y013525D01*
X016830Y013500D01*
X016824Y013476D01*
X016815Y013454D01*
X016802Y013433D01*
X016786Y013414D01*
X016767Y013398D01*
X016746Y013385D01*
X016724Y013376D01*
X016700Y013370D01*
X016675Y013368D01*
X016650Y013370D01*
X016626Y013376D01*
X016604Y013385D01*
X016583Y013398D01*
X016564Y013414D01*
X016548Y013433D01*
X016535Y013454D01*
X016526Y013476D01*
X016520Y013500D01*
X016518Y013525D01*
X016518Y006175D02*
X016520Y006200D01*
X016526Y006224D01*
X016535Y006246D01*
X016548Y006267D01*
X016564Y006286D01*
X016583Y006302D01*
X016604Y006315D01*
X016626Y006324D01*
X016650Y006330D01*
X016675Y006332D01*
X016700Y006330D01*
X016724Y006324D01*
X016746Y006315D01*
X016767Y006302D01*
X016786Y006286D01*
X016802Y006267D01*
X016815Y006246D01*
X016824Y006224D01*
X016830Y006200D01*
X016832Y006175D01*
X016830Y006150D01*
X016824Y006126D01*
X016815Y006104D01*
X016802Y006083D01*
X016786Y006064D01*
X016767Y006048D01*
X016746Y006035D01*
X016724Y006026D01*
X016700Y006020D01*
X016675Y006018D01*
X016650Y006020D01*
X016626Y006026D01*
X016604Y006035D01*
X016583Y006048D01*
X016564Y006064D01*
X016548Y006083D01*
X016535Y006104D01*
X016526Y006126D01*
X016520Y006150D01*
X016518Y006175D01*
X013368Y006175D02*
X013370Y006200D01*
X013376Y006224D01*
X013385Y006246D01*
X013398Y006267D01*
X013414Y006286D01*
X013433Y006302D01*
X013454Y006315D01*
X013476Y006324D01*
X013500Y006330D01*
X013525Y006332D01*
X013550Y006330D01*
X013574Y006324D01*
X013596Y006315D01*
X013617Y006302D01*
X013636Y006286D01*
X013652Y006267D01*
X013665Y006246D01*
X013674Y006224D01*
X013680Y006200D01*
X013682Y006175D01*
X013680Y006150D01*
X013674Y006126D01*
X013665Y006104D01*
X013652Y006083D01*
X013636Y006064D01*
X013617Y006048D01*
X013596Y006035D01*
X013574Y006026D01*
X013550Y006020D01*
X013525Y006018D01*
X013500Y006020D01*
X013476Y006026D01*
X013454Y006035D01*
X013433Y006048D01*
X013414Y006064D01*
X013398Y006083D01*
X013385Y006104D01*
X013376Y006126D01*
X013370Y006150D01*
X013368Y006175D01*
X013368Y003025D02*
X013370Y003050D01*
X013376Y003074D01*
X013385Y003096D01*
X013398Y003117D01*
X013414Y003136D01*
X013433Y003152D01*
X013454Y003165D01*
X013476Y003174D01*
X013500Y003180D01*
X013525Y003182D01*
X013550Y003180D01*
X013574Y003174D01*
X013596Y003165D01*
X013617Y003152D01*
X013636Y003136D01*
X013652Y003117D01*
X013665Y003096D01*
X013674Y003074D01*
X013680Y003050D01*
X013682Y003025D01*
X013680Y003000D01*
X013674Y002976D01*
X013665Y002954D01*
X013652Y002933D01*
X013636Y002914D01*
X013617Y002898D01*
X013596Y002885D01*
X013574Y002876D01*
X013550Y002870D01*
X013525Y002868D01*
X013500Y002870D01*
X013476Y002876D01*
X013454Y002885D01*
X013433Y002898D01*
X013414Y002914D01*
X013398Y002933D01*
X013385Y002954D01*
X013376Y002976D01*
X013370Y003000D01*
X013368Y003025D01*
X016518Y003025D02*
X016520Y003050D01*
X016526Y003074D01*
X016535Y003096D01*
X016548Y003117D01*
X016564Y003136D01*
X016583Y003152D01*
X016604Y003165D01*
X016626Y003174D01*
X016650Y003180D01*
X016675Y003182D01*
X016700Y003180D01*
X016724Y003174D01*
X016746Y003165D01*
X016767Y003152D01*
X016786Y003136D01*
X016802Y003117D01*
X016815Y003096D01*
X016824Y003074D01*
X016830Y003050D01*
X016832Y003025D01*
X016830Y003000D01*
X016824Y002976D01*
X016815Y002954D01*
X016802Y002933D01*
X016786Y002914D01*
X016767Y002898D01*
X016746Y002885D01*
X016724Y002876D01*
X016700Y002870D01*
X016675Y002868D01*
X016650Y002870D01*
X016626Y002876D01*
X016604Y002885D01*
X016583Y002898D01*
X016564Y002914D01*
X016548Y002933D01*
X016535Y002954D01*
X016526Y002976D01*
X016520Y003000D01*
X016518Y003025D01*
X006018Y003025D02*
X006020Y003050D01*
X006026Y003074D01*
X006035Y003096D01*
X006048Y003117D01*
X006064Y003136D01*
X006083Y003152D01*
X006104Y003165D01*
X006126Y003174D01*
X006150Y003180D01*
X006175Y003182D01*
X006200Y003180D01*
X006224Y003174D01*
X006246Y003165D01*
X006267Y003152D01*
X006286Y003136D01*
X006302Y003117D01*
X006315Y003096D01*
X006324Y003074D01*
X006330Y003050D01*
X006332Y003025D01*
X006330Y003000D01*
X006324Y002976D01*
X006315Y002954D01*
X006302Y002933D01*
X006286Y002914D01*
X006267Y002898D01*
X006246Y002885D01*
X006224Y002876D01*
X006200Y002870D01*
X006175Y002868D01*
X006150Y002870D01*
X006126Y002876D01*
X006104Y002885D01*
X006083Y002898D01*
X006064Y002914D01*
X006048Y002933D01*
X006035Y002954D01*
X006026Y002976D01*
X006020Y003000D01*
X006018Y003025D01*
X002868Y003025D02*
X002870Y003050D01*
X002876Y003074D01*
X002885Y003096D01*
X002898Y003117D01*
X002914Y003136D01*
X002933Y003152D01*
X002954Y003165D01*
X002976Y003174D01*
X003000Y003180D01*
X003025Y003182D01*
X003050Y003180D01*
X003074Y003174D01*
X003096Y003165D01*
X003117Y003152D01*
X003136Y003136D01*
X003152Y003117D01*
X003165Y003096D01*
X003174Y003074D01*
X003180Y003050D01*
X003182Y003025D01*
X003180Y003000D01*
X003174Y002976D01*
X003165Y002954D01*
X003152Y002933D01*
X003136Y002914D01*
X003117Y002898D01*
X003096Y002885D01*
X003074Y002876D01*
X003050Y002870D01*
X003025Y002868D01*
X003000Y002870D01*
X002976Y002876D01*
X002954Y002885D01*
X002933Y002898D01*
X002914Y002914D01*
X002898Y002933D01*
X002885Y002954D01*
X002876Y002976D01*
X002870Y003000D01*
X002868Y003025D01*
X002868Y006175D02*
X002870Y006200D01*
X002876Y006224D01*
X002885Y006246D01*
X002898Y006267D01*
X002914Y006286D01*
X002933Y006302D01*
X002954Y006315D01*
X002976Y006324D01*
X003000Y006330D01*
X003025Y006332D01*
X003050Y006330D01*
X003074Y006324D01*
X003096Y006315D01*
X003117Y006302D01*
X003136Y006286D01*
X003152Y006267D01*
X003165Y006246D01*
X003174Y006224D01*
X003180Y006200D01*
X003182Y006175D01*
X003180Y006150D01*
X003174Y006126D01*
X003165Y006104D01*
X003152Y006083D01*
X003136Y006064D01*
X003117Y006048D01*
X003096Y006035D01*
X003074Y006026D01*
X003050Y006020D01*
X003025Y006018D01*
X003000Y006020D01*
X002976Y006026D01*
X002954Y006035D01*
X002933Y006048D01*
X002914Y006064D01*
X002898Y006083D01*
X002885Y006104D01*
X002876Y006126D01*
X002870Y006150D01*
X002868Y006175D01*
X006018Y006175D02*
X006020Y006200D01*
X006026Y006224D01*
X006035Y006246D01*
X006048Y006267D01*
X006064Y006286D01*
X006083Y006302D01*
X006104Y006315D01*
X006126Y006324D01*
X006150Y006330D01*
X006175Y006332D01*
X006200Y006330D01*
X006224Y006324D01*
X006246Y006315D01*
X006267Y006302D01*
X006286Y006286D01*
X006302Y006267D01*
X006315Y006246D01*
X006324Y006224D01*
X006330Y006200D01*
X006332Y006175D01*
X006330Y006150D01*
X006324Y006126D01*
X006315Y006104D01*
X006302Y006083D01*
X006286Y006064D01*
X006267Y006048D01*
X006246Y006035D01*
X006224Y006026D01*
X006200Y006020D01*
X006175Y006018D01*
X006150Y006020D01*
X006126Y006026D01*
X006104Y006035D01*
X006083Y006048D01*
X006064Y006064D01*
X006048Y006083D01*
X006035Y006104D01*
X006026Y006126D01*
X006020Y006150D01*
X006018Y006175D01*
X006018Y013525D02*
X006020Y013550D01*
X006026Y013574D01*
X006035Y013596D01*
X006048Y013617D01*
X006064Y013636D01*
X006083Y013652D01*
X006104Y013665D01*
X006126Y013674D01*
X006150Y013680D01*
X006175Y013682D01*
X006200Y013680D01*
X006224Y013674D01*
X006246Y013665D01*
X006267Y013652D01*
X006286Y013636D01*
X006302Y013617D01*
X006315Y013596D01*
X006324Y013574D01*
X006330Y013550D01*
X006332Y013525D01*
X006330Y013500D01*
X006324Y013476D01*
X006315Y013454D01*
X006302Y013433D01*
X006286Y013414D01*
X006267Y013398D01*
X006246Y013385D01*
X006224Y013376D01*
X006200Y013370D01*
X006175Y013368D01*
X006150Y013370D01*
X006126Y013376D01*
X006104Y013385D01*
X006083Y013398D01*
X006064Y013414D01*
X006048Y013433D01*
X006035Y013454D01*
X006026Y013476D01*
X006020Y013500D01*
X006018Y013525D01*
X002868Y013525D02*
X002870Y013550D01*
X002876Y013574D01*
X002885Y013596D01*
X002898Y013617D01*
X002914Y013636D01*
X002933Y013652D01*
X002954Y013665D01*
X002976Y013674D01*
X003000Y013680D01*
X003025Y013682D01*
X003050Y013680D01*
X003074Y013674D01*
X003096Y013665D01*
X003117Y013652D01*
X003136Y013636D01*
X003152Y013617D01*
X003165Y013596D01*
X003174Y013574D01*
X003180Y013550D01*
X003182Y013525D01*
X003180Y013500D01*
X003174Y013476D01*
X003165Y013454D01*
X003152Y013433D01*
X003136Y013414D01*
X003117Y013398D01*
X003096Y013385D01*
X003074Y013376D01*
X003050Y013370D01*
X003025Y013368D01*
X003000Y013370D01*
X002976Y013376D01*
X002954Y013385D01*
X002933Y013398D01*
X002914Y013414D01*
X002898Y013433D01*
X002885Y013454D01*
X002876Y013476D01*
X002870Y013500D01*
X002868Y013525D01*
X002868Y016675D02*
X002870Y016700D01*
X002876Y016724D01*
X002885Y016746D01*
X002898Y016767D01*
X002914Y016786D01*
X002933Y016802D01*
X002954Y016815D01*
X002976Y016824D01*
X003000Y016830D01*
X003025Y016832D01*
X003050Y016830D01*
X003074Y016824D01*
X003096Y016815D01*
X003117Y016802D01*
X003136Y016786D01*
X003152Y016767D01*
X003165Y016746D01*
X003174Y016724D01*
X003180Y016700D01*
X003182Y016675D01*
X003180Y016650D01*
X003174Y016626D01*
X003165Y016604D01*
X003152Y016583D01*
X003136Y016564D01*
X003117Y016548D01*
X003096Y016535D01*
X003074Y016526D01*
X003050Y016520D01*
X003025Y016518D01*
X003000Y016520D01*
X002976Y016526D01*
X002954Y016535D01*
X002933Y016548D01*
X002914Y016564D01*
X002898Y016583D01*
X002885Y016604D01*
X002876Y016626D01*
X002870Y016650D01*
X002868Y016675D01*
X006018Y016675D02*
X006020Y016700D01*
X006026Y016724D01*
X006035Y016746D01*
X006048Y016767D01*
X006064Y016786D01*
X006083Y016802D01*
X006104Y016815D01*
X006126Y016824D01*
X006150Y016830D01*
X006175Y016832D01*
X006200Y016830D01*
X006224Y016824D01*
X006246Y016815D01*
X006267Y016802D01*
X006286Y016786D01*
X006302Y016767D01*
X006315Y016746D01*
X006324Y016724D01*
X006330Y016700D01*
X006332Y016675D01*
X006330Y016650D01*
X006324Y016626D01*
X006315Y016604D01*
X006302Y016583D01*
X006286Y016564D01*
X006267Y016548D01*
X006246Y016535D01*
X006224Y016526D01*
X006200Y016520D01*
X006175Y016518D01*
X006150Y016520D01*
X006126Y016526D01*
X006104Y016535D01*
X006083Y016548D01*
X006064Y016564D01*
X006048Y016583D01*
X006035Y016604D01*
X006026Y016626D01*
X006020Y016650D01*
X006018Y016675D01*
D17*
X006262Y016258D02*
X006205Y016201D01*
X006262Y016258D02*
X006375Y016258D01*
X006432Y016201D01*
X006432Y016144D01*
X006205Y015917D01*
X006432Y015917D01*
X006375Y014289D02*
X006205Y014119D01*
X006432Y014119D01*
X006375Y013949D02*
X006375Y014289D01*
X008400Y017100D02*
X008100Y017400D01*
X008100Y018800D01*
X008400Y019100D01*
X011800Y019100D01*
X012100Y018800D01*
X012100Y017400D01*
X011800Y017100D01*
X013240Y016144D02*
X013354Y016258D01*
X013354Y015917D01*
X013467Y015917D02*
X013240Y015917D01*
X013297Y014289D02*
X013410Y014289D01*
X013467Y014232D01*
X013467Y014176D01*
X013410Y014119D01*
X013467Y014062D01*
X013467Y014006D01*
X013410Y013949D01*
X013297Y013949D01*
X013240Y014006D01*
X013354Y014119D02*
X013410Y014119D01*
X013240Y014232D02*
X013297Y014289D01*
X016705Y014119D02*
X016932Y014119D01*
X016875Y013949D02*
X016875Y014289D01*
X016705Y014119D01*
X016705Y015917D02*
X016932Y016144D01*
X016932Y016201D01*
X016875Y016258D01*
X016762Y016258D01*
X016705Y016201D01*
X016705Y015917D02*
X016932Y015917D01*
X016875Y005758D02*
X016762Y005758D01*
X016705Y005701D01*
X016875Y005758D02*
X016932Y005701D01*
X016932Y005644D01*
X016705Y005417D01*
X016932Y005417D01*
X016875Y003789D02*
X016705Y003619D01*
X016932Y003619D01*
X016875Y003449D02*
X016875Y003789D01*
X013467Y003732D02*
X013467Y003676D01*
X013410Y003619D01*
X013467Y003562D01*
X013467Y003506D01*
X013410Y003449D01*
X013297Y003449D01*
X013240Y003506D01*
X013354Y003619D02*
X013410Y003619D01*
X013467Y003732D02*
X013410Y003789D01*
X013297Y003789D01*
X013240Y003732D01*
X013240Y005417D02*
X013467Y005417D01*
X013354Y005417D02*
X013354Y005758D01*
X013240Y005644D01*
X006432Y005644D02*
X006432Y005701D01*
X006375Y005758D01*
X006262Y005758D01*
X006205Y005701D01*
X006432Y005644D02*
X006205Y005417D01*
X006432Y005417D01*
X006375Y003789D02*
X006205Y003619D01*
X006432Y003619D01*
X006375Y003449D02*
X006375Y003789D01*
X002967Y003732D02*
X002967Y003676D01*
X002910Y003619D01*
X002967Y003562D01*
X002967Y003506D01*
X002910Y003449D01*
X002797Y003449D01*
X002740Y003506D01*
X002854Y003619D02*
X002910Y003619D01*
X002967Y003732D02*
X002910Y003789D01*
X002797Y003789D01*
X002740Y003732D01*
X002740Y005417D02*
X002967Y005417D01*
X002854Y005417D02*
X002854Y005758D01*
X002740Y005644D01*
X002797Y013949D02*
X002740Y014006D01*
X002797Y013949D02*
X002910Y013949D01*
X002967Y014006D01*
X002967Y014062D01*
X002910Y014119D01*
X002854Y014119D01*
X002910Y014119D02*
X002967Y014176D01*
X002967Y014232D01*
X002910Y014289D01*
X002797Y014289D01*
X002740Y014232D01*
X002740Y015917D02*
X002967Y015917D01*
X002854Y015917D02*
X002854Y016258D01*
X002740Y016144D01*
M02*
