G75*
G70*
%OFA0B0*%
%FSLAX24Y24*%
%IPPOS*%
%LPD*%
%AMOC8*
5,1,8,0,0,1.08239X$1,22.5*
%
%ADD10C,0.0000*%
%ADD11OC8,0.0680*%
%ADD12C,0.0650*%
%ADD13C,0.0740*%
%ADD14C,0.0850*%
%ADD15C,0.0515*%
%ADD16OC8,0.1240*%
%ADD17C,0.0100*%
%ADD18C,0.0060*%
%ADD19C,0.0080*%
D10*
X000100Y000100D02*
X000100Y019596D01*
X019470Y019596D01*
X019470Y000100D01*
X000100Y000100D01*
X001000Y001600D02*
X001002Y001649D01*
X001008Y001697D01*
X001018Y001745D01*
X001032Y001792D01*
X001049Y001838D01*
X001070Y001882D01*
X001095Y001924D01*
X001123Y001964D01*
X001155Y002002D01*
X001189Y002037D01*
X001226Y002069D01*
X001265Y002098D01*
X001307Y002124D01*
X001351Y002146D01*
X001396Y002164D01*
X001443Y002179D01*
X001490Y002190D01*
X001539Y002197D01*
X001588Y002200D01*
X001637Y002199D01*
X001685Y002194D01*
X001734Y002185D01*
X001781Y002172D01*
X001827Y002155D01*
X001871Y002135D01*
X001914Y002111D01*
X001955Y002084D01*
X001993Y002053D01*
X002029Y002020D01*
X002061Y001984D01*
X002091Y001945D01*
X002118Y001904D01*
X002141Y001860D01*
X002160Y001815D01*
X002176Y001769D01*
X002188Y001722D01*
X002196Y001673D01*
X002200Y001624D01*
X002200Y001576D01*
X002196Y001527D01*
X002188Y001478D01*
X002176Y001431D01*
X002160Y001385D01*
X002141Y001340D01*
X002118Y001296D01*
X002091Y001255D01*
X002061Y001216D01*
X002029Y001180D01*
X001993Y001147D01*
X001955Y001116D01*
X001914Y001089D01*
X001871Y001065D01*
X001827Y001045D01*
X001781Y001028D01*
X001734Y001015D01*
X001685Y001006D01*
X001637Y001001D01*
X001588Y001000D01*
X001539Y001003D01*
X001490Y001010D01*
X001443Y001021D01*
X001396Y001036D01*
X001351Y001054D01*
X001307Y001076D01*
X001265Y001102D01*
X001226Y001131D01*
X001189Y001163D01*
X001155Y001198D01*
X001123Y001236D01*
X001095Y001276D01*
X001070Y001318D01*
X001049Y001362D01*
X001032Y001408D01*
X001018Y001455D01*
X001008Y001503D01*
X001002Y001551D01*
X001000Y001600D01*
X004285Y002828D02*
X004287Y002863D01*
X004293Y002898D01*
X004303Y002932D01*
X004316Y002965D01*
X004333Y002996D01*
X004354Y003024D01*
X004377Y003051D01*
X004404Y003074D01*
X004432Y003095D01*
X004463Y003112D01*
X004496Y003125D01*
X004530Y003135D01*
X004565Y003141D01*
X004600Y003143D01*
X004635Y003141D01*
X004670Y003135D01*
X004704Y003125D01*
X004737Y003112D01*
X004768Y003095D01*
X004796Y003074D01*
X004823Y003051D01*
X004846Y003024D01*
X004867Y002996D01*
X004884Y002965D01*
X004897Y002932D01*
X004907Y002898D01*
X004913Y002863D01*
X004915Y002828D01*
X004913Y002793D01*
X004907Y002758D01*
X004897Y002724D01*
X004884Y002691D01*
X004867Y002660D01*
X004846Y002632D01*
X004823Y002605D01*
X004796Y002582D01*
X004768Y002561D01*
X004737Y002544D01*
X004704Y002531D01*
X004670Y002521D01*
X004635Y002515D01*
X004600Y002513D01*
X004565Y002515D01*
X004530Y002521D01*
X004496Y002531D01*
X004463Y002544D01*
X004432Y002561D01*
X004404Y002582D01*
X004377Y002605D01*
X004354Y002632D01*
X004333Y002660D01*
X004316Y002691D01*
X004303Y002724D01*
X004293Y002758D01*
X004287Y002793D01*
X004285Y002828D01*
X004285Y006372D02*
X004287Y006407D01*
X004293Y006442D01*
X004303Y006476D01*
X004316Y006509D01*
X004333Y006540D01*
X004354Y006568D01*
X004377Y006595D01*
X004404Y006618D01*
X004432Y006639D01*
X004463Y006656D01*
X004496Y006669D01*
X004530Y006679D01*
X004565Y006685D01*
X004600Y006687D01*
X004635Y006685D01*
X004670Y006679D01*
X004704Y006669D01*
X004737Y006656D01*
X004768Y006639D01*
X004796Y006618D01*
X004823Y006595D01*
X004846Y006568D01*
X004867Y006540D01*
X004884Y006509D01*
X004897Y006476D01*
X004907Y006442D01*
X004913Y006407D01*
X004915Y006372D01*
X004913Y006337D01*
X004907Y006302D01*
X004897Y006268D01*
X004884Y006235D01*
X004867Y006204D01*
X004846Y006176D01*
X004823Y006149D01*
X004796Y006126D01*
X004768Y006105D01*
X004737Y006088D01*
X004704Y006075D01*
X004670Y006065D01*
X004635Y006059D01*
X004600Y006057D01*
X004565Y006059D01*
X004530Y006065D01*
X004496Y006075D01*
X004463Y006088D01*
X004432Y006105D01*
X004404Y006126D01*
X004377Y006149D01*
X004354Y006176D01*
X004333Y006204D01*
X004316Y006235D01*
X004303Y006268D01*
X004293Y006302D01*
X004287Y006337D01*
X004285Y006372D01*
X004285Y013328D02*
X004287Y013363D01*
X004293Y013398D01*
X004303Y013432D01*
X004316Y013465D01*
X004333Y013496D01*
X004354Y013524D01*
X004377Y013551D01*
X004404Y013574D01*
X004432Y013595D01*
X004463Y013612D01*
X004496Y013625D01*
X004530Y013635D01*
X004565Y013641D01*
X004600Y013643D01*
X004635Y013641D01*
X004670Y013635D01*
X004704Y013625D01*
X004737Y013612D01*
X004768Y013595D01*
X004796Y013574D01*
X004823Y013551D01*
X004846Y013524D01*
X004867Y013496D01*
X004884Y013465D01*
X004897Y013432D01*
X004907Y013398D01*
X004913Y013363D01*
X004915Y013328D01*
X004913Y013293D01*
X004907Y013258D01*
X004897Y013224D01*
X004884Y013191D01*
X004867Y013160D01*
X004846Y013132D01*
X004823Y013105D01*
X004796Y013082D01*
X004768Y013061D01*
X004737Y013044D01*
X004704Y013031D01*
X004670Y013021D01*
X004635Y013015D01*
X004600Y013013D01*
X004565Y013015D01*
X004530Y013021D01*
X004496Y013031D01*
X004463Y013044D01*
X004432Y013061D01*
X004404Y013082D01*
X004377Y013105D01*
X004354Y013132D01*
X004333Y013160D01*
X004316Y013191D01*
X004303Y013224D01*
X004293Y013258D01*
X004287Y013293D01*
X004285Y013328D01*
X004285Y016872D02*
X004287Y016907D01*
X004293Y016942D01*
X004303Y016976D01*
X004316Y017009D01*
X004333Y017040D01*
X004354Y017068D01*
X004377Y017095D01*
X004404Y017118D01*
X004432Y017139D01*
X004463Y017156D01*
X004496Y017169D01*
X004530Y017179D01*
X004565Y017185D01*
X004600Y017187D01*
X004635Y017185D01*
X004670Y017179D01*
X004704Y017169D01*
X004737Y017156D01*
X004768Y017139D01*
X004796Y017118D01*
X004823Y017095D01*
X004846Y017068D01*
X004867Y017040D01*
X004884Y017009D01*
X004897Y016976D01*
X004907Y016942D01*
X004913Y016907D01*
X004915Y016872D01*
X004913Y016837D01*
X004907Y016802D01*
X004897Y016768D01*
X004884Y016735D01*
X004867Y016704D01*
X004846Y016676D01*
X004823Y016649D01*
X004796Y016626D01*
X004768Y016605D01*
X004737Y016588D01*
X004704Y016575D01*
X004670Y016565D01*
X004635Y016559D01*
X004600Y016557D01*
X004565Y016559D01*
X004530Y016565D01*
X004496Y016575D01*
X004463Y016588D01*
X004432Y016605D01*
X004404Y016626D01*
X004377Y016649D01*
X004354Y016676D01*
X004333Y016704D01*
X004316Y016735D01*
X004303Y016768D01*
X004293Y016802D01*
X004287Y016837D01*
X004285Y016872D01*
X001000Y018100D02*
X001002Y018149D01*
X001008Y018197D01*
X001018Y018245D01*
X001032Y018292D01*
X001049Y018338D01*
X001070Y018382D01*
X001095Y018424D01*
X001123Y018464D01*
X001155Y018502D01*
X001189Y018537D01*
X001226Y018569D01*
X001265Y018598D01*
X001307Y018624D01*
X001351Y018646D01*
X001396Y018664D01*
X001443Y018679D01*
X001490Y018690D01*
X001539Y018697D01*
X001588Y018700D01*
X001637Y018699D01*
X001685Y018694D01*
X001734Y018685D01*
X001781Y018672D01*
X001827Y018655D01*
X001871Y018635D01*
X001914Y018611D01*
X001955Y018584D01*
X001993Y018553D01*
X002029Y018520D01*
X002061Y018484D01*
X002091Y018445D01*
X002118Y018404D01*
X002141Y018360D01*
X002160Y018315D01*
X002176Y018269D01*
X002188Y018222D01*
X002196Y018173D01*
X002200Y018124D01*
X002200Y018076D01*
X002196Y018027D01*
X002188Y017978D01*
X002176Y017931D01*
X002160Y017885D01*
X002141Y017840D01*
X002118Y017796D01*
X002091Y017755D01*
X002061Y017716D01*
X002029Y017680D01*
X001993Y017647D01*
X001955Y017616D01*
X001914Y017589D01*
X001871Y017565D01*
X001827Y017545D01*
X001781Y017528D01*
X001734Y017515D01*
X001685Y017506D01*
X001637Y017501D01*
X001588Y017500D01*
X001539Y017503D01*
X001490Y017510D01*
X001443Y017521D01*
X001396Y017536D01*
X001351Y017554D01*
X001307Y017576D01*
X001265Y017602D01*
X001226Y017631D01*
X001189Y017663D01*
X001155Y017698D01*
X001123Y017736D01*
X001095Y017776D01*
X001070Y017818D01*
X001049Y017862D01*
X001032Y017908D01*
X001018Y017955D01*
X001008Y018003D01*
X001002Y018051D01*
X001000Y018100D01*
X014785Y016872D02*
X014787Y016907D01*
X014793Y016942D01*
X014803Y016976D01*
X014816Y017009D01*
X014833Y017040D01*
X014854Y017068D01*
X014877Y017095D01*
X014904Y017118D01*
X014932Y017139D01*
X014963Y017156D01*
X014996Y017169D01*
X015030Y017179D01*
X015065Y017185D01*
X015100Y017187D01*
X015135Y017185D01*
X015170Y017179D01*
X015204Y017169D01*
X015237Y017156D01*
X015268Y017139D01*
X015296Y017118D01*
X015323Y017095D01*
X015346Y017068D01*
X015367Y017040D01*
X015384Y017009D01*
X015397Y016976D01*
X015407Y016942D01*
X015413Y016907D01*
X015415Y016872D01*
X015413Y016837D01*
X015407Y016802D01*
X015397Y016768D01*
X015384Y016735D01*
X015367Y016704D01*
X015346Y016676D01*
X015323Y016649D01*
X015296Y016626D01*
X015268Y016605D01*
X015237Y016588D01*
X015204Y016575D01*
X015170Y016565D01*
X015135Y016559D01*
X015100Y016557D01*
X015065Y016559D01*
X015030Y016565D01*
X014996Y016575D01*
X014963Y016588D01*
X014932Y016605D01*
X014904Y016626D01*
X014877Y016649D01*
X014854Y016676D01*
X014833Y016704D01*
X014816Y016735D01*
X014803Y016768D01*
X014793Y016802D01*
X014787Y016837D01*
X014785Y016872D01*
X017500Y018100D02*
X017502Y018149D01*
X017508Y018197D01*
X017518Y018245D01*
X017532Y018292D01*
X017549Y018338D01*
X017570Y018382D01*
X017595Y018424D01*
X017623Y018464D01*
X017655Y018502D01*
X017689Y018537D01*
X017726Y018569D01*
X017765Y018598D01*
X017807Y018624D01*
X017851Y018646D01*
X017896Y018664D01*
X017943Y018679D01*
X017990Y018690D01*
X018039Y018697D01*
X018088Y018700D01*
X018137Y018699D01*
X018185Y018694D01*
X018234Y018685D01*
X018281Y018672D01*
X018327Y018655D01*
X018371Y018635D01*
X018414Y018611D01*
X018455Y018584D01*
X018493Y018553D01*
X018529Y018520D01*
X018561Y018484D01*
X018591Y018445D01*
X018618Y018404D01*
X018641Y018360D01*
X018660Y018315D01*
X018676Y018269D01*
X018688Y018222D01*
X018696Y018173D01*
X018700Y018124D01*
X018700Y018076D01*
X018696Y018027D01*
X018688Y017978D01*
X018676Y017931D01*
X018660Y017885D01*
X018641Y017840D01*
X018618Y017796D01*
X018591Y017755D01*
X018561Y017716D01*
X018529Y017680D01*
X018493Y017647D01*
X018455Y017616D01*
X018414Y017589D01*
X018371Y017565D01*
X018327Y017545D01*
X018281Y017528D01*
X018234Y017515D01*
X018185Y017506D01*
X018137Y017501D01*
X018088Y017500D01*
X018039Y017503D01*
X017990Y017510D01*
X017943Y017521D01*
X017896Y017536D01*
X017851Y017554D01*
X017807Y017576D01*
X017765Y017602D01*
X017726Y017631D01*
X017689Y017663D01*
X017655Y017698D01*
X017623Y017736D01*
X017595Y017776D01*
X017570Y017818D01*
X017549Y017862D01*
X017532Y017908D01*
X017518Y017955D01*
X017508Y018003D01*
X017502Y018051D01*
X017500Y018100D01*
X014785Y013328D02*
X014787Y013363D01*
X014793Y013398D01*
X014803Y013432D01*
X014816Y013465D01*
X014833Y013496D01*
X014854Y013524D01*
X014877Y013551D01*
X014904Y013574D01*
X014932Y013595D01*
X014963Y013612D01*
X014996Y013625D01*
X015030Y013635D01*
X015065Y013641D01*
X015100Y013643D01*
X015135Y013641D01*
X015170Y013635D01*
X015204Y013625D01*
X015237Y013612D01*
X015268Y013595D01*
X015296Y013574D01*
X015323Y013551D01*
X015346Y013524D01*
X015367Y013496D01*
X015384Y013465D01*
X015397Y013432D01*
X015407Y013398D01*
X015413Y013363D01*
X015415Y013328D01*
X015413Y013293D01*
X015407Y013258D01*
X015397Y013224D01*
X015384Y013191D01*
X015367Y013160D01*
X015346Y013132D01*
X015323Y013105D01*
X015296Y013082D01*
X015268Y013061D01*
X015237Y013044D01*
X015204Y013031D01*
X015170Y013021D01*
X015135Y013015D01*
X015100Y013013D01*
X015065Y013015D01*
X015030Y013021D01*
X014996Y013031D01*
X014963Y013044D01*
X014932Y013061D01*
X014904Y013082D01*
X014877Y013105D01*
X014854Y013132D01*
X014833Y013160D01*
X014816Y013191D01*
X014803Y013224D01*
X014793Y013258D01*
X014787Y013293D01*
X014785Y013328D01*
X014785Y006372D02*
X014787Y006407D01*
X014793Y006442D01*
X014803Y006476D01*
X014816Y006509D01*
X014833Y006540D01*
X014854Y006568D01*
X014877Y006595D01*
X014904Y006618D01*
X014932Y006639D01*
X014963Y006656D01*
X014996Y006669D01*
X015030Y006679D01*
X015065Y006685D01*
X015100Y006687D01*
X015135Y006685D01*
X015170Y006679D01*
X015204Y006669D01*
X015237Y006656D01*
X015268Y006639D01*
X015296Y006618D01*
X015323Y006595D01*
X015346Y006568D01*
X015367Y006540D01*
X015384Y006509D01*
X015397Y006476D01*
X015407Y006442D01*
X015413Y006407D01*
X015415Y006372D01*
X015413Y006337D01*
X015407Y006302D01*
X015397Y006268D01*
X015384Y006235D01*
X015367Y006204D01*
X015346Y006176D01*
X015323Y006149D01*
X015296Y006126D01*
X015268Y006105D01*
X015237Y006088D01*
X015204Y006075D01*
X015170Y006065D01*
X015135Y006059D01*
X015100Y006057D01*
X015065Y006059D01*
X015030Y006065D01*
X014996Y006075D01*
X014963Y006088D01*
X014932Y006105D01*
X014904Y006126D01*
X014877Y006149D01*
X014854Y006176D01*
X014833Y006204D01*
X014816Y006235D01*
X014803Y006268D01*
X014793Y006302D01*
X014787Y006337D01*
X014785Y006372D01*
X014785Y002828D02*
X014787Y002863D01*
X014793Y002898D01*
X014803Y002932D01*
X014816Y002965D01*
X014833Y002996D01*
X014854Y003024D01*
X014877Y003051D01*
X014904Y003074D01*
X014932Y003095D01*
X014963Y003112D01*
X014996Y003125D01*
X015030Y003135D01*
X015065Y003141D01*
X015100Y003143D01*
X015135Y003141D01*
X015170Y003135D01*
X015204Y003125D01*
X015237Y003112D01*
X015268Y003095D01*
X015296Y003074D01*
X015323Y003051D01*
X015346Y003024D01*
X015367Y002996D01*
X015384Y002965D01*
X015397Y002932D01*
X015407Y002898D01*
X015413Y002863D01*
X015415Y002828D01*
X015413Y002793D01*
X015407Y002758D01*
X015397Y002724D01*
X015384Y002691D01*
X015367Y002660D01*
X015346Y002632D01*
X015323Y002605D01*
X015296Y002582D01*
X015268Y002561D01*
X015237Y002544D01*
X015204Y002531D01*
X015170Y002521D01*
X015135Y002515D01*
X015100Y002513D01*
X015065Y002515D01*
X015030Y002521D01*
X014996Y002531D01*
X014963Y002544D01*
X014932Y002561D01*
X014904Y002582D01*
X014877Y002605D01*
X014854Y002632D01*
X014833Y002660D01*
X014816Y002691D01*
X014803Y002724D01*
X014793Y002758D01*
X014787Y002793D01*
X014785Y002828D01*
X017500Y001600D02*
X017502Y001649D01*
X017508Y001697D01*
X017518Y001745D01*
X017532Y001792D01*
X017549Y001838D01*
X017570Y001882D01*
X017595Y001924D01*
X017623Y001964D01*
X017655Y002002D01*
X017689Y002037D01*
X017726Y002069D01*
X017765Y002098D01*
X017807Y002124D01*
X017851Y002146D01*
X017896Y002164D01*
X017943Y002179D01*
X017990Y002190D01*
X018039Y002197D01*
X018088Y002200D01*
X018137Y002199D01*
X018185Y002194D01*
X018234Y002185D01*
X018281Y002172D01*
X018327Y002155D01*
X018371Y002135D01*
X018414Y002111D01*
X018455Y002084D01*
X018493Y002053D01*
X018529Y002020D01*
X018561Y001984D01*
X018591Y001945D01*
X018618Y001904D01*
X018641Y001860D01*
X018660Y001815D01*
X018676Y001769D01*
X018688Y001722D01*
X018696Y001673D01*
X018700Y001624D01*
X018700Y001576D01*
X018696Y001527D01*
X018688Y001478D01*
X018676Y001431D01*
X018660Y001385D01*
X018641Y001340D01*
X018618Y001296D01*
X018591Y001255D01*
X018561Y001216D01*
X018529Y001180D01*
X018493Y001147D01*
X018455Y001116D01*
X018414Y001089D01*
X018371Y001065D01*
X018327Y001045D01*
X018281Y001028D01*
X018234Y001015D01*
X018185Y001006D01*
X018137Y001001D01*
X018088Y001000D01*
X018039Y001003D01*
X017990Y001010D01*
X017943Y001021D01*
X017896Y001036D01*
X017851Y001054D01*
X017807Y001076D01*
X017765Y001102D01*
X017726Y001131D01*
X017689Y001163D01*
X017655Y001198D01*
X017623Y001236D01*
X017595Y001276D01*
X017570Y001318D01*
X017549Y001362D01*
X017532Y001408D01*
X017518Y001455D01*
X017508Y001503D01*
X017502Y001551D01*
X017500Y001600D01*
D11*
X011600Y006600D03*
X011600Y007600D03*
X011600Y008600D03*
X011600Y009600D03*
X008600Y009600D03*
X008600Y008600D03*
X008600Y007600D03*
X008600Y006600D03*
D12*
X009600Y011100D03*
X010600Y011100D03*
D13*
X011100Y012100D03*
X009850Y012100D03*
X008600Y012100D03*
X006600Y011100D03*
X006600Y009850D03*
X006600Y008600D03*
X008600Y005100D03*
X009850Y005100D03*
X011100Y005100D03*
X013600Y008600D03*
X013600Y009850D03*
X013600Y011100D03*
X017600Y011100D03*
X017600Y009850D03*
X017600Y008600D03*
X011100Y001100D03*
X009850Y001100D03*
X008600Y001100D03*
X002600Y008600D03*
X002600Y009850D03*
X002600Y011100D03*
X008600Y016100D03*
X009850Y016100D03*
X011100Y016100D03*
D14*
X012639Y016084D03*
X012639Y014116D03*
X017561Y014116D03*
X017561Y016084D03*
X017561Y005584D03*
X017561Y003616D03*
X012639Y003616D03*
X012639Y005584D03*
X007061Y005584D03*
X007061Y003616D03*
X002139Y003616D03*
X002139Y005584D03*
X002139Y014116D03*
X002139Y016084D03*
X007061Y016084D03*
X007061Y014116D03*
D15*
X004600Y012443D03*
X004600Y007257D03*
X004600Y001943D03*
X015100Y001943D03*
X015100Y007257D03*
X015100Y012443D03*
X015100Y017757D03*
X004600Y017757D03*
D16*
X009100Y018100D03*
X011100Y018100D03*
D17*
X011150Y018126D02*
X014924Y018126D01*
X014869Y018103D02*
X015019Y018165D01*
X015181Y018165D01*
X015331Y018103D01*
X015445Y017988D01*
X015507Y017839D01*
X015507Y017676D01*
X015445Y017527D01*
X015331Y017412D01*
X015181Y017350D01*
X015019Y017350D01*
X014869Y017412D01*
X014755Y017527D01*
X014693Y017676D01*
X014693Y017839D01*
X014755Y017988D01*
X014869Y018103D01*
X014793Y018027D02*
X011870Y018027D01*
X011870Y018050D02*
X011150Y018050D01*
X011150Y018150D01*
X011050Y018150D01*
X011050Y018870D01*
X010781Y018870D01*
X010330Y018419D01*
X010330Y018150D01*
X011050Y018150D01*
X011050Y018050D01*
X010330Y018050D01*
X010330Y017781D01*
X010781Y017330D01*
X011050Y017330D01*
X011050Y018050D01*
X011150Y018050D01*
X011150Y017330D01*
X011419Y017330D01*
X011870Y017781D01*
X011870Y018050D01*
X011870Y018150D02*
X011870Y018419D01*
X011419Y018870D01*
X011150Y018870D01*
X011150Y018150D01*
X011870Y018150D01*
X011870Y018224D02*
X017188Y018224D01*
X017205Y018323D02*
X011870Y018323D01*
X011868Y018421D02*
X017223Y018421D01*
X017222Y018420D02*
X017166Y018100D01*
X017222Y017780D01*
X017384Y017500D01*
X017384Y017500D01*
X017633Y017291D01*
X017938Y017180D01*
X018021Y017180D01*
X018262Y017180D01*
X018567Y017291D01*
X018567Y017291D01*
X018816Y017500D01*
X018978Y017780D01*
X018978Y017780D01*
X019034Y018100D01*
X018978Y018420D01*
X018816Y018700D01*
X018567Y018909D01*
X018262Y019020D01*
X017938Y019020D01*
X017633Y018909D01*
X017633Y018909D01*
X017384Y018700D01*
X017222Y018420D01*
X017222Y018420D01*
X017280Y018520D02*
X011769Y018520D01*
X011671Y018618D02*
X017337Y018618D01*
X017384Y018700D02*
X017384Y018700D01*
X017384Y018700D01*
X017404Y018717D02*
X011572Y018717D01*
X011474Y018815D02*
X017521Y018815D01*
X017645Y018914D02*
X002055Y018914D01*
X002067Y018909D02*
X001762Y019020D01*
X001438Y019020D01*
X001133Y018909D01*
X001133Y018909D01*
X000884Y018700D01*
X000722Y018420D01*
X000722Y018420D01*
X000666Y018100D01*
X000722Y017780D01*
X000884Y017500D01*
X001133Y017291D01*
X001438Y017180D01*
X001521Y017180D01*
X001762Y017180D01*
X002067Y017291D01*
X002067Y017291D01*
X002316Y017500D01*
X002478Y017780D01*
X002478Y017780D01*
X002534Y018100D01*
X002478Y018420D01*
X002316Y018700D01*
X002316Y018700D01*
X002067Y018909D01*
X002067Y018909D01*
X002179Y018815D02*
X008726Y018815D01*
X008781Y018870D02*
X008330Y018419D01*
X008330Y017781D01*
X008781Y017330D01*
X009419Y017330D01*
X009870Y017781D01*
X009870Y018419D01*
X009419Y018870D01*
X008781Y018870D01*
X008628Y018717D02*
X002296Y018717D01*
X002363Y018618D02*
X008529Y018618D01*
X008431Y018520D02*
X002420Y018520D01*
X002477Y018421D02*
X008332Y018421D01*
X008330Y018323D02*
X002495Y018323D01*
X002478Y018420D02*
X002478Y018420D01*
X002512Y018224D02*
X008330Y018224D01*
X008330Y018126D02*
X004776Y018126D01*
X004831Y018103D02*
X004681Y018165D01*
X004519Y018165D01*
X004369Y018103D01*
X004255Y017988D01*
X004193Y017839D01*
X004193Y017676D01*
X004255Y017527D01*
X004369Y017412D01*
X004519Y017350D01*
X004681Y017350D01*
X004831Y017412D01*
X004945Y017527D01*
X005007Y017676D01*
X005007Y017839D01*
X004945Y017988D01*
X004831Y018103D01*
X004907Y018027D02*
X008330Y018027D01*
X008330Y017929D02*
X004970Y017929D01*
X005007Y017830D02*
X008330Y017830D01*
X008380Y017732D02*
X005007Y017732D01*
X004990Y017633D02*
X008478Y017633D01*
X008577Y017535D02*
X004949Y017535D01*
X004855Y017436D02*
X008675Y017436D01*
X008774Y017338D02*
X002123Y017338D01*
X002240Y017436D02*
X004345Y017436D01*
X004251Y017535D02*
X002336Y017535D01*
X002316Y017500D02*
X002316Y017500D01*
X002316Y017500D01*
X002393Y017633D02*
X004210Y017633D01*
X004193Y017732D02*
X002450Y017732D01*
X002487Y017830D02*
X004193Y017830D01*
X004230Y017929D02*
X002504Y017929D01*
X002521Y018027D02*
X004293Y018027D01*
X004424Y018126D02*
X002530Y018126D01*
X002534Y018100D02*
X002534Y018100D01*
X001924Y017239D02*
X004310Y017239D01*
X004337Y017266D02*
X004206Y017135D01*
X004135Y016964D01*
X004135Y016779D01*
X004206Y016608D01*
X004337Y016477D01*
X004508Y016407D01*
X004692Y016407D01*
X004863Y016477D01*
X004994Y016608D01*
X005065Y016779D01*
X005065Y016964D01*
X004994Y017135D01*
X004863Y017266D01*
X004692Y017337D01*
X004508Y017337D01*
X004337Y017266D01*
X004211Y017141D02*
X000600Y017141D01*
X000600Y017239D02*
X001276Y017239D01*
X001133Y017291D02*
X001133Y017291D01*
X001077Y017338D02*
X000600Y017338D01*
X000600Y017436D02*
X000960Y017436D01*
X000864Y017535D02*
X000600Y017535D01*
X000600Y017633D02*
X000807Y017633D01*
X000750Y017732D02*
X000600Y017732D01*
X000600Y017830D02*
X000713Y017830D01*
X000696Y017929D02*
X000600Y017929D01*
X000600Y018027D02*
X000679Y018027D01*
X000666Y018100D02*
X000666Y018100D01*
X000670Y018126D02*
X000600Y018126D01*
X000600Y018224D02*
X000688Y018224D01*
X000705Y018323D02*
X000600Y018323D01*
X000600Y018421D02*
X000723Y018421D01*
X000780Y018520D02*
X000600Y018520D01*
X000600Y018618D02*
X000837Y018618D01*
X000884Y018700D02*
X000884Y018700D01*
X000884Y018700D01*
X000904Y018717D02*
X000600Y018717D01*
X000600Y018815D02*
X001021Y018815D01*
X001145Y018914D02*
X000600Y018914D01*
X000600Y019012D02*
X001416Y019012D01*
X001784Y019012D02*
X017916Y019012D01*
X018284Y019012D02*
X019100Y019012D01*
X019100Y019100D02*
X019100Y000600D01*
X011252Y000600D01*
X011395Y000659D01*
X011541Y000805D01*
X011620Y000997D01*
X011620Y001203D01*
X011541Y001395D01*
X011395Y001541D01*
X011203Y001620D01*
X010997Y001620D01*
X010892Y001577D01*
X010336Y002133D01*
X004962Y002133D01*
X004945Y002173D01*
X004831Y002288D01*
X004681Y002350D01*
X004519Y002350D01*
X004369Y002288D01*
X004255Y002173D01*
X004193Y002024D01*
X004193Y001861D01*
X004255Y001712D01*
X004369Y001597D01*
X004519Y001535D01*
X004681Y001535D01*
X004831Y001597D01*
X004945Y001712D01*
X004962Y001753D01*
X010179Y001753D01*
X010623Y001308D01*
X010580Y001203D01*
X010580Y000997D01*
X010659Y000805D01*
X010805Y000659D01*
X010948Y000600D01*
X010002Y000600D01*
X010145Y000659D01*
X010291Y000805D01*
X010370Y000997D01*
X010370Y001203D01*
X010291Y001395D01*
X010145Y001541D01*
X009953Y001620D01*
X009747Y001620D01*
X009555Y001541D01*
X009409Y001395D01*
X009330Y001203D01*
X009330Y000997D01*
X009409Y000805D01*
X009555Y000659D01*
X009698Y000600D01*
X008752Y000600D01*
X008895Y000659D01*
X009041Y000805D01*
X009120Y000997D01*
X009120Y001203D01*
X009041Y001395D01*
X008895Y001541D01*
X008703Y001620D01*
X008497Y001620D01*
X008305Y001541D01*
X008159Y001395D01*
X008080Y001203D01*
X008080Y000997D01*
X008159Y000805D01*
X008305Y000659D01*
X008448Y000600D01*
X000600Y000600D01*
X000600Y019100D01*
X019100Y019100D01*
X019100Y018914D02*
X018555Y018914D01*
X018567Y018909D02*
X018567Y018909D01*
X018679Y018815D02*
X019100Y018815D01*
X019100Y018717D02*
X018796Y018717D01*
X018863Y018618D02*
X019100Y018618D01*
X019100Y018520D02*
X018920Y018520D01*
X018977Y018421D02*
X019100Y018421D01*
X019100Y018323D02*
X018995Y018323D01*
X018978Y018420D02*
X018978Y018420D01*
X019012Y018224D02*
X019100Y018224D01*
X019100Y018126D02*
X019030Y018126D01*
X019034Y018100D02*
X019034Y018100D01*
X019021Y018027D02*
X019100Y018027D01*
X019100Y017929D02*
X019004Y017929D01*
X018987Y017830D02*
X019100Y017830D01*
X019100Y017732D02*
X018950Y017732D01*
X018893Y017633D02*
X019100Y017633D01*
X019100Y017535D02*
X018836Y017535D01*
X018816Y017500D02*
X018816Y017500D01*
X018816Y017500D01*
X018740Y017436D02*
X019100Y017436D01*
X019100Y017338D02*
X018623Y017338D01*
X018424Y017239D02*
X019100Y017239D01*
X019100Y017141D02*
X015489Y017141D01*
X015494Y017135D02*
X015363Y017266D01*
X015192Y017337D01*
X015008Y017337D01*
X014837Y017266D01*
X014706Y017135D01*
X014635Y016964D01*
X014635Y016779D01*
X014706Y016608D01*
X014837Y016477D01*
X015008Y016407D01*
X015192Y016407D01*
X015363Y016477D01*
X015494Y016608D01*
X015565Y016779D01*
X015565Y016964D01*
X015494Y017135D01*
X015533Y017042D02*
X019100Y017042D01*
X019100Y016944D02*
X015565Y016944D01*
X015565Y016845D02*
X019100Y016845D01*
X019100Y016747D02*
X015551Y016747D01*
X015511Y016648D02*
X017419Y016648D01*
X017446Y016659D02*
X017235Y016572D01*
X017073Y016410D01*
X016986Y016199D01*
X016986Y015970D01*
X017073Y015759D01*
X017235Y015597D01*
X017446Y015509D01*
X017675Y015509D01*
X017886Y015597D01*
X018048Y015759D01*
X018136Y015970D01*
X018136Y016199D01*
X018048Y016410D01*
X017886Y016572D01*
X017675Y016659D01*
X017446Y016659D01*
X017702Y016648D02*
X019100Y016648D01*
X019100Y016550D02*
X017909Y016550D01*
X018007Y016451D02*
X019100Y016451D01*
X019100Y016353D02*
X018072Y016353D01*
X018113Y016254D02*
X019100Y016254D01*
X019100Y016156D02*
X018136Y016156D01*
X018136Y016057D02*
X019100Y016057D01*
X019100Y015959D02*
X018131Y015959D01*
X018090Y015860D02*
X019100Y015860D01*
X019100Y015762D02*
X018049Y015762D01*
X017953Y015663D02*
X019100Y015663D01*
X019100Y015565D02*
X017808Y015565D01*
X017313Y015565D02*
X012887Y015565D01*
X012965Y015597D02*
X012754Y015509D01*
X012525Y015509D01*
X012314Y015597D01*
X012152Y015759D01*
X012064Y015970D01*
X012064Y016199D01*
X012152Y016410D01*
X012314Y016572D01*
X012525Y016659D01*
X012754Y016659D01*
X012965Y016572D01*
X013127Y016410D01*
X013214Y016199D01*
X013214Y015970D01*
X013127Y015759D01*
X012965Y015597D01*
X013031Y015663D02*
X017169Y015663D01*
X017072Y015762D02*
X013128Y015762D01*
X013169Y015860D02*
X017031Y015860D01*
X016990Y015959D02*
X013210Y015959D01*
X013214Y016057D02*
X016986Y016057D01*
X016986Y016156D02*
X013214Y016156D01*
X013191Y016254D02*
X017009Y016254D01*
X017049Y016353D02*
X013151Y016353D01*
X013086Y016451D02*
X014900Y016451D01*
X014765Y016550D02*
X012987Y016550D01*
X012781Y016648D02*
X014689Y016648D01*
X014649Y016747D02*
X005051Y016747D01*
X005065Y016845D02*
X014635Y016845D01*
X014635Y016944D02*
X005065Y016944D01*
X005033Y017042D02*
X014667Y017042D01*
X014711Y017141D02*
X004989Y017141D01*
X004890Y017239D02*
X014810Y017239D01*
X014845Y017436D02*
X011525Y017436D01*
X011426Y017338D02*
X017577Y017338D01*
X017633Y017291D02*
X017633Y017291D01*
X017776Y017239D02*
X015390Y017239D01*
X015355Y017436D02*
X017460Y017436D01*
X017364Y017535D02*
X015449Y017535D01*
X015490Y017633D02*
X017307Y017633D01*
X017250Y017732D02*
X015507Y017732D01*
X015507Y017830D02*
X017213Y017830D01*
X017222Y017780D02*
X017222Y017780D01*
X017196Y017929D02*
X015470Y017929D01*
X015407Y018027D02*
X017179Y018027D01*
X017166Y018100D02*
X017166Y018100D01*
X017170Y018126D02*
X015276Y018126D01*
X014730Y017929D02*
X011870Y017929D01*
X011870Y017830D02*
X014693Y017830D01*
X014693Y017732D02*
X011820Y017732D01*
X011722Y017633D02*
X014710Y017633D01*
X014751Y017535D02*
X011623Y017535D01*
X011150Y017535D02*
X011050Y017535D01*
X011050Y017633D02*
X011150Y017633D01*
X011150Y017732D02*
X011050Y017732D01*
X011050Y017830D02*
X011150Y017830D01*
X011150Y017929D02*
X011050Y017929D01*
X011050Y018027D02*
X011150Y018027D01*
X011050Y018126D02*
X009870Y018126D01*
X009870Y018224D02*
X010330Y018224D01*
X010330Y018323D02*
X009870Y018323D01*
X009868Y018421D02*
X010332Y018421D01*
X010431Y018520D02*
X009769Y018520D01*
X009671Y018618D02*
X010529Y018618D01*
X010628Y018717D02*
X009572Y018717D01*
X009474Y018815D02*
X010726Y018815D01*
X011050Y018815D02*
X011150Y018815D01*
X011150Y018717D02*
X011050Y018717D01*
X011050Y018618D02*
X011150Y018618D01*
X011150Y018520D02*
X011050Y018520D01*
X011050Y018421D02*
X011150Y018421D01*
X011150Y018323D02*
X011050Y018323D01*
X011050Y018224D02*
X011150Y018224D01*
X010478Y017633D02*
X009722Y017633D01*
X009623Y017535D02*
X010577Y017535D01*
X010675Y017436D02*
X009525Y017436D01*
X009426Y017338D02*
X010774Y017338D01*
X011050Y017338D02*
X011150Y017338D01*
X011150Y017436D02*
X011050Y017436D01*
X010380Y017732D02*
X009820Y017732D01*
X009870Y017830D02*
X010330Y017830D01*
X010330Y017929D02*
X009870Y017929D01*
X009870Y018027D02*
X010330Y018027D01*
X009953Y016620D02*
X009747Y016620D01*
X009555Y016541D01*
X009409Y016395D01*
X009395Y016360D01*
X009055Y016360D01*
X009041Y016395D01*
X008895Y016541D01*
X008703Y016620D01*
X008497Y016620D01*
X008305Y016541D01*
X008159Y016395D01*
X008080Y016203D01*
X008080Y015997D01*
X008159Y015805D01*
X008305Y015659D01*
X008497Y015580D01*
X008703Y015580D01*
X008895Y015659D01*
X009041Y015805D01*
X009120Y015997D01*
X009120Y016000D01*
X009330Y016000D01*
X009330Y015997D01*
X009409Y015805D01*
X009555Y015659D01*
X009747Y015580D01*
X009953Y015580D01*
X010145Y015659D01*
X010291Y015805D01*
X010370Y015997D01*
X010370Y016203D01*
X010291Y016395D01*
X010145Y016541D01*
X009953Y016620D01*
X010124Y016550D02*
X010837Y016550D01*
X010827Y016545D02*
X010761Y016497D01*
X010703Y016439D01*
X010655Y016373D01*
X010618Y016300D01*
X010593Y016222D01*
X010580Y016141D01*
X010580Y016139D01*
X011061Y016139D01*
X011061Y016620D01*
X011059Y016620D01*
X010978Y016607D01*
X010900Y016582D01*
X010827Y016545D01*
X010716Y016451D02*
X010234Y016451D01*
X010308Y016353D02*
X010645Y016353D01*
X010603Y016254D02*
X010349Y016254D01*
X010370Y016156D02*
X010582Y016156D01*
X010580Y016061D02*
X010580Y016059D01*
X010593Y015978D01*
X010618Y015900D01*
X010655Y015827D01*
X010703Y015761D01*
X010761Y015703D01*
X010827Y015655D01*
X010900Y015618D01*
X010978Y015593D01*
X011059Y015580D01*
X011061Y015580D01*
X011061Y016061D01*
X010580Y016061D01*
X010580Y016057D02*
X010370Y016057D01*
X010354Y015959D02*
X010599Y015959D01*
X010639Y015860D02*
X010313Y015860D01*
X010247Y015762D02*
X010703Y015762D01*
X010817Y015663D02*
X010148Y015663D01*
X009552Y015663D02*
X008898Y015663D01*
X008997Y015762D02*
X009453Y015762D01*
X009387Y015860D02*
X009063Y015860D01*
X009104Y015959D02*
X009346Y015959D01*
X009466Y016451D02*
X008984Y016451D01*
X008874Y016550D02*
X009576Y016550D01*
X008326Y016550D02*
X007409Y016550D01*
X007386Y016572D02*
X007175Y016659D01*
X006946Y016659D01*
X006735Y016572D01*
X006573Y016410D01*
X006486Y016199D01*
X006486Y015970D01*
X006573Y015759D01*
X006735Y015597D01*
X006946Y015509D01*
X007175Y015509D01*
X007386Y015597D01*
X007548Y015759D01*
X007636Y015970D01*
X007636Y016199D01*
X007548Y016410D01*
X007386Y016572D01*
X007507Y016451D02*
X008216Y016451D01*
X008142Y016353D02*
X007572Y016353D01*
X007613Y016254D02*
X008101Y016254D01*
X008080Y016156D02*
X007636Y016156D01*
X007636Y016057D02*
X008080Y016057D01*
X008096Y015959D02*
X007631Y015959D01*
X007590Y015860D02*
X008137Y015860D01*
X008203Y015762D02*
X007549Y015762D01*
X007453Y015663D02*
X008302Y015663D01*
X007308Y015565D02*
X012392Y015565D01*
X012247Y015663D02*
X011383Y015663D01*
X011373Y015655D02*
X011439Y015703D01*
X011497Y015761D01*
X011545Y015827D01*
X011582Y015900D01*
X011607Y015978D01*
X011620Y016059D01*
X011620Y016061D01*
X011139Y016061D01*
X011139Y016139D01*
X011061Y016139D01*
X011061Y016061D01*
X011139Y016061D01*
X011139Y015580D01*
X011141Y015580D01*
X011222Y015593D01*
X011300Y015618D01*
X011373Y015655D01*
X011497Y015762D02*
X012151Y015762D01*
X012110Y015860D02*
X011561Y015860D01*
X011601Y015959D02*
X012069Y015959D01*
X012064Y016057D02*
X011620Y016057D01*
X011620Y016139D02*
X011620Y016141D01*
X011607Y016222D01*
X011582Y016300D01*
X011545Y016373D01*
X011497Y016439D01*
X011439Y016497D01*
X011373Y016545D01*
X011300Y016582D01*
X011222Y016607D01*
X011141Y016620D01*
X011139Y016620D01*
X011139Y016139D01*
X011620Y016139D01*
X011618Y016156D02*
X012064Y016156D01*
X012087Y016254D02*
X011597Y016254D01*
X011555Y016353D02*
X012128Y016353D01*
X012193Y016451D02*
X011484Y016451D01*
X011363Y016550D02*
X012291Y016550D01*
X012498Y016648D02*
X007202Y016648D01*
X006919Y016648D02*
X005011Y016648D01*
X004935Y016550D02*
X006713Y016550D01*
X006614Y016451D02*
X004800Y016451D01*
X004400Y016451D02*
X002586Y016451D01*
X002627Y016410D02*
X002465Y016572D01*
X002254Y016659D01*
X002025Y016659D01*
X001814Y016572D01*
X001652Y016410D01*
X001564Y016199D01*
X001564Y015970D01*
X001652Y015759D01*
X001814Y015597D01*
X002025Y015509D01*
X002254Y015509D01*
X002465Y015597D01*
X002627Y015759D01*
X002714Y015970D01*
X002714Y016199D01*
X002627Y016410D01*
X002651Y016353D02*
X006549Y016353D01*
X006509Y016254D02*
X002691Y016254D01*
X002714Y016156D02*
X006486Y016156D01*
X006486Y016057D02*
X002714Y016057D01*
X002710Y015959D02*
X006490Y015959D01*
X006531Y015860D02*
X002669Y015860D01*
X002628Y015762D02*
X006572Y015762D01*
X006669Y015663D02*
X002531Y015663D01*
X002387Y015565D02*
X006813Y015565D01*
X006946Y014691D02*
X006735Y014603D01*
X006573Y014441D01*
X006539Y014360D01*
X002661Y014360D01*
X002627Y014441D01*
X002465Y014603D01*
X002254Y014691D01*
X002025Y014691D01*
X001814Y014603D01*
X001652Y014441D01*
X001564Y014230D01*
X001564Y014001D01*
X001652Y013790D01*
X001814Y013628D01*
X002025Y013541D01*
X002254Y013541D01*
X002465Y013628D01*
X002627Y013790D01*
X002714Y014000D01*
X006486Y014000D01*
X006573Y013790D01*
X006735Y013628D01*
X006946Y013541D01*
X007175Y013541D01*
X007386Y013628D01*
X007548Y013790D01*
X007636Y014001D01*
X007636Y014230D01*
X007548Y014441D01*
X007386Y014603D01*
X007175Y014691D01*
X006946Y014691D01*
X006916Y014678D02*
X002284Y014678D01*
X002489Y014580D02*
X006711Y014580D01*
X006613Y014481D02*
X002587Y014481D01*
X002651Y014383D02*
X006549Y014383D01*
X006491Y013989D02*
X002709Y013989D01*
X002668Y013890D02*
X006532Y013890D01*
X006573Y013792D02*
X004697Y013792D01*
X004692Y013793D02*
X004863Y013723D01*
X004994Y013592D01*
X005065Y013421D01*
X005065Y013236D01*
X004994Y013065D01*
X004863Y012934D01*
X004829Y012920D01*
X004905Y012920D01*
X005040Y013055D01*
X005145Y013160D01*
X013775Y013160D01*
X016975Y009960D01*
X017083Y009960D01*
X017159Y010145D01*
X017305Y010291D01*
X017497Y010370D01*
X017703Y010370D01*
X017895Y010291D01*
X018041Y010145D01*
X018120Y009953D01*
X018120Y009747D01*
X018041Y009555D01*
X017895Y009409D01*
X017703Y009330D01*
X017497Y009330D01*
X017305Y009409D01*
X017159Y009555D01*
X017141Y009600D01*
X016825Y009600D01*
X016720Y009705D01*
X013625Y012800D01*
X010615Y012800D01*
X010854Y012561D01*
X010997Y012620D01*
X011203Y012620D01*
X011395Y012541D01*
X011541Y012395D01*
X011620Y012203D01*
X011620Y011997D01*
X011541Y011805D01*
X011395Y011659D01*
X011203Y011580D01*
X010997Y011580D01*
X010805Y011659D01*
X010659Y011805D01*
X010580Y011997D01*
X010580Y012203D01*
X010616Y012290D01*
X010265Y012640D01*
X009535Y012640D01*
X009114Y012219D01*
X009120Y012203D01*
X009120Y011997D01*
X009041Y011805D01*
X008895Y011659D01*
X008703Y011580D01*
X008497Y011580D01*
X008305Y011659D01*
X008159Y011805D01*
X008080Y011997D01*
X008080Y012203D01*
X008159Y012395D01*
X008305Y012541D01*
X008497Y012620D01*
X008703Y012620D01*
X008895Y012541D01*
X008910Y012525D01*
X009185Y012800D01*
X005295Y012800D01*
X005055Y012560D01*
X004992Y012560D01*
X005007Y012524D01*
X005007Y012361D01*
X004945Y012212D01*
X004831Y012097D01*
X004681Y012035D01*
X004519Y012035D01*
X004369Y012097D01*
X004255Y012212D01*
X004193Y012361D01*
X004193Y012524D01*
X004255Y012673D01*
X004369Y012788D01*
X004519Y012850D01*
X004681Y012850D01*
X004734Y012828D01*
X004823Y012917D01*
X004692Y012863D01*
X004508Y012863D01*
X004337Y012934D01*
X004206Y013065D01*
X004135Y013236D01*
X004135Y013421D01*
X004206Y013592D01*
X004337Y013723D01*
X004508Y013793D01*
X004692Y013793D01*
X004503Y013792D02*
X002627Y013792D01*
X002530Y013693D02*
X004307Y013693D01*
X004209Y013595D02*
X002384Y013595D01*
X001895Y013595D02*
X000600Y013595D01*
X000600Y013693D02*
X001749Y013693D01*
X001651Y013792D02*
X000600Y013792D01*
X000600Y013890D02*
X001610Y013890D01*
X001570Y013989D02*
X000600Y013989D01*
X000600Y014087D02*
X001564Y014087D01*
X001564Y014186D02*
X000600Y014186D01*
X000600Y014284D02*
X001587Y014284D01*
X001628Y014383D02*
X000600Y014383D01*
X000600Y014481D02*
X001691Y014481D01*
X001790Y014580D02*
X000600Y014580D01*
X000600Y014678D02*
X001994Y014678D01*
X001892Y015565D02*
X000600Y015565D01*
X000600Y015663D02*
X001747Y015663D01*
X001651Y015762D02*
X000600Y015762D01*
X000600Y015860D02*
X001610Y015860D01*
X001569Y015959D02*
X000600Y015959D01*
X000600Y016057D02*
X001564Y016057D01*
X001564Y016156D02*
X000600Y016156D01*
X000600Y016254D02*
X001587Y016254D01*
X001628Y016353D02*
X000600Y016353D01*
X000600Y016451D02*
X001693Y016451D01*
X001791Y016550D02*
X000600Y016550D01*
X000600Y016648D02*
X001998Y016648D01*
X002281Y016648D02*
X004189Y016648D01*
X004149Y016747D02*
X000600Y016747D01*
X000600Y016845D02*
X004135Y016845D01*
X004135Y016944D02*
X000600Y016944D01*
X000600Y017042D02*
X004167Y017042D01*
X004265Y016550D02*
X002487Y016550D01*
X000600Y015466D02*
X019100Y015466D01*
X019100Y015368D02*
X000600Y015368D01*
X000600Y015269D02*
X019100Y015269D01*
X019100Y015171D02*
X000600Y015171D01*
X000600Y015072D02*
X019100Y015072D01*
X019100Y014974D02*
X000600Y014974D01*
X000600Y014875D02*
X019100Y014875D01*
X019100Y014777D02*
X000600Y014777D01*
X000600Y013496D02*
X004166Y013496D01*
X004135Y013398D02*
X000600Y013398D01*
X000600Y013299D02*
X004135Y013299D01*
X004150Y013201D02*
X000600Y013201D01*
X000600Y013102D02*
X004190Y013102D01*
X004267Y013004D02*
X000600Y013004D01*
X000600Y012905D02*
X004407Y012905D01*
X004414Y012807D02*
X000600Y012807D01*
X000600Y012708D02*
X004289Y012708D01*
X004228Y012610D02*
X000600Y012610D01*
X000600Y012511D02*
X004193Y012511D01*
X004193Y012413D02*
X000600Y012413D01*
X000600Y012314D02*
X004212Y012314D01*
X004253Y012216D02*
X000600Y012216D01*
X000600Y012117D02*
X004349Y012117D01*
X004851Y012117D02*
X008080Y012117D01*
X008080Y012019D02*
X000600Y012019D01*
X000600Y011920D02*
X008112Y011920D01*
X008153Y011822D02*
X000600Y011822D01*
X000600Y011723D02*
X008242Y011723D01*
X008389Y011625D02*
X000600Y011625D01*
X000600Y011526D02*
X002291Y011526D01*
X002305Y011541D02*
X002159Y011395D01*
X002080Y011203D01*
X002080Y010997D01*
X002159Y010805D01*
X002305Y010659D01*
X002497Y010580D01*
X002703Y010580D01*
X002895Y010659D01*
X003041Y010805D01*
X003120Y010997D01*
X003120Y011203D01*
X003041Y011395D01*
X002895Y011541D01*
X002703Y011620D01*
X002497Y011620D01*
X002305Y011541D01*
X002192Y011428D02*
X000600Y011428D01*
X000600Y011329D02*
X002132Y011329D01*
X002091Y011231D02*
X000600Y011231D01*
X000600Y011132D02*
X002080Y011132D01*
X002080Y011034D02*
X000600Y011034D01*
X000600Y010935D02*
X002105Y010935D01*
X002146Y010837D02*
X000600Y010837D01*
X000600Y010738D02*
X002227Y010738D01*
X002353Y010640D02*
X000600Y010640D01*
X000600Y010541D02*
X015884Y010541D01*
X015786Y010640D02*
X013847Y010640D01*
X013895Y010659D02*
X014041Y010805D01*
X014120Y010997D01*
X014120Y011203D01*
X014041Y011395D01*
X013895Y011541D01*
X013703Y011620D01*
X013497Y011620D01*
X013305Y011541D01*
X013159Y011395D01*
X013080Y011203D01*
X013080Y010997D01*
X013159Y010805D01*
X013305Y010659D01*
X013497Y010580D01*
X013703Y010580D01*
X013895Y010659D01*
X013973Y010738D02*
X015687Y010738D01*
X015589Y010837D02*
X014054Y010837D01*
X014095Y010935D02*
X015490Y010935D01*
X015392Y011034D02*
X014120Y011034D01*
X014120Y011132D02*
X015293Y011132D01*
X015195Y011231D02*
X014109Y011231D01*
X014068Y011329D02*
X015096Y011329D01*
X014998Y011428D02*
X014008Y011428D01*
X013909Y011526D02*
X014899Y011526D01*
X014801Y011625D02*
X011311Y011625D01*
X011458Y011723D02*
X014702Y011723D01*
X014604Y011822D02*
X011547Y011822D01*
X011588Y011920D02*
X014505Y011920D01*
X014407Y012019D02*
X011620Y012019D01*
X011620Y012117D02*
X014308Y012117D01*
X014210Y012216D02*
X011615Y012216D01*
X011574Y012314D02*
X014111Y012314D01*
X014013Y012413D02*
X011523Y012413D01*
X011424Y012511D02*
X013914Y012511D01*
X013816Y012610D02*
X011229Y012610D01*
X010971Y012610D02*
X010805Y012610D01*
X010707Y012708D02*
X013717Y012708D01*
X014030Y012905D02*
X014907Y012905D01*
X014837Y012934D02*
X015008Y012863D01*
X015192Y012863D01*
X015363Y012934D01*
X015494Y013065D01*
X015565Y013236D01*
X015565Y013421D01*
X015494Y013592D01*
X015363Y013723D01*
X015192Y013793D01*
X015008Y013793D01*
X014837Y013723D01*
X014706Y013592D01*
X014635Y013421D01*
X014635Y013236D01*
X014706Y013065D01*
X014837Y012934D01*
X014767Y013004D02*
X013931Y013004D01*
X013833Y013102D02*
X014690Y013102D01*
X014650Y013201D02*
X005050Y013201D01*
X005065Y013299D02*
X014635Y013299D01*
X014635Y013398D02*
X005065Y013398D01*
X005034Y013496D02*
X014666Y013496D01*
X014709Y013595D02*
X012884Y013595D01*
X012965Y013628D02*
X012754Y013541D01*
X012525Y013541D01*
X012314Y013628D01*
X012152Y013790D01*
X012064Y014001D01*
X012064Y014230D01*
X012152Y014441D01*
X012314Y014603D01*
X012525Y014691D01*
X012754Y014691D01*
X012965Y014603D01*
X013127Y014441D01*
X013161Y014360D01*
X017039Y014360D01*
X017073Y014441D01*
X017235Y014603D01*
X017446Y014691D01*
X017675Y014691D01*
X017886Y014603D01*
X018048Y014441D01*
X018136Y014230D01*
X018136Y014001D01*
X018048Y013790D01*
X017886Y013628D01*
X017675Y013541D01*
X017446Y013541D01*
X017235Y013628D01*
X017073Y013790D01*
X016986Y014000D01*
X013214Y014000D01*
X013127Y013790D01*
X012965Y013628D01*
X013030Y013693D02*
X014807Y013693D01*
X015003Y013792D02*
X013127Y013792D01*
X013168Y013890D02*
X017032Y013890D01*
X017073Y013792D02*
X015197Y013792D01*
X015393Y013693D02*
X017170Y013693D01*
X017316Y013595D02*
X015491Y013595D01*
X015534Y013496D02*
X019100Y013496D01*
X019100Y013398D02*
X015565Y013398D01*
X015565Y013299D02*
X019100Y013299D01*
X019100Y013201D02*
X015550Y013201D01*
X015510Y013102D02*
X019100Y013102D01*
X019100Y013004D02*
X015433Y013004D01*
X015293Y012905D02*
X019100Y012905D01*
X019100Y012807D02*
X015286Y012807D01*
X015331Y012788D02*
X015181Y012850D01*
X015019Y012850D01*
X014869Y012788D01*
X014755Y012673D01*
X014693Y012524D01*
X014693Y012361D01*
X014755Y012212D01*
X014869Y012097D01*
X015019Y012035D01*
X015181Y012035D01*
X015244Y012061D01*
X016240Y011065D01*
X016345Y010960D01*
X017095Y010960D01*
X017159Y010805D01*
X017305Y010659D01*
X017497Y010580D01*
X017703Y010580D01*
X017895Y010659D01*
X018041Y010805D01*
X018120Y010997D01*
X018120Y011203D01*
X018041Y011395D01*
X017895Y011541D01*
X017703Y011620D01*
X017497Y011620D01*
X017305Y011541D01*
X017159Y011395D01*
X017128Y011320D01*
X016495Y011320D01*
X015492Y012323D01*
X015507Y012361D01*
X015507Y012524D01*
X015445Y012673D01*
X015331Y012788D01*
X015411Y012708D02*
X019100Y012708D01*
X019100Y012610D02*
X015472Y012610D01*
X015507Y012511D02*
X019100Y012511D01*
X019100Y012413D02*
X015507Y012413D01*
X015501Y012314D02*
X019100Y012314D01*
X019100Y012216D02*
X015599Y012216D01*
X015698Y012117D02*
X019100Y012117D01*
X019100Y012019D02*
X015796Y012019D01*
X015895Y011920D02*
X019100Y011920D01*
X019100Y011822D02*
X015993Y011822D01*
X016092Y011723D02*
X019100Y011723D01*
X019100Y011625D02*
X016190Y011625D01*
X016289Y011526D02*
X017291Y011526D01*
X017192Y011428D02*
X016387Y011428D01*
X016486Y011329D02*
X017132Y011329D01*
X017105Y010935D02*
X016000Y010935D01*
X016098Y010837D02*
X017146Y010837D01*
X017227Y010738D02*
X016197Y010738D01*
X016295Y010640D02*
X017353Y010640D01*
X017434Y010344D02*
X016591Y010344D01*
X016689Y010246D02*
X017260Y010246D01*
X017162Y010147D02*
X016788Y010147D01*
X016886Y010049D02*
X017119Y010049D01*
X016771Y009655D02*
X014082Y009655D01*
X014120Y009747D02*
X014041Y009555D01*
X013895Y009409D01*
X013703Y009330D01*
X013497Y009330D01*
X013305Y009409D01*
X013159Y009555D01*
X013080Y009747D01*
X013080Y009953D01*
X013159Y010145D01*
X013305Y010291D01*
X013497Y010370D01*
X013703Y010370D01*
X013895Y010291D01*
X014041Y010145D01*
X014120Y009953D01*
X014120Y009747D01*
X014120Y009753D02*
X016672Y009753D01*
X016574Y009852D02*
X014120Y009852D01*
X014120Y009950D02*
X016475Y009950D01*
X016377Y010049D02*
X014081Y010049D01*
X014038Y010147D02*
X016278Y010147D01*
X016180Y010246D02*
X013940Y010246D01*
X013766Y010344D02*
X016081Y010344D01*
X015983Y010443D02*
X000600Y010443D01*
X000600Y010344D02*
X002434Y010344D01*
X002497Y010370D02*
X002305Y010291D01*
X002159Y010145D01*
X002080Y009953D01*
X002080Y009747D01*
X002159Y009555D01*
X002305Y009409D01*
X002497Y009330D01*
X002703Y009330D01*
X002895Y009409D01*
X003041Y009555D01*
X003120Y009747D01*
X003120Y009953D01*
X003041Y010145D01*
X002895Y010291D01*
X002703Y010370D01*
X002497Y010370D01*
X002260Y010246D02*
X000600Y010246D01*
X000600Y010147D02*
X002162Y010147D01*
X002119Y010049D02*
X000600Y010049D01*
X000600Y009950D02*
X002080Y009950D01*
X002080Y009852D02*
X000600Y009852D01*
X000600Y009753D02*
X002080Y009753D01*
X002118Y009655D02*
X000600Y009655D01*
X000600Y009556D02*
X002159Y009556D01*
X002257Y009458D02*
X000600Y009458D01*
X000600Y009359D02*
X002426Y009359D01*
X002497Y009120D02*
X002305Y009041D01*
X002159Y008895D01*
X002080Y008703D01*
X002080Y008497D01*
X002159Y008305D01*
X002305Y008159D01*
X002497Y008080D01*
X002703Y008080D01*
X002895Y008159D01*
X003041Y008305D01*
X003120Y008497D01*
X003120Y008703D01*
X003041Y008895D01*
X002895Y009041D01*
X002703Y009120D01*
X002497Y009120D01*
X002360Y009064D02*
X000600Y009064D01*
X000600Y009162D02*
X008345Y009162D01*
X008397Y009110D02*
X008803Y009110D01*
X009090Y009397D01*
X009090Y009803D01*
X008803Y010090D01*
X008397Y010090D01*
X008110Y009803D01*
X008110Y009397D01*
X008397Y009110D01*
X008397Y009090D02*
X008110Y008803D01*
X008110Y008397D01*
X008397Y008110D01*
X008803Y008110D01*
X009090Y008397D01*
X009090Y008803D01*
X008803Y009090D01*
X008397Y009090D01*
X008371Y009064D02*
X006840Y009064D01*
X006895Y009041D02*
X006703Y009120D01*
X006497Y009120D01*
X006305Y009041D01*
X006159Y008895D01*
X006080Y008703D01*
X006080Y008497D01*
X006159Y008305D01*
X006305Y008159D01*
X006497Y008080D01*
X006703Y008080D01*
X006895Y008159D01*
X007041Y008305D01*
X007113Y008480D01*
X007465Y008480D01*
X008126Y007819D01*
X008110Y007803D01*
X008110Y007397D01*
X008397Y007110D01*
X008803Y007110D01*
X009090Y007397D01*
X009090Y007803D01*
X008803Y008090D01*
X008397Y008090D01*
X008381Y008074D01*
X007720Y008735D01*
X007615Y008840D01*
X007063Y008840D01*
X007041Y008895D01*
X006895Y009041D01*
X006970Y008965D02*
X008272Y008965D01*
X008174Y008867D02*
X007052Y008867D01*
X007110Y008473D02*
X007473Y008473D01*
X007571Y008374D02*
X007069Y008374D01*
X007011Y008276D02*
X007670Y008276D01*
X007768Y008177D02*
X006912Y008177D01*
X006288Y008177D02*
X002912Y008177D01*
X003011Y008276D02*
X006189Y008276D01*
X006131Y008374D02*
X003069Y008374D01*
X003110Y008473D02*
X006090Y008473D01*
X006080Y008571D02*
X003120Y008571D01*
X003120Y008670D02*
X006080Y008670D01*
X006107Y008768D02*
X003093Y008768D01*
X003052Y008867D02*
X006148Y008867D01*
X006230Y008965D02*
X002970Y008965D01*
X002840Y009064D02*
X006360Y009064D01*
X006497Y009330D02*
X006305Y009409D01*
X006159Y009555D01*
X006080Y009747D01*
X006080Y009953D01*
X006159Y010145D01*
X006305Y010291D01*
X006497Y010370D01*
X006703Y010370D01*
X006895Y010291D01*
X007041Y010145D01*
X007120Y009953D01*
X007120Y009747D01*
X007041Y009555D01*
X006895Y009409D01*
X006703Y009330D01*
X006497Y009330D01*
X006426Y009359D02*
X002774Y009359D01*
X002943Y009458D02*
X006257Y009458D01*
X006159Y009556D02*
X003041Y009556D01*
X003082Y009655D02*
X006118Y009655D01*
X006080Y009753D02*
X003120Y009753D01*
X003120Y009852D02*
X006080Y009852D01*
X006080Y009950D02*
X003120Y009950D01*
X003081Y010049D02*
X006119Y010049D01*
X006162Y010147D02*
X003038Y010147D01*
X002940Y010246D02*
X006260Y010246D01*
X006434Y010344D02*
X002766Y010344D01*
X002847Y010640D02*
X006353Y010640D01*
X006305Y010659D02*
X006497Y010580D01*
X006703Y010580D01*
X006895Y010659D01*
X007041Y010805D01*
X007120Y010997D01*
X007120Y011203D01*
X007041Y011395D01*
X006895Y011541D01*
X006703Y011620D01*
X006497Y011620D01*
X006305Y011541D01*
X006159Y011395D01*
X006080Y011203D01*
X006080Y010997D01*
X006159Y010805D01*
X006305Y010659D01*
X006227Y010738D02*
X002973Y010738D01*
X003054Y010837D02*
X006146Y010837D01*
X006105Y010935D02*
X003095Y010935D01*
X003120Y011034D02*
X006080Y011034D01*
X006080Y011132D02*
X003120Y011132D01*
X003109Y011231D02*
X006091Y011231D01*
X006132Y011329D02*
X003068Y011329D01*
X003008Y011428D02*
X006192Y011428D01*
X006291Y011526D02*
X002909Y011526D01*
X004793Y012905D02*
X004810Y012905D01*
X004933Y013004D02*
X004989Y013004D01*
X005010Y013102D02*
X005087Y013102D01*
X005203Y012708D02*
X009093Y012708D01*
X008995Y012610D02*
X008729Y012610D01*
X008471Y012610D02*
X005104Y012610D01*
X005007Y012511D02*
X008276Y012511D01*
X008177Y012413D02*
X005007Y012413D01*
X004988Y012314D02*
X008126Y012314D01*
X008085Y012216D02*
X004947Y012216D01*
X004991Y013595D02*
X006816Y013595D01*
X006670Y013693D02*
X004893Y013693D01*
X007206Y014678D02*
X012494Y014678D01*
X012290Y014580D02*
X007410Y014580D01*
X007509Y014481D02*
X012191Y014481D01*
X012128Y014383D02*
X007572Y014383D01*
X007613Y014284D02*
X012087Y014284D01*
X012064Y014186D02*
X007636Y014186D01*
X007636Y014087D02*
X012064Y014087D01*
X012070Y013989D02*
X007630Y013989D01*
X007590Y013890D02*
X012110Y013890D01*
X012151Y013792D02*
X007549Y013792D01*
X007451Y013693D02*
X012249Y013693D01*
X012395Y013595D02*
X007305Y013595D01*
X009115Y012216D02*
X009335Y012216D01*
X009330Y012203D02*
X009330Y011997D01*
X009409Y011805D01*
X009555Y011659D01*
X009747Y011580D01*
X009953Y011580D01*
X010145Y011659D01*
X010291Y011805D01*
X010370Y011997D01*
X010370Y012203D01*
X010291Y012395D01*
X010145Y012541D01*
X009953Y012620D01*
X009747Y012620D01*
X009555Y012541D01*
X009409Y012395D01*
X009330Y012203D01*
X009330Y012117D02*
X009120Y012117D01*
X009120Y012019D02*
X009330Y012019D01*
X009362Y011920D02*
X009088Y011920D01*
X009047Y011822D02*
X009403Y011822D01*
X009492Y011723D02*
X008958Y011723D01*
X008811Y011625D02*
X009639Y011625D01*
X009637Y011575D02*
X009619Y011575D01*
X009619Y011119D01*
X010075Y011119D01*
X010075Y011137D01*
X010063Y011211D01*
X010040Y011282D01*
X010006Y011349D01*
X009962Y011409D01*
X009909Y011462D01*
X009849Y011506D01*
X009782Y011540D01*
X009711Y011563D01*
X009637Y011575D01*
X009619Y011526D02*
X009581Y011526D01*
X009581Y011575D02*
X009563Y011575D01*
X009489Y011563D01*
X009418Y011540D01*
X009351Y011506D01*
X009291Y011462D01*
X009238Y011409D01*
X009194Y011349D01*
X009160Y011282D01*
X009137Y011211D01*
X009125Y011137D01*
X009125Y011119D01*
X009581Y011119D01*
X009581Y011575D01*
X009581Y011428D02*
X009619Y011428D01*
X009619Y011329D02*
X009581Y011329D01*
X009581Y011231D02*
X009619Y011231D01*
X009619Y011132D02*
X009581Y011132D01*
X009581Y011119D02*
X009619Y011119D01*
X009619Y011081D01*
X010075Y011081D01*
X010075Y011063D01*
X010063Y010989D01*
X010040Y010918D01*
X010006Y010851D01*
X009962Y010791D01*
X009909Y010738D01*
X009849Y010694D01*
X009782Y010660D01*
X009711Y010637D01*
X009637Y010625D01*
X009619Y010625D01*
X009619Y011081D01*
X009581Y011081D01*
X009581Y010625D01*
X009563Y010625D01*
X009489Y010637D01*
X009418Y010660D01*
X009351Y010694D01*
X009291Y010738D01*
X009238Y010791D01*
X009194Y010851D01*
X009160Y010918D01*
X009137Y010989D01*
X009125Y011063D01*
X009125Y011081D01*
X009581Y011081D01*
X009581Y011119D01*
X009581Y011034D02*
X009619Y011034D01*
X009619Y010935D02*
X009581Y010935D01*
X009581Y010837D02*
X009619Y010837D01*
X009619Y010738D02*
X009581Y010738D01*
X009581Y010640D02*
X009619Y010640D01*
X009720Y010640D02*
X010470Y010640D01*
X010506Y010625D02*
X010694Y010625D01*
X010869Y010697D01*
X011003Y010831D01*
X011075Y011006D01*
X011075Y011194D01*
X011003Y011369D01*
X010869Y011503D01*
X010694Y011575D01*
X010506Y011575D01*
X010331Y011503D01*
X010197Y011369D01*
X010125Y011194D01*
X010125Y011006D01*
X010197Y010831D01*
X010331Y010697D01*
X010506Y010625D01*
X010730Y010640D02*
X013353Y010640D01*
X013227Y010738D02*
X010910Y010738D01*
X011005Y010837D02*
X013146Y010837D01*
X013105Y010935D02*
X011046Y010935D01*
X011075Y011034D02*
X013080Y011034D01*
X013080Y011132D02*
X011075Y011132D01*
X011060Y011231D02*
X013091Y011231D01*
X013132Y011329D02*
X011019Y011329D01*
X010944Y011428D02*
X013192Y011428D01*
X013291Y011526D02*
X010813Y011526D01*
X010889Y011625D02*
X010061Y011625D01*
X010208Y011723D02*
X010742Y011723D01*
X010653Y011822D02*
X010297Y011822D01*
X010338Y011920D02*
X010612Y011920D01*
X010580Y012019D02*
X010370Y012019D01*
X010370Y012117D02*
X010580Y012117D01*
X010585Y012216D02*
X010365Y012216D01*
X010324Y012314D02*
X010591Y012314D01*
X010493Y012413D02*
X010273Y012413D01*
X010174Y012511D02*
X010394Y012511D01*
X010296Y012610D02*
X009979Y012610D01*
X009721Y012610D02*
X009504Y012610D01*
X009526Y012511D02*
X009406Y012511D01*
X009427Y012413D02*
X009307Y012413D01*
X009376Y012314D02*
X009209Y012314D01*
X009390Y011526D02*
X006909Y011526D01*
X007008Y011428D02*
X009256Y011428D01*
X009184Y011329D02*
X007068Y011329D01*
X007109Y011231D02*
X009143Y011231D01*
X009125Y011132D02*
X007120Y011132D01*
X007120Y011034D02*
X009130Y011034D01*
X009154Y010935D02*
X007095Y010935D01*
X007054Y010837D02*
X009204Y010837D01*
X009290Y010738D02*
X006973Y010738D01*
X006847Y010640D02*
X009480Y010640D01*
X009910Y010738D02*
X010290Y010738D01*
X010195Y010837D02*
X009996Y010837D01*
X010046Y010935D02*
X010154Y010935D01*
X010125Y011034D02*
X010070Y011034D01*
X010075Y011132D02*
X010125Y011132D01*
X010140Y011231D02*
X010057Y011231D01*
X010016Y011329D02*
X010181Y011329D01*
X010256Y011428D02*
X009944Y011428D01*
X009810Y011526D02*
X010387Y011526D01*
X011397Y010090D02*
X011110Y009803D01*
X011110Y009397D01*
X011397Y009110D01*
X011803Y009110D01*
X012090Y009397D01*
X012090Y009803D01*
X011803Y010090D01*
X011397Y010090D01*
X011356Y010049D02*
X008844Y010049D01*
X008943Y009950D02*
X011257Y009950D01*
X011159Y009852D02*
X009041Y009852D01*
X009090Y009753D02*
X011110Y009753D01*
X011110Y009655D02*
X009090Y009655D01*
X009090Y009556D02*
X011110Y009556D01*
X011110Y009458D02*
X009090Y009458D01*
X009052Y009359D02*
X011148Y009359D01*
X011247Y009261D02*
X008953Y009261D01*
X008855Y009162D02*
X011345Y009162D01*
X011397Y009090D02*
X011110Y008803D01*
X011110Y008397D01*
X011146Y008361D01*
X008825Y006040D01*
X008415Y006040D01*
X007935Y006520D01*
X005615Y006520D01*
X004993Y007142D01*
X005007Y007176D01*
X005007Y007339D01*
X004945Y007488D01*
X004831Y007603D01*
X004681Y007665D01*
X004519Y007665D01*
X004369Y007603D01*
X004255Y007488D01*
X004193Y007339D01*
X004193Y007176D01*
X004255Y007027D01*
X004369Y006912D01*
X004519Y006850D01*
X004681Y006850D01*
X004748Y006878D01*
X004857Y006768D01*
X004692Y006837D01*
X004508Y006837D01*
X004337Y006766D01*
X004206Y006635D01*
X004135Y006464D01*
X004135Y006279D01*
X004206Y006108D01*
X004337Y005977D01*
X004508Y005907D01*
X004692Y005907D01*
X004863Y005977D01*
X004994Y006108D01*
X005065Y006279D01*
X005065Y006464D01*
X004997Y006629D01*
X005360Y006265D01*
X005465Y006160D01*
X007785Y006160D01*
X008160Y005785D01*
X008265Y005680D01*
X008975Y005680D01*
X011405Y008110D01*
X011803Y008110D01*
X012090Y008397D01*
X012090Y008803D01*
X011803Y009090D01*
X011397Y009090D01*
X011371Y009064D02*
X008829Y009064D01*
X008928Y008965D02*
X011272Y008965D01*
X011174Y008867D02*
X009026Y008867D01*
X009090Y008768D02*
X011110Y008768D01*
X011110Y008670D02*
X009090Y008670D01*
X009090Y008571D02*
X011110Y008571D01*
X011110Y008473D02*
X009090Y008473D01*
X009067Y008374D02*
X011133Y008374D01*
X011061Y008276D02*
X008968Y008276D01*
X008870Y008177D02*
X010962Y008177D01*
X010864Y008079D02*
X008814Y008079D01*
X008913Y007980D02*
X010765Y007980D01*
X010667Y007882D02*
X009011Y007882D01*
X009090Y007783D02*
X010568Y007783D01*
X010470Y007685D02*
X009090Y007685D01*
X009090Y007586D02*
X010371Y007586D01*
X010273Y007488D02*
X009090Y007488D01*
X009082Y007389D02*
X010174Y007389D01*
X010076Y007291D02*
X008983Y007291D01*
X008885Y007192D02*
X009977Y007192D01*
X009879Y007094D02*
X005041Y007094D01*
X005007Y007192D02*
X008315Y007192D01*
X008397Y007090D02*
X008110Y006803D01*
X008110Y006630D01*
X008570Y006630D01*
X008570Y007090D01*
X008397Y007090D01*
X008302Y006995D02*
X005140Y006995D01*
X005238Y006897D02*
X008204Y006897D01*
X008110Y006798D02*
X005337Y006798D01*
X005435Y006700D02*
X008110Y006700D01*
X008110Y006570D02*
X008110Y006397D01*
X008397Y006110D01*
X008570Y006110D01*
X008570Y006570D01*
X008110Y006570D01*
X008110Y006503D02*
X007952Y006503D01*
X008051Y006404D02*
X008110Y006404D01*
X008149Y006306D02*
X008202Y006306D01*
X008248Y006207D02*
X008300Y006207D01*
X008346Y006109D02*
X008894Y006109D01*
X008803Y006110D02*
X009090Y006397D01*
X009090Y006570D01*
X008630Y006570D01*
X008630Y006630D01*
X008570Y006630D01*
X008570Y006570D01*
X008630Y006570D01*
X008630Y006110D01*
X008803Y006110D01*
X008900Y006207D02*
X008992Y006207D01*
X008998Y006306D02*
X009091Y006306D01*
X009090Y006404D02*
X009189Y006404D01*
X009090Y006503D02*
X009288Y006503D01*
X009386Y006601D02*
X008630Y006601D01*
X008630Y006630D02*
X009090Y006630D01*
X009090Y006803D01*
X008803Y007090D01*
X008630Y007090D01*
X008630Y006630D01*
X008570Y006601D02*
X005534Y006601D01*
X005320Y006306D02*
X005065Y006306D01*
X005065Y006404D02*
X005221Y006404D01*
X005123Y006503D02*
X005049Y006503D01*
X005024Y006601D02*
X005008Y006601D01*
X004827Y006798D02*
X004786Y006798D01*
X004414Y006798D02*
X000600Y006798D01*
X000600Y006700D02*
X004270Y006700D01*
X004192Y006601D02*
X000600Y006601D01*
X000600Y006503D02*
X004151Y006503D01*
X004135Y006404D02*
X000600Y006404D01*
X000600Y006306D02*
X004135Y006306D01*
X004165Y006207D02*
X000600Y006207D01*
X000600Y006109D02*
X001903Y006109D01*
X001814Y006072D02*
X001652Y005910D01*
X001564Y005699D01*
X001564Y005470D01*
X001652Y005259D01*
X001814Y005097D01*
X002025Y005009D01*
X002254Y005009D01*
X002465Y005097D01*
X002627Y005259D01*
X002714Y005470D01*
X002714Y005699D01*
X002627Y005910D01*
X002465Y006072D01*
X002254Y006159D01*
X002025Y006159D01*
X001814Y006072D01*
X001752Y006010D02*
X000600Y006010D01*
X000600Y005912D02*
X001653Y005912D01*
X001612Y005813D02*
X000600Y005813D01*
X000600Y005715D02*
X001571Y005715D01*
X001564Y005616D02*
X000600Y005616D01*
X000600Y005518D02*
X001564Y005518D01*
X001585Y005419D02*
X000600Y005419D01*
X000600Y005321D02*
X001626Y005321D01*
X001688Y005222D02*
X000600Y005222D01*
X000600Y005124D02*
X001787Y005124D01*
X001987Y005025D02*
X000600Y005025D01*
X000600Y004927D02*
X008109Y004927D01*
X008080Y004997D02*
X008159Y004805D01*
X008305Y004659D01*
X008497Y004580D01*
X008703Y004580D01*
X008895Y004659D01*
X009041Y004805D01*
X009120Y004997D01*
X009120Y005203D01*
X009041Y005395D01*
X008895Y005541D01*
X008703Y005620D01*
X008497Y005620D01*
X008305Y005541D01*
X008159Y005395D01*
X008080Y005203D01*
X008080Y004997D01*
X008080Y005025D02*
X007213Y005025D01*
X007175Y005009D02*
X007386Y005097D01*
X007548Y005259D01*
X007636Y005470D01*
X007636Y005699D01*
X007548Y005910D01*
X007386Y006072D01*
X007175Y006159D01*
X006946Y006159D01*
X006735Y006072D01*
X006573Y005910D01*
X006486Y005699D01*
X006486Y005470D01*
X006573Y005259D01*
X006735Y005097D01*
X006946Y005009D01*
X007175Y005009D01*
X007413Y005124D02*
X008080Y005124D01*
X008088Y005222D02*
X007512Y005222D01*
X007574Y005321D02*
X008128Y005321D01*
X008184Y005419D02*
X007615Y005419D01*
X007636Y005518D02*
X008282Y005518D01*
X008231Y005715D02*
X007629Y005715D01*
X007636Y005616D02*
X008487Y005616D01*
X008713Y005616D02*
X009737Y005616D01*
X009747Y005620D02*
X009555Y005541D01*
X009409Y005395D01*
X009330Y005203D01*
X009330Y004997D01*
X009409Y004805D01*
X009555Y004659D01*
X009747Y004580D01*
X009953Y004580D01*
X010145Y004659D01*
X010291Y004805D01*
X010370Y004997D01*
X010370Y005203D01*
X010291Y005395D01*
X010145Y005541D01*
X009953Y005620D01*
X009747Y005620D01*
X009963Y005616D02*
X010987Y005616D01*
X010997Y005620D02*
X010805Y005541D01*
X010659Y005395D01*
X010580Y005203D01*
X010580Y004997D01*
X010659Y004805D01*
X010805Y004659D01*
X010997Y004580D01*
X011203Y004580D01*
X011395Y004659D01*
X011541Y004805D01*
X011620Y004997D01*
X011620Y005203D01*
X011541Y005395D01*
X011395Y005541D01*
X011203Y005620D01*
X010997Y005620D01*
X011213Y005616D02*
X012064Y005616D01*
X012064Y005699D02*
X012064Y005470D01*
X012152Y005259D01*
X012314Y005097D01*
X012525Y005009D01*
X012754Y005009D01*
X012965Y005097D01*
X013127Y005259D01*
X013214Y005470D01*
X013214Y005699D01*
X013127Y005910D01*
X012965Y006072D01*
X012754Y006159D01*
X012525Y006159D01*
X012314Y006072D01*
X012152Y005910D01*
X012064Y005699D01*
X012071Y005715D02*
X009009Y005715D01*
X009108Y005813D02*
X012112Y005813D01*
X012153Y005912D02*
X009206Y005912D01*
X009305Y006010D02*
X012252Y006010D01*
X012403Y006109D02*
X009403Y006109D01*
X009502Y006207D02*
X011300Y006207D01*
X011397Y006110D02*
X011110Y006397D01*
X011110Y006803D01*
X011397Y007090D01*
X011803Y007090D01*
X012090Y006803D01*
X012090Y006397D01*
X011803Y006110D01*
X011397Y006110D01*
X011202Y006306D02*
X009600Y006306D01*
X009699Y006404D02*
X011110Y006404D01*
X011110Y006503D02*
X009797Y006503D01*
X009896Y006601D02*
X011110Y006601D01*
X011110Y006700D02*
X009994Y006700D01*
X010093Y006798D02*
X011110Y006798D01*
X011204Y006897D02*
X010191Y006897D01*
X010290Y006995D02*
X011302Y006995D01*
X011397Y007110D02*
X011803Y007110D01*
X012090Y007397D01*
X012090Y007803D01*
X012074Y007819D01*
X012735Y008480D01*
X013087Y008480D01*
X013159Y008305D01*
X013305Y008159D01*
X013497Y008080D01*
X013703Y008080D01*
X013895Y008159D01*
X014041Y008305D01*
X014120Y008497D01*
X014120Y008703D01*
X014041Y008895D01*
X013895Y009041D01*
X013703Y009120D01*
X013497Y009120D01*
X013305Y009041D01*
X013159Y008895D01*
X013137Y008840D01*
X012585Y008840D01*
X012480Y008735D01*
X011819Y008074D01*
X011803Y008090D01*
X011397Y008090D01*
X011110Y007803D01*
X011110Y007397D01*
X011397Y007110D01*
X011315Y007192D02*
X010487Y007192D01*
X010585Y007291D02*
X011217Y007291D01*
X011118Y007389D02*
X010684Y007389D01*
X010782Y007488D02*
X011110Y007488D01*
X011110Y007586D02*
X010881Y007586D01*
X010979Y007685D02*
X011110Y007685D01*
X011110Y007783D02*
X011078Y007783D01*
X011176Y007882D02*
X011189Y007882D01*
X011275Y007980D02*
X011287Y007980D01*
X011373Y008079D02*
X011386Y008079D01*
X011814Y008079D02*
X011824Y008079D01*
X011870Y008177D02*
X011922Y008177D01*
X011968Y008276D02*
X012021Y008276D01*
X012067Y008374D02*
X012119Y008374D01*
X012090Y008473D02*
X012218Y008473D01*
X012316Y008571D02*
X012090Y008571D01*
X012090Y008670D02*
X012415Y008670D01*
X012513Y008768D02*
X012090Y008768D01*
X012026Y008867D02*
X013148Y008867D01*
X013230Y008965D02*
X011928Y008965D01*
X011829Y009064D02*
X013360Y009064D01*
X013426Y009359D02*
X012052Y009359D01*
X012090Y009458D02*
X013257Y009458D01*
X013159Y009556D02*
X012090Y009556D01*
X012090Y009655D02*
X013118Y009655D01*
X013080Y009753D02*
X012090Y009753D01*
X012041Y009852D02*
X013080Y009852D01*
X013080Y009950D02*
X011943Y009950D01*
X011844Y010049D02*
X013119Y010049D01*
X013162Y010147D02*
X007038Y010147D01*
X007081Y010049D02*
X008356Y010049D01*
X008257Y009950D02*
X007120Y009950D01*
X007120Y009852D02*
X008159Y009852D01*
X008110Y009753D02*
X007120Y009753D01*
X007082Y009655D02*
X008110Y009655D01*
X008110Y009556D02*
X007041Y009556D01*
X006943Y009458D02*
X008110Y009458D01*
X008148Y009359D02*
X006774Y009359D01*
X006940Y010246D02*
X013260Y010246D01*
X013434Y010344D02*
X006766Y010344D01*
X007687Y008768D02*
X008110Y008768D01*
X008110Y008670D02*
X007785Y008670D01*
X007884Y008571D02*
X008110Y008571D01*
X008110Y008473D02*
X007982Y008473D01*
X008081Y008374D02*
X008133Y008374D01*
X008179Y008276D02*
X008232Y008276D01*
X008278Y008177D02*
X008330Y008177D01*
X008376Y008079D02*
X008386Y008079D01*
X008064Y007882D02*
X000600Y007882D01*
X000600Y007980D02*
X007965Y007980D01*
X007867Y008079D02*
X000600Y008079D01*
X000600Y008177D02*
X002288Y008177D01*
X002189Y008276D02*
X000600Y008276D01*
X000600Y008374D02*
X002131Y008374D01*
X002090Y008473D02*
X000600Y008473D01*
X000600Y008571D02*
X002080Y008571D01*
X002080Y008670D02*
X000600Y008670D01*
X000600Y008768D02*
X002107Y008768D01*
X002148Y008867D02*
X000600Y008867D01*
X000600Y008965D02*
X002230Y008965D01*
X000600Y009261D02*
X008247Y009261D01*
X008110Y007783D02*
X000600Y007783D01*
X000600Y007685D02*
X008110Y007685D01*
X008110Y007586D02*
X004848Y007586D01*
X004946Y007488D02*
X008110Y007488D01*
X008118Y007389D02*
X004987Y007389D01*
X005007Y007291D02*
X008217Y007291D01*
X008570Y006995D02*
X008630Y006995D01*
X008630Y006897D02*
X008570Y006897D01*
X008570Y006798D02*
X008630Y006798D01*
X008630Y006700D02*
X008570Y006700D01*
X008570Y006503D02*
X008630Y006503D01*
X008630Y006404D02*
X008570Y006404D01*
X008570Y006306D02*
X008630Y006306D01*
X008630Y006207D02*
X008570Y006207D01*
X008132Y005813D02*
X007588Y005813D01*
X007547Y005912D02*
X008034Y005912D01*
X007935Y006010D02*
X007448Y006010D01*
X007297Y006109D02*
X007837Y006109D01*
X008918Y005518D02*
X009532Y005518D01*
X009434Y005419D02*
X009016Y005419D01*
X009072Y005321D02*
X009378Y005321D01*
X009338Y005222D02*
X009112Y005222D01*
X009120Y005124D02*
X009330Y005124D01*
X009330Y005025D02*
X009120Y005025D01*
X009091Y004927D02*
X009359Y004927D01*
X009400Y004828D02*
X009050Y004828D01*
X008965Y004730D02*
X009485Y004730D01*
X009623Y004631D02*
X008827Y004631D01*
X008373Y004631D02*
X000600Y004631D01*
X000600Y004533D02*
X019100Y004533D01*
X019100Y004631D02*
X011327Y004631D01*
X011465Y004730D02*
X019100Y004730D01*
X019100Y004828D02*
X011550Y004828D01*
X011591Y004927D02*
X019100Y004927D01*
X019100Y005025D02*
X017713Y005025D01*
X017675Y005009D02*
X017886Y005097D01*
X018048Y005259D01*
X018136Y005470D01*
X018136Y005699D01*
X018048Y005910D01*
X017886Y006072D01*
X017675Y006159D01*
X017446Y006159D01*
X017235Y006072D01*
X017073Y005910D01*
X016986Y005699D01*
X016986Y005470D01*
X017073Y005259D01*
X017235Y005097D01*
X017446Y005009D01*
X017675Y005009D01*
X017913Y005124D02*
X019100Y005124D01*
X019100Y005222D02*
X018012Y005222D01*
X018074Y005321D02*
X019100Y005321D01*
X019100Y005419D02*
X018115Y005419D01*
X018136Y005518D02*
X019100Y005518D01*
X019100Y005616D02*
X018136Y005616D01*
X018129Y005715D02*
X019100Y005715D01*
X019100Y005813D02*
X018088Y005813D01*
X018047Y005912D02*
X019100Y005912D01*
X019100Y006010D02*
X017948Y006010D01*
X017797Y006109D02*
X019100Y006109D01*
X019100Y006207D02*
X015535Y006207D01*
X015565Y006279D02*
X015494Y006108D01*
X015363Y005977D01*
X015192Y005907D01*
X015008Y005907D01*
X014837Y005977D01*
X014706Y006108D01*
X014635Y006279D01*
X014635Y006464D01*
X014706Y006635D01*
X014837Y006766D01*
X015008Y006837D01*
X015192Y006837D01*
X015363Y006766D01*
X015494Y006635D01*
X015565Y006464D01*
X015565Y006279D01*
X015565Y006306D02*
X019100Y006306D01*
X019100Y006404D02*
X015565Y006404D01*
X015549Y006503D02*
X019100Y006503D01*
X019100Y006601D02*
X015508Y006601D01*
X015430Y006700D02*
X019100Y006700D01*
X019100Y006798D02*
X015286Y006798D01*
X015293Y006897D02*
X019100Y006897D01*
X019100Y006995D02*
X015414Y006995D01*
X015445Y007027D02*
X015507Y007176D01*
X015507Y007339D01*
X015486Y007391D01*
X016575Y008480D01*
X017087Y008480D01*
X017159Y008305D01*
X017305Y008159D01*
X017497Y008080D01*
X017703Y008080D01*
X017895Y008159D01*
X018041Y008305D01*
X018120Y008497D01*
X018120Y008703D01*
X018041Y008895D01*
X017895Y009041D01*
X017703Y009120D01*
X017497Y009120D01*
X017305Y009041D01*
X017159Y008895D01*
X017137Y008840D01*
X016425Y008840D01*
X016320Y008735D01*
X015230Y007645D01*
X015181Y007665D01*
X015019Y007665D01*
X014869Y007603D01*
X014755Y007488D01*
X014693Y007339D01*
X014693Y007176D01*
X014755Y007027D01*
X014869Y006912D01*
X015019Y006850D01*
X015181Y006850D01*
X015331Y006912D01*
X015445Y007027D01*
X015473Y007094D02*
X019100Y007094D01*
X019100Y007192D02*
X015507Y007192D01*
X015507Y007291D02*
X019100Y007291D01*
X019100Y007389D02*
X015487Y007389D01*
X015582Y007488D02*
X019100Y007488D01*
X019100Y007586D02*
X015681Y007586D01*
X015779Y007685D02*
X019100Y007685D01*
X019100Y007783D02*
X015878Y007783D01*
X015976Y007882D02*
X019100Y007882D01*
X019100Y007980D02*
X016075Y007980D01*
X016173Y008079D02*
X019100Y008079D01*
X019100Y008177D02*
X017912Y008177D01*
X018011Y008276D02*
X019100Y008276D01*
X019100Y008374D02*
X018069Y008374D01*
X018110Y008473D02*
X019100Y008473D01*
X019100Y008571D02*
X018120Y008571D01*
X018120Y008670D02*
X019100Y008670D01*
X019100Y008768D02*
X018093Y008768D01*
X018052Y008867D02*
X019100Y008867D01*
X019100Y008965D02*
X017970Y008965D01*
X017840Y009064D02*
X019100Y009064D01*
X019100Y009162D02*
X011855Y009162D01*
X011953Y009261D02*
X019100Y009261D01*
X019100Y009359D02*
X017774Y009359D01*
X017943Y009458D02*
X019100Y009458D01*
X019100Y009556D02*
X018041Y009556D01*
X018082Y009655D02*
X019100Y009655D01*
X019100Y009753D02*
X018120Y009753D01*
X018120Y009852D02*
X019100Y009852D01*
X019100Y009950D02*
X018120Y009950D01*
X018081Y010049D02*
X019100Y010049D01*
X019100Y010147D02*
X018038Y010147D01*
X017940Y010246D02*
X019100Y010246D01*
X019100Y010344D02*
X017766Y010344D01*
X017847Y010640D02*
X019100Y010640D01*
X019100Y010738D02*
X017973Y010738D01*
X018054Y010837D02*
X019100Y010837D01*
X019100Y010935D02*
X018095Y010935D01*
X018120Y011034D02*
X019100Y011034D01*
X019100Y011132D02*
X018120Y011132D01*
X018109Y011231D02*
X019100Y011231D01*
X019100Y011329D02*
X018068Y011329D01*
X018008Y011428D02*
X019100Y011428D01*
X019100Y011526D02*
X017909Y011526D01*
X019100Y010541D02*
X016394Y010541D01*
X016492Y010443D02*
X019100Y010443D01*
X017426Y009359D02*
X013774Y009359D01*
X013943Y009458D02*
X017257Y009458D01*
X017159Y009556D02*
X014041Y009556D01*
X013840Y009064D02*
X017360Y009064D01*
X017230Y008965D02*
X013970Y008965D01*
X014052Y008867D02*
X017148Y008867D01*
X017090Y008473D02*
X016567Y008473D01*
X016469Y008374D02*
X017131Y008374D01*
X017189Y008276D02*
X016370Y008276D01*
X016272Y008177D02*
X017288Y008177D01*
X016353Y008768D02*
X014093Y008768D01*
X014120Y008670D02*
X016255Y008670D01*
X016156Y008571D02*
X014120Y008571D01*
X014110Y008473D02*
X016058Y008473D01*
X015959Y008374D02*
X014069Y008374D01*
X014011Y008276D02*
X015861Y008276D01*
X015762Y008177D02*
X013912Y008177D01*
X013288Y008177D02*
X012432Y008177D01*
X012530Y008276D02*
X013189Y008276D01*
X013131Y008374D02*
X012629Y008374D01*
X012727Y008473D02*
X013090Y008473D01*
X012333Y008079D02*
X015664Y008079D01*
X015565Y007980D02*
X012235Y007980D01*
X012136Y007882D02*
X015467Y007882D01*
X015368Y007783D02*
X012090Y007783D01*
X012090Y007685D02*
X015270Y007685D01*
X014852Y007586D02*
X012090Y007586D01*
X012090Y007488D02*
X014754Y007488D01*
X014713Y007389D02*
X012082Y007389D01*
X011983Y007291D02*
X014693Y007291D01*
X014693Y007192D02*
X011885Y007192D01*
X011898Y006995D02*
X014786Y006995D01*
X014727Y007094D02*
X010388Y007094D01*
X009780Y006995D02*
X008898Y006995D01*
X008996Y006897D02*
X009682Y006897D01*
X009583Y006798D02*
X009090Y006798D01*
X009090Y006700D02*
X009485Y006700D01*
X010168Y005518D02*
X010782Y005518D01*
X010684Y005419D02*
X010266Y005419D01*
X010322Y005321D02*
X010628Y005321D01*
X010588Y005222D02*
X010362Y005222D01*
X010370Y005124D02*
X010580Y005124D01*
X010580Y005025D02*
X010370Y005025D01*
X010341Y004927D02*
X010609Y004927D01*
X010650Y004828D02*
X010300Y004828D01*
X010215Y004730D02*
X010735Y004730D01*
X010873Y004631D02*
X010077Y004631D01*
X011418Y005518D02*
X012064Y005518D01*
X012085Y005419D02*
X011516Y005419D01*
X011572Y005321D02*
X012126Y005321D01*
X012188Y005222D02*
X011612Y005222D01*
X011620Y005124D02*
X012287Y005124D01*
X012487Y005025D02*
X011620Y005025D01*
X012399Y004139D02*
X007301Y004139D01*
X007386Y004103D02*
X007175Y004191D01*
X006946Y004191D01*
X006735Y004103D01*
X006573Y003941D01*
X006486Y003730D01*
X006486Y003501D01*
X006573Y003290D01*
X006735Y003128D01*
X006946Y003041D01*
X007175Y003041D01*
X007386Y003128D01*
X007548Y003290D01*
X007636Y003501D01*
X007636Y003730D01*
X007548Y003941D01*
X007386Y004103D01*
X007450Y004040D02*
X012250Y004040D01*
X012314Y004103D02*
X012152Y003941D01*
X012064Y003730D01*
X012064Y003501D01*
X012152Y003290D01*
X012314Y003128D01*
X012525Y003041D01*
X012754Y003041D01*
X012965Y003128D01*
X013127Y003290D01*
X013156Y003360D01*
X017044Y003360D01*
X017073Y003290D01*
X017235Y003128D01*
X017446Y003041D01*
X017675Y003041D01*
X017886Y003128D01*
X018048Y003290D01*
X018136Y003501D01*
X018136Y003730D01*
X018048Y003941D01*
X017886Y004103D01*
X017675Y004191D01*
X017446Y004191D01*
X017235Y004103D01*
X017073Y003941D01*
X016986Y003730D01*
X016986Y003720D01*
X013214Y003720D01*
X013214Y003730D01*
X013127Y003941D01*
X012965Y004103D01*
X012754Y004191D01*
X012525Y004191D01*
X012314Y004103D01*
X012152Y003942D02*
X007548Y003942D01*
X007589Y003843D02*
X012111Y003843D01*
X012070Y003745D02*
X007630Y003745D01*
X007636Y003646D02*
X012064Y003646D01*
X012064Y003548D02*
X007636Y003548D01*
X007614Y003449D02*
X012086Y003449D01*
X012127Y003351D02*
X007573Y003351D01*
X007510Y003252D02*
X012190Y003252D01*
X012288Y003154D02*
X007412Y003154D01*
X007209Y003055D02*
X012491Y003055D01*
X012788Y003055D02*
X014691Y003055D01*
X014706Y003092D02*
X014635Y002921D01*
X014635Y002736D01*
X014706Y002565D01*
X014837Y002434D01*
X015008Y002363D01*
X015192Y002363D01*
X015363Y002434D01*
X015494Y002565D01*
X015565Y002736D01*
X015565Y002921D01*
X015494Y003092D01*
X015363Y003223D01*
X015192Y003293D01*
X015008Y003293D01*
X014837Y003223D01*
X014706Y003092D01*
X014768Y003154D02*
X012990Y003154D01*
X013089Y003252D02*
X014908Y003252D01*
X015292Y003252D02*
X017111Y003252D01*
X017048Y003351D02*
X013152Y003351D01*
X013208Y003745D02*
X016992Y003745D01*
X017032Y003843D02*
X013168Y003843D01*
X013127Y003942D02*
X017073Y003942D01*
X017172Y004040D02*
X013028Y004040D01*
X012880Y004139D02*
X017320Y004139D01*
X017801Y004139D02*
X019100Y004139D01*
X019100Y004237D02*
X000600Y004237D01*
X000600Y004139D02*
X001899Y004139D01*
X001814Y004103D02*
X001652Y003941D01*
X001564Y003730D01*
X001564Y003501D01*
X001652Y003290D01*
X001814Y003128D01*
X002025Y003041D01*
X002254Y003041D01*
X002465Y003128D01*
X002627Y003290D01*
X002714Y003501D01*
X002714Y003730D01*
X002627Y003941D01*
X002465Y004103D01*
X002254Y004191D01*
X002025Y004191D01*
X001814Y004103D01*
X001750Y004040D02*
X000600Y004040D01*
X000600Y003942D02*
X001652Y003942D01*
X001611Y003843D02*
X000600Y003843D01*
X000600Y003745D02*
X001570Y003745D01*
X001564Y003646D02*
X000600Y003646D01*
X000600Y003548D02*
X001564Y003548D01*
X001586Y003449D02*
X000600Y003449D01*
X000600Y003351D02*
X001627Y003351D01*
X001690Y003252D02*
X000600Y003252D01*
X000600Y003154D02*
X001788Y003154D01*
X001991Y003055D02*
X000600Y003055D01*
X000600Y002957D02*
X004150Y002957D01*
X004135Y002921D02*
X004206Y003092D01*
X004337Y003223D01*
X004508Y003293D01*
X004692Y003293D01*
X004863Y003223D01*
X004994Y003092D01*
X005065Y002921D01*
X005065Y002736D01*
X004994Y002565D01*
X004863Y002434D01*
X004692Y002363D01*
X004508Y002363D01*
X004337Y002434D01*
X004206Y002565D01*
X004135Y002736D01*
X004135Y002921D01*
X004135Y002858D02*
X000600Y002858D01*
X000600Y002760D02*
X004135Y002760D01*
X004166Y002661D02*
X000600Y002661D01*
X000600Y002563D02*
X004208Y002563D01*
X004307Y002464D02*
X001916Y002464D01*
X002067Y002409D02*
X001762Y002520D01*
X001438Y002520D01*
X001133Y002409D01*
X001133Y002409D01*
X000884Y002200D01*
X000722Y001920D01*
X000722Y001920D01*
X000666Y001600D01*
X000722Y001280D01*
X000884Y001000D01*
X000884Y001000D01*
X001133Y000791D01*
X001438Y000680D01*
X001521Y000680D01*
X001762Y000680D01*
X002067Y000791D01*
X002067Y000791D01*
X002316Y001000D01*
X002478Y001280D01*
X002478Y001280D01*
X002534Y001600D01*
X002478Y001920D01*
X002316Y002200D01*
X002316Y002200D01*
X002067Y002409D01*
X002067Y002409D01*
X002119Y002366D02*
X004502Y002366D01*
X004348Y002267D02*
X002236Y002267D01*
X002334Y002169D02*
X004253Y002169D01*
X004212Y002070D02*
X002391Y002070D01*
X002448Y001972D02*
X004193Y001972D01*
X004193Y001873D02*
X002486Y001873D01*
X002478Y001920D02*
X002478Y001920D01*
X002503Y001775D02*
X004229Y001775D01*
X004290Y001676D02*
X002521Y001676D01*
X002534Y001600D02*
X002534Y001600D01*
X002530Y001578D02*
X004416Y001578D01*
X004784Y001578D02*
X008394Y001578D01*
X008244Y001479D02*
X002513Y001479D01*
X002495Y001381D02*
X008153Y001381D01*
X008113Y001282D02*
X002478Y001282D01*
X002422Y001184D02*
X008080Y001184D01*
X008080Y001085D02*
X002365Y001085D01*
X002316Y001000D02*
X002316Y001000D01*
X002316Y001000D01*
X002300Y000987D02*
X008084Y000987D01*
X008125Y000888D02*
X002183Y000888D01*
X002063Y000790D02*
X008175Y000790D01*
X008274Y000691D02*
X001792Y000691D01*
X001408Y000691D02*
X000600Y000691D01*
X000600Y000790D02*
X001137Y000790D01*
X001017Y000888D02*
X000600Y000888D01*
X000600Y000987D02*
X000900Y000987D01*
X000835Y001085D02*
X000600Y001085D01*
X000600Y001184D02*
X000778Y001184D01*
X000722Y001280D02*
X000722Y001280D01*
X000722Y001282D02*
X000600Y001282D01*
X000600Y001381D02*
X000705Y001381D01*
X000687Y001479D02*
X000600Y001479D01*
X000600Y001578D02*
X000670Y001578D01*
X000666Y001600D02*
X000666Y001600D01*
X000679Y001676D02*
X000600Y001676D01*
X000600Y001775D02*
X000697Y001775D01*
X000714Y001873D02*
X000600Y001873D01*
X000600Y001972D02*
X000752Y001972D01*
X000809Y002070D02*
X000600Y002070D01*
X000600Y002169D02*
X000866Y002169D01*
X000884Y002200D02*
X000884Y002200D01*
X000884Y002200D01*
X000964Y002267D02*
X000600Y002267D01*
X000600Y002366D02*
X001081Y002366D01*
X001284Y002464D02*
X000600Y002464D01*
X002288Y003055D02*
X004191Y003055D01*
X004268Y003154D02*
X002490Y003154D01*
X002589Y003252D02*
X004408Y003252D01*
X004792Y003252D02*
X006611Y003252D01*
X006548Y003351D02*
X002652Y003351D01*
X002693Y003449D02*
X006507Y003449D01*
X006486Y003548D02*
X002714Y003548D01*
X002714Y003646D02*
X006486Y003646D01*
X006492Y003745D02*
X002708Y003745D01*
X002668Y003843D02*
X006532Y003843D01*
X006573Y003942D02*
X002627Y003942D01*
X002528Y004040D02*
X006672Y004040D01*
X006820Y004139D02*
X002380Y004139D01*
X002292Y005025D02*
X006908Y005025D01*
X006708Y005124D02*
X002492Y005124D01*
X002590Y005222D02*
X006610Y005222D01*
X006547Y005321D02*
X002653Y005321D01*
X002693Y005419D02*
X006507Y005419D01*
X006486Y005518D02*
X002714Y005518D01*
X002714Y005616D02*
X006486Y005616D01*
X006492Y005715D02*
X002708Y005715D01*
X002667Y005813D02*
X006533Y005813D01*
X006575Y005912D02*
X004704Y005912D01*
X004896Y006010D02*
X006673Y006010D01*
X006824Y006109D02*
X004994Y006109D01*
X005035Y006207D02*
X005418Y006207D01*
X004496Y005912D02*
X002625Y005912D01*
X002527Y006010D02*
X004304Y006010D01*
X004206Y006109D02*
X002376Y006109D01*
X000600Y006897D02*
X004407Y006897D01*
X004286Y006995D02*
X000600Y006995D01*
X000600Y007094D02*
X004227Y007094D01*
X004193Y007192D02*
X000600Y007192D01*
X000600Y007291D02*
X004193Y007291D01*
X004213Y007389D02*
X000600Y007389D01*
X000600Y007488D02*
X004254Y007488D01*
X004352Y007586D02*
X000600Y007586D01*
X000600Y004828D02*
X008150Y004828D01*
X008235Y004730D02*
X000600Y004730D01*
X000600Y004434D02*
X019100Y004434D01*
X019100Y004336D02*
X000600Y004336D01*
X004698Y002366D02*
X015002Y002366D01*
X015019Y002350D02*
X014869Y002288D01*
X014755Y002173D01*
X014693Y002024D01*
X014693Y001861D01*
X014755Y001712D01*
X014869Y001597D01*
X015019Y001535D01*
X015181Y001535D01*
X015331Y001597D01*
X015445Y001712D01*
X015507Y001861D01*
X015507Y002024D01*
X015445Y002173D01*
X015331Y002288D01*
X015181Y002350D01*
X015019Y002350D01*
X015198Y002366D02*
X017581Y002366D01*
X017633Y002409D02*
X017384Y002200D01*
X017222Y001920D01*
X017222Y001920D01*
X017166Y001600D01*
X017222Y001280D01*
X017384Y001000D01*
X017384Y001000D01*
X017633Y000791D01*
X017938Y000680D01*
X018179Y000680D01*
X018262Y000680D01*
X018262Y000680D01*
X018567Y000791D01*
X018567Y000791D01*
X018816Y001000D01*
X018978Y001280D01*
X018978Y001280D01*
X019034Y001600D01*
X018978Y001920D01*
X018816Y002200D01*
X018816Y002200D01*
X018567Y002409D01*
X018262Y002520D01*
X017938Y002520D01*
X017633Y002409D01*
X017633Y002409D01*
X017784Y002464D02*
X015393Y002464D01*
X015492Y002563D02*
X019100Y002563D01*
X019100Y002661D02*
X015534Y002661D01*
X015565Y002760D02*
X019100Y002760D01*
X019100Y002858D02*
X015565Y002858D01*
X015550Y002957D02*
X019100Y002957D01*
X019100Y003055D02*
X017709Y003055D01*
X017912Y003154D02*
X019100Y003154D01*
X019100Y003252D02*
X018010Y003252D01*
X018073Y003351D02*
X019100Y003351D01*
X019100Y003449D02*
X018114Y003449D01*
X018136Y003548D02*
X019100Y003548D01*
X019100Y003646D02*
X018136Y003646D01*
X018130Y003745D02*
X019100Y003745D01*
X019100Y003843D02*
X018089Y003843D01*
X018048Y003942D02*
X019100Y003942D01*
X019100Y004040D02*
X017950Y004040D01*
X017210Y003154D02*
X015432Y003154D01*
X015509Y003055D02*
X017412Y003055D01*
X017464Y002267D02*
X015352Y002267D01*
X015447Y002169D02*
X017366Y002169D01*
X017384Y002200D02*
X017384Y002200D01*
X017384Y002200D01*
X017309Y002070D02*
X015488Y002070D01*
X015507Y001972D02*
X017252Y001972D01*
X017214Y001873D02*
X015507Y001873D01*
X015471Y001775D02*
X017197Y001775D01*
X017179Y001676D02*
X015410Y001676D01*
X015284Y001578D02*
X017170Y001578D01*
X017166Y001600D02*
X017166Y001600D01*
X017187Y001479D02*
X011456Y001479D01*
X011547Y001381D02*
X017205Y001381D01*
X017222Y001282D02*
X011587Y001282D01*
X011620Y001184D02*
X017278Y001184D01*
X017222Y001280D02*
X017222Y001280D01*
X017335Y001085D02*
X011620Y001085D01*
X011616Y000987D02*
X017400Y000987D01*
X017517Y000888D02*
X011575Y000888D01*
X011525Y000790D02*
X017637Y000790D01*
X017633Y000791D02*
X017633Y000791D01*
X017908Y000691D02*
X011426Y000691D01*
X010774Y000691D02*
X010176Y000691D01*
X010275Y000790D02*
X010675Y000790D01*
X010625Y000888D02*
X010325Y000888D01*
X010366Y000987D02*
X010584Y000987D01*
X010580Y001085D02*
X010370Y001085D01*
X010370Y001184D02*
X010580Y001184D01*
X010613Y001282D02*
X010337Y001282D01*
X010297Y001381D02*
X010551Y001381D01*
X010452Y001479D02*
X010206Y001479D01*
X010354Y001578D02*
X010056Y001578D01*
X010255Y001676D02*
X004910Y001676D01*
X004947Y002169D02*
X014753Y002169D01*
X014712Y002070D02*
X010399Y002070D01*
X010497Y001972D02*
X014693Y001972D01*
X014693Y001873D02*
X010596Y001873D01*
X010694Y001775D02*
X014729Y001775D01*
X014790Y001676D02*
X010793Y001676D01*
X010891Y001578D02*
X010894Y001578D01*
X011306Y001578D02*
X014916Y001578D01*
X014848Y002267D02*
X004852Y002267D01*
X004893Y002464D02*
X014807Y002464D01*
X014708Y002563D02*
X004992Y002563D01*
X005034Y002661D02*
X014666Y002661D01*
X014635Y002760D02*
X005065Y002760D01*
X005065Y002858D02*
X014635Y002858D01*
X014650Y002957D02*
X005050Y002957D01*
X005009Y003055D02*
X006912Y003055D01*
X006710Y003154D02*
X004932Y003154D01*
X008806Y001578D02*
X009644Y001578D01*
X009494Y001479D02*
X008956Y001479D01*
X009047Y001381D02*
X009403Y001381D01*
X009363Y001282D02*
X009087Y001282D01*
X009120Y001184D02*
X009330Y001184D01*
X009330Y001085D02*
X009120Y001085D01*
X009116Y000987D02*
X009334Y000987D01*
X009375Y000888D02*
X009075Y000888D01*
X009025Y000790D02*
X009425Y000790D01*
X009524Y000691D02*
X008926Y000691D01*
X012792Y005025D02*
X017408Y005025D01*
X017208Y005124D02*
X012992Y005124D01*
X013090Y005222D02*
X017110Y005222D01*
X017047Y005321D02*
X013153Y005321D01*
X013193Y005419D02*
X017007Y005419D01*
X016986Y005518D02*
X013214Y005518D01*
X013214Y005616D02*
X016986Y005616D01*
X016992Y005715D02*
X013208Y005715D01*
X013167Y005813D02*
X017033Y005813D01*
X017075Y005912D02*
X015204Y005912D01*
X014996Y005912D02*
X013125Y005912D01*
X013027Y006010D02*
X014804Y006010D01*
X014706Y006109D02*
X012876Y006109D01*
X012090Y006404D02*
X014635Y006404D01*
X014635Y006306D02*
X011998Y006306D01*
X011900Y006207D02*
X014665Y006207D01*
X014651Y006503D02*
X012090Y006503D01*
X012090Y006601D02*
X014692Y006601D01*
X014770Y006700D02*
X012090Y006700D01*
X012090Y006798D02*
X014914Y006798D01*
X014907Y006897D02*
X011996Y006897D01*
X015396Y006010D02*
X017173Y006010D01*
X017324Y006109D02*
X015494Y006109D01*
X018416Y002464D02*
X019100Y002464D01*
X019100Y002366D02*
X018619Y002366D01*
X018567Y002409D02*
X018567Y002409D01*
X018736Y002267D02*
X019100Y002267D01*
X019100Y002169D02*
X018834Y002169D01*
X018891Y002070D02*
X019100Y002070D01*
X019100Y001972D02*
X018948Y001972D01*
X018978Y001920D02*
X018978Y001920D01*
X018986Y001873D02*
X019100Y001873D01*
X019100Y001775D02*
X019003Y001775D01*
X019021Y001676D02*
X019100Y001676D01*
X019100Y001578D02*
X019030Y001578D01*
X019034Y001600D02*
X019034Y001600D01*
X019013Y001479D02*
X019100Y001479D01*
X019100Y001381D02*
X018995Y001381D01*
X018978Y001282D02*
X019100Y001282D01*
X019100Y001184D02*
X018922Y001184D01*
X018865Y001085D02*
X019100Y001085D01*
X019100Y000987D02*
X018800Y000987D01*
X018816Y001000D02*
X018816Y001000D01*
X018816Y001000D01*
X018683Y000888D02*
X019100Y000888D01*
X019100Y000790D02*
X018563Y000790D01*
X018292Y000691D02*
X019100Y000691D01*
X016272Y011034D02*
X015901Y011034D01*
X015803Y011132D02*
X016173Y011132D01*
X016075Y011231D02*
X015704Y011231D01*
X015606Y011329D02*
X015976Y011329D01*
X015878Y011428D02*
X015507Y011428D01*
X015409Y011526D02*
X015779Y011526D01*
X015681Y011625D02*
X015310Y011625D01*
X015212Y011723D02*
X015582Y011723D01*
X015484Y011822D02*
X015113Y011822D01*
X015015Y011920D02*
X015385Y011920D01*
X015287Y012019D02*
X014916Y012019D01*
X014849Y012117D02*
X014818Y012117D01*
X014753Y012216D02*
X014719Y012216D01*
X014712Y012314D02*
X014621Y012314D01*
X014693Y012413D02*
X014522Y012413D01*
X014424Y012511D02*
X014693Y012511D01*
X014728Y012610D02*
X014325Y012610D01*
X014227Y012708D02*
X014789Y012708D01*
X014914Y012807D02*
X014128Y012807D01*
X013209Y013989D02*
X016991Y013989D01*
X017049Y014383D02*
X013151Y014383D01*
X013087Y014481D02*
X017113Y014481D01*
X017211Y014580D02*
X012989Y014580D01*
X012784Y014678D02*
X017416Y014678D01*
X017706Y014678D02*
X019100Y014678D01*
X019100Y014580D02*
X017910Y014580D01*
X018009Y014481D02*
X019100Y014481D01*
X019100Y014383D02*
X018072Y014383D01*
X018113Y014284D02*
X019100Y014284D01*
X019100Y014186D02*
X018136Y014186D01*
X018136Y014087D02*
X019100Y014087D01*
X019100Y013989D02*
X018130Y013989D01*
X018090Y013890D02*
X019100Y013890D01*
X019100Y013792D02*
X018049Y013792D01*
X017951Y013693D02*
X019100Y013693D01*
X019100Y013595D02*
X017805Y013595D01*
X017114Y016451D02*
X015300Y016451D01*
X015435Y016550D02*
X017213Y016550D01*
X011139Y016550D02*
X011061Y016550D01*
X011061Y016451D02*
X011139Y016451D01*
X011139Y016353D02*
X011061Y016353D01*
X011061Y016254D02*
X011139Y016254D01*
X011139Y016156D02*
X011061Y016156D01*
X011061Y016057D02*
X011139Y016057D01*
X011139Y015959D02*
X011061Y015959D01*
X011061Y015860D02*
X011139Y015860D01*
X011139Y015762D02*
X011061Y015762D01*
X011061Y015663D02*
X011139Y015663D01*
D18*
X009850Y016100D02*
X009780Y016100D01*
X009700Y016180D01*
X008740Y016180D01*
X008660Y016100D01*
X008600Y016100D01*
X007060Y014180D02*
X007061Y014116D01*
X007060Y014180D02*
X002180Y014180D01*
X002139Y014116D01*
X004600Y012443D02*
X004660Y012500D01*
X004900Y012740D01*
X004980Y012740D01*
X005220Y012980D01*
X013700Y012980D01*
X016900Y009780D01*
X017540Y009780D01*
X017600Y009850D01*
X017600Y011100D02*
X017540Y011140D01*
X016420Y011140D01*
X015140Y012420D01*
X015100Y012443D01*
X017561Y014116D02*
X017540Y014180D01*
X012660Y014180D01*
X012639Y014116D01*
X011100Y012100D02*
X011060Y012100D01*
X010340Y012820D01*
X009460Y012820D01*
X008740Y012100D01*
X008600Y012100D01*
X007540Y008660D02*
X006660Y008660D01*
X006600Y008600D01*
X007540Y008660D02*
X008600Y007600D01*
X007860Y006340D02*
X008340Y005860D01*
X008900Y005860D01*
X011620Y008580D01*
X011600Y008600D01*
X011600Y007600D02*
X012660Y008660D01*
X013540Y008660D01*
X013600Y008600D01*
X015100Y007257D02*
X015140Y007300D01*
X016500Y008660D01*
X017540Y008660D01*
X017600Y008600D01*
X017561Y003616D02*
X017540Y003540D01*
X012660Y003540D01*
X012639Y003616D01*
X007860Y006340D02*
X005540Y006340D01*
X004660Y007220D01*
X004600Y007257D01*
D19*
X004600Y001943D02*
X010257Y001943D01*
X011100Y001100D01*
M02*
