%
M48
M72
T01C0.0276
T02C0.0315
T03C0.0320
T04C0.0354
T05C0.0440
T06C0.0472
T07C0.0630
T08C0.1200
%
T01
X9600Y11100
X10600Y11100
T02
X15100Y12443
X15100Y7257
X15100Y1943
X4600Y1943
X4600Y7257
X4600Y12443
X4600Y17757
X15100Y17757
T03
X11600Y9600
X11600Y8600
X11600Y7600
X11600Y6600
X8600Y6600
X8600Y7600
X8600Y8600
X8600Y9600
T04
X6600Y9850
X6600Y11100
X8600Y12100
X9850Y12100
X11100Y12100
X13600Y11100
X13600Y9850
X13600Y8600
X11100Y5100
X9850Y5100
X8600Y5100
X6600Y8600
X2600Y8600
X2600Y9850
X2600Y11100
X8600Y16100
X9850Y16100
X11100Y16100
X17600Y11100
X17600Y9850
X17600Y8600
X11100Y1100
X9850Y1100
X8600Y1100
T05
X9100Y18100
X11100Y18100
T06
X12639Y16084
X12639Y14116
X17561Y14116
X17561Y16084
X17561Y5584
X17561Y3616
X12639Y3616
X12639Y5584
X7061Y5584
X7061Y3616
X2139Y3616
X2139Y5584
X2139Y14116
X2139Y16084
X7061Y16084
X7061Y14116
T07
X4600Y13328
X4600Y16872
X4600Y6372
X4600Y2828
X15100Y2828
X15100Y6372
X15100Y13328
X15100Y16872
T08
X1600Y1600
X1600Y18100
X18100Y18100
X18100Y1600
M30
